<?xml version="1.0" encoding="UTF-8"?>
<svg width="185px" height="235px" viewBox="0 0 185 235" version="1.1" xmlns="http://www.w3.org/2000/svg" xmlns:xlink="http://www.w3.org/1999/xlink">
    <!-- Generator: Sketch 45.2 (43514) - http://www.bohemiancoding.com/sketch -->
    <title>bolo</title>
    <desc>Created with Sketch.</desc>
    <defs></defs>
    <g id="telas-principais" stroke="none" stroke-width="1" fill="none" fill-rule="evenodd">
        <g id="Artboard" transform="translate(-855.000000, -301.000000)" fill-rule="nonzero">
            <g id="Group-7" transform="translate(-36.000000, 181.000000)">
                <g id="card-principal" transform="translate(292.000000, 50.000000)">
                    <g id="Group" transform="translate(82.000000, 70.000000)">
                        <g id="Group-4">
                            <g id="bolo" transform="translate(517.033294, 0.781533)">
                                <path d="M110.10574,172.958821 L109.151904,172.568709 C109.276495,172.472712 121.531345,162.815891 119.251943,141.841716 C116.200485,113.765855 138.712644,90.9473247 138.939359,90.72061 L139.960596,91.0617033 C139.733881,91.2863755 117.354483,113.9844 120.389601,141.890735 C122.6833,163.077328 110.232373,172.862825 110.10574,172.958821 Z" id="Shape" fill="#E8EDFB"></path>
                                <path d="M140.189353,49.5647397 C131.476155,62.2648489 130.003531,82.7978496 140.583551,90.0547631 C151.163571,97.3116766 169.790943,88.5453741 178.500056,75.8432224 C187.209169,63.1410707 185.69978,46.9646691 175.11976,39.7077555 C164.53974,32.450842 148.896424,36.8625879 140.189353,49.5647397 Z" id="Shape" fill="#31C7A4"></path>
                                <polygon id="Shape" fill="#31C7A4" points="135.987982 90.6021464 141.727337 94.5379956 143.056988 90.2426708 139.517379 87.8141681"></polygon>
                                <path d="M101.049406,152.877208 L100.124165,152.597389 C100.177269,152.548369 105.563275,147.62192 107.178873,139.88094 C107.63843,137.673024 106.770378,135.226139 105.914581,132.860953 C105.557148,131.862183 105.18746,130.830733 104.934193,129.848303 C99.1029272,107.246275 105.534681,83.4391868 124.049716,59.0928853 L125.021934,59.3216425 C106.555918,83.6046272 100.138462,107.340229 105.953388,129.868727 C106.20257,130.838903 106.553876,131.819291 106.925606,132.858911 C107.785488,135.256776 108.673965,137.736341 108.200111,140.007573 C106.566131,147.83638 101.10251,152.828188 101.049406,152.877208 Z" id="Shape" fill="#E8EDFB"></path>
                                <path d="M153.50629,34.8119431 C149.725669,50.5716798 134.71552,66.1986557 121.592619,63.0471168 C108.469717,59.895578 102.189107,39.1644572 105.965643,23.402678 C109.742179,7.6408988 123.457398,-2.57964586 136.584385,0.569850512 C149.711372,3.71934689 157.288954,19.0501639 153.50629,34.8119431 Z" id="Shape" fill="#2857F5"></path>
                                <polygon id="Shape" fill="#2857F5" points="124.405107 67.0238156 117.282997 65.314264 119.701287 61.2476964 124.094651 62.3036559"></polygon>
                                <path d="M103.757728,169.919619 L102.73649,169.523379 C107.135981,164.880833 109.045695,159.153733 108.112284,153.402124 C107.556731,149.978936 106.251589,146.782462 104.868834,143.393997 C103.99057,141.239185 103.081668,139.010845 102.32391,136.619107 C99.115182,126.470049 100.193609,116.235207 101.235271,106.335331 C102.358632,95.7920753 103.508546,84.8709617 99.4685302,74.0356321 L100.591891,73.9518906 C104.676841,84.8873015 103.518758,95.8533495 102.401524,106.457879 C101.363947,116.312821 100.289605,126.502729 103.471781,136.561918 C104.221369,138.935274 105.126186,141.153401 106.002408,143.302085 C107.393333,146.713018 108.708687,149.934001 109.270367,153.410294 C110.224203,159.296706 108.267512,165.160652 103.757728,169.919619 Z" id="Shape" fill="#E8EDFB"></path>
                                <path d="M111.72338,33.5394812 C116.382265,48.5067376 111.649851,68.9171898 99.1825837,72.7978923 C86.7153166,76.6785947 71.2353989,62.5610078 66.5846834,47.5896664 C61.933968,32.618325 68.255428,17.3426548 80.7226951,13.4619524 C93.1899622,9.58125 107.066537,18.5722247 111.72338,33.5394812 Z" id="Shape" fill="#EC4D42"></path>
                                <polygon id="Shape" fill="#EC4D42" points="103.488121 74.7096488 96.7254863 76.8154405 96.7234438 72.2382541 100.894178 70.93924"></polygon>
                                <path d="M128.947571,164.055673 C128.914892,191.966093 128.937359,195.732417 128.937359,199.496698 C128.947571,206.555492 125.836882,212.509306 120.806266,217.507243 C110.583679,227.656301 96.2087402,232.008815 81.9216279,233.105624 C77.1258967,233.469184 72.2770611,233.587648 67.4731601,233.587648 C62.669259,233.587648 57.818381,233.469184 53.0226498,233.105624 C38.7253251,232.010857 24.3605988,227.656301 14.1380116,217.507243 C9.10739581,212.509306 6.00691883,206.565704 6.00691883,199.496698 C6.00691883,195.732417 6.01713121,191.955881 5.99670646,164.055673 L128.947571,164.055673 Z" id="Shape" fill="#FCD4A9"></path>
                                <path d="M129.01293,151.143146 C119.280537,138.342956 103.461569,128.65754 88.2185781,126.37201 C83.702666,125.695951 79.1438619,125.395707 74.6054826,125.146525 C64.3297911,124.58893 53.6231374,125.017849 43.4230175,126.576258 C32.2445521,128.291937 20.1245057,133.408336 11.3275661,141.380116 C8.59269212,143.867851 6.65029844,147.16032 5.10618738,150.518149 C1.56657829,158.253002 0.0102123748,167.103046 0.0102123748,175.607911 C0.0102123748,181.25127 0.933411053,186.841524 5.84556331,189.972638 C7.24057371,190.861114 8.92561554,190.789628 10.4697266,190.464874 C12.84104,189.939958 14.5036146,188.76962 16.8626732,190.068634 C20.3593903,191.978348 21.0783415,196.075553 23.0084803,199.259771 C26.4806878,204.978701 34.2298377,207.529752 40.3429653,205.105335 C46.5541316,202.654365 50.8024795,208.986037 55.8984545,211.326713 C61.9686901,214.104479 69.2644106,213.236427 75.0670819,210.274839 C76.654085,209.457849 77.8019559,208.281383 79.1867539,207.143725 C81.8256315,204.956234 84.8811741,203.647008 88.2818949,203.538756 C92.7875946,203.399868 97.2932944,205.415791 101.76223,204.043248 C105.438684,202.928056 108.05918,199.58044 109.999531,196.363542 C111.651893,193.626625 113.004012,190.109484 116.5763,189.743881 C120.148589,189.378278 123.151027,192.88725 126.862204,191.706699 C133.438974,189.615205 134.403022,180.840732 134.478593,174.92981 C134.57459,167.646344 133.53497,159.215007 130.038253,152.746489 C129.72792,152.192575 129.385565,151.657219 129.01293,151.143146 L129.01293,151.143146 Z" id="Shape" fill="#6F1D1E"></path>
                                <path d="M78.9498268,141.952009 C78.8738294,142.57804 78.8451535,143.208912 78.8640429,143.839256 C78.8538305,145.96343 78.8109385,148.087604 78.7578342,150.211778 C78.6597954,154.458083 78.5433743,158.696219 78.5433743,162.944567 C78.5433743,165.689653 77.3628238,171.461687 80.6124014,172.748447 C83.7557704,173.992314 87.6814072,173.338722 87.6711949,168.853447 C87.6609825,167.5769 87.6711949,166.300353 87.6711949,165.036061 C87.6711949,159.692947 87.6609825,154.362087 87.6711949,149.00876 C87.6711949,147.454437 87.499627,145.93075 87.5098393,144.374384 C87.5200517,143.077413 87.5629437,141.382159 86.6193203,140.438535 C85.8799443,139.699159 84.7810928,139.537804 83.8313419,139.527591 C82.7038958,139.494912 81.1597847,139.333556 80.1405897,139.923832 C79.3787465,140.338454 79.0785027,141.11051 78.9498268,141.952009 Z" id="Shape" fill="#40C0E7"></path>
                                <path d="M78.8211509,145.722418 C77.1651251,144.719666 75.8836824,143.201451 75.1732906,141.400541 C74.6279498,140.048423 74.2521344,138.289852 74.327706,136.81927 C74.5094863,133.289873 76.4498375,130.030083 78.9600392,127.648557 C80.4408335,126.233122 82.2422964,124.452084 84.3460456,124.066056 C88.8088534,123.249066 91.9297551,130.554999 92.8529538,133.849511 C94.5257408,139.813538 91.1025528,146.067596 84.6993938,146.668084 C83.0266068,146.827397 80.2917329,146.602725 78.8211509,145.722418 Z" id="Shape" fill="#ED6C30"></path>
                                <path d="M81.1597847,144.458126 C80.4420486,143.938439 79.9083859,143.203759 79.6360984,142.360504 C79.3895997,141.646047 79.2700138,140.893969 79.2827502,140.138291 C79.3583218,138.432825 80.1732693,136.856034 81.2128891,135.697951 C81.8358439,135.011679 82.5854322,134.143627 83.4596115,133.959805 C85.3264336,133.563565 86.6356601,137.103174 87.0114754,138.702432 C87.7079594,141.598661 86.2802694,144.625609 83.5984998,144.913598 C82.9244831,144.983042 81.7704847,144.876833 81.1597847,144.458126 Z" id="Shape" fill="#FCBF69"></path>
                                <path d="M103.032649,123.365487 C102.955905,123.99214 102.927226,124.623747 102.946865,125.254776 C102.93461,127.389163 102.891718,129.501082 102.838614,131.625256 C102.742618,135.873604 102.624154,140.109697 102.624154,144.358045 C102.624154,147.105173 101.443603,152.875165 104.695224,154.161924 C107.826338,155.405792 111.774442,154.7522 111.751975,150.268967 C111.751975,149.002633 111.751975,147.726086 111.751975,146.449539 C111.751975,141.108467 111.751975,135.78782 111.751975,130.424281 C111.751975,128.867915 111.580407,127.334016 111.592661,125.789905 C111.592661,124.480678 111.655978,122.797679 110.702142,121.852013 C109.960724,121.112637 108.863915,120.963537 107.912122,120.941069 C106.786718,120.90839 105.242607,120.747034 104.235667,121.337309 C103.461569,121.747847 103.144985,122.521945 103.032649,123.365487 Z" id="Shape" fill="#40C0E7"></path>
                                <path d="M102.903973,127.133853 C101.252926,126.126569 99.9751689,124.608605 99.2642827,122.809934 C98.6787404,121.355455 98.3905267,119.798406 98.4166556,118.230705 C98.5984358,114.711521 100.551042,111.439476 103.051031,109.05795 C104.531826,107.642515 106.333288,105.861477 108.434995,105.475449 C112.897803,104.658459 116.03096,111.966434 116.952116,115.258904 C118.626945,121.222931 115.193545,127.476989 108.782216,128.077477 C107.107387,128.238832 104.37047,128.01416 102.903973,127.133853 Z" id="Shape" fill="#ED6C30"></path>
                                <path d="M105.199715,125.900199 C104.488525,125.429694 103.949479,124.740834 103.663774,123.93738 C103.417576,123.275178 103.297722,122.572684 103.310426,121.866311 C103.375785,120.25684 104.200945,118.788301 105.252819,117.703747 C105.865562,117.060367 106.635575,116.245419 107.515881,116.084064 C109.392916,115.710291 110.689888,119.023185 111.08817,120.514192 C111.784654,123.228641 110.346752,126.061554 107.664982,126.339331 C106.968498,126.40469 105.820627,126.296439 105.199715,125.900199 Z" id="Shape" fill="#FCBF69"></path>
                                <path d="M60.7575024,114.819772 C60.6817359,115.445822 60.6530608,116.076676 60.6717185,116.707019 C60.6615061,118.841405 60.6186141,120.955367 60.5634673,123.079541 C60.467471,127.325846 60.3592198,131.563982 60.3592198,135.812329 C60.3592198,138.557416 59.1807117,144.32945 62.4302894,145.605997 C65.5736583,146.849864 69.5095076,146.196272 69.4890828,141.710997 C69.476828,140.444663 69.4890828,139.170158 69.4890828,137.893611 C69.4890828,132.550497 69.476828,127.22985 69.4890828,121.866311 C69.4890828,120.311987 69.3175149,118.778088 69.3277273,117.231935 C69.3379397,115.924751 69.3808317,114.239709 68.4372082,113.296086 C67.6978323,112.55671 66.5989808,112.405567 65.6471874,112.383099 C64.5217837,112.352462 62.9776727,112.191107 61.9584777,112.781382 C61.1864221,113.210302 60.875966,113.982357 60.7575024,114.819772 Z" id="Shape" fill="#40C0E7"></path>
                                <path d="M60.6288265,118.594266 C58.974326,117.590833 57.6943824,116.072694 56.9850512,114.272389 C56.4376679,112.92027 56.0618525,111.161699 56.1374241,109.691117 C56.3212468,106.173975 58.261598,102.901931 60.7717997,100.520405 C62.2525941,99.115182 64.054057,97.3239315 66.1578062,96.9481161 C70.6185715,96.1311261 73.7415157,103.437059 74.6749267,106.731571 C76.3477137,112.695598 72.9265682,118.949656 66.5050269,119.550144 C64.8342824,119.711499 62.0912386,119.484785 60.6288265,118.594266 Z" id="Shape" fill="#ED6C30"></path>
                                <path d="M63.030777,117.360611 C62.279955,116.828912 61.7199925,116.069884 61.4335616,115.195587 C61.1675493,114.460406 61.044159,113.681245 61.0700011,112.899845 C61.1455726,111.12902 62.0034121,109.499125 63.0981787,108.308362 C63.7415583,107.599623 64.5279112,106.709104 65.4470249,106.517111 C67.399631,106.108616 68.7721741,109.766689 69.1806691,111.419051 C69.920045,114.411277 68.4065711,117.546476 65.6083804,117.844677 C64.8771744,117.918206 63.6741566,117.801785 63.030777,117.360611 Z" id="Shape" fill="#FCBF69"></path>
                                <path d="M41.666489,139.705287 C41.590538,140.331322 41.5618622,140.96219 41.5807051,141.592534 C41.5704927,143.716708 41.5276007,145.840881 41.4744964,147.965055 C41.3785001,152.213403 41.2702489,156.449496 41.2702489,160.697844 C41.2702489,163.444973 40.0896984,169.214965 43.339276,170.501724 C46.4724326,171.745591 50.4082818,171.091999 50.3980694,166.608767 C50.3878571,165.33222 50.3980694,164.055673 50.3980694,162.789339 C50.3980694,157.448267 50.3878571,152.115365 50.3980694,146.76408 C50.3980694,145.207714 50.2265016,143.684028 50.2367139,142.129705 C50.2489688,140.83069 50.2918608,139.137479 49.3482373,138.191813 C48.6068189,137.452437 47.5243072,137.291081 46.5582165,137.280869 C45.4328128,137.248189 43.8866593,137.076621 42.8817616,137.677109 C42.0913238,138.085604 41.7808676,138.85766 41.666489,139.705287 Z" id="Shape" fill="#40C0E7"></path>
                                <path d="M41.5235158,143.471611 C39.867842,142.467523 38.5865839,140.948809 37.8756555,139.147691 C37.3303147,137.795573 36.9544993,136.037002 37.0300709,134.56642 C37.2118512,131.039066 39.1522024,127.777233 41.6624041,125.395707 C43.1431984,123.980272 44.9569162,122.199234 47.0484105,121.813206 C51.5112183,120.996216 54.63212,128.302149 55.5655311,131.596661 C57.2383181,137.560688 53.8171725,143.814746 47.4119711,144.415234 C45.7391841,144.586802 42.9940977,144.360087 41.5235158,143.471611 Z" id="Shape" fill="#ED6C30"></path>
                                <path d="M43.8417249,142.237956 C43.0767469,141.696148 42.508359,140.920617 42.2220422,140.027998 C41.9525154,139.278584 41.8250662,138.48549 41.8462268,137.689364 C41.9320108,135.875646 42.8000626,134.217157 43.9050416,132.991672 C44.5708884,132.262508 45.3756235,131.357692 46.3090346,131.153444 C48.3024901,130.744949 49.6975005,134.478593 50.1059955,136.163635 C50.8453715,139.227348 49.3216851,142.417693 46.4581353,142.72815 C45.7187593,142.805764 44.4953168,142.6873 43.8417249,142.237956 Z" id="Shape" fill="#FCBF69"></path>
                                <path d="M20.9823452,120.4713 C20.9058307,121.097972 20.8771531,121.729562 20.8965612,122.360589 C20.8843064,124.484763 20.8414144,126.608937 20.7883101,128.731069 C20.6923137,132.969204 20.5840626,137.217552 20.5840626,141.463858 C20.5840626,144.210986 19.403512,149.970766 22.6551322,151.257525 C25.7985011,152.48301 29.7343504,151.8478 29.7139256,147.364568 C29.7016708,146.088021 29.7139256,144.821686 29.7139256,143.54514 C29.7139256,138.204068 29.7016708,132.873208 29.7139256,127.519881 C29.7139256,125.963515 29.5423577,124.441871 29.5525701,122.875293 C29.5627825,121.576279 29.6056744,119.883067 28.662051,118.937401 C27.9206326,118.198025 26.8238235,118.03667 25.8720302,118.016245 C24.7466265,117.993778 23.2025155,117.82221 22.1833205,118.412485 C21.4112649,118.851617 21.1008087,119.635928 20.9823452,120.4713 Z" id="Shape" fill="#40C0E7"></path>
                                <path d="M20.8332445,124.237624 C19.1803804,123.236342 17.9000995,121.72224 17.1874267,119.925959 C16.6400434,118.573841 16.264228,116.81527 16.3397996,115.344688 C16.5215799,111.815291 18.4639736,108.555501 20.9741753,106.173975 C22.4529272,104.756498 24.2564325,102.965247 26.3581393,102.589432 C30.820947,101.772442 33.9418488,109.080417 34.8752598,112.372887 C36.5500893,118.336914 33.1269013,124.590972 26.7237423,125.19146 C25.0570827,125.342603 22.3119964,125.117931 20.8332445,124.237624 Z" id="Shape" fill="#ED6C30"></path>
                                <path d="M23.2842145,122.956992 C22.5527515,122.377961 22.017212,121.587844 21.7503158,120.69393 C21.5030222,119.921211 21.3829931,119.113429 21.3949251,118.302192 C21.5002945,116.531102 22.1824919,114.843184 23.3373188,113.496248 C23.9500613,112.75483 24.7200743,111.821419 25.6003811,111.619214 C27.4774155,111.190294 28.786642,115.017892 29.1726697,116.725401 C29.8691537,119.856515 28.4332938,123.118348 25.7392693,123.439016 C25.0468703,123.539097 23.8969569,123.422676 23.2842145,122.956992 Z" id="Shape" fill="#FCBF69"></path>
                                <path d="M130.009658,152.748532 C129.71443,152.191247 129.377124,151.657293 129.000676,151.151316 C128.722899,150.785713 128.422655,150.422153 128.132624,150.066762 C128.498227,151.870268 133.763727,182.913844 66.7113169,182.913844 C0.330880942,182.913844 4.82432584,152.49118 5.27775528,150.132121 C5.21239608,150.260797 5.14907935,150.389473 5.09597501,150.518149 C1.55636591,158.253002 0,167.103046 0,175.607911 C0,181.25127 0.923198678,186.841524 5.83535094,189.972638 C7.23036133,190.863157 8.91336069,190.789628 10.4595142,190.464874 C12.8287852,189.939958 14.4913598,188.76962 16.8524608,190.068634 C20.349178,191.978348 21.0681291,196.075553 22.998268,199.259771 C26.4704754,204.978701 34.2196254,207.529752 40.3327529,205.105335 C46.5439192,202.654365 50.7922671,208.986037 55.8861996,211.326713 C61.9584777,214.104479 69.2521557,213.236427 75.0568695,210.274839 C76.6438726,209.457849 77.7917435,208.281383 79.1744991,207.143725 C81.8133767,204.956234 84.8709617,203.647008 88.2716825,203.538756 C92.7773822,203.399868 97.283082,205.415791 101.752017,204.043248 C105.428472,202.928056 108.048967,199.58044 109.991361,196.363542 C111.643723,193.626625 112.993799,190.109484 116.566088,189.743881 C120.138377,189.378278 123.142857,192.88725 126.854034,191.706699 C133.428761,189.615205 134.394852,180.840732 134.470423,174.92981 C134.535783,167.648387 133.506375,159.21705 130.009658,152.748532 Z" id="Shape" fill="#E15E49"></path>
                            </g>
                        </g>
                    </g>
                </g>
            </g>
        </g>
    </g>
</svg>