<?xml version="1.0" encoding="UTF-8"?>
<svg width="697px" height="436px" viewBox="0 0 697 436" version="1.1" xmlns="http://www.w3.org/2000/svg" xmlns:xlink="http://www.w3.org/1999/xlink">
    <!-- Generator: Sketch 45.2 (43514) - http://www.bohemiancoding.com/sketch -->
    <title>cartao-verso</title>
    <desc>Created with Sketch.</desc>
    <defs>
        <linearGradient x1="42.5312756%" y1="99.0585886%" x2="57.2888109%" y2="2.12530756%" id="linearGradient-1">
            <stop stop-color="#AFBCC2" offset="0%"></stop>
            <stop stop-color="#B6C1C7" offset="100%"></stop>
        </linearGradient>
        <linearGradient x1="-3.49920393%" y1="350.006696%" x2="70.4713295%" y2="-14.0350877%" id="linearGradient-2">
            <stop stop-color="#A9B8BF" offset="0%"></stop>
            <stop stop-color="#D1D7DB" offset="61%"></stop>
            <stop stop-color="#E5E7E9" offset="100%"></stop>
        </linearGradient>
        <linearGradient x1="-132.607578%" y1="22237%" x2="2962.17705%" y2="-4946%" id="linearGradient-3">
            <stop stop-color="#A9B8BF" offset="0%"></stop>
            <stop stop-color="#D1D7DB" offset="61%"></stop>
            <stop stop-color="#E5E7E9" offset="100%"></stop>
        </linearGradient>
        <linearGradient x1="47.7149757%" y1="122.979448%" x2="51.4912024%" y2="-21.7495474%" id="linearGradient-4">
            <stop stop-color="#C5CED3" offset="0%"></stop>
            <stop stop-color="#D1D7DB" offset="33%"></stop>
            <stop stop-color="#E5E7E9" offset="100%"></stop>
        </linearGradient>
        <linearGradient x1="-1.15854586%" y1="49.9915038%" x2="99.0594737%" y2="49.9915038%" id="linearGradient-5">
            <stop stop-color="#9CA5B5" offset="0%"></stop>
            <stop stop-color="#74859B" offset="100%"></stop>
        </linearGradient>
        <linearGradient x1="0%" y1="50%" x2="100%" y2="50%" id="linearGradient-6">
            <stop stop-color="#BDBECA" offset="0%"></stop>
            <stop stop-color="#AAB2C3" offset="9%"></stop>
            <stop stop-color="#9AA8BC" offset="19%"></stop>
            <stop stop-color="#94A5BA" offset="27%"></stop>
            <stop stop-color="#BDBECA" offset="76%"></stop>
            <stop stop-color="#B6BAC7" offset="80%"></stop>
            <stop stop-color="#A6B0C1" offset="91%"></stop>
            <stop stop-color="#A0ADBF" offset="100%"></stop>
        </linearGradient>
        <linearGradient x1="-45.6390977%" y1="50%" x2="99.6849266%" y2="50%" id="linearGradient-7">
            <stop stop-color="#CACBD7" offset="0%"></stop>
            <stop stop-color="#B7BFD0" offset="9%"></stop>
            <stop stop-color="#A7B5C9" offset="19%"></stop>
            <stop stop-color="#A1B2C7" offset="27%"></stop>
            <stop stop-color="#CACBD7" offset="76%"></stop>
            <stop stop-color="#C3C7D4" offset="80%"></stop>
            <stop stop-color="#B3BDCE" offset="91%"></stop>
            <stop stop-color="#ADBACC" offset="100%"></stop>
        </linearGradient>
    </defs>
    <g id="Page-1" stroke="none" stroke-width="1" fill="none" fill-rule="evenodd">
        <g id="cartao-verso" fill-rule="nonzero">
            <path d="M18.0855524,2.63874971 L677.365397,2.63874971 L677.365397,2.63874971 C686.246639,2.63874971 693.463497,9.80579334 693.52501,18.6868225 L696.30115,419.495098 L696.30115,419.495098 C696.362966,428.419806 689.178172,435.704822 680.253465,435.766638 C680.216156,435.766896 680.178847,435.767025 680.141537,435.767025 L16.2347922,435.767025 L16.2347922,435.767025 C7.30987065,435.767025 0.0747922067,428.531947 0.0747922067,419.607025 C0.0747922067,419.582152 0.0748496331,419.557279 0.0749644853,419.532406 L1.92572463,18.7241306 L1.92572463,18.7241306 C1.96680115,9.82843063 9.18975757,2.63874971 18.0855524,2.63874971 Z" id="Rectangle-path" fill="url(#linearGradient-1)"></path>
            <path d="M521.382539,292.056681 C578.725048,307.287489 637.285466,317.593225 696.413855,322.859513 L696.413855,206.988104 C641.791683,242.315387 583.010759,270.884045 521.382539,292.056681 L521.382539,292.056681 Z" id="Shape" fill="url(#linearGradient-2)"></path>
            <path d="M521.382539,292.056681 C334.169313,242.133448 164.850581,141.15366 32.6823259,0.601366534 L25.3064871,0.601366534 C11.3443873,0.635485943 0.0344319691,11.8427737 0,25.6781309 L0,293.732603 C83.1778953,321.66966 170.422364,335.876576 258.248317,335.785841 C347.808676,335.873037 436.751018,321.092086 521.382539,292.056681 Z" id="Shape" fill="url(#linearGradient-3)"></path>
            <path d="M671.107367,0.601366534 L32.6823259,0.601366534 C164.850581,141.15366 334.169313,242.133448 521.382539,292.056681 C583.010759,270.884045 641.791683,242.315387 696.413855,206.988104 L696.413855,25.6781309 C696.379423,11.8427737 685.069467,0.635485943 671.107367,0.601366534 Z" id="Shape" fill="url(#linearGradient-4)"></path>
            <rect id="Rectangle-path" fill="#9BA6AC" x="3.16331089" y="41.5838757" width="688.223698" height="94.068902"></rect>
            <rect id="Rectangle-path" fill="#74859B" x="3.16331089" y="41.5838757" width="688.223698" height="91.3222515"></rect>
            <path d="M183.941831,132.906127 L691.324369,132.906127 L691.324369,41.5838757 L73.6017881,41.5838757 C117.449662,82.8457052 134.675612,97.6186505 183.941831,132.906127 Z" id="Shape" fill="url(#linearGradient-5)"></path>
            <rect id="Rectangle-path" fill="#C0CACF" x="3.16331089" y="41.5838757" width="688.223698" height="1.86213597"></rect>
            <rect id="Rectangle-path" fill="#9BA6AC" x="32.6823259" y="156.275934" width="617.096183" height="63.9954062"></rect>
            <rect id="Rectangle-path" fill="url(#linearGradient-6)" x="32.6823259" y="153.544801" width="617.096183" height="63.9954062"></rect>
            <path d="M650.357928,217.540206 L650.357928,153.544801 L212.975386,153.544801 C250.747198,177.271516 285.543617,198.655044 326.510059,217.540206 L650.357928,217.540206 Z" id="Shape" fill="url(#linearGradient-7)"></path>
            <path d="M650.357928,159.953652 L32.6823259,159.953652 L32.6823259,153.544801 L650.357928,153.544801 L650.357928,159.953652 Z M650.357928,168.178086 L32.6823259,168.178086 L32.6823259,174.586937 L650.357928,174.586937 L650.357928,168.178086 Z M650.357928,182.795853 L32.6823259,182.795853 L32.6823259,189.204705 L650.357928,189.204705 L650.357928,182.795853 Z M650.357928,197.413621 L32.6823259,197.413621 L32.6823259,203.884542 L650.357928,203.884542 L650.357928,197.413621 Z M650.357928,212.031387 L32.6823259,212.031387 L32.6823259,218.455757 L650.357928,218.455757 L650.357928,212.031387 Z" id="Shape" fill="#D6D6DD"></path>
            <path d="M650.357928,159.953652 L650.357928,153.544801 L212.975386,153.544801 C216.545856,155.706948 220.131986,157.843231 223.733775,159.953652 L650.357928,159.953652 Z" id="Shape" fill="#E5E4E8"></path>
            <path d="M650.357928,174.586937 L650.357928,168.193604 L234.053687,168.193604 C237.859055,170.350578 241.680084,172.476517 245.532433,174.602456 L650.357928,174.586937 Z" id="Shape" fill="#E5E4E8"></path>
            <path d="M650.357928,203.884542 L650.357928,197.475692 L285.011179,197.475692 C289.395967,199.648184 293.801634,201.784468 298.228181,203.884542 L650.357928,203.884542 Z" id="Shape" fill="#E5E4E8"></path>
            <path d="M650.357928,189.204705 L650.357928,182.795853 L259.109614,182.795853 C263.181203,184.957999 267.26845,187.094284 271.371358,189.204705 L650.357928,189.204705 Z" id="Shape" fill="#E5E4E8"></path>
            <path d="M650.357928,218.455757 L650.357928,212.031387 L310.787465,212.031387 C315.558531,214.203879 320.366138,216.345336 325.210283,218.455757 L650.357928,218.455757 Z" id="Shape" fill="#E5E4E8"></path>
        </g>
    </g>
</svg>