<?xml version="1.0" encoding="UTF-8"?>
<svg width="697px" height="434px" viewBox="0 0 697 434" version="1.1" xmlns="http://www.w3.org/2000/svg" xmlns:xlink="http://www.w3.org/1999/xlink">
    <!-- Generator: Sketch 45.2 (43514) - http://www.bohemiancoding.com/sketch -->
    <title>Cartão</title>
    <desc>Created with Sketch.</desc>
    <defs>
        <linearGradient x1="0%" y1="50%" x2="100%" y2="50%" id="linearGradient-1">
            <stop stop-color="#AFBCC2" offset="0%"></stop>
            <stop stop-color="#B6C1C7" offset="100%"></stop>
        </linearGradient>
        <rect id="path-2" x="0.129351441" y="0.639212419" width="695.664026" height="433.791202" rx="16.16"></rect>
        <linearGradient x1="-217.73703%" y1="349.270122%" x2="153.506261%" y2="-14.771662%" id="linearGradient-4">
            <stop stop-color="#A9B8BF" offset="0%"></stop>
            <stop stop-color="#D1D7DB" offset="61%"></stop>
            <stop stop-color="#E5E7E9" offset="100%"></stop>
        </linearGradient>
        <linearGradient x1="-977.175705%" y1="22238%" x2="16495.3356%" y2="-4945%" id="linearGradient-5">
            <stop stop-color="#A9B8BF" offset="0%"></stop>
            <stop stop-color="#D1D7DB" offset="61%"></stop>
            <stop stop-color="#E5E7E9" offset="100%"></stop>
        </linearGradient>
        <linearGradient x1="-0.00707881076%" y1="50%" x2="100%" y2="50%" id="linearGradient-6">
            <stop stop-color="#C5CED3" offset="0%"></stop>
            <stop stop-color="#D1D7DB" offset="33%"></stop>
            <stop stop-color="#E5E7E9" offset="100%"></stop>
        </linearGradient>
        <polygon id="path-7" points="978.909475 0.433861761 978.909475 259.755077 0.55574911 259.755077 0.55574911 0.433861761 978.909475 0.433861761"></polygon>
        <polygon id="path-9" points="978.909475 0.0519976497 978.909475 269.942596 0.55574911 269.942596 0.55574911 0.0519976497 978.909475 0.0519976497"></polygon>
        <polygon id="path-11" points="978.909475 0.219109569 978.909475 280.679091 0.55574911 280.679091 0.55574911 0.219109569 978.909475 0.219109569"></polygon>
        <polygon id="path-13" points="978.909475 0.128163054 978.909475 291.157528 0.55574911 291.157528 0.55574911 0.128163054 978.909475 0.128163054"></polygon>
        <polygon id="path-15" points="978.909475 0.62501356 978.909475 302.223762 0.55574911 302.223762 0.55574911 0.62501356 978.909475 0.62501356"></polygon>
        <polygon id="path-17" points="978.909475 0.245525926 978.909475 312.407716 0.55574911 312.407716 0.55574911 0.245525926 978.909475 0.245525926"></polygon>
        <polygon id="path-19" points="978.909475 0.244746398 978.909475 322.982261 0.55574911 322.982261 0.55574911 0.244746398 978.909475 0.244746398"></polygon>
        <path d="M978.909475,0.0248325404 L978.909475,321.896122 C978.909475,325.862257 978.331914,329.699503 977.254588,333.331731 L2.21109643,333.331731 C1.13349662,329.699503 0.55574911,325.862257 0.55574911,321.896122 L0.55574911,0.0248325404 L978.909475,0.0248325404 L978.909475,0.0248325404 Z" id="path-21"></path>
        <path d="M978.909475,0.318505478 L978.909475,313.905988 C978.909475,325.869444 973.654429,336.660168 965.279517,344.188846 L14.1881057,344.188846 C5.81248583,336.660168 0.55574911,325.869444 0.55574911,313.905988 L0.55574911,0.318505478 L978.909475,0.318505478 Z" id="path-23"></path>
        <path d="M978.909475,0.436677725 L978.909475,305.745702 C978.909475,328.43512 960.00738,346.90629 936.768993,346.90629 L42.6962314,346.90629 C19.4639263,346.90629 0.55574911,328.43512 0.55574911,305.745702 L0.55574911,0.436677725 L978.909475,0.436677725 Z" id="path-25"></path>
        <path d="M978.909475,0.465074981 L978.909475,298.131347 C978.909475,320.820766 960.00738,339.291936 936.768993,339.291936 L42.6962314,339.291936 C19.4639263,339.291936 0.55574911,320.820766 0.55574911,298.131347 L0.55574911,0.465074981 L978.909475,0.465074981 L978.909475,0.465074981 Z" id="path-27"></path>
        <path d="M978.909475,0.115316659 L978.909475,290.141214 C978.909475,312.830632 960.00738,331.301803 936.768993,331.301803 L42.6962314,331.301803 C19.4639263,331.301803 0.55574911,312.830632 0.55574911,290.141214 L0.55574911,0.115316659 L978.909475,0.115316659 L978.909475,0.115316659 Z" id="path-29"></path>
        <path d="M978.909475,0.0947742432 L978.909475,282.47792 C978.909475,305.167339 960.00738,323.638509 936.768993,323.638509 L42.6962314,323.638509 C19.4639263,323.638509 0.55574911,305.167339 0.55574911,282.47792 L0.55574911,0.0947742432 L978.909475,0.0947742432 L978.909475,0.0947742432 Z" id="path-31"></path>
        <path d="M978.909475,0.296962548 L978.909475,275.039734 C978.909475,297.729152 960.00738,316.200323 936.768993,316.200323 L42.6962314,316.200323 C19.4639263,316.200323 0.55574911,297.729152 0.55574911,275.039734 L0.55574911,0.296962548 L978.909475,0.296962548 L978.909475,0.296962548 Z" id="path-33"></path>
        <path d="M978.909475,0.279984848 L978.909475,267.37644 C978.909475,290.065858 960.00738,308.537029 936.768993,308.537029 L42.6962314,308.537029 C19.4639263,308.537029 0.55574911,290.065858 0.55574911,267.37644 L0.55574911,0.279984848 L978.909475,0.279984848 L978.909475,0.279984848 Z" id="path-35"></path>
        <path d="M978.909475,0.308382105 L978.909475,259.762086 C978.909475,282.451504 960.00738,300.922675 936.768993,300.922675 L42.6962314,300.922675 C19.4639263,300.922675 0.55574911,282.451504 0.55574911,259.762086 L0.55574911,0.308382105 L978.909475,0.308382105 L978.909475,0.308382105 Z" id="path-37"></path>
        <path d="M978.909475,0.467571931 L978.909475,252.27496 C978.909475,274.964378 960.00738,293.435549 936.768993,293.435549 L42.6962314,293.435549 C19.4639263,293.435549 0.55574911,274.964378 0.55574911,252.27496 L0.55574911,0.467571931 L978.909475,0.467571931 L978.909475,0.467571931 Z" id="path-39"></path>
        <path d="M954.582454,0.495969188 L954.582454,244.660606 C954.582454,267.350024 935.680359,285.821194 912.441972,285.821194 L18.3692103,285.821194 C11.8594514,285.821194 5.68919567,284.370955 0.179288458,281.784038 L0.179288458,0.495969188 L954.582454,0.495969188 L954.582454,0.495969188 Z" id="path-41"></path>
        <path d="M930.255433,0.146210865 L930.255433,236.670472 C930.255433,259.359891 911.353338,277.831061 888.114951,277.831061 L0.547234652,277.831061 L0.547234652,0.146210865 L930.255433,0.146210865 Z" id="path-43"></path>
        <radialGradient cx="325.220245%" cy="339.974642%" fx="325.220245%" fy="339.974642%" r="454.396269%" gradientTransform="translate(3.252202,3.399746),scale(0.943045,1.000000),translate(-3.252202,-3.399746)" id="radialGradient-45">
            <stop stop-color="#C2C6C9" offset="77%"></stop>
            <stop stop-color="#C8CCCE" offset="77%"></stop>
            <stop stop-color="#CACED0" offset="78%"></stop>
            <stop stop-color="#C2C6C9" offset="79%"></stop>
            <stop stop-color="#D4D6D8" offset="86%"></stop>
            <stop stop-color="#CBCED0" offset="86%"></stop>
            <stop stop-color="#C4C8CB" offset="87%"></stop>
            <stop stop-color="#C2C6C9" offset="88%"></stop>
            <stop stop-color="#D1D4D6" offset="91%"></stop>
            <stop stop-color="#CFD2D4" offset="92%"></stop>
            <stop stop-color="#C8CCCF" offset="93%"></stop>
            <stop stop-color="#C2C6C9" offset="93%"></stop>
            <stop stop-color="#C2C6C9" offset="98%"></stop>
        </radialGradient>
    </defs>
    <g id="telas-principais" stroke="none" stroke-width="1" fill="none" fill-rule="evenodd">
        <g id="26-pagamento" transform="translate(-565.000000, -276.000000)">
            <g id="Cartão" transform="translate(565.359375, 275.500000)">
                <g id="Shape-+-Shape-+-Shape-+-Shape-+-Shape-+-Page-1-+-Shape-+-Shape-+-Shape-+-Shape-+-Shape-+-Rectangle-path-Mask">
                    <mask id="mask-3" fill="white">
                        <use xlink:href="#path-2"></use>
                    </mask>
                    <use id="Mask" fill="url(#linearGradient-1)" fill-rule="nonzero" xlink:href="#path-2"></use>
                    <path d="M522.899565,288.535255 C581.183674,303.982852 640.706146,314.432888 700.805785,319.769281 L700.805785,202.275843 C645.285172,238.099038 585.538834,267.067581 522.899565,288.535255 Z" id="Shape" fill="url(#linearGradient-4)" fill-rule="nonzero" mask="url(#mask-3)"></path>
                    <path d="M522.899565,288.535255 C332.700792,237.898248 160.686968,135.505612 26.4170897,-7 L18.8743751,-7 C4.68415669,-6.96544196 -6.81305685,4.39622526 -6.8567839,18.4278017 L-6.8567839,290.234638 C77.6649096,318.561661 166.318393,332.967423 255.562847,332.876558 C346.554291,332.965632 436.917675,317.977679 522.899565,288.535255 Z" id="Shape" fill="url(#linearGradient-5)" fill-rule="nonzero" mask="url(#mask-3)"></path>
                    <path d="M675.090539,-7 L26.4170897,-7 C160.686968,135.505612 332.700792,237.898248 522.899565,288.535255 C585.538834,267.067581 645.285172,238.099038 700.805785,202.275843 L700.805785,18.4278017 C700.770797,4.39877016 689.278159,-6.96540297 675.090539,-7 Z" id="Shape" fill="url(#linearGradient-6)" fill-rule="nonzero" mask="url(#mask-3)"></path>
                    <g id="Page-1" opacity="0.32" mask="url(#mask-3)">
                        <g transform="translate(-189.998348, -145.663052)">
                            <g id="Group-3" transform="translate(0.000000, 0.063998)">
                                <mask id="mask-8" fill="white">
                                    <use xlink:href="#path-7"></use>
                                </mask>
                                <g id="Clip-2"></g>
                                <path d="M-341.390941,259.755077 C-203.79731,125.341515 76.2127848,48.0881751 290.089873,125.341515 C487.327278,196.594249 786.184732,134.063187 983.422138,0.433861761" id="Stroke-1" stroke="#FFFFFF" stroke-width="0.418" mask="url(#mask-8)"></path>
                            </g>
                            <g id="Group-6" transform="translate(0.000000, 8.727292)">
                                <mask id="mask-10" fill="white">
                                    <use xlink:href="#path-9"></use>
                                </mask>
                                <g id="Clip-5"></g>
                                <path d="M-322.685895,269.942596 C-186.855972,133.990265 93.7501343,51.7819697 308.442177,126.456831 C506.43372,195.321205 798.534345,135.927094 993.989796,0.0519976497" id="Stroke-4" stroke="#EDF4FE" stroke-width="0.407" mask="url(#mask-10)"></path>
                            </g>
                            <g id="Group-9" transform="translate(0.000000, 16.838639)">
                                <mask id="mask-12" fill="white">
                                    <use xlink:href="#path-11"></use>
                                </mask>
                                <g id="Clip-8"></g>
                                <path d="M-303.98024,280.679091 C-169.907945,143.187991 111.288092,56.0247404 326.801172,128.121124 C525.540771,194.609021 810.884565,138.339977 1004.55806,0.219109569" id="Stroke-7" stroke="#DCE9FE" stroke-width="0.395" mask="url(#mask-12)"></path>
                            </g>
                            <g id="Group-12" transform="translate(0.000000, 25.207451)">
                                <mask id="mask-14" fill="white">
                                    <use xlink:href="#path-13"></use>
                                </mask>
                                <g id="Clip-11"></g>
                                <path d="M-285.274585,291.157528 C-152.959918,152.1336 128.82605,60.0094527 345.154085,129.521417 C544.647821,193.632836 823.240867,140.494801 1015.12025,0.128163054" id="Stroke-10" stroke="#CCDEFD" stroke-width="0.384" mask="url(#mask-14)"></path>
                            </g>
                            <g id="Group-15" transform="translate(0.000000, 32.989059)">
                                <mask id="mask-16" fill="white">
                                    <use xlink:href="#path-15"></use>
                                </mask>
                                <g id="Clip-14"></g>
                                <path d="M-266.568931,302.223762 C-136.01189,161.661064 146.364007,64.5819619 363.51308,131.515448 C563.754872,193.244449 835.591088,143.237423 1025.68243,0.62501356" id="Stroke-13" stroke="#BAD3FD" stroke-width="0.372" mask="url(#mask-16)"></path>
                            </g>
                            <g id="Group-18" transform="translate(0.000000, 41.652353)">
                                <mask id="mask-18" fill="white">
                                    <use xlink:href="#path-17"></use>
                                </mask>
                                <g id="Clip-17"></g>
                                <path d="M-247.863276,312.407716 C-119.063863,170.30625 163.901965,68.2781331 381.865992,132.6272 C582.868004,191.973782 847.94739,145.097765 1036.2507,0.245525926" id="Stroke-16" stroke="#A8C7FB" stroke-width="0.36" mask="url(#mask-18)"></path>
                            </g>
                            <g id="Group-21" transform="translate(0.000000, 49.928621)">
                                <mask id="mask-20" fill="white">
                                    <use xlink:href="#path-19"></use>
                                </mask>
                                <g id="Clip-20"></g>
                                <path d="M-229.157621,322.982261 C-102.115835,179.342025 181.439923,72.3530123 400.224987,134.123601 C601.975055,191.093706 860.29761,147.342757 1046.81896,0.244746398" id="Stroke-19" stroke="#95BCFA" stroke-width="0.349" mask="url(#mask-20)"></path>
                            </g>
                            <g id="Group-24" transform="translate(0.000000, 58.426994)">
                                <mask id="mask-22" fill="white">
                                    <use xlink:href="#path-21"></use>
                                </mask>
                                <g id="Clip-23"></g>
                                <path d="M-210.452575,333.331731 C-85.168416,188.152726 198.977272,76.2146984 418.577292,135.400868 C621.081497,189.988555 872.647223,149.368614 1057.38054,0.0248325404" id="Stroke-22" stroke="#83B1FA" stroke-width="0.337" mask="url(#mask-22)"></path>
                            </g>
                            <g id="Group-27" transform="translate(0.000000, 66.417127)">
                                <mask id="mask-24" fill="white">
                                    <use xlink:href="#path-23"></use>
                                </mask>
                                <g id="Clip-26"></g>
                                <path d="M-191.74692,344.188846 C-68.2203886,197.471072 216.51523,80.5780889 436.936286,137.185781 C640.188548,189.391048 884.997443,151.902117 1067.94272,0.318505478" id="Stroke-25" stroke="#70A5F9" stroke-width="0.325" mask="url(#mask-24)"></path>
                            </g>
                            <g id="Group-30" transform="translate(0.000000, 74.577414)">
                                <mask id="mask-26" fill="white">
                                    <use xlink:href="#path-25"></use>
                                </mask>
                                <g id="Clip-29"></g>
                                <path d="M-173.041265,354.876401 C-51.2723612,206.619858 234.059269,84.7719199 455.289199,138.795193 C659.295598,188.623983 897.353745,154.266061 1078.51099,0.436677725" id="Stroke-28" stroke="#5B9AF8" stroke-width="0.314" mask="url(#mask-26)"></path>
                            </g>
                            <g id="Group-33" transform="translate(0.000000, 82.191768)">
                                <mask id="mask-28" fill="white">
                                    <use xlink:href="#path-27"></use>
                                </mask>
                                <g id="Clip-32"></g>
                                <path d="M-148.348731,360.519227 C-23.1801254,206.600726 262.765762,86.4935573 483.995692,140.522771 C688.002091,190.34562 927.793539,154.294458 1108.95078,0.465074981" id="Stroke-31" stroke="#70A5F9" stroke-width="0.349" mask="url(#mask-28)"></path>
                            </g>
                            <g id="Group-36" transform="translate(0.000000, 90.181901)">
                                <mask id="mask-30" fill="white">
                                    <use xlink:href="#path-29"></use>
                                </mask>
                                <g id="Clip-35"></g>
                                <path d="M-123.653763,365.783896 C4.90846136,206.197497 291.468607,87.8429804 512.698536,141.866253 C716.711017,191.695043 958.229683,153.950641 1139.38693,0.115316659" id="Stroke-34" stroke="#83B1FA" stroke-width="0.384" mask="url(#mask-30)"></path>
                            </g>
                            <g id="Group-39" transform="translate(0.000000, 97.845195)">
                                <mask id="mask-32" fill="white">
                                    <use xlink:href="#path-31"></use>
                                </mask>
                                <g id="Clip-38"></g>
                                <path d="M-98.9612288,371.377782 C33.0006972,206.129425 320.1751,89.5156781 541.40503,143.538951 C745.411429,193.367741 988.669476,153.924157 1169.8328,0.0947742432" id="Stroke-37" stroke="#95BCFA" stroke-width="0.418" mask="url(#mask-32)"></path>
                            </g>
                            <g id="Group-42" transform="translate(0.000000, 105.283381)">
                                <mask id="mask-34" fill="white">
                                    <use xlink:href="#path-33"></use>
                                </mask>
                                <g id="Clip-41"></g>
                                <path d="M-74.2662615,377.194398 C61.0892839,206.278142 348.884025,91.4111066 570.107874,145.440321 C774.120354,195.26317 1019.1117,154.132287 1200.26895,0.296962548" id="Stroke-40" stroke="#A8C7FB" stroke-width="0.453" mask="url(#mask-34)"></path>
                            </g>
                            <g id="Group-45" transform="translate(0.000000, 112.946675)">
                                <mask id="mask-36" fill="white">
                                    <use xlink:href="#path-35"></use>
                                </mask>
                                <g id="Clip-44"></g>
                                <path d="M-49.5737269,382.785907 C89.1815197,206.207694 377.590518,93.087369 598.814367,147.116583 C802.826847,196.939432 1049.5515,154.115309 1230.70874,0.279984848" id="Stroke-43" stroke="#BAD3FD" stroke-width="0.488" mask="url(#mask-36)"></path>
                            </g>
                            <g id="Group-48" transform="translate(0.000000, 120.561029)">
                                <mask id="mask-38" fill="white">
                                    <use xlink:href="#path-37"></use>
                                </mask>
                                <g id="Clip-47"></g>
                                <path d="M-24.8787596,388.428732 C117.276188,206.18262 406.293362,94.8090064 627.517211,148.832279 C831.529691,198.661069 1079.98764,154.137765 1261.14488,0.308382105" id="Stroke-46" stroke="#CCDEFD" stroke-width="0.523" mask="url(#mask-38)"></path>
                            </g>
                            <g id="Group-51" transform="translate(0.000000, 128.048156)">
                                <mask id="mask-40" fill="white">
                                    <use xlink:href="#path-39"></use>
                                </mask>
                                <g id="Clip-50"></g>
                                <path d="M-0.186225034,394.196409 C145.368424,206.288339 434.999856,96.6554952 656.223704,150.684709 C860.236185,200.507558 1110.42743,154.296955 1291.58468,0.467571931" id="Stroke-49" stroke="#DCE9FE" stroke-width="0.558" mask="url(#mask-40)"></path>
                            </g>
                            <g id="Group-54" transform="translate(24.327021, 135.662510)">
                                <mask id="mask-42" fill="white">
                                    <use xlink:href="#path-41"></use>
                                </mask>
                                <g id="Clip-53"></g>
                                <path d="M0.179288458,399.839234 C149.127557,206.263266 439.379328,98.3830738 660.603176,152.406347 C864.615657,202.235137 1116.54021,154.325352 1297.69745,0.495969188" id="Stroke-52" stroke="#EDF4FE" stroke-width="0.593" mask="url(#mask-42)"></path>
                            </g>
                            <g id="Group-57" transform="translate(48.654042, 143.652643)">
                                <mask id="mask-44" fill="white">
                                    <use xlink:href="#path-43"></use>
                                </mask>
                                <g id="Clip-56"></g>
                                <path d="M0.547234652,405.103903 C152.895204,205.860037 443.761232,99.7265557 664.978999,153.749828 C868.991479,203.578619 1122.64933,153.975594 1303.81265,0.146210865" id="Stroke-55" stroke="#FFFFFF" stroke-width="0.628" mask="url(#mask-44)"></path>
                            </g>
                        </g>
                    </g>
                    <path d="M46.0404007,39.085759 L115.882118,39.085759 C122.68438,39.085759 128.198703,44.5384428 128.198703,51.264669 L128.198703,116.10871 C128.198703,122.826246 122.691504,128.271885 115.898031,128.271885 L46.0404007,128.271885 C39.2630095,128.237251 33.7873773,122.794698 33.7874678,116.092975 L33.7874678,51.264669 C33.7874678,44.5384428 39.3017905,39.085759 46.1040522,39.085759 L46.0404007,39.085759 Z" id="Shape" fill="#052D37" fill-rule="nonzero" mask="url(#mask-3)"></path>
                    <path d="M115.882118,129.137312 L46.0404007,129.137312 C38.8023513,129.128642 32.9369393,123.328793 32.9281712,116.171651 L32.9281712,51.264669 C32.9369393,44.1075264 38.8023513,38.3076778 46.0404007,38.2990078 L115.882118,38.2990078 C123.120167,38.3076778 128.985579,44.1075264 128.994348,51.264669 L128.994348,116.092975 C129.011272,119.544023 127.637792,122.859693 125.177395,125.307351 C122.716997,127.755009 119.372216,129.133169 115.882118,129.137312 Z M46.0404007,39.8725103 C39.6811957,39.8811776 34.5282265,44.9765471 34.5194612,51.264669 L34.5194612,116.092975 C34.4982638,119.127972 35.7027093,122.045865 37.8656064,124.199356 C40.0285034,126.352846 42.971022,127.563882 46.0404007,127.563809 L115.882118,127.563809 C122.244957,127.563809 127.403058,122.463366 127.403058,116.171651 L127.403058,51.264669 C127.394292,44.9765471 122.241323,39.8811776 115.882118,39.8725103 L46.0404007,39.8725103 Z" id="Shape" fill="#4C5053" fill-rule="nonzero" mask="url(#mask-3)"></path>
                    <path d="M46.0404007,40.2344159 L115.882118,40.2344159 C122.034034,40.2344159 127.021148,45.1657836 127.021148,51.248934 L127.021148,116.092975 C127.021148,122.176126 122.034034,127.107493 115.882118,127.107493 L46.0404007,127.107493 C39.8884843,127.107493 34.9013708,122.176126 34.9013708,116.092975 L34.9013708,51.248934 C34.9013708,45.1657836 39.8884843,40.2344159 46.0404007,40.2344159 Z" id="Shape" fill="url(#radialGradient-45)" fill-rule="nonzero" mask="url(#mask-3)"></path>
                    <path d="M127.037061,55.3085707 L127.037061,54.5218194 L97.9164541,51.6108396 L97.9164541,40.2344159 L96.3251641,40.2344159 L96.3251641,51.4534893 L95.561345,51.4534893 L64.4675387,51.4534893 L63.624155,51.4534893 L63.624155,40.2344159 L62.032865,40.2344159 L62.032865,51.6265746 L34.9809353,54.3329991 L34.9809353,55.9065016 L61.3486103,53.2630173 C57.8041126,60.0157296 58.2866934,68.1460206 62.6057294,74.4423621 L34.9013708,74.4423621 L34.9013708,76.0158646 L63.5445905,76.0158646 C67.0562276,80.9815459 67.0562276,87.5876955 63.5445905,92.5533768 L34.9013708,92.5533768 L34.9013708,94.1268793 L62.5261649,94.1268793 C58.1731748,100.476416 57.7202411,108.683345 61.3486103,115.463574 L34.9013708,112.835825 L34.9013708,114.409328 L61.9533005,117.131487 L61.9533005,127.123228 L63.5445905,127.123228 L63.5445905,117.288837 L64.4675387,117.383248 L95.6409095,117.383248 L96.4842931,117.304572 L96.4842931,127.138964 L98.0755831,127.138964 L98.0755831,117.147222 L127.037061,114.251977 L127.037061,113.402286 L127.037061,112.615535 L98.8553152,115.432104 C102.486167,108.650563 102.02689,100.439643 97.6618477,94.0954093 L127.037061,94.0954093 L127.037061,92.5219067 L96.2296867,92.5219067 C92.7651201,87.5326304 92.7968341,80.9408498 96.3092512,75.9843946 L127.037061,75.9843946 L127.037061,74.410892 L97.5981961,74.410892 C101.917232,68.1145506 102.399813,59.9842595 98.8553152,53.2315473 L126.957496,56.0481169 L127.037061,55.3085707 Z M99.6191344,62.829913 C99.607795,67.0332898 98.2049552,71.1173951 95.6249966,74.4580971 L95.6249966,74.4580971 L95.6249966,74.4580971 L95.6249966,74.4580971 L95.5454321,74.4580971 C91.048425,80.2545164 91.048425,88.314725 95.5454321,94.1111443 L95.6727353,94.0167342 L95.6727353,94.0167342 L95.6727353,94.0167342 C100.510375,100.234976 101.015109,108.744503 96.9457672,115.479309 L97.0412446,115.479309 L95.6249966,115.620925 L64.6266677,115.620925 L63.146768,115.463574 L63.146768,115.463574 C59.0954882,108.722347 59.6060564,100.220735 64.4357129,94.0009991 L64.4357129,94.0009991 L64.4357129,94.0009991 C64.5471032,93.8593839 64.6425806,93.7177687 64.7539709,93.5918885 L64.7539709,93.5918885 C68.8044967,88.0102357 68.8044967,80.4960656 64.7539709,74.9144128 L64.7539709,74.9144128 L64.4357129,74.4895671 L64.4357129,74.4895671 L64.4357129,74.4895671 C59.6306376,68.2979151 59.1141376,59.8397853 63.1308551,53.1214021 L64.4834516,52.9797868 L95.4817805,52.9797868 L96.9298543,53.1214021 C98.6822313,56.0640195 99.6104667,59.4150219 99.6191344,62.829913 Z" id="Shape" fill="#C5D1D8" fill-rule="nonzero" mask="url(#mask-3)"></path>
                    <path d="M127.673577,111.702903 L99.4918312,114.519473 C103.1202,107.739244 102.667267,99.5323146 98.3142766,93.1827778 L127.673577,93.1827778 L127.673577,91.6092752 L96.8980285,91.6092752 C93.4095847,86.6363946 93.4095847,80.0446437 96.8980285,75.0717631 L127.673577,75.0717631 L127.673577,73.4982605 L98.250625,73.4982605 C102.569661,67.2019191 103.052242,59.071628 99.5077441,52.3189158 L127.673577,55.1826905 L127.832706,53.6091879 L98.5847959,50.651003 L98.5847959,39.2745794 L96.9935059,39.2745794 L96.9935059,50.4621827 L96.2296867,50.4621827 L65.1358805,50.4621827 L64.2924968,50.5565929 L64.2924968,39.2745794 L62.7012068,39.2745794 L62.7012068,50.666738 L33.6601646,53.6091879 L33.8192936,55.1826905 L61.9214747,52.3661208 C58.4015312,59.1239899 58.8833333,67.2411625 63.1785938,73.5454656 L33.7874678,73.5454656 L33.7874678,75.1189682 L64.260671,75.1189682 C67.7491148,80.0918487 67.7491148,86.6835997 64.260671,91.6564803 L33.7874678,91.6564803 L33.7874678,93.2299829 L63.1945067,93.2299829 C58.8502974,99.5811728 58.3916686,107.780495 62.0010392,114.566678 L33.7874678,111.702903 L33.6283388,113.276406 L62.669381,116.171651 L62.669381,127.988655 L64.260671,127.988655 L64.260671,116.344736 L65.1836192,116.344736 L96.3092512,116.344736 L97.1526349,116.344736 L97.1526349,127.988655 L98.7439249,127.988655 L98.7439249,116.187386 L127.769054,113.276406 L127.673577,111.702903 Z M96.2933383,114.849908 L65.2950095,114.849908 L63.7991969,114.692558 L63.8946743,114.692558 C59.8477706,107.952339 60.3517113,99.4561944 65.1677063,93.2299829 L65.1677063,93.2299829 L65.1677063,93.2299829 C65.2594182,93.0872798 65.3604128,92.9506215 65.4700514,92.8208722 L65.4700514,92.8208722 C69.5129696,87.2425881 69.5129696,79.7374157 65.4700514,74.1591316 L65.4700514,74.1591316 L65.1677063,73.7342859 L65.1677063,73.7342859 L65.1677063,73.7342859 C60.3840169,67.534753 59.8683205,59.0897832 63.8628485,52.3661208 L65.2313579,52.2245056 L96.1501222,52.2245056 L97.5822832,52.3661208 C101.599001,59.0845041 101.082501,67.5426339 96.2774254,73.7342859 L96.2774254,73.7342859 L96.2774254,73.7342859 L96.2774254,73.7342859 L96.2774254,73.7342859 C91.7774977,79.5238742 91.7774977,87.5820098 96.2774254,93.3715981 L96.4047286,93.3715981 L96.4047286,93.3715981 L96.4047286,93.3715981 C101.220724,99.5978096 101.724664,108.093954 97.6777606,114.834173 L97.773238,114.834173 L96.2933383,114.849908 Z" id="Shape" fill="#4C5053" fill-rule="nonzero" mask="url(#mask-3)"></path>
                    <rect id="Rectangle-path" mask="url(#mask-3)" fill-rule="nonzero" x="-7" y="-7" width="707.662569" height="441.273064" rx="16.16"></rect>
                </g>
            </g>
        </g>
    </g>
</svg>