<?xml version="1.0" encoding="UTF-8"?>
<svg width="206px" height="196px" viewBox="0 0 206 196" version="1.1" xmlns="http://www.w3.org/2000/svg" xmlns:xlink="http://www.w3.org/1999/xlink">
    <!-- Generator: Sketch 45.2 (43514) - http://www.bohemiancoding.com/sketch -->
    <title>casa-noite</title>
    <desc>Created with Sketch.</desc>
    <defs>
        <path d="M75.9000294,103.104821 L75.9000294,91.4560517 L78.111891,91.4560517 L75.9000294,91.4560517 L75.9000294,93.6679133 L78.111891,93.6679133 L78.111891,98.028967 L75.9000294,99.0596945 L75.9000294,104.290747 L78.111891,103.259282 L78.111891,110.500917 L75.9000294,111.531645 L75.9000294,113.142617 L75.9000294,103.104821 Z M75.9000294,66.0801014 L75.9000294,67.1860321 L78.111891,67.1860321 L78.111891,72.050653 L75.9000294,73.0813805 L75.9000294,78.3116958 L78.111891,77.280231 L78.111891,87.0330659 L75.9000294,87.0330659 L75.9000294,88.1389967 L75.9000294,66.0801014 Z" id="path-1"></path>
        <path d="M19.5410596,2.24503948 L0.696736391,2.24503948 L0.696736391,0.0331779234 L20.6034904,0.0331779234 L20.6034904,1.74958249 L19.5410596,2.24503948 Z M0.696736391,0.0331779234 L20.6034904,0.0331779234 L20.6034904,2.24503948 L0.696736391,2.24503948 L0.696736391,0.0331779234 Z" id="path-3"></path>
        <polygon id="path-5" points="2.17131076 0.769727823 0.627431396 0.769727823 2.17131076 0.0501355287"></polygon>
        <polygon id="path-7" points="0.696736391 0.830185372 0.233720038 0.830185372 0.696736391 0.614160226"></polygon>
        <polygon id="path-9" points="1.43402358 0.77046511 0.371592742 0.77046511 1.43402358 0.275008121"></polygon>
        <path d="M2.4455816,2.30475974 L0.696736391,2.30475974 L0.696736391,0.0928981855 L2.90859795,0.0928981855 L2.90859795,2.0887346 L2.4455816,2.30475974 Z M0.696736391,0.0928981855 L2.90859795,0.0928981855 L2.90859795,2.30475974 L0.696736391,2.30475974 L0.696736391,0.0928981855 Z" id="path-11"></path>
        <polygon id="path-13" points="0.0331779234 0.673143201 0.0331779234 0.0331779234 1.40526938 0.0331779234"></polygon>
        <polygon id="path-15" points="0.0331779234 0.29860131 0.0331779234 0.0324406362 0.603100918 0.0324406362"></polygon>
        <polygon id="path-17" points="1.5077523 0.77046511 0.506516297 0.77046511 1.5077523 0.303762321"></polygon>
        <path d="M0.167364191,0.241830197 C0.167364191,0.230033602 0.166626904,0.218974294 0.166626904,0.207914987 C0.166626904,0.218974294 0.167364191,0.230770889 0.167364191,0.241830197 Z" id="path-19"></path>
    </defs>
    <g id="telas-principais" stroke="none" stroke-width="1" fill="none" fill-rule="evenodd">
        <g id="Artboard" transform="translate(-302.000000, -327.000000)">
            <g id="casa-noite" transform="translate(302.296875, 327.618896)">
                <g id="Group-14" fill="#D8D8D8">
                    <path d="M32.0867384,53.6018358 C28.2484213,49.7649933 25.2506116,44.9099572 23.7406474,39.5248116 C22.2122511,34.1308185 22.2623866,28.5384952 23.6271052,23.4644848 C24.9977221,18.3698303 27.7278965,13.7912769 30.7846892,10.2913746 C33.8414819,6.77377746 37.1614861,4.31934842 39.6129659,2.75998602 C42.0821407,1.21536936 43.6466641,0.477344889 43.6304438,0.457438135 C43.6289693,0.485455048 41.987768,0.0600403412 38.8587212,0.00105736629 C35.7554794,-0.024010398 31.0508499,0.382234842 25.5669078,2.76957075 C20.1544825,5.1259406 13.9096601,9.64772291 9.56408938,17.0618829 C5.22146785,24.3846192 3.27945341,34.6270128 6.11505992,44.4956018 C8.88283602,54.4047416 15.7742594,61.9862657 23.0070467,66.1025401 C30.2988169,70.3323566 37.8309428,71.413957 43.7004861,70.9959151 C49.6275378,70.5889326 53.9952271,68.8437738 56.7615286,67.4370299 C59.5322539,65.9853114 60.8099726,64.8653722 60.823981,64.8874908 C60.9131928,64.7658384 53.6958885,65.3276512 44.8668744,61.9147488 C40.5058207,60.2212002 35.9073606,57.4504749 32.0867384,53.6018358 Z" id="Path"></path>
                    <polygon id="Path" points="9.68568163 77.419174 6.26899254 73.5491406 5.27474076 78.6152956 0.538565249 80.669795 5.05000966 83.1797955 5.539587 88.3201419 9.32119454 84.805106 14.3606061 85.9274675 12.1866239 81.2447788 14.8113623 76.798899"></polygon>
                    <polygon id="Path" points="53.9229128 25.809071 50.5062237 21.9390376 49.5119719 27.0051925 44.7757964 29.059692 49.2872408 31.5696925 49.7768182 36.7100389 53.5584257 33.195003 58.5978372 34.3173644 56.423855 29.6346758 59.0485935 25.1887959"></polygon>
                </g>
                <g id="Group-5" transform="translate(28.754200, 8.847446)">
                    <g id="Group" transform="translate(0.000000, 5.161010)">
                        <polygon id="Fill-499" fill="#2E3F4F" points="7.68990535 181.372648 53.8389222 181.372648 53.8389222 95.2737248 7.68990535 95.2737248"></polygon>
                        <polygon id="Fill-500" fill="#636463" points="51.9271365 181.372648 169.260494 181.372648 169.260494 42.6247841 51.9271365 42.6247841"></polygon>
                        <polyline id="Fill-501" fill="#2E3F4F" points="59.75344 32.9670593 113.5061 0.602363631 171.0145 39.7250336 169.260494 50.4282317 161.425343 50.4407656 161.425343 171.975923 59.75344 171.975923 59.75344 32.9670593"></polyline>
                        <path d="M0.31703349,174.585182 C0.31703349,173.143786 1.48489639,171.975923 2.92629284,171.975923 L174.024106,171.975923 C175.465503,171.975923 176.633366,173.143786 176.633366,174.585182 L176.633366,181.372648 L0.31703349,181.372648 L0.31703349,174.585182" id="Fill-502" fill="#E15E49"></path>
                        <polygon id="Fill-507" fill="#24323E" points="59.75344 52.6400932 59.7622875 52.6400932 59.7622875 50.4407656 59.75344 50.4407656"></polygon>
                        <polygon id="Fill-508" fill="#FFFFFE" points="68.6008863 171.975923 152.577897 171.975923 152.577897 123.60251 68.6008863 123.60251"></polygon>
                        <polyline id="Fill-510" fill="#E5E5E0" points="68.6008863 169.764061 68.6008863 123.60251 68.6008863 169.764061"></polyline>
                        <polyline id="Fill-512" fill="#E5E5E0" points="150.366035 125.814372 70.8127478 125.814372 70.8127478 123.60251 68.6008863 123.60251 68.6008863 125.814372 68.6008863 123.60251 152.577897 123.60251 152.577897 125.814372"></polyline>
                        <polygon id="Fill-513" fill="#E5E5E0" points="70.8127478 135.696232 150.366035 135.696232 150.366035 133.484371 70.8127478 133.484371"></polygon>
                        <polygon id="Fill-514" fill="#E5E5E0" points="70.8127478 147.789954 150.366035 147.789954 150.366035 145.578092 70.8127478 145.578092"></polygon>
                        <polygon id="Fill-515" fill="#E5E5E0" points="70.8127478 159.882938 150.366035 159.882938 150.366035 157.671077 70.8127478 157.671077"></polygon>
                        <path d="M150.366035,169.764061 L152.577897,169.764061 L152.577897,157.671077 L150.366035,157.671077 L150.366035,169.764061 Z M150.366035,157.671077 L152.577897,157.671077 L152.577897,145.578092 L150.366035,145.578092 L150.366035,157.671077 Z M150.366035,145.578092 L152.577897,145.578092 L152.577897,133.484371 L150.366035,133.484371 L150.366035,145.578092 Z M150.366035,133.484371 L152.577897,133.484371 L152.577897,125.814372 L150.366035,125.814372 L150.366035,133.484371 Z" id="Fill-517" fill="#E5E5E0"></path>
                        <path d="M68.6008863,169.764061 L70.8127478,169.764061 L70.8127478,159.882938 L68.6008863,159.882938 L68.6008863,169.764061 Z M68.6008863,159.882938 L70.8127478,159.882938 L70.8127478,147.789954 L68.6008863,147.789954 L68.6008863,159.882938 Z M68.6008863,147.789954 L70.8127478,147.789954 L70.8127478,135.696232 L68.6008863,135.696232 L68.6008863,147.789954 Z M68.6008863,135.696232 L70.8127478,135.696232 L70.8127478,123.60251 L68.6008863,123.60251 L68.6008863,135.696232 Z" id="Fill-522" fill="#E5E5E0"></path>
                        <path d="M169.260494,171.975923 L51.9381958,171.975923 L169.260494,171.975923 M49.7263343,171.975923 L7.68990535,171.975923 L49.7263343,171.975923" id="Fill-530" fill="#BA262B"></path>
                        <polygon id="Fill-533" fill="#CBCAC5" points="68.6008863 171.975923 152.577897 171.975923 152.577897 169.764061 68.6008863 169.764061"></polygon>
                        <polyline id="Fill-538" fill="#2E3F4F" points="51.9271365 95.2737248 1.79160786 95.2737248 1.79160786 86.334855"></polyline>
                        <polyline id="Fill-539" fill="#E15E49" points="150.366035 30.5214777 164.83972 38.7835179 164.83972 10.8484437 150.366035 10.8484437 150.366035 30.5214777"></polyline>
                        <polygon id="Fill-540" fill="#636463" points="1.79160786 95.2737248 51.9381958 95.2737248 51.9381958 86.334855 1.79160786 86.334855"></polygon>
                        <path d="M147.416886,12.0856116 C147.416886,12.9003139 148.077496,13.5609232 148.891461,13.5609232 L166.314294,13.5609232 C167.128997,13.5609232 167.788869,12.9003139 167.788869,12.0856116 L167.788869,6.52351703 C167.788869,5.70955197 167.128997,5.04894265 166.314294,5.04894265 L148.891461,5.04894265 C148.077496,5.04894265 147.416886,5.70955197 147.416886,6.52351703 L147.416886,12.0856116" id="Fill-541" fill="#931F34"></path>
                    </g>
                    <g id="Group-3" transform="translate(16.220318, 0.000000)">
                        <g id="Group-564" transform="translate(30.228775, 0.000000)">
                            <polyline id="Fill-544" fill="#636463" points="64.1447225 0.606787354 128.182538 43.9445282 128.182538 55.6017759 114.97625 55.6017759 114.97625 46.662906 64.1447225 12.2596113 13.3131947 46.662906 13.3131947 55.6017759 0.106906642 55.6017759 0.106906642 43.9445282 64.1447225 0.606787354"></polyline>
                            <polyline id="Fill-554" fill="#4B5D71" points="118.390627 37.333274 103.916942 27.5369391 103.916942 27.5229307 118.390627 37.3177909 118.390627 37.333274"></polyline>
                            <path d="M98.018645,112.541728 L97.5062304,112.541728 L98.018645,112.302847 L98.018645,112.541728 M78.111891,110.500917 L78.111891,103.259282 L98.018645,93.9797858 L98.018645,101.221421 L78.111891,110.500917 M78.111891,98.028967 L78.111891,93.6679133 L83.2729013,93.6679133 L83.2729013,91.4560517 L78.111891,91.4560517 L92.2117711,91.4560517 L83.2729013,91.4560517 L83.2729013,93.6679133 L87.4665908,93.6679133 L78.111891,98.028967 M98.018645,87.0330659 L78.111891,87.0330659 L78.111891,77.280231 L98.018645,68.0007345 L98.018645,87.0330659 M78.111891,72.050653 L78.111891,67.1860321 L88.5474538,67.1860321 L78.111891,72.050653" id="Fill-555"></path>
                            <polygon id="Fill-557" fill="#FFFFFE" points="100.230507 116.965451 102.442368 116.965451 102.442368 62.7615717 100.230507 62.7615717"></polygon>
                            <polygon id="Fill-558" fill="#FFFFFE" points="73.6881678 116.966926 75.9000294 116.966926 75.9000294 62.762309 73.6881678 62.762309"></polygon>
                            <polygon id="Fill-559" fill="#FFFFFE" points="75.9000294 116.965451 100.230507 116.965451 100.230507 114.75359 75.9000294 114.75359"></polygon>
                            <polygon id="Fill-560" fill="#FFFFFE" points="75.9000294 91.4560517 100.230507 91.4560517 100.230507 89.2449275 75.9000294 89.2449275"></polygon>
                            <polygon id="Fill-561" fill="#FFFFFE" points="75.9000294 64.9741706 100.230507 64.9741706 100.230507 62.762309 75.9000294 62.762309"></polygon>
                            <mask id="mask-2" fill="white">
                                <use xlink:href="#path-1"></use>
                            </mask>
                            <g id="Clip-563"></g>
                            <polygon id="Fill-568" mask="url(#mask-2)" points="75.9000294 93.6679133 78.111891 93.6679133 78.111891 91.4560517 75.9000294 91.4560517"></polygon>
                            <g id="Group-572" mask="url(#mask-2)">
                                <g transform="translate(77.415155, 86.999888)">
                                    <mask id="mask-4" fill="white">
                                        <use xlink:href="#path-3"></use>
                                    </mask>
                                    <g id="Clip-571" stroke="none" fill="none"></g>
                                    <polyline id="Fill-570" stroke="none" fill="none" mask="url(#mask-4)" points="19.5410596 2.24503948 0.696736391 2.24503948 0.696736391 0.0331779234 20.6034904 0.0331779234 20.6034904 1.74958249 19.5410596 2.24503948"></polyline>
                                </g>
                            </g>
                            <polygon id="Fill-573" mask="url(#mask-2)" points="75.9000294 89.2449275 78.111891 89.2449275 78.111891 87.0330659 75.9000294 87.0330659"></polygon>
                            <polyline id="Fill-575" mask="url(#mask-2)" points="87.4665908 93.6679133 83.2729013 93.6679133 83.2729013 91.4560517 92.2117711 91.4560517 87.4665908 93.6679133"></polyline>
                            <polyline id="Fill-577" mask="url(#mask-2)" points="88.5474538 67.1860321 78.111891 67.1860321 78.111891 64.9741706 93.2926341 64.9741706 88.5474538 67.1860321"></polyline>
                            <polygon id="Fill-579" mask="url(#mask-2)" points="75.9000294 67.1860321 78.111891 67.1860321 78.111891 64.9741706 75.9000294 64.9741706"></polygon>
                            <polyline id="Fill-581" mask="url(#mask-2)" points="98.018645 114.75359 92.7610501 114.75359 97.5062304 112.541728 98.018645 112.541728 98.018645 114.75359"></polyline>
                            <polyline id="Fill-583" mask="url(#mask-2)" points="100.230507 112.541728 98.018645 112.541728 98.018645 112.302847 100.230507 111.271382 100.230507 112.541728"></polyline>
                            <polyline id="Fill-585" fill="#E5E5E0" mask="url(#mask-2)" points="100.230507 114.75359 100.230507 111.271382 100.230507 114.75359"></polyline>
                            <polyline id="Fill-586" mask="url(#mask-2)" points="98.018645 101.221421 98.018645 93.9797858 98.6866272 93.6679133 100.230507 93.6679133 100.230507 100.189956 98.018645 101.221421"></polyline>
                            <polyline id="Fill-588" fill="#E5E5E0" mask="url(#mask-2)" points="100.230507 100.189956 100.230507 92.948321 100.230507 100.189956"></polyline>
                            <polyline id="Fill-589" mask="url(#mask-2)" points="100.230507 87.0330659 98.018645 87.0330659 98.018645 68.0007345 99.7674902 67.1860321 100.230507 67.1860321 100.230507 87.0330659"></polyline>
                            <polyline id="Fill-591" fill="#E5E5E0" mask="url(#mask-2)" points="100.230507 87.718743 100.230507 66.970007 100.230507 87.718743"></polyline>
                            <polyline id="Fill-592" mask="url(#mask-2)" points="98.018645 88.7494705 98.018645 87.0330659 100.230507 87.0330659 100.230507 87.718743 98.018645 88.7494705"></polyline>
                            <g id="Group-596" mask="url(#mask-2)">
                                <g transform="translate(98.059196, 92.898185)">
                                    <mask id="mask-6" fill="white">
                                        <use xlink:href="#path-5"></use>
                                    </mask>
                                    <g id="Clip-595" stroke="none" fill="none"></g>
                                    <polyline id="Fill-594" stroke="none" fill="none" mask="url(#mask-6)" points="2.17131076 0.769727823 0.627431396 0.769727823 2.17131076 0.0501355287 2.17131076 0.769727823"></polyline>
                                </g>
                            </g>
                            <g id="Group-599" mask="url(#mask-2)">
                                <g transform="translate(99.533770, 66.355847)">
                                    <mask id="mask-8" fill="white">
                                        <use xlink:href="#path-7"></use>
                                    </mask>
                                    <g id="Clip-598" stroke="none" fill="none"></g>
                                    <polyline id="Fill-597" stroke="none" fill="none" mask="url(#mask-8)" points="0.696736391 0.830185372 0.233720038 0.830185372 0.696736391 0.614160226 0.696736391 0.830185372"></polyline>
                                </g>
                            </g>
                            <polygon id="Fill-600" mask="url(#mask-2)" points="98.018645 114.75359 100.230507 114.75359 100.230507 112.541728 98.018645 112.541728"></polygon>
                            <polygon id="Fill-606" fill="#E5E5E0" mask="url(#mask-2)" points="100.230507 62.762309 102.442368 62.762309 102.442368 62.7615717 100.230507 62.7615717"></polygon>
                            <polyline id="Fill-607" mask="url(#mask-2)" points="97.5062304 112.541728 78.111891 112.541728 78.111891 110.500917 98.018645 101.221421 98.018645 112.302847 97.5062304 112.541728"></polyline>
                            <polyline id="Fill-609" mask="url(#mask-2)" points="78.111891 112.541728 75.9000294 112.541728 75.9000294 111.531645 78.111891 110.500917 78.111891 112.541728"></polyline>
                            <polyline id="Fill-611" mask="url(#mask-2)" points="92.7610501 114.75359 78.111891 114.75359 78.111891 112.541728 97.5062304 112.541728 92.7610501 114.75359"></polyline>
                            <polyline id="Fill-613" fill="#E6EBE6" mask="url(#mask-2)" points="92.7610501 114.75359 75.9000294 114.75359 92.7610501 114.75359"></polyline>
                            <polygon id="Fill-614" mask="url(#mask-2)" points="75.9000294 114.75359 78.111891 114.75359 78.111891 112.541728 75.9000294 112.541728"></polygon>
                            <polyline id="Fill-616" mask="url(#mask-2)" points="98.018645 112.302847 98.018645 101.221421 100.230507 100.189956 100.230507 111.271382 98.018645 112.302847"></polyline>
                            <polyline id="Fill-618" mask="url(#mask-2)" points="78.111891 103.259282 78.111891 98.028967 87.4665908 93.6679133 98.018645 93.6679133 98.018645 93.9797858 78.111891 103.259282"></polyline>
                            <polyline id="Fill-620" mask="url(#mask-2)" points="75.9000294 104.290747 75.9000294 99.0596945 78.111891 98.028967 78.111891 103.259282 75.9000294 104.290747"></polyline>
                            <polyline id="Fill-622" fill="#FFFFFE" mask="url(#mask-2)" points="98.018645 91.4560517 92.2117711 91.4560517 96.9562142 89.2449275 98.018645 89.2449275 98.018645 91.4560517"></polyline>
                            <g id="Group-625" mask="url(#mask-2)">
                                <g transform="translate(96.584621, 88.474462)">
                                    <mask id="mask-10" fill="white">
                                        <use xlink:href="#path-9"></use>
                                    </mask>
                                    <g id="Clip-624" stroke="none" fill="none"></g>
                                    <polyline id="Fill-623" stroke="none" fill="none" mask="url(#mask-10)" points="1.43402358 0.77046511 0.371592742 0.77046511 1.43402358 0.275008121 1.43402358 0.77046511"></polyline>
                                </g>
                            </g>
                            <g id="Group-630" mask="url(#mask-2)">
                                <g transform="translate(97.321909, 93.635473)" id="Fill-628">
                                    <polyline points="0.696736391 0.344313116 0.696736391 0.0324406362 1.36471858 0.0324406362 0.696736391 0.344313116"></polyline>
                                </g>
                            </g>
                            <polyline id="Fill-632" mask="url(#mask-2)" points="100.230507 89.2449275 98.018645 89.2449275 98.018645 88.7494705 100.230507 87.718743 100.230507 89.2449275"></polyline>
                            <polyline id="Fill-634" mask="url(#mask-2)" points="98.6866272 93.6679133 98.018645 93.6679133 98.018645 91.4560517 100.230507 91.4560517 100.230507 92.948321 98.6866272 93.6679133"></polyline>
                        </g>
                        <g id="Group-2" transform="translate(0.000000, 33.177923)">
                            <polyline id="Fill-636" points="108.340666 44.1023076 108.340666 38.8727296 118.776228 34.0081088 128.24742 34.0081088 128.24742 34.8228111 108.340666 44.1023076"></polyline>
                            <polyline id="Fill-638" points="106.128804 45.1337724 106.128804 39.9034571 108.340666 38.8727296 108.340666 44.1023076 106.128804 45.1337724"></polyline>
                            <polyline id="Fill-640" fill="#FFFFFE" points="130.459281 31.7962472 123.521409 31.7962472 128.266589 29.5843856 130.459281 29.5843856 130.459281 31.7962472"></polyline>
                            <polyline id="Fill-641" points="128.24742 34.0081088 118.776228 34.0081088 123.521409 31.7962472 130.459281 31.7962472 128.24742 31.7962472 128.24742 34.0081088"></polyline>
                            <polyline id="Fill-643" points="128.24742 34.8228111 128.24742 34.0081088 129.996265 34.0081088 128.24742 34.8228111"></polyline>
                            <g id="Group-647" transform="translate(127.550683, 31.703349)">
                                <mask id="mask-12" fill="white">
                                    <use xlink:href="#path-11"></use>
                                </mask>
                                <g id="Clip-646"></g>
                                <polyline id="Fill-645" mask="url(#mask-12)" points="2.4455816 2.30475974 0.696736391 2.30475974 0.696736391 0.0928981855 2.90859795 0.0928981855 2.90859795 2.0887346 2.4455816 2.30475974"></polyline>
                            </g>
                            <polygon id="Fill-650" fill="#FFFFFE" points="82.6093428 83.7875277 84.8212044 83.7875277 84.8212044 29.5836484 82.6093428 29.5836484"></polygon>
                            <polygon id="Fill-651" fill="#FFFFFE" points="56.0670041 83.7890023 58.2788656 83.7890023 58.2788656 29.5843856 56.0670041 29.5843856"></polygon>
                            <polygon id="Fill-652" fill="#FFFFFE" points="58.2788656 83.7875277 82.6093428 83.7875277 82.6093428 81.5756662 58.2788656 81.5756662"></polygon>
                            <polygon id="Fill-653" fill="#FFFFFE" points="58.2788656 58.2781284 82.6093428 58.2781284 82.6093428 56.0670041 58.2788656 56.0670041"></polygon>
                            <polygon id="Fill-654" fill="#FFFFFE" points="58.2788656 31.7962472 82.6093428 31.7962472 82.6093428 29.5843856 58.2788656 29.5843856"></polygon>
                            <polyline id="Fill-657" fill="#E5E5E0" points="58.2788656 58.2781284 58.2788656 56.0670041 59.4894912 56.0670041 58.2788656 56.6317661 58.2788656 58.2781284"></polyline>
                            <polyline id="Fill-658" points="65.6517375 60.4899899 60.4907272 60.4899899 60.4907272 59.7246858 63.593969 58.2781284 65.6517375 58.2781284 65.6517375 60.4899899"></polyline>
                            <polyline id="Fill-660" points="60.4907272 60.4899899 58.8487886 60.4899899 60.4907272 59.7246858 60.4907272 60.4899899"></polyline>
                            <polyline id="Fill-662" points="80.3974812 56.0670041 68.338412 56.0670041 73.0835923 53.8551425 80.3974812 53.8551425 80.3974812 56.0670041"></polyline>
                            <polyline id="Fill-664" points="60.4907272 55.6003013 60.4907272 53.8551425 64.2346715 53.8551425 60.4907272 55.6003013"></polyline>
                            <polygon id="Fill-668" points="65.6517375 60.4899899 80.3974812 60.4899899 80.3974812 58.2781284 65.6517375 58.2781284"></polygon>
                            <polyline id="Fill-670" points="80.3974812 34.0081088 65.0714925 34.0081088 69.8166728 31.7962472 82.6093428 31.7962472 80.3974812 31.7962472 80.3974812 34.0081088"></polyline>
                            <polyline id="Fill-672" points="80.3974812 81.5756662 62.7718938 81.5756662 67.5163368 79.3638046 80.3974812 79.3638046 80.3974812 81.5756662"></polyline>
                            <polyline id="Fill-674" points="82.6093428 79.3638046 80.3974812 79.3638046 80.3974812 73.3593378 82.6093428 72.327873 82.6093428 79.3638046"></polyline>
                            <polyline id="Fill-676" fill="#E5E5E0" points="82.6093428 81.5756662 82.6093428 72.327873 82.6093428 81.5756662"></polyline>
                            <polyline id="Fill-679" fill="#E5E5E0" points="82.6093428 60.7944895 82.6093428 49.4151991 82.6093428 60.7944895"></polyline>
                            <polyline id="Fill-681" points="80.3974812 46.3208048 80.3974812 44.1841465 82.6093428 43.1526817 82.6093428 45.28934 80.3974812 46.3208048"></polyline>
                            <polyline id="Fill-683" points="80.3974812 37.6252397 80.3974812 34.0081088 82.6093428 34.0081088 82.6093428 36.5937749 80.3974812 37.6252397"></polyline>
                            <polyline id="Fill-685" fill="#E5E5E0" points="82.6093428 36.5937749 82.6093428 31.7962472 82.6093428 36.5937749"></polyline>
                            <polygon id="Fill-686" points="80.3974812 56.0670041 82.6093428 56.0670041 82.6093428 53.8551425 80.3974812 53.8551425"></polygon>
                            <polygon id="Fill-688" points="80.3974812 60.4899899 82.6093428 60.4899899 82.6093428 58.2781284 80.3974812 58.2781284"></polygon>
                            <polygon id="Fill-690" points="80.3974812 34.0081088 82.6093428 34.0081088 82.6093428 31.7962472 80.3974812 31.7962472"></polygon>
                            <polygon id="Fill-692" points="80.3974812 81.5756662 82.6093428 81.5756662 82.6093428 79.3638046 80.3974812 79.3638046"></polygon>
                            <polygon id="Fill-698" fill="#E5E5E0" points="82.6093428 29.5843856 84.8212044 29.5843856 84.8212044 29.5836484 82.6093428 29.5836484"></polygon>
                            <polyline id="Fill-699" points="60.4907272 36.1432925 60.4907272 34.0081088 65.0714925 34.0081088 60.4907272 36.1432925"></polyline>
                            <polyline id="Fill-701" points="58.2788656 37.1747572 58.2788656 34.0081088 60.4907272 34.0081088 60.4907272 36.1432925 58.2788656 37.1747572"></polyline>
                            <polyline id="Fill-703" fill="#FFFFFE" points="69.8166728 31.7962472 58.2788656 31.7962472 58.2788656 29.5843856 74.5611159 29.5843856 69.8166728 31.7962472"></polyline>
                            <polyline id="Fill-704" points="65.0714925 34.0081088 60.4907272 34.0081088 60.4907272 31.7962472 69.8166728 31.7962472 65.0714925 34.0081088"></polyline>
                            <polygon id="Fill-706" points="58.2788656 34.0081088 60.4907272 34.0081088 60.4907272 31.7962472 58.2788656 31.7962472"></polygon>
                            <polyline id="Fill-708" points="60.4907272 53.463643 60.4907272 46.9047362 80.3974812 37.6252397 80.3974812 44.1841465 60.4907272 53.463643"></polyline>
                            <g id="Group-714" transform="translate(58.245688, 53.821965)">
                                <mask id="mask-14" fill="white">
                                    <use xlink:href="#path-13"></use>
                                </mask>
                                <g id="Clip-713"></g>
                                <polyline id="Fill-712" mask="url(#mask-14)" points="0.0331779234 0.673143201 0.0331779234 0.0331779234 1.40526938 0.0331779234 0.0331779234 0.673143201"></polyline>
                            </g>
                            <polyline id="Fill-715" points="80.3974812 44.1841465 80.3974812 37.6252397 82.6093428 36.5937749 82.6093428 43.1526817 80.3974812 44.1841465"></polyline>
                            <polyline id="Fill-717" fill="#FFFFFE" points="63.593969 58.2781284 60.4907272 58.2781284 60.4907272 56.0670041 68.338412 56.0670041 63.593969 58.2781284"></polyline>
                            <g id="Group-720" transform="translate(58.245688, 60.457549)">
                                <mask id="mask-16" fill="white">
                                    <use xlink:href="#path-15"></use>
                                </mask>
                                <g id="Clip-719"></g>
                                <polyline id="Fill-718" mask="url(#mask-16)" points="0.0331779234 0.29860131 0.0331779234 0.0324406362 0.603100918 0.0324406362 0.0331779234 0.29860131"></polyline>
                            </g>
                            <polyline id="Fill-722" points="60.4907272 59.7246858 60.4907272 58.2781284 63.593969 58.2781284 60.4907272 59.7246858"></polyline>
                            <polyline id="Fill-724" points="58.8487886 60.4899899 58.2788656 60.4899899 58.2788656 58.2781284 60.4907272 58.2781284 60.4907272 59.7246858 58.8487886 60.4899899"></polyline>
                            <polyline id="Fill-726" points="73.0835923 53.8551425 64.2346715 53.8551425 80.3974812 46.3208048 80.3974812 50.4459266 73.0835923 53.8551425"></polyline>
                            <polyline id="Fill-728" points="68.338412 56.0670041 60.4907272 56.0670041 60.4907272 55.6003013 64.2346715 53.8551425 73.0835923 53.8551425 68.338412 56.0670041"></polyline>
                            <g id="Group-732" transform="translate(58.982975, 55.296539)">
                                <mask id="mask-18" fill="white">
                                    <use xlink:href="#path-17"></use>
                                </mask>
                                <g id="Clip-731"></g>
                                <polyline id="Fill-730" mask="url(#mask-18)" points="1.5077523 0.77046511 0.506516297 0.77046511 1.5077523 0.303762321 1.5077523 0.77046511"></polyline>
                            </g>
                            <polyline id="Fill-735" points="67.5163368 79.3638046 60.4907272 79.3638046 60.4907272 71.1054508 80.3974812 61.8259543 80.3974812 73.3593378 67.5163368 79.3638046"></polyline>
                            <polyline id="Fill-737" points="60.4907272 79.3638046 58.2788656 79.3638046 58.2788656 72.1361783 60.4907272 71.1054508 60.4907272 79.3638046"></polyline>
                            <polyline id="Fill-739" points="62.7718938 81.5756662 60.4907272 81.5756662 60.4907272 79.3638046 67.5163368 79.3638046 62.7718938 81.5756662"></polyline>
                            <polyline id="Fill-741" fill="#E6EBE6" points="62.7718938 81.5756662 58.2788656 81.5756662 62.7718938 81.5756662"></polyline>
                            <polygon id="Fill-742" points="58.2788656 81.5756662 60.4907272 81.5756662 60.4907272 79.3638046 58.2788656 79.3638046"></polygon>
                            <polyline id="Fill-744" points="80.3974812 73.3593378 80.3974812 61.8259543 82.6093428 60.7944895 82.6093428 72.327873 80.3974812 73.3593378"></polyline>
                            <path d="M108.548581,16.4621483 L96.9849684,16.4621483 L101.729411,14.2502867 L108.376055,14.2502867 C108.489598,14.9706163 108.548581,15.7093781 108.548581,16.4621483" id="Fill-750"></path>
                            <path d="M83.7115871,16.4621483 L80.1984137,16.4621483 C80.1984137,16.1937758 80.2065239,15.9276151 80.2212696,15.6636663 L83.2529945,14.2502867 L88.4567675,14.2502867 L83.7115871,16.4621483" id="Fill-752"></path>
                            <path d="M110.759705,16.4282331 C110.759705,16.4267585 110.759705,16.4260212 110.759705,16.4252839 C110.759705,16.4260212 110.759705,16.4267585 110.759705,16.4282331" id="Fill-754" fill="#E5E5E0"></path>
                            <path d="M77.9865521,16.4282331 C77.9865521,16.4267585 77.9865521,16.4260212 77.9865521,16.4252839 C77.9865521,16.4260212 77.9865521,16.4267585 77.9865521,16.4282331" id="Fill-755" fill="#E5E5E0"></path>
                            <g id="Group-758" transform="translate(110.593078, 16.220318)">
                                <mask id="mask-20" fill="white">
                                    <use xlink:href="#path-19"></use>
                                </mask>
                                <g id="Clip-757"></g>
                                <path d="M0.167364191,0.241830197 C0.167364191,0.230033602 0.166626904,0.218974294 0.166626904,0.207914987 C0.166626904,0.218974294 0.167364191,0.230770889 0.167364191,0.241830197" id="Fill-756" mask="url(#mask-20)"></path>
                            </g>
                            <path d="M77.9865521,16.4621483 C77.9865521,16.4525636 77.9865521,16.4429788 77.9865521,16.4333941 C77.9865521,16.4429788 77.9865521,16.4525636 77.9865521,16.4621483 M77.9865521,16.4289704 L77.9865521,16.4282331 C77.9865521,16.4282331 77.9865521,16.4282331 77.9865521,16.4289704 M110.759705,16.4252839 C110.75823,15.6872595 110.703671,14.9625062 110.607824,14.2502867 L108.376055,14.2502867 C108.225649,13.2954998 107.980132,12.3724163 107.64909,11.4906208 L109.658198,10.5535288 C108.968834,8.77224294 107.97792,7.14210097 106.746651,5.72429772 L104.645382,6.7034151 C104.095366,6.12464466 103.496689,5.59158602 102.855986,5.11161206 L105.089229,4.07056256 C104.110112,3.22268229 103.029986,2.48981883 101.868759,1.89114163 L99.2027282,3.13420783 C97.6949759,2.58566616 96.0685204,2.28706485 94.3734971,2.28706485 C88.268022,2.28706485 83.0517151,6.16740731 81.0610397,11.5908919 L78.394272,12.8339581 C78.1347469,13.9826515 77.9917131,15.1755822 77.9872894,16.402428 C78.0189928,7.37950745 85.3432037,0.075203293 94.3734971,0.075203293 C103.411163,0.075203293 110.740535,7.39204133 110.759705,16.4252839 M77.9865521,16.4252839 C77.9865521,16.4179111 77.9872894,16.4112755 77.9872894,16.4039026 C77.9872894,16.4105382 77.9865521,16.4171738 77.9865521,16.4238094 C77.9865521,16.4245467 77.9865521,16.4245467 77.9865521,16.4252839" id="Fill-759"></path>
                            <path d="M110.760442,16.4621483 L108.548581,16.4621483 C108.548581,15.7093781 108.489598,14.9706163 108.376055,14.2502867 L110.607824,14.2502867 C110.703671,14.9625062 110.75823,15.6872595 110.759705,16.4252839 C110.759705,16.4260212 110.759705,16.4267585 110.759705,16.4282331 C110.759705,16.4392924 110.760442,16.4503517 110.760442,16.4621483" id="Fill-761"></path>
                            <path d="M80.1984137,16.4621483 L78.5078142,16.4621483 L80.2212696,15.6636663 C80.2065239,15.9276151 80.1984137,16.1937758 80.1984137,16.4621483" id="Fill-763"></path>
                            <g id="Group-767" transform="translate(77.415155, 16.220318)">
                                <path d="M0.571397569,0.207914987 L0.571397569,0.207914987 C0.571397569,0.206440412 0.571397569,0.205703125 0.571397569,0.204965838 C0.571397569,0.204228551 0.571397569,0.204228551 0.571397569,0.203491263 C0.571397569,0.204965838 0.571397569,0.206440412 0.571397569,0.207914987" id="Fill-765"></path>
                            </g>
                            <path d="M101.729411,14.2502867 L88.4567675,14.2502867 L104.645382,6.7034151 C105.944482,8.07034554 106.973735,9.69458921 107.64909,11.4906208 L101.729411,14.2502867" id="Fill-768"></path>
                            <polyline id="Fill-770" points="96.9849684 16.4621483 83.7115871 16.4621483 88.4567675 14.2502867 101.729411 14.2502867 96.9849684 16.4621483"></polyline>
                            <path d="M107.64909,11.4906208 C106.973735,9.69458921 105.944482,8.07034554 104.645382,6.7034151 L106.746651,5.72429772 C107.97792,7.14210097 108.968834,8.77224294 109.658198,10.5535288 L107.64909,11.4906208" id="Fill-772"></path>
                            <path d="M77.9872894,16.4039026 C77.9872894,16.4031653 77.9872894,16.402428 77.9872894,16.402428 C77.9872894,16.4031653 77.9872894,16.4031653 77.9872894,16.4039026" id="Fill-774" fill="#FFFFFE"></path>
                            <path d="M83.2529945,14.2502867 L80.3709389,14.2502867 C80.5154472,13.3316269 80.7484299,12.4417213 81.0610397,11.5908919 L99.2027282,3.13420783 C100.522472,3.6134445 101.75153,4.28437584 102.855986,5.11161206 L83.2529945,14.2502867" id="Fill-775"></path>
                            <path d="M80.2212696,15.6636663 C80.2478119,15.1859042 80.2979475,14.7140404 80.3709389,14.2502867 L83.2529945,14.2502867 L80.2212696,15.6636663" id="Fill-777"></path>
                            <path d="M77.9865521,16.4621483 C77.9865521,16.4525636 77.9865521,16.4429788 77.9865521,16.4333941 C77.9865521,16.4319195 77.9865521,16.4304449 77.9865521,16.4289704 C77.9865521,16.4282331 77.9865521,16.4282331 77.9865521,16.4282331 C77.9865521,16.4392924 77.9865521,16.4503517 77.9865521,16.4621483 M77.9865521,16.4238094 C77.9865521,16.4171738 77.9872894,16.4105382 77.9872894,16.4039026 C77.9872894,16.4031653 77.9872894,16.4031653 77.9872894,16.402428 C77.9917131,15.1755822 78.1347469,13.9826515 78.394272,12.8339581 L81.0610397,11.5908919 C80.7484299,12.4417213 80.5154472,13.3316269 80.3709389,14.2502867 L78.1391706,14.2502867 C78.0433233,14.9617689 77.988764,15.6865222 77.9865521,16.4238094 M102.855986,5.11161206 C101.75153,4.28437584 100.522472,3.6134445 99.2027282,3.13420783 L101.868759,1.89114163 C103.029986,2.48981883 104.110112,3.22268229 105.089229,4.07056256 L102.855986,5.11161206" id="Fill-779"></path>
                            <path d="M78.5078142,16.4621483 L77.9865521,16.4621483 C77.9865521,16.4503517 77.9865521,16.4392924 77.9865521,16.4282331 C77.9865521,16.4267585 77.9865521,16.4252839 77.9865521,16.4238094 C77.988764,15.6865222 78.0433233,14.9617689 78.1391706,14.2502867 L80.3709389,14.2502867 C80.2979475,14.7140404 80.2478119,15.1859042 80.2212696,15.6636663 L78.5078142,16.4621483" id="Fill-781"></path>
                            <polyline id="Fill-784" fill="#4B5D71" points="35.7178777 141.747148 35.7068184 141.747148 35.7068184 67.2568117 35.7178777 67.2568117 35.7178777 58.3179419 35.7068184 58.3179419 35.7068184 44.8049423 35.7178777 44.8049423 35.7178777 141.747148"></polyline>
                            <polygon id="Fill-786" fill="#435264" points="35.7068184 143.95901 35.7178777 143.95901 35.7178777 141.747148 35.7068184 141.747148"></polygon>
                            <polyline id="Fill-787" fill="#A6262A" points="35.7178777 143.95901 33.5060162 143.95901 35.7178777 143.95901"></polyline>
                            <polygon id="Fill-792" fill="#FFFFFE" points="2.52889505 139.534549 23.9102235 139.534549 23.9102235 76.8658756 2.52889505 76.8658756"></polygon>
                            <polygon id="Fill-793" fill="#FFFFFE" points="23.9102235 139.534549 26.122085 139.534549 26.122085 74.6532768 23.9102235 74.6532768"></polygon>
                            <polygon id="Fill-794" fill="#FFFFFE" points="0.31703349 139.535286 2.52889505 139.535286 2.52889505 74.6540141 0.31703349 74.6540141"></polygon>
                            <polygon id="Fill-795" fill="#FFFFFE" points="12.1136285 139.533812 14.32549 139.533812 14.32549 106.655964 12.1136285 106.655964"></polygon>
                            <polygon id="Fill-796" fill="#FFFFFE" points="2.52889505 139.534549 23.9102235 139.534549 23.9102235 137.322688 2.52889505 137.322688"></polygon>
                            <polygon id="Fill-797" fill="#FFFFFE" points="2.52889505 76.8658756 23.9102235 76.8658756 23.9102235 74.6540141 2.52889505 74.6540141"></polygon>
                            <polygon id="Fill-802" fill="#E5E5E0" points="4.74075661 137.322688 9.90176691 137.322688 9.90176691 135.110826 4.74075661 135.110826"></polygon>
                            <polyline id="Fill-804" fill="#E5E5E0" points="12.1136285 137.322688 12.1136285 112.551313 12.1136285 137.322688"></polyline>
                            <polyline id="Fill-812" fill="#E5E5E0" points="23.9102235 106.653015 23.9102235 76.8658756 23.9102235 106.653015"></polyline>
                            <polygon id="Fill-813" fill="#CBCAC5" points="21.6983619 106.653015 23.9102235 106.653015 23.9102235 104.441154 21.6983619 104.441154"></polygon>
                            <polygon id="Fill-816" fill="#CBCAC5" points="2.52889505 114.763174 4.74075661 114.763174 4.74075661 112.551313 2.52889505 112.551313"></polygon>
                            <polyline id="Fill-819" fill="#E5E5E0" points="23.9102235 137.322688 23.9102235 112.551313 23.9102235 137.322688"></polyline>
                            <polygon id="Fill-820" fill="#CBCAC5" points="21.6983619 114.763174 23.9102235 114.763174 23.9102235 112.551313 21.6983619 112.551313"></polygon>
                            <polygon id="Fill-821" fill="#CBCAC5" points="21.6983619 137.322688 23.9102235 137.322688 23.9102235 135.110826 21.6983619 135.110826"></polygon>
                            <polygon id="Fill-827" fill="#293846" points="0.31703349 141.747148 26.122085 141.747148 26.122085 139.535286 0.31703349 139.535286"></polygon>
                            <polygon id="Fill-829" fill="#E5E5E0" points="23.9102235 74.6540141 26.122085 74.6540141 26.122085 74.6532768 23.9102235 74.6532768"></polygon>
                        </g>
                    </g>
                    <rect id="Rectangle" fill="#FFFFFF" x="15.4476411" y="107.643929" width="27.3150157" height="69.3049955"></rect>
                    <path d="M36.1106132,142.519088 C36.1106132,143.576358 36.9673409,144.433085 38.0246108,144.433085 C39.0811433,144.433085 39.937871,143.576358 39.937871,142.519088 C39.937871,141.463292 39.0811433,140.606565 38.0246108,140.606565 C36.9673409,140.606565 36.1106132,141.463292 36.1106132,142.519088" id="Fill-832" fill="#2E3F4F" opacity="0.234318388"></path>
                </g>
            </g>
        </g>
    </g>
</svg>