<?xml version="1.0" encoding="UTF-8"?>
<svg width="98px" height="154px" viewBox="0 0 98 154" version="1.1" xmlns="http://www.w3.org/2000/svg" xmlns:xlink="http://www.w3.org/1999/xlink">
    <!-- Generator: Sketch 45.2 (43514) - http://www.bohemiancoding.com/sketch -->
    <title>estado-civil</title>
    <desc>Created with Sketch.</desc>
    <defs></defs>
    <g id="telas-principais" stroke="none" stroke-width="1" fill="none" fill-rule="evenodd">
        <g id="8-segurado" transform="translate(-651.000000, -276.000000)" fill-rule="nonzero">
            <g id="estado-civil" transform="translate(651.000000, 276.000000)">
                <path d="M77.8705021,48.7156086 C73.3244173,1.65953359 56.7975371,3.23090446 56.7975371,3.23090446 C56.7975371,3.23090446 39.7458295,4.51704299 36.1570881,48.7156086 C36.1570881,48.7156086 35.17174,49.7704496 39.9470479,51.1986857 C39.9470479,51.1986857 41.295419,52.2711593 45.111309,53.234726 C45.4038018,41.2808981 47.0135494,7.77906371 56.0414122,6.37053457 C56.0414122,6.37053457 68.9857742,3.70594595 70.850675,54.165102 C73.969561,52.9837215 74.2413096,51.140602 74.2413096,51.140602 C79.0166175,49.7123659 77.8705021,48.7156086 77.8705021,48.7156086 Z" id="Shape" fill="#E3E8E5" opacity="0.7"></path>
                <path d="M56.0414122,6.37053457 C47.185726,7.74794745 45.4681088,40.0061688 45.1351648,52.5263126 C47.5207444,53.8892045 51.0016161,55.2230546 55.4699103,55.2469104 C55.4699103,55.2469104 64.5205916,56.9790486 70.7884425,52.6103265 C68.7140255,3.77025288 56.0414122,6.37053457 56.0414122,6.37053457 Z" id="Shape" fill="#E3E8E5" opacity="0.6"></path>
                <path d="M72.9852501,50.8927092 C71.6368791,47.5072607 67.5627241,41.5526467 64.5496334,31.3205849 C64.5496334,31.3205849 68.602007,31.6970916 69.3207925,33.1554067 C70.358001,35.2588656 75.8147549,46.6131869 76.1051733,52.4557824 C76.1093221,52.4557824 73.2269197,51.4984389 72.9852501,50.8927092 Z" id="Shape" fill="#FCD4A9"></path>
                <path d="M40.7062846,51.2671415 C40.9230611,50.8304767 46.0147176,41.5609444 49.2860732,31.4087476 C49.2860732,31.4087476 45.1372393,31.6908683 44.3759282,33.1305137 C43.2795988,35.2049307 37.8664077,45.2658531 36.8706876,51.4413925 L40.7062846,51.2671415 Z" id="Shape" fill="#FCD4A9"></path>
                <path d="M48.3805902,45.2824484 C48.3805902,45.2824484 48.8929712,49.0091386 49.8181612,57.8648247 C50.0256029,59.886344 48.4697901,64.2457313 47.8184232,66.3108135 L66.3844553,66.3108135 C65.8295487,64.4438382 64.0528106,59.657121 64.2778848,57.508025 C65.2010004,48.6523388 65.7144186,44.9256487 65.7144186,44.9256487 C67.6975612,43.6395102 67.3739522,42.2600229 67.2878639,40.1721222 C67.2245941,38.6287559 65.4582281,31.4782406 65.4582281,31.4782406 C60.90592,30.7853853 60.7337434,29.5137677 60.692255,29.3924143 C60.2908554,28.2141455 59.9662091,24.3847717 59.7587674,20.585477 C59.7432093,20.1405145 58.4301033,19.292078 57.0464672,18.5193577 L57.0464672,18.8771946 C55.6659427,19.6499149 54.3569856,20.4983515 54.3320926,20.9433139 C54.1246509,24.7436458 53.9057999,28.2680803 53.488842,29.6081537 C53.4515025,29.7305443 53.3011073,30.7999062 48.717683,31.5020964 C48.717683,31.5020964 46.6297823,38.8973929 46.5665126,40.4407592 C46.4835359,42.5255483 46.3974476,43.9963099 48.3805902,45.2824484 Z" id="Shape" fill="#FCD4A9"></path>
                <path d="M66.373046,66.2558414 C65.8005069,64.3525638 64.0590338,59.637414 64.2820336,57.508025 C65.2051492,48.6523388 65.7185674,44.9256487 65.7185674,44.9256487 C66.8491247,44.1913051 67.228743,43.4268824 67.3303894,42.5172506 L47.5508234,43.5108963 L47.4885909,44.5553653 C47.7562329,44.8317306 48.0556494,45.0754416 48.3805902,45.2814112 C48.3805902,45.2814112 48.8929712,49.0081014 49.8181612,57.8637875 C50.0204168,59.7992185 48.6004784,63.8702619 47.9086603,66.0266183 L66.373046,66.2558414 Z" id="Shape" fill="#E9F3FA"></path>
                <path d="M53.9275812,26.8823698 C55.4377568,28.0232991 58.1313873,29.6143769 60.5273389,28.7171916 C60.5014087,28.5906521 60.4775529,28.4547778 60.4526599,28.3074942 C60.1622415,26.8367326 59.9890277,24.4916042 59.8417441,21.9753364 L54.2989019,21.5884576 C54.1889578,23.5446328 54.0738276,25.4001988 53.9275812,26.8823698 Z" id="Shape" fill="#EACCA9"></path>
                <path d="M68.9836997,77.36227 C67.3646173,67.8998169 66.0701811,65.3109445 66.0701811,65.3109445 L48.140995,65.3109445 C48.140995,65.3109445 45.9856758,69.2595972 44.7783651,79.1742732 C43.5119335,89.5795488 47.7510047,104.287165 50.7941744,144.483143 C50.7941744,144.483143 50.8149185,145.690454 53.9452138,145.048422 C54.2906042,144.977892 54.3414274,114.293116 56.5589792,83.3096235 C56.5693513,83.1633771 56.7664209,83.033726 56.9448207,83.0378748 C57.1232206,83.0420237 57.3213274,83.1633771 57.3306623,83.3096235 C59.5492513,114.293116 59.6000745,144.977892 59.9444277,145.048422 C63.0747229,145.690454 63.0954671,144.483143 63.0954671,144.483143 C66.1469345,104.287165 70.7542146,87.6928666 68.9836997,77.36227 Z" id="Shape" fill="#DA9675"></path>
                <path d="M70.7749588,101.214954 C69.8746618,95.5020093 70.2770987,93.7875037 70.2770987,93.7875037 C71.6980744,75.5056668 66.1438229,65.3109445 66.1438229,65.3109445 L48.140995,65.3109445 C48.140995,65.3109445 42.1002928,75.5087784 43.5202312,93.7875037 C43.5202312,93.7875037 43.9237053,95.5020093 43.0213339,101.214954 C43.0213339,101.214954 33.1149556,129.634466 16.0539131,146.779523 C16.0539131,146.779523 17.4178422,148.492991 23.072703,149.634958 C28.7275637,150.776924 32.6399141,151.064231 33.510132,151.916817 C34.38035,152.769402 45.7917178,153.77342 53.0096517,152.488318 C53.0096517,152.488318 54.5426459,152.955062 56.9085185,153.190509 C59.2754282,152.955062 60.8084224,152.488318 60.8084224,152.488318 C68.0211703,153.77342 79.4335753,152.773551 80.3079421,151.916817 C81.1823088,151.060082 85.0915477,150.775887 90.7453712,149.634958 C96.3991947,148.494028 97.7631238,146.779523 97.7631238,146.779523 C80.6823743,129.638615 70.7749588,101.214954 70.7749588,101.214954 Z" id="Shape" fill="#E3E8E5"></path>
                <path d="M63.4896063,15.6618483 C63.5684342,13.3550966 63.453304,11.58147 63.453304,11.58147 C63.2458624,7.95124032 60.1342369,7.27083154 57.0537276,7.35795706 C53.9701068,7.27083154 50.8626301,7.94709148 50.6541512,11.58147 C50.6541512,11.58147 50.5390211,13.3550966 50.6178489,15.6618483 C48.817255,14.2989563 48.5973668,16.5486615 49.1833896,18.2320509 C49.692659,19.6737707 50.5504304,19.8449101 50.991244,19.8366125 C51.0420672,20.1664448 51.0949648,20.4952398 51.165495,20.8178117 C51.6633551,23.2728842 54.6287342,26.3482074 56.2675236,27.0286162 C56.2675236,27.0286162 56.4666676,27.132337 57.0537276,27.132337 C57.6407876,27.132337 57.8388945,27.0286162 57.8388945,27.0286162 C59.4787211,26.3482074 62.4441002,23.2728842 62.9419603,20.8178117 C63.0073044,20.4952398 63.0653881,20.1664448 63.1172485,19.8366125 C63.5570249,19.8449101 64.3162615,19.9507054 64.8244937,18.5089856 C65.4105165,16.8224846 65.2891631,14.2958447 63.4896063,15.6618483 Z" id="Shape" fill="#FCD4A9"></path>
                <path d="M50.0494587,15.3600206 C50.0494587,15.3600206 50.7049744,16.2862478 50.9777603,16.2540943 C51.2505461,16.2219408 53.3986049,11.0856844 55.1131105,10.1646432 C56.5755745,9.37325316 58.1728756,10.7745218 59.8261859,12.8064133 C59.8261859,12.8064133 62.3631979,15.8350621 62.6930302,16.4636104 C63.1079136,17.2612238 63.6690434,15.4181043 63.6690434,15.4181043 C63.6690434,15.4181043 65.1657353,5.19537735 57.0464672,5.52106081 C57.0464672,5.52106081 48.2976135,4.94126127 50.0494587,15.3600206 Z" id="Shape" fill="#FCBF69"></path>
                <path d="M67.333501,40.439722 C67.3108498,40.1377659 67.2678812,39.8376789 67.2048872,39.5414994 C66.3886041,39.0125231 62.5457466,36.9422549 56.951044,40.4936568 C51.3573786,36.9422549 47.5124467,39.0125231 46.6992752,39.5414994 C46.6373119,39.8378612 46.5943531,40.1378802 46.5706614,40.439722 C46.4824987,42.5276227 46.3922615,43.9963099 48.4480088,45.2824484 L48.4635669,45.3986158 C51.4393181,45.5915366 56.951044,44.349998 56.951044,44.349998 C56.951044,44.349998 62.4658816,45.5946482 65.4385211,45.3986158 C65.4499304,45.3218624 65.4561537,45.2824484 65.4561537,45.2824484 C67.5119009,43.9963099 67.4185521,42.5255483 67.333501,40.439722 Z" id="Shape" fill="#E3E8E5"></path>
                <path d="M74.074319,50.1085796 C74.074319,50.1085796 76.1176198,51.0939276 76.1093221,52.4557824 C76.1010244,53.8176371 66.5981202,61.9078634 66.5981202,61.9078634 L65.6729302,61.3301383 C65.6729302,61.3301383 73.3845754,49.6584311 74.074319,50.1085796 Z" id="Shape" fill="#FCD4A9"></path>
                <path d="M50.6624489,19.5690127 C50.6628683,19.789025 50.5306035,19.9875874 50.3274186,20.0719763 C50.1242337,20.1563654 49.8902145,20.1099319 49.734642,19.9543595 C49.5790696,19.798787 49.5326361,19.5647678 49.6170252,19.3615829 C49.7014141,19.158398 49.8999765,19.0261332 50.1199889,19.0265526 C50.4195812,19.0265526 50.6624489,19.2694203 50.6624489,19.5690127 Z" id="Shape" fill="#FFFFFF"></path>
                <path d="M64.3204104,19.5690127 C64.32083,19.7889306 64.1886776,19.9874276 63.9856202,20.0718776 C63.7825628,20.1563275 63.548625,20.1100845 63.3929708,19.9547274 C63.2373165,19.7993701 63.1906267,19.5655211 63.2746887,19.3623027 C63.3587506,19.1590844 63.5569947,19.026553 63.7769131,19.0265526 C63.9209621,19.0262772 64.0592055,19.0833074 64.161161,19.1850684 C64.2631164,19.2868292 64.3204107,19.4249634 64.3204104,19.5690127 Z" id="Shape" fill="#FFFFFF"></path>
                <path d="M44.549142,67.4631521 C44.549142,67.4631521 45.6299133,70.2304244 46.0271641,70.6587915 C46.424415,71.0871586 47.7572279,71.2199213 47.7572279,71.2199213 C47.7572279,71.2199213 48.1503299,71.0052191 47.7572279,69.6132853 C47.3641259,68.2213515 46.1889687,66.7205108 46.1889687,66.7205108 L44.549142,67.4631521 Z" id="Shape" fill="#E3E8E5"></path>
                <path d="M66.6748736,61.8300728 C66.477804,62.3756444 66.0722555,63.453304 65.4758606,63.453304 L65.3472468,63.0384207 C65.3472468,63.0384207 62.443063,62.4005374 62.423356,61.3093941 C62.4129839,60.8146456 63.9636106,60.299153 64.6014939,60.204767 L65.885558,60.9256269 L66.6748736,61.8300728 Z" id="Shape" fill="#E3E8E5"></path>
                <path d="M75.4361738,53.5863396 C75.5398946,52.2950151 73.4654776,51.4714715 72.8172223,51.2453601 C70.6691635,53.8383813 66.5493714,60.0118463 65.7973952,61.1444779 L66.0888508,61.5894404 L66.5981202,61.9078634 C66.5981202,61.9078634 73.2694452,56.2291469 75.4361738,53.5863396 Z" id="Shape" fill="#E3E8E5"></path>
                <path d="M56.8618441,4.83857763 C56.8618441,4.83857763 47.5425257,4.41021052 50.0836866,15.3600206 C50.0836866,15.3600206 49.4613615,6.33630669 56.8618441,5.910014 C64.2623267,6.33838111 63.642076,15.3600206 63.642076,15.3600206 C65.8969673,4.55230808 56.8618441,4.83857763 56.8618441,4.83857763 Z" id="Shape" fill="#E3E8E5"></path>
                <path d="M4.78775441,80.3888443 C4.78775441,80.3888443 6.32697181,87.2779832 8.37857022,90.530669 C8.37857022,90.530669 9.0849092,90.5586736 8.74885365,89.2403816 C8.4127981,87.9220896 7.6079243,84.2503716 7.86826364,83.6529395 C7.99792511,83.3278456 8.04909596,82.9767567 8.01762166,82.6281775 C8.01762166,82.6281775 8.7312211,84.7783107 9.54231815,85.133036 C9.54231815,85.133036 9.88044812,85.1786732 9.67819246,84.6144317 C9.4759368,84.0501903 9.18551842,83.3189583 8.90028609,82.3045684 C8.61505375,81.2901785 8.35678884,79.6192356 7.91804964,79.0892221 C7.91804964,79.0892221 7.26149667,76.1362895 7.20963624,75.7411131 L4.67469868,76.6849728 C4.67469868,76.6849728 4.66743822,79.7167332 4.78775441,80.3888443 Z" id="Shape" fill="#FCD4A9"></path>
                <path d="M8.4013888,26.9207465 C8.4013888,26.9207465 3.40204386,28.575094 2.6739235,29.3530004 C2.6739235,29.3530004 1.85971483,30.7158923 2.51108176,34.1127502 C2.51108176,34.1127502 -0.676259938,51.4735459 0.284195127,55.5663707 C1.24465019,59.6591954 4.64876847,61.0262362 6.49811122,56.8639185 C7.55502667,54.4845622 9.46660193,43.220478 9.79539702,35.7048652 C10.0412154,30.0717859 8.94592326,27.5596669 8.4013888,26.9207465 Z" id="Shape" fill="#E3E8E5"></path>
                <path d="M0.103720849,53.6236792 C0.103720849,53.6236792 0.0694929691,56.5776489 0.726045946,59.5782931 C0.726045946,59.5782931 3.48709496,75.8033456 3.91442486,77.6392046 C3.91442486,77.6392046 6.58731115,78.1723298 8.27070053,75.1499042 C8.27070053,75.1499042 7.69193819,58.5732381 6.9970085,55.1058501 C6.99908292,55.1058501 5.97535814,48.0445347 0.103720849,53.6236792 Z" id="Shape" fill="#E3E8E5"></path>
                <path d="M48.409632,51.6944714 C47.3931677,46.7988473 43.3895429,34.6064614 43.3895429,34.6064614 C43.0939385,30.8922178 42.2382415,29.2420191 42.2382415,29.2420191 C41.3918794,28.6010242 35.6001071,26.4301468 35.6001071,26.4301468 C35.1686284,27.1510068 35.4455631,32.2903748 36.6238319,37.8021008 C37.56458,42.206088 39.5539459,47.5777908 41.2404469,51.6944714 L48.409632,51.6944714 Z" id="Shape" fill="#E3E8E5"></path>
                <path d="M35.4268933,153.156281 C35.4268933,153.156281 31.8588961,153.454997 30.2076602,152.388746 C30.2076602,152.388746 29.6766094,151.351538 28.7617915,151.105719 C28.286926,151.067435 27.83468,150.886682 27.4642437,150.587115 C27.4642437,150.587115 27.256802,147.552243 27.5223274,145.494422 C27.74429,143.779916 30.3103438,143.383702 30.3103438,143.383702 C30.3103438,143.383702 31.6649381,146.287886 35.703828,150.58919 C35.703828,150.58919 36.3634926,151.453184 35.9299394,152.248723 C35.9268278,152.24976 36.047144,152.931206 35.4268933,153.156281 Z" id="Shape" fill="#00000E"></path>
                <path d="M9.87318766,153.128276 C9.87318766,153.128276 12.8022644,153.543159 14.7356211,152.298509 C14.7356211,152.298509 15.3579462,151.077715 16.4293825,150.796631 C16.9865109,150.750804 17.5168338,150.53788 17.9509674,150.185716 C17.9509674,150.185716 18.1905626,146.631202 17.8814744,144.220729 C17.6232095,142.211657 14.6163421,141.748024 14.6163421,141.748024 C14.6163421,141.748024 14.2813238,145.079538 9.55372744,150.122446 C9.55372744,150.122446 8.78100711,151.133724 9.28923927,152.070323 C9.28923927,152.066175 9.14817892,152.864825 9.87318766,153.128276 Z" id="Shape" fill="#00000E"></path>
                <path d="M30.4327344,144.416762 L31.1981943,144.918771 C31.1981943,144.918771 32.1534633,144.097302 32.2001377,143.380591 C32.3100818,141.625634 34.7931589,98.097105 34.7931589,98.097105 C34.7931589,98.097105 36.4371344,74.0214214 35.6457443,71.1359074 C35.6457443,71.1359074 19.247478,64.9251029 9.90948995,70.0717315 L9.8296249,83.1706375 C9.8296249,84.4349947 11.6727444,118.188871 11.8635908,119.71979 C12.2235021,122.601156 13.2503385,139.406008 13.3302036,142.339233 C13.3302036,142.339233 13.0957944,144.579604 13.3799896,144.984115 L14.362226,143.663749 C14.362226,143.663749 17.5495677,144.892841 18.0391301,146.338709 C18.0391301,146.338709 19.3823151,145.405222 19.3823151,144.801566 C19.3823151,144.197911 20.8997512,121.923858 21.1455696,115.663268 C21.391388,109.402678 23.0913727,88.1409406 23.0913727,88.1409406 C23.0913727,88.1409406 24.5133856,107.951623 24.9261945,116.031477 C25.1087432,119.602586 25.6978777,142.368275 25.9198403,144.642873 C25.9198403,144.642873 26.1832912,145.680082 27.4040856,147.046085 C27.4051228,147.046085 28.4578895,146.579342 30.4327344,144.416762 Z" id="Shape" fill="#636463"></path>
                <path d="M28.7586799,24.2706788 C28.5471705,24.2235443 28.3423168,24.1503823 28.1488013,24.052865 C26.0588262,19.9081798 27.4860251,10.8595729 27.4860251,10.8595729 C27.4860251,10.8595729 18.6863482,15.1971789 18.6344878,16.1555595 C18.4000787,19.9755984 18.4011159,23.2324331 17.7808652,24.5320553 C17.7196699,24.6679296 17.456219,24.8255853 17.0766006,24.9853154 L17.2394424,33.042351 L28.5616103,31.3236965 L28.7586799,24.2706788 Z" id="Shape" fill="#FCD4A9"></path>
                <path d="M18.3689624,20.9650953 C20.5190956,23.0249914 24.8494411,26.2911609 27.5378855,22.3539175 C26.8554023,19.6934777 26.958086,16.1659316 27.1582672,13.7233056 L22.0396433,13.7233056 C20.2255656,14.7491048 18.6521204,15.7520854 18.6293018,16.1555595 C18.5203949,17.9271116 18.4623112,19.5741987 18.3689624,20.9650953 Z" id="Shape" fill="#EACCA9"></path>
                <path d="M17.411619,78.9958733 C14.7895559,78.6712271 9.99765268,76.7005309 8.27277495,75.1499042 C8.27277495,75.1499042 8.8162722,68.6331233 10.5193685,59.3003212 C10.9000241,57.2134577 8.93347676,43.9631192 8.74159319,42.2641717 C8.2914447,38.2875144 5.77828852,28.1446525 6.5935344,27.4600949 C7.40878027,26.7755373 15.0011465,24.6731157 15.0011465,24.6731157 C15.3994345,24.465674 16.1514107,24.3775112 18.2538323,23.2137633 C19.6022033,26.7330117 22.7138288,29.0926611 22.7138288,29.0926611 C22.7138288,29.0926611 22.9855774,29.1963819 22.9938751,29.1880842 C23.0125449,29.1974191 23.6929536,28.9962007 23.6981397,29.0034611 C23.7033257,29.0107216 26.3689515,26.7330117 27.7131738,23.2137633 C28.719266,23.5124794 27.9206155,23.2874051 31.7582869,24.5839157 C31.7582869,24.5839157 36.7825248,26.2434493 38.514663,27.4600949 C39.7748713,28.3437965 38.1599377,37.2917942 37.6994171,41.7393442 C37.5241289,43.4403662 36.1363439,53.7398465 35.922679,60.5335621 C35.8521488,62.7625232 37.0449386,68.0968865 37.4027755,75.6415411 C37.4027755,75.6415411 34.62928,77.586307 28.8375078,79.322594 C28.8375078,79.322594 23.3112609,71.6275442 22.5623964,70.5063218 L17.411619,78.9958733 Z" id="Shape" fill="#636463"></path>
                <path d="M25.3317431,43.1478734 C25.3317431,43.1478734 28.7545311,34.0142154 28.4433685,27.6633877 C28.3552058,25.8752403 28.3033454,25.246692 27.8480109,24.008265 C26.4996398,27.5295879 24.3453578,28.4589267 22.9959495,29.1258517 C22.9959495,29.1258517 19.4694406,27.1167789 18.1210696,23.5944188 C18.1210696,23.5944188 17.8576186,24.958348 17.9271116,27.9714387 C17.993493,30.749083 20.6829746,43.1478734 20.6829746,43.1478734 L22.9990612,48.1088416 C22.9990612,48.1088416 25.0714037,43.6467706 25.3317431,43.1478734 Z" id="Shape" fill="#E3E8E5"></path>
                <path d="M22.9959495,29.1300006 C22.9959495,29.1300006 21.7512993,29.162154 21.2617369,29.4670933 C20.7721745,29.7720326 18.7091668,31.9315007 18.2776881,31.9242402 C17.8462094,31.9169798 16.6471963,27.7754063 17.2259587,24.2364509 L18.1718928,22.9918007 C18.1718928,22.9918007 21.1300114,28.3157919 22.9959495,29.1300006 Z" id="Shape" fill="#9E9F9E"></path>
                <path d="M22.9160845,29.1300006 C22.9160845,29.1300006 24.1607347,29.162154 24.6492599,29.4670933 C25.1377851,29.7720326 27.20183,31.9315007 27.6333087,31.9242402 C28.0647874,31.9169798 29.2648377,27.7754063 28.6850381,24.2364509 L27.739104,22.9918007 C27.739104,22.9918007 24.7820226,28.3157919 22.9160845,29.1300006 Z" id="Shape" fill="#9E9F9E"></path>
                <path d="M29.0833262,11.0825728 C29.162154,8.85983496 29.0480611,7.15051536 29.0480611,7.15051536 C28.8489171,3.64267623 25.8524217,2.99442092 22.8756333,3.07532319 C19.9019566,2.99442092 16.9064985,3.64267623 16.6990568,7.15051536 C16.6990568,7.15051536 16.5891127,8.68869556 16.6627545,10.9114334 C15.9730108,9.79435981 15.5985785,11.3055726 16.1804525,12.924655 C16.41175,13.5646127 16.4802058,13.7927986 16.9064985,13.7845009 C16.95421,14.0956634 17.0973448,15.755197 17.1989913,16.0528759 C17.9893441,18.361702 20.3458818,21.4556949 21.8228667,22.1132851 C21.8228667,22.1132851 22.4721592,22.1713688 23.0353634,22.1713688 L24.2374881,22.1713688 C25.7113614,21.5137786 27.4528344,19.0462596 28.5605731,16.5030244 C28.6860753,16.2157176 28.9090752,14.2585052 28.96301,13.9411194 C29.3861911,13.9504542 29.6403071,13.2679711 29.8747163,12.6051948 C30.4462181,10.9788519 29.8249303,9.75805751 29.0833262,11.0825728 Z" id="Shape" fill="#FCD4A9"></path>
                <path d="M16.6720893,11.0825728 C16.6720893,11.0825728 17.0869727,12.6051948 17.5402328,12.6051948 C17.5402328,12.6051948 17.3970981,10.4758058 17.5402328,9.71449476 C17.6833676,8.95318372 17.6968513,8.06533325 18.3699996,5.5189864 C18.3699996,5.5189864 23.421205,6.53441351 27.5389227,5.5189864 C27.5389227,5.5189864 28.6725916,11.3470609 28.7462334,11.650963 C28.8198752,11.9548651 28.9484891,11.9196 28.9484891,11.9196 C29.1163279,11.5289953 29.2550017,11.1264943 29.3633725,10.715401 C29.3633725,10.715401 30.3424973,4.07726659 28.4610011,2.40010046 C24.8058783,-0.865031884 19.5202639,-0.875403969 17.3628702,2.84091407 C17.3649446,2.84091407 14.4929143,4.43095469 16.6720893,11.0825728 Z" id="Shape" fill="#6F1D1E"></path>
                <path d="M24.6596319,58.6738473 C24.6596319,58.6738473 18.824297,60.5003715 18.5235065,60.4796273 C18.222716,60.4588831 15.6846668,59.1831167 15.5156019,58.9238146 C15.3465369,58.6645124 15.3164578,58.1386477 15.4772252,57.8025922 C15.6379925,57.4665366 16.9407263,56.3961375 16.9407263,56.3961375 C16.9407263,56.3961375 17.1243122,55.7634403 18.0598743,55.3765615 C18.9954364,54.9896827 20.2774261,54.8123201 20.2774261,54.8123201 C20.2774261,54.8123201 24.0808696,55.6649055 24.7664644,55.6420869 L24.6596319,58.6738473 Z" id="Shape" fill="#FCD4A9"></path>
                <path d="M47.9999347,57.5121738 C47.9999347,57.5121738 46.160964,57.9353549 43.0897897,57.980992 C43.0897897,57.980992 25.8627938,59.3822607 23.978186,59.3843351 C23.978186,59.3843351 23.8879488,56.150319 24.4138135,54.8206178 C24.4138135,54.8206178 44.2037516,49.0807059 47.7385582,48.9655758 C47.7385582,48.9624642 50.7029,54.4627808 47.9999347,57.5121738 Z" id="Shape" fill="#E3E8E5"></path>
                <path d="M40.7145822,50.3834398 C40.7145822,50.3834398 36.8706876,49.3234127 36.8706876,51.6944714 C36.8706876,53.0563261 44.5460304,67.4600405 44.5460304,67.4600405 L46.2159361,66.796227 C46.2159361,66.796227 41.4883398,50.0971703 40.7145822,50.3834398 Z" id="Shape" fill="#FCD4A9"></path>
                <path d="M44.549142,67.4631521 L46.2159361,66.796227 C46.2159361,66.796227 43.4154732,56.9147417 41.7746093,52.4827498 C40.2714494,52.2438633 38.7398769,52.6854729 37.5946591,53.6879861 C39.5083088,58.0027734 44.549142,67.4631521 44.549142,67.4631521 Z" id="Shape" fill="#E3E8E5"></path>
            </g>
        </g>
    </g>
</svg>