<?xml version="1.0" encoding="UTF-8"?>
<svg width="157px" height="132px" viewBox="0 0 157 132" version="1.1" xmlns="http://www.w3.org/2000/svg" xmlns:xlink="http://www.w3.org/1999/xlink">
    <!-- Generator: Sketch 45.2 (43514) - http://www.bohemiancoding.com/sketch -->
    <title>estacionamento</title>
    <desc>Created with Sketch.</desc>
    <defs>
        <path d="M0.0405533696,9.00872367 C1.78186893,4.83191528 5.23767754,1.54765329 9.52814039,0.0357989554 L9.52814047,9.00872398 L0.0405532429,9.00872398 L0.0405533696,9.00872367 Z" id="path-1"></path>
        <path d="M0.0317707244,7.32776535 C1.70258243,4.09562019 4.43953348,1.50335898 7.7768677,0.0167497769 L7.7768677,7.32776714 L0.0317698001,7.32776714 L0.0317707244,7.32776535 Z" id="path-3"></path>
        <path d="M0.00436075284,0.0366133035 C4.29352623,1.5487522 7.74826776,4.83231663 9.48936021,9.00805902 L0.00436067766,9.00805932 L0.00436067766,0.0366126424 L0.00436075284,0.0366133035 Z" id="path-5"></path>
        <path d="M0.00523287645,0.0213188925 C3.33764054,1.50854152 6.07051913,4.09849134 7.73965913,7.32694699 L0.00523234197,7.32694878 L0.00523234197,0.021318654 L0.00523287645,0.0213188925 Z" id="path-7"></path>
        <path d="M11.4423979,8.77354337 C6.27276238,8.11202661 1.96458227,4.69523885 0.037172717,0.0425386833 L11.4423979,0.0425384236 L11.4423979,8.77354337 L11.4423979,8.77354337 Z" id="path-9"></path>
        <path d="M10.1560703,7.72161771 C5.70140595,6.87178328 1.97840279,3.959167 0.018913488,0.0156510868 L10.1560703,0.0156499217 L10.1560703,7.72161771 L10.1560703,7.72161771 Z" id="path-11"></path>
        <path d="M11.4727916,0.0175227675 C9.54899382,4.68726913 5.22953851,8.11713062 0.0482760729,8.77536047 L0.0482760729,0.0175227675 L11.4727916,0.0175227675 L11.4727916,0.0175227675 Z" id="path-13"></path>
        <path d="M10.2281552,0.0589880171 C8.27070855,4.02004105 4.53659508,6.94584677 0.0692284258,7.79442253 L0.0692284258,0.0589869016 L10.2281557,0.0589869016 L10.2281552,0.0589880171 Z" id="path-15"></path>
        <path d="M0.0253101135,9.01154405 C1.76630455,4.83324674 5.22287764,1.54776234 9.51449218,0.0356393236 L9.51449225,9.01154435 L0.0253099875,9.01154435 L0.0253101135,9.01154405 Z" id="path-17"></path>
        <path d="M0.00535303093,7.35170381 C1.67671247,4.10510819 4.4228219,1.50171501 7.77302385,0.0121877303 L7.77302437,7.35170554 L0.00535214085,7.35170554 L0.00535303093,7.35170381 Z" id="path-19"></path>
        <path d="M0.0610390125,0.036773391 C4.35097449,1.54932567 7.80610847,4.83394807 9.5467464,9.01088995 L0.0610389372,9.01089025 L0.0610389372,0.0367727294 L0.0610390125,0.036773391 Z" id="path-21"></path>
        <path d="M0.0625124885,0.0217888872 C3.39415245,1.50895536 6.1264306,4.09837248 7.79542519,7.32608892 L0.062511953,7.32609071 L0.062511953,0.0217886482 L0.0625124885,0.0217888872 Z" id="path-23"></path>
        <path d="M11.4347447,8.77435736 C6.26194704,8.11480139 1.95085991,4.69681183 0.0228109135,0.0418468844 L11.4347447,0.041846625 L11.4347447,8.77435736 Z" id="path-25"></path>
        <path d="M10.1484784,7.72284581 C5.69072315,6.87455807 1.96495897,3.96083337 0.00459831784,0.015172818 L10.1484784,0.0151716538 L10.1484784,7.72284581 L10.1484784,7.72284581 Z" id="path-27"></path>
        <path d="M11.463859,0.014339189 C9.54342702,4.68506417 5.22334586,8.11603193 0.0379188044,8.77508714 L0.0379188044,0.014339189 L11.463859,0.014339189 L11.463859,0.014339189 Z" id="path-29"></path>
        <path d="M10.218232,0.0592175886 C8.26190072,4.02145291 4.52533886,6.94778177 0.052956109,7.7952566 L0.052956109,0.0592164726 L10.2182325,0.0592164726 L10.218232,0.0592175886 Z" id="path-31"></path>
    </defs>
    <g id="telas-principais" stroke="none" stroke-width="1" fill="none" fill-rule="evenodd">
        <g id="16-veiculo" transform="translate(-755.000000, -451.000000)">
            <g id="Group-7" transform="translate(-36.000000, 181.000000)">
                <g id="card-principal" transform="translate(292.000000, 50.000000)">
                    <g id="estacionamento" transform="translate(499.296875, 220.275511)">
                        <g id="Page-1" transform="translate(0.013104, 0.092071)">
                            <g id="Group-27" transform="translate(11.072749, 6.934884)">
                                <path d="M6.94193157,37.0798057 L2.8414879,37.0798057 C1.29415066,37.0798057 0.035180822,35.8209062 0.035180822,34.273569 L0.035180822,21.1001024 C0.035180822,19.5527652 1.29415066,18.293725 2.8414879,18.293725 L6.94193157,18.293725 C8.4892688,18.293725 9.74816831,19.5527652 9.74816831,21.1001024 L9.74816831,34.273569 C9.74816831,35.8209062 8.4892688,37.0798057 6.94193157,37.0798057" id="Fill-1" fill="#101915"></path>
                                <path d="M58.1095606,37.0798057 L54.0091169,37.0798057 C52.4617796,37.0798057 51.2028098,35.8209062 51.2028098,34.273569 L51.2028098,21.1001024 C51.2028098,19.5527652 52.4617796,18.293725 54.0091169,18.293725 L58.1095606,18.293725 C59.6568978,18.293725 60.9157973,19.5527652 60.9157973,21.1001024 L60.9157973,34.273569 C60.9157973,35.8209062 59.6568978,37.0798057 58.1095606,37.0798057" id="Fill-3" fill="#101915"></path>
                                <path d="M6.94193157,95.0557748 L2.8414879,95.0557748 C1.29415066,95.0557748 0.035180822,93.7968049 0.035180822,92.2494677 L0.035180822,79.0760012 C0.035180822,77.5286639 1.29415066,76.2696238 2.8414879,76.2696238 L6.94193157,76.2696238 C8.4892688,76.2696238 9.74816831,77.5286639 9.74816831,79.0760012 L9.74816831,92.2494677 C9.74816831,93.7968049 8.4892688,95.0557748 6.94193157,95.0557748" id="Fill-5" fill="#101915"></path>
                                <path d="M58.1095606,95.0557748 L54.0091169,95.0557748 C52.4617796,95.0557748 51.2028098,93.7968049 51.2028098,92.2494677 L51.2028098,79.0760012 C51.2028098,77.5286639 52.4617796,76.2696238 54.0091169,76.2696238 L58.1095606,76.2696238 C59.6568978,76.2696238 60.9157973,77.5286639 60.9157973,79.0760012 L60.9157973,92.2494677 C60.9157973,93.7968049 59.6568978,95.0557748 58.1095606,95.0557748" id="Fill-7" fill="#101915"></path>
                                <path d="M45.8433682,113.194745 L15.107624,113.194745 C7.19510407,113.194745 0.780687901,106.780329 0.780687901,98.8678089 L0.780687901,16.0923002 C0.780687901,7.23027786 7.96877269,0.042193073 16.830795,0.042193073 L44.1131638,0.042193073 C52.9751861,0.042193073 60.1633413,7.23027786 60.1633413,16.0923002 L60.1633413,98.8678089 C60.1633413,106.780329 53.7488548,113.194745 45.8433682,113.194745" id="Fill-9" fill="#FFC063"></path>
                                <path d="M52.3492179,2.32100585 C52.2085509,2.23660564 52.0608505,2.15220543 51.9201835,2.07483856 L51.9201835,33.9218522 L9.02377535,33.9218522 L9.02377535,2.07483856 C8.87600464,2.15923878 8.73533762,2.23660564 8.5946706,2.32100585 L8.5946706,34.3508866 L52.3492179,34.3508866 L52.3492179,2.32100585 Z" id="Fill-11" fill="#D2D4D5"></path>
                                <path d="M50.8089562,112.308571 C50.9496232,112.259337 51.0831866,112.203071 51.2168906,112.146804 L51.2168906,89.9425145 L9.72708232,89.9425145 L9.72708232,112.146804 C9.86071599,112.203071 10.001383,112.259337 10.1350167,112.308571 L10.1350167,90.3574119 L50.8018525,90.3574119 L50.8018525,112.308571 L50.8089562,112.308571 Z" id="Fill-13" fill="#D2D4D5"></path>
                                <path d="M54.1919699,37.5440491 L50.7174945,41.3701217 C50.0704262,42.0805605 49.7117253,43.0089629 49.7117253,43.9724616 L49.7117253,59.7835051 C49.7117253,60.8173374 50.5486941,61.6613395 51.5896301,61.6613395 L54.874205,61.6613395 L54.874205,41.8976231 C54.874205,40.3784896 54.6350711,38.9155525 54.1919699,37.5440491" id="Fill-15" fill="#456074"></path>
                                <path d="M51.5896301,63.9612875 C50.5557274,63.9612875 49.7117253,64.7982563 49.7117253,65.8391923 L49.7117253,82.9513354 C49.7117253,83.4156069 49.8875591,83.865671 50.1970265,84.2103052 L53.3972013,87.7269808 C54.3396703,85.827976 54.874205,83.6898373 54.874205,81.4250982 L54.874205,63.9612875 L51.5896301,63.9612875 Z" id="Fill-17" fill="#456074"></path>
                                <path d="M11.1126947,38.4935515 C12.3294644,39.8298882 14.0456021,40.5894901 15.8531733,40.5894901 L45.097847,40.5894901 C46.9054182,40.5894901 48.6215559,39.8298882 49.8383256,38.4935515 L53.0666338,34.9417092 C50.633024,30.6090946 45.998116,27.6832909 40.6738692,27.6832909 L20.2841845,27.6832909 C14.9599377,27.6832909 10.3249594,30.6090946 7.89141989,34.9417092 L11.1126947,38.4935515 Z" id="Fill-19" fill="#456074"></path>
                                <path d="M48.18546,85.8420849 C47.8267591,85.4481469 47.3274615,85.2301834 46.7999602,85.2301834 L14.1511445,85.2301834 C13.6236432,85.2301834 13.1171716,85.4552506 12.765504,85.8420849 L8.97459816,90.0128621 C11.5698344,93.4240373 15.6703484,95.6254762 20.2842267,95.6254762 L40.6739114,95.6254762 C45.2877897,95.6254762 49.3882334,93.4240373 51.9835399,90.0128621 L48.18546,85.8420849 Z" id="Fill-21" fill="#456074"></path>
                                <path d="M11.2322757,82.9443302 L11.2322757,65.8392204 C11.2322757,64.8053178 10.3953069,63.9613157 9.35437098,63.9613157 L6.06979603,63.9613157 L6.06979603,81.425056 C6.06979603,83.6898654 6.60433072,85.8280041 7.54679976,87.7270089 L10.7469745,84.2103334 C11.0634753,83.8656992 11.2322757,83.4155647 11.2322757,82.9443302" id="Fill-23" fill="#456074"></path>
                                <path d="M11.2322757,43.9724897 C11.2322757,43.008991 10.8735045,42.0805886 10.2265065,41.3701499 L6.75203109,37.5440772 C6.31596332,38.9155807 6.06979603,40.3714843 6.06979603,41.8906178 L6.06979603,61.6543343 L9.35437098,61.6543343 C10.3882736,61.6543343 11.2322757,60.8174359 11.2322757,59.7764999 L11.2322757,43.9724897 Z" id="Fill-25" fill="#456074"></path>
                            </g>
                            <g id="Group-52" transform="translate(12.901421, 7.849220)">
                                <g id="Group-30" transform="translate(0.140667, 0.000000)">
                                    <mask id="mask-2" fill="white">
                                        <use xlink:href="#path-1"></use>
                                    </mask>
                                    <g id="Clip-29"></g>
                                    <path d="M-0.977593598,-1.49702767 C1.42577279,-3.90032373 5.32231962,-3.90032373 7.72561568,-1.49702767 C10.1289821,0.906338718 10.1289821,4.80288554 7.72561568,7.20625193 C5.32231962,9.60954799 1.42577279,9.60954799 -0.977593598,7.20625193 C-3.38095999,4.80288554 -3.38095999,0.906338718 -0.977593598,-1.49702767" id="Fill-28" fill="#D2D4D5" mask="url(#mask-2)"></path>
                                </g>
                                <g id="Group-33" transform="translate(0.703335, 0.492335)">
                                    <mask id="mask-4" fill="white">
                                        <use xlink:href="#path-3"></use>
                                    </mask>
                                    <g id="Clip-32"></g>
                                    <path d="M-0.699762164,-1.14886273 C1.23933272,-3.08802795 4.38331098,-3.08802795 6.32254654,-1.14886273 C8.26164143,0.790302492 8.26164143,3.93428075 6.32254654,5.87344597 C4.38331098,7.81254086 1.23933272,7.81254086 -0.699762164,5.87344597 C-2.63892739,3.93428075 -2.63892739,0.790302492 -0.699762164,-1.14886273" id="Fill-31" fill="#E6E8E9" mask="url(#mask-4)"></path>
                                </g>
                                <g id="Group-36" transform="translate(47.615787, 0.000000)">
                                    <mask id="mask-6" fill="white">
                                        <use xlink:href="#path-5"></use>
                                    </mask>
                                    <g id="Clip-35"></g>
                                    <path d="M1.80683272,-1.49767474 C4.21019911,-3.9009708 8.10674594,-3.9009708 10.5101123,-1.49767474 C12.9134084,0.905621316 12.9134084,4.80223847 10.5101123,7.20553453 C8.10674594,9.60890092 4.21019911,9.60890092 1.80683272,7.20553453 C-0.596463337,4.80223847 -0.596463337,0.905621316 1.80683272,-1.49767474" id="Fill-34" fill="#D2D4D5" mask="url(#mask-6)"></path>
                                </g>
                                <g id="Group-39" transform="translate(48.811456, 0.492335)">
                                    <mask id="mask-8" fill="white">
                                        <use xlink:href="#path-7"></use>
                                    </mask>
                                    <g id="Clip-38"></g>
                                    <path d="M4.17612253,-2.54093874 C6.88311868,-2.98031218 9.43376345,-1.14193488 9.87313689,1.56506128 C10.31244,4.27212777 8.4740627,6.8227022 5.76706654,7.26207564 C3.06007038,7.70137875 0.509425618,5.86307178 0.0701225101,3.15607562 C-0.369250931,0.449009132 1.46912637,-2.1015653 4.17612253,-2.54093874" id="Fill-37" fill="#E6E8E9" mask="url(#mask-8)"></path>
                                </g>
                                <g id="Group-42" transform="translate(0.000000, 103.390261)">
                                    <mask id="mask-10" fill="white">
                                        <use xlink:href="#path-9"></use>
                                    </mask>
                                    <g id="Clip-41"></g>
                                    <path d="M-7.12772457,2.50167857 C-5.16668562,-0.679084112 0.427571478,-0.788663721 5.36730493,2.25698829 C10.3071087,5.30249963 12.7218691,10.3499137 10.7607599,13.5307467 C8.79965058,16.7115094 3.20546381,16.821089 -1.73433997,13.7755073 C-6.67414376,10.7299256 -9.08883385,5.68251159 -7.12772457,2.50167857" id="Fill-40" fill="#FF181F" mask="url(#mask-10)"></path>
                                </g>
                                <g id="Group-45" transform="translate(0.422001, 104.304596)">
                                    <mask id="mask-12" fill="white">
                                        <use xlink:href="#path-11"></use>
                                    </mask>
                                    <g id="Clip-44"></g>
                                    <path d="M-8.41406118,2.47482524 C-6.4529519,-0.70600778 -0.858765131,-0.815517056 4.08096832,2.23006462 C9.02084244,5.27557597 11.4355325,10.3230604 9.47442325,13.5038934 C7.51338431,16.6845857 1.9191272,16.7942357 -3.02060625,13.7485837 C-7.96041003,10.703002 -10.3751705,5.65565826 -8.41406118,2.47482524" id="Fill-43" fill="#FF3F32" mask="url(#mask-12)"></path>
                                </g>
                                <g id="Group-48" transform="translate(45.787115, 103.390261)">
                                    <mask id="mask-14" fill="white">
                                        <use xlink:href="#path-13"></use>
                                    </mask>
                                    <g id="Clip-47"></g>
                                    <path d="M6.1232706,2.23188626 C11.0630744,-0.813695418 16.6572612,-0.704045475 18.6183704,2.47664688 C20.5794797,5.6574799 18.1647193,10.7049643 13.2249858,13.7504756 C8.28518205,16.7960573 2.69092495,16.6864777 0.729886007,13.505715 C-1.23115294,10.324882 1.18353715,5.27753827 6.1232706,2.23188626" id="Fill-46" fill="#FF181F" mask="url(#mask-14)"></path>
                                </g>
                                <g id="Group-51" transform="translate(46.631118, 104.234263)">
                                    <mask id="mask-16" fill="white">
                                        <use xlink:href="#path-15"></use>
                                    </mask>
                                    <g id="Clip-50"></g>
                                    <path d="M6.14422296,2.273376 C11.0840267,-0.77220568 16.6782135,-0.66262607 18.6393228,2.51813661 C20.6004321,5.6988993 18.1856716,10.7463837 13.2459382,13.7919654 C8.30613441,16.8374767 2.7118773,16.7279674 0.750838359,13.5471344 C-1.21020058,10.3663717 1.2044895,5.31895768 6.14422296,2.273376" id="Fill-49" fill="#FF3F32" mask="url(#mask-16)"></path>
                                </g>
                            </g>
                            <g id="Group-79" transform="translate(88.580278, 6.934884)">
                                <path d="M6.9278508,37.0798057 L2.82740713,37.0798057 C1.28006989,37.0798057 0.0211000532,35.8209062 0.0211000532,34.273569 L0.0211000532,21.1001024 C0.0211000532,19.5527652 1.28006989,18.293725 2.82740713,18.293725 L6.9278508,18.293725 C8.47518803,18.293725 9.73415787,19.5527652 9.73415787,21.1001024 L9.73415787,34.273569 C9.73415787,35.8209062 8.48222138,37.0798057 6.9278508,37.0798057" id="Fill-53" fill="#101915"></path>
                                <path d="M58.0954798,37.0798057 L53.9950361,37.0798057 C52.4476989,37.0798057 51.1887994,35.8209062 51.1887994,34.273569 L51.1887994,21.1001024 C51.1887994,19.5527652 52.4476989,18.293725 53.9950361,18.293725 L58.0954798,18.293725 C59.642817,18.293725 60.9017869,19.5527652 60.9017869,21.1001024 L60.9017869,34.273569 C60.9017869,35.8209062 59.6498504,37.0798057 58.0954798,37.0798057" id="Fill-55" fill="#101915"></path>
                                <path d="M6.9278508,95.0557748 L2.82740713,95.0557748 C1.28006989,95.0557748 0.0211000532,93.7968049 0.0211000532,92.2494677 L0.0211000532,79.0760012 C0.0211000532,77.5286639 1.28006989,76.2696238 2.82740713,76.2696238 L6.9278508,76.2696238 C8.47518803,76.2696238 9.73415787,77.5286639 9.73415787,79.0760012 L9.73415787,92.2494677 C9.73415787,93.7968049 8.48222138,95.0557748 6.9278508,95.0557748" id="Fill-57" fill="#101915"></path>
                                <path d="M58.0954798,95.0557748 L53.9950361,95.0557748 C52.4476989,95.0557748 51.1887994,93.7968049 51.1887994,92.2494677 L51.1887994,79.0760012 C51.1887994,77.5286639 52.4476989,76.2696238 53.9950361,76.2696238 L58.0954798,76.2696238 C59.642817,76.2696238 60.9017869,77.5286639 60.9017869,79.0760012 L60.9017869,92.2494677 C60.9017869,93.7968049 59.6498504,95.0557748 58.0954798,95.0557748" id="Fill-59" fill="#101915"></path>
                                <path d="M45.8292874,113.194745 L15.0935432,113.194745 C7.1810233,113.194745 0.766677466,106.780329 0.766677466,98.8678089 L0.766677466,16.0923002 C0.766677466,7.23027786 7.95469192,0.042193073 16.8167143,0.042193073 L44.099083,0.042193073 C52.9611054,0.042193073 60.1492605,7.23027786 60.1492605,16.0923002 L60.1492605,98.8678089 C60.1562235,106.780329 53.7418073,113.194745 45.8292874,113.194745" id="Fill-61" fill="#FF5E46"></path>
                                <path d="M52.3422127,2.32100585 C52.2015457,2.23660564 52.053775,2.15220543 51.9131079,2.07483856 L51.9131079,33.9218522 L9.01677013,33.9218522 L9.01677013,2.07483856 C8.86899942,2.15923878 8.7283324,2.23660564 8.58766538,2.32100585 L8.58766538,34.3508866 L52.3422127,34.3508866 L52.3422127,2.32100585 Z" id="Fill-63" fill="#DE1829"></path>
                                <path d="M50.7948754,112.308571 C50.9355425,112.259337 51.0691058,112.203071 51.2028098,112.146804 L51.2028098,89.9425145 L9.71300155,89.9425145 L9.71300155,112.146804 C9.84670556,112.203071 9.98737258,112.259337 10.1210062,112.308571 L10.1210062,90.3574119 L50.7877718,90.3574119 L50.7877718,112.308571 L50.7948754,112.308571 Z" id="Fill-65" fill="#DE1829"></path>
                                <path d="M54.1849647,37.5440491 L50.7104893,41.3701217 C50.0633507,42.0805605 49.7047201,43.0089629 49.7047201,43.9724616 L49.7047201,59.7835051 C49.7047201,60.8173374 50.5416185,61.6613395 51.5826248,61.6613395 L54.8671998,61.6613395 L54.8671998,41.8976231 C54.8601664,40.3784896 54.6209622,38.9155525 54.1849647,37.5440491" id="Fill-67" fill="#456074"></path>
                                <path d="M51.5755493,63.9612875 C50.5416467,63.9612875 49.6976445,64.7982563 49.6976445,65.8391923 L49.6976445,82.9513354 C49.6976445,83.4156069 49.8734783,83.865671 50.1829458,84.2103052 L53.3831205,87.7269808 C54.3255895,85.827976 54.8601242,83.6898373 54.8601242,81.4250982 L54.8601242,63.9612875 L51.5755493,63.9612875 Z" id="Fill-69" fill="#456074"></path>
                                <path d="M11.1056895,38.4935515 C12.3224592,39.8298882 14.0385265,40.5894901 15.8460977,40.5894901 L45.0907715,40.5894901 C46.8983427,40.5894901 48.6144804,39.8298882 49.8313204,38.4935515 L53.0595582,34.9417092 C50.6259484,30.6090946 45.9910404,27.6832909 40.6667936,27.6832909 L20.2770386,27.6832909 C14.9528622,27.6832909 10.3178838,30.6090946 7.88434434,34.9417092 L11.1056895,38.4935515 Z" id="Fill-71" fill="#456074"></path>
                                <path d="M48.1784548,85.8420849 C47.8197539,85.4481469 47.320386,85.2301834 46.7928846,85.2301834 L14.144069,85.2301834 C13.6165677,85.2301834 13.1101664,85.4552506 12.7584988,85.8420849 L8.96752261,90.0128621 C11.5628291,93.4240373 15.6632728,95.6254762 20.2771511,95.6254762 L40.6668358,95.6254762 C45.2807845,95.6254762 49.3811578,93.4240373 51.9764644,90.0128621 L48.1784548,85.8420849 Z" id="Fill-73" fill="#456074"></path>
                                <path d="M11.2252002,82.9443302 L11.2252002,65.8392204 C11.2252002,64.8053178 10.3883017,63.9613157 9.34736576,63.9613157 L6.06279082,63.9613157 L6.06279082,81.425056 C6.06279082,83.6898654 6.5973255,85.8280041 7.53979454,87.7270089 L10.7399693,84.2103334 C11.0493664,83.8656992 11.2252002,83.4155647 11.2252002,82.9443302" id="Fill-75" fill="#456074"></path>
                                <path d="M11.2252002,43.9724897 C11.2252002,43.008991 10.8664993,42.0805886 10.219431,41.3701499 L6.74502587,37.5440772 C6.3089581,38.9155807 6.06279082,40.3714843 6.06279082,41.8906178 L6.06279082,61.6543343 L9.34736576,61.6543343 C10.381198,61.6543343 11.2252002,60.8174359 11.2252002,59.7764999 L11.2252002,43.9724897 Z" id="Fill-77" fill="#456074"></path>
                            </g>
                            <g id="Group-104" transform="translate(90.408949, 7.849220)">
                                <g id="Group-82" transform="translate(0.140667, 0.000000)">
                                    <mask id="mask-18" fill="white">
                                        <use xlink:href="#path-17"></use>
                                    </mask>
                                    <g id="Clip-81"></g>
                                    <path d="M-0.991259399,-1.4942073 C1.41210699,-3.89750336 5.30865382,-3.89750336 7.71202021,-1.4942073 C10.1153163,0.909159092 10.1153163,4.80570591 7.71202021,7.20907231 C5.30865382,9.61236836 1.41210699,9.61236836 -0.991259399,7.20907231 C-3.39455546,4.80570591 -3.39455546,0.909159092 -0.991259399,-1.4942073" id="Fill-80" fill="#D2D4D5" mask="url(#mask-18)"></path>
                                </g>
                                <g id="Group-85" transform="translate(0.703335, 0.492335)">
                                    <mask id="mask-20" fill="white">
                                        <use xlink:href="#path-19"></use>
                                    </mask>
                                    <g id="Clip-84"></g>
                                    <path d="M-2.02593567,1.24412947 C-1.39574742,-1.42474592 1.27868432,-3.07744276 3.94763005,-2.4472545 C6.61650545,-1.81706625 8.26920228,0.857365495 7.63901402,3.52631122 C7.00882577,6.19518662 4.33439403,7.84788345 1.6654483,7.21769519 C-1.0034271,6.58750694 -2.65612393,3.91300486 -2.02593567,1.24412947" id="Fill-83" fill="#E6E8E9" mask="url(#mask-20)"></path>
                                </g>
                                <g id="Group-88" transform="translate(47.545453, 0.000000)">
                                    <mask id="mask-22" fill="white">
                                        <use xlink:href="#path-21"></use>
                                    </mask>
                                    <g id="Clip-87"></g>
                                    <path d="M1.86356373,-1.4948614 C4.26685979,-3.89815746 8.16340661,-3.89815746 10.566773,-1.4948614 C12.9701394,0.908434657 12.9700691,4.80505181 10.566773,7.2084182 C8.16340661,9.61171426 4.26685979,9.61171426 1.86356373,7.2084182 C-0.539802661,4.80505181 -0.539802661,0.908434657 1.86356373,-1.4948614" id="Fill-86" fill="#D2D4D5" mask="url(#mask-22)"></path>
                                </g>
                                <g id="Group-91" transform="translate(48.741123, 0.492335)">
                                    <mask id="mask-24" fill="white">
                                        <use xlink:href="#path-23"></use>
                                    </mask>
                                    <g id="Clip-90"></g>
                                    <path d="M4.23340214,-2.54179681 C6.9403983,-2.98109991 9.49104306,-1.14279295 9.93034617,1.56420321 C10.3697196,4.2712697 8.53134231,6.82184413 5.82434615,7.26121757 C3.11734999,7.70052068 0.566705229,5.86221371 0.127402121,3.15521755 C-0.31197132,0.448151063 1.52640598,-2.10242337 4.23340214,-2.54179681" id="Fill-89" fill="#E6E8E9" mask="url(#mask-24)"></path>
                                </g>
                                <g id="Group-94" transform="translate(0.000000, 103.390261)">
                                    <mask id="mask-26" fill="white">
                                        <use xlink:href="#path-25"></use>
                                    </mask>
                                    <g id="Clip-93"></g>
                                    <path d="M-7.13541905,2.50099634 C-5.17430978,-0.679766347 0.419947325,-0.789345957 5.35968078,2.25623572 C10.2994846,5.30174707 12.7141747,10.3492315 10.7531357,13.5300645 C8.79202643,16.7107568 3.19776933,16.8204068 -1.74196412,13.7747548 C-6.68176791,10.7291731 -9.09652833,5.68182936 -7.13541905,2.50099634" id="Fill-92" fill="#FF181F" mask="url(#mask-26)"></path>
                                </g>
                                <g id="Group-97" transform="translate(0.422001, 104.304596)">
                                    <mask id="mask-28" fill="white">
                                        <use xlink:href="#path-27"></use>
                                    </mask>
                                    <g id="Clip-96"></g>
                                    <path d="M-8.42168533,2.47434697 C-6.46057605,-0.706486048 -0.866318951,-0.815995324 4.0734145,2.22958635 C9.01321829,5.2750977 11.4279084,10.3225821 9.46686943,13.5033448 C7.50576015,16.6841075 1.91150305,16.7936871 -3.0282304,13.7481054 C-7.96803419,10.7025237 -10.3827946,5.65510966 -8.42168533,2.47434697" id="Fill-95" fill="#FF3F32" mask="url(#mask-28)"></path>
                                </g>
                                <g id="Group-100" transform="translate(45.787115, 103.390261)">
                                    <mask id="mask-30" fill="white">
                                        <use xlink:href="#path-29"></use>
                                    </mask>
                                    <g id="Clip-99"></g>
                                    <path d="M6.11297378,2.22872828 C11.0527072,-0.816853393 16.6469643,-0.707273783 18.6080736,2.4734889 C20.5691126,5.65425159 18.1544225,10.701736 13.214689,13.7473177 C8.27488523,16.792829 2.68062812,16.6833197 0.719518847,13.5024867 C-1.2415201,10.321724 1.17324032,5.27430996 6.11297378,2.22872828" id="Fill-98" fill="#FF181F" mask="url(#mask-30)"></path>
                                </g>
                                <g id="Group-103" transform="translate(46.631118, 104.234263)">
                                    <mask id="mask-32" fill="white">
                                        <use xlink:href="#path-31"></use>
                                    </mask>
                                    <g id="Clip-102"></g>
                                    <path d="M6.12801108,2.27357996 C11.0677445,-0.772001713 16.6620016,-0.66235177 18.6230406,2.51834058 C20.5841499,5.6991736 18.1694598,10.746658 13.2297263,13.7921693 C8.2898522,16.837751 2.69566543,16.7281714 0.734556152,13.5474087 C-1.22648279,10.3665757 1.18827763,5.31923198 6.12801108,2.27357996" id="Fill-101" fill="#FF3F32" mask="url(#mask-32)"></path>
                                </g>
                            </g>
                            <g id="Group-109" transform="translate(-0.000000, 0.042200)" fill="#FFC063">
                                <polygon id="Fill-105" points="0.663389886 129.589564 4.11676526 129.589564 4.11676526 0.0281334043 0.663389886 0.0281334043"></polygon>
                                <polygon id="Fill-107" points="78.6351198 129.589564 82.0885655 129.589564 82.0885655 0.0281334043 78.6351198 0.0281334043"></polygon>
                                <polyline id="Fill-108" points="0.593056375 131.3127 156.592783 131.3127 156.592783 0.0280982375 153.568442 0.0280982375 153.568442 128.295392 0.593056375 128.295392"></polyline>
                            </g>
                        </g>
                        <rect id="Rectangle-6" fill="#FFFFFF" x="6.66179591" y="121.217882" width="64.4571277" height="6.73432677"></rect>
                        <rect id="Rectangle-6" fill="#FFFFFF" x="82.2998047" y="121.217882" width="62.8967134" height="6.73432677"></rect>
                    </g>
                </g>
            </g>
        </g>
    </g>
</svg>