<?xml version="1.0" encoding="UTF-8"?>
<svg width="208px" height="130px" viewBox="0 0 208 130" version="1.1" xmlns="http://www.w3.org/2000/svg" xmlns:xlink="http://www.w3.org/1999/xlink">
    <!-- Generator: Sketch 45.2 (43514) - http://www.bohemiancoding.com/sketch -->
    <title>garagem</title>
    <desc>Created with Sketch.</desc>
    <defs>
        <linearGradient x1="50.0119625%" y1="117.734568%" x2="50.0119625%" y2="-1.23703704%" id="linearGradient-1">
            <stop stop-color="#FFFFFF" offset="0%"></stop>
            <stop stop-color="#CFD9E3" offset="100%"></stop>
        </linearGradient>
        <linearGradient x1="50.0119625%" y1="117.72716%" x2="50.0119625%" y2="-1.24320988%" id="linearGradient-2">
            <stop stop-color="#FFFFFF" offset="0%"></stop>
            <stop stop-color="#CFD9E3" offset="100%"></stop>
        </linearGradient>
        <linearGradient x1="50.0119625%" y1="117.718519%" x2="50.0119625%" y2="-1.2382716%" id="linearGradient-3">
            <stop stop-color="#FFFFFF" offset="0%"></stop>
            <stop stop-color="#CFD9E3" offset="100%"></stop>
        </linearGradient>
        <linearGradient x1="50.0119625%" y1="117.724691%" x2="50.0119625%" y2="-1.2345679%" id="linearGradient-4">
            <stop stop-color="#FFFFFF" offset="0%"></stop>
            <stop stop-color="#CFD9E3" offset="100%"></stop>
        </linearGradient>
        <linearGradient x1="50.0119625%" y1="117.72716%" x2="50.0119625%" y2="-1.22962963%" id="linearGradient-5">
            <stop stop-color="#FFFFFF" offset="0%"></stop>
            <stop stop-color="#CFD9E3" offset="100%"></stop>
        </linearGradient>
        <linearGradient x1="50.0119625%" y1="117.733333%" x2="50.0119625%" y2="-1.2308642%" id="linearGradient-6">
            <stop stop-color="#FFFFFF" offset="0%"></stop>
            <stop stop-color="#CFD9E3" offset="100%"></stop>
        </linearGradient>
        <linearGradient x1="50.0119625%" y1="98.5808642%" x2="50.0119625%" y2="-0.0339506173%" id="linearGradient-7">
            <stop stop-color="#FFFFFF" offset="0%"></stop>
            <stop stop-color="#C3CDD9" offset="100%"></stop>
        </linearGradient>
    </defs>
    <g id="telas-principais" stroke="none" stroke-width="1" fill="none" fill-rule="evenodd">
        <g id="16-veiculo" transform="translate(-387.000000, -453.000000)">
            <g id="Group-7" transform="translate(-36.000000, 181.000000)">
                <g id="card-principal" transform="translate(292.000000, 50.000000)">
                    <g id="Group-6" transform="translate(99.000000, 134.000000)">
                        <g id="garagem" transform="translate(32.000000, 88.000000)">
                            <polygon id="Shape" fill="#E15E49" fill-rule="nonzero" points="0.255332128 0.838328552 0.255332128 129.985145 22.6293663 129.985145 184.656285 129.985145 207.030319 129.985145 207.030319 0.838328552"></polygon>
                            <rect id="Rectangle-path" fill="#A6A6A6" fill-rule="nonzero" x="22.6293663" y="25.0022855" width="161.988007" height="104.98286"></rect>
                            <g id="ilus" transform="translate(61.000000, 66.460938)" fill-rule="nonzero">
                                <path d="M2.71737801,49.4261522 L16.1055609,49.4261522 L16.1055609,56.1202437 L16.1055609,56.1202437 C16.1055609,59.8172883 13.1085141,62.8143352 9.41146947,62.8143352 L9.41146947,62.8143352 L9.41146947,62.8143352 C5.71442484,62.8143352 2.71737801,59.8172883 2.71737801,56.1202437 L2.71737801,49.4261522 Z" id="Rectangle-path" fill="#22313F"></path>
                                <path d="M67.882688,49.4261522 L81.2708709,49.4261522 L81.2708709,56.1202437 L81.2708709,56.1202437 C81.2708709,59.8172883 78.2738241,62.8143352 74.5767795,62.8143352 L74.5767795,62.8143352 L74.5767795,62.8143352 C70.8797348,62.8143352 67.882688,59.8172883 67.882688,56.1202437 L67.882688,49.4261522 Z" id="Rectangle-path" fill="#22313F"></path>
                                <path d="M74.1313316,18.1829342 C74.1313316,18.1829342 75.9193098,16.394956 79.4890795,16.394956 C82.1679534,16.394956 83.9497449,17.2858517 83.9497449,19.9647257 C83.9497449,22.6435996 82.1679534,23.5097482 80.3799752,23.5097482 L74.1313316,23.5097482 L74.1313316,18.1829342 Z" id="Shape" fill="#22313F"></path>
                                <path d="M9.85691734,18.1829342 C9.85691734,18.1829342 8.07512589,16.394956 4.50535623,16.394956 C1.82648229,16.394956 0.0385040664,17.2858517 0.0385040664,19.9647257 C0.0385040664,22.6435996 1.82648229,23.5097482 3.60827373,23.5097482 L9.85691734,23.5097482 L9.85691734,18.1829342 Z" id="Shape" fill="#22313F"></path>
                                <path d="M70.7162313,5.62377924 C69.9959337,4.0501475 68.597435,2.89080569 66.917551,2.47471034 C58.242639,1.02638613 49.4620375,0.304154239 40.6670611,0.315525568 C25.930161,0.315525568 17.0768847,2.3571616 17.0768847,2.3571616 C15.4082961,2.84658259 14.0324708,4.03294997 13.3029515,5.61140569 L3.75056957,29.8202596 C3.12638248,31.5701468 2.7818835,33.4074747 2.72975156,35.2646223 L2.72975156,52.8721864 C2.73983284,54.4168387 3.98773467,55.6674953 5.53236102,55.6809826 L78.4868218,55.6809826 C80.0386783,55.6742059 81.2950281,54.4178561 81.3018048,52.8659996 L81.3018048,35.2646223 C81.2444018,33.4109809 80.8957424,31.5779098 80.2686132,29.8326331 L70.7162313,5.62377924 Z" id="Shape" fill="#F1826B"></path>
                                <path d="M81.3018048,52.1050262 L81.3018048,36.019409 C81.2928575,35.3696145 81.245342,34.7209241 81.159509,34.0767614 C73.7567653,38.8910569 65.1067071,41.4331675 56.2762965,41.3895304 L27.7119524,41.3895304 C15.0228752,41.3895304 6.83777072,36.8917444 2.8720474,33.9653994 C2.7829138,34.6341022 2.7353904,35.3076947 2.72975156,35.9822883 L2.72975156,52.8598128 C2.73308279,54.409293 3.98293662,55.667424 5.53236102,55.6809826 L78.4868218,55.6809826 C80.0386783,55.6742059 81.2950281,54.4178561 81.3018048,52.8659996 L81.3018048,52.1173997 L81.3018048,52.1050262 Z" id="Shape" fill="#E15E49"></path>
                                <path d="M2.72975156,49.4261522 L2.72975156,52.8598128 C2.73308279,54.409293 3.98293662,55.667424 5.53236102,55.6809826 L78.4868218,55.6809826 C80.0386783,55.6742059 81.2950281,54.4178561 81.3018048,52.8659996 L81.3018048,49.432339 L2.72975156,49.4261522 Z" id="Shape" fill="#F5E3A4" style="mix-blend-mode: multiply;"></path>
                                <path d="M6.28714767,31.5525568 C6.28714767,31.5525568 20.5724131,33.3590954 20.5724131,41.3895304 L6.28714767,41.3895304 L6.28714767,31.5525568 Z M77.7320351,31.5525568 C77.7320351,31.5525568 63.4467697,33.340535 63.4467697,41.3709701 L77.7320351,41.3709701 L77.7320351,31.5525568 Z" id="Shape" fill="#E4EBF9"></path>
                                <path d="M20.5724131,41.3895304 L6.28714767,41.3895304 L6.28714767,36.1678916 C10.70149,38.5965984 15.5249517,40.192535 20.5167321,40.876028 C20.5538528,41.0492577 20.5724131,41.2163007 20.5724131,41.3895304 Z M77.7320351,36.155518 C73.3179837,38.5872436 68.4947251,40.1873073 63.5024507,40.876028 C63.493035,41.047066 63.493035,41.2184924 63.5024507,41.3895304 L77.7877161,41.3895304 L77.7320351,36.155518 Z" id="Shape" fill="#D1DAF2"></path>
                                <polygon id="Shape" fill="#34495E" points="60.7431487 33.3590954 23.251287 33.3590954 27.7119524 41.3895304 56.2762965 41.3895304"></polygon>
                                <path d="M73.7230044,20.533909 L68.5013656,7.30658227 C67.8986425,6.13108938 66.8556461,5.2415402 65.5997677,4.83187194 C57.3469307,3.59623931 49.0118208,2.99230579 40.6670611,3.02533339 C26.4374766,3.02533339 18.4936564,4.81331161 18.394668,4.83187194 C17.1380573,5.23751382 16.0956374,6.12847105 15.4992569,7.30658227 L10.2961784,20.533909 L9.8136099,21.7712642 L74.2055729,21.7712642 L73.7230044,20.533909 Z" id="Shape" fill="#4F6073"></path>
                                <path d="M68.0682913,14.6131645 L67.690898,13.6109069 L64.1273151,4.57202735 C56.3564409,3.51240867 48.5222144,2.98530372 40.6794346,2.99439951 C33.7320625,2.92280798 26.7909233,3.43397714 19.9289884,4.52253314 L16.3406584,13.6109069 L15.9508915,14.5946042 L68.0744781,14.5946042 L68.0682913,14.6131645 Z" id="Shape" fill="#5D7187"></path>
                                <rect id="Rectangle-path" fill="#C5EFF7" x="28.6028482" y="45.8563826" width="26.7825526" height="6.24864361"></rect>
                                <path d="M10.7725602,47.2607807 C10.7759665,46.4841533 11.4065102,45.8563751 12.1831451,45.8563826 L18.2956796,45.8563826 C19.0723144,45.8563751 19.7028582,46.4841533 19.7062645,47.2607807 L19.7062645,50.6944413 C19.702876,51.4720779 19.0733163,52.1016377 18.2956796,52.1050262 L12.158398,52.1050262 C11.3890347,52.0915265 10.7724417,51.4639229 10.7725602,50.6944413 L10.7725602,47.2607807 Z M63.4467697,50.6944413 C63.4467622,51.4710761 64.0745405,52.1016199 64.8511678,52.1050262 L70.9637024,52.1050262 C71.741339,52.1016377 72.3708988,51.4720779 72.3742873,50.6944413 L72.3742873,47.2607807 C72.370881,46.4841533 71.7403372,45.8563751 70.9637024,45.8563826 L64.8511678,45.8563826 C64.0755402,45.8563826 63.4467697,46.485153 63.4467697,47.2607807 L63.4467697,50.6944413 Z" id="Shape" fill="#931F34" style="mix-blend-mode: multiply;"></path>
                            </g>
                            <rect id="Rectangle-path" fill="#ADC1D1" fill-rule="nonzero" x="22.6293663" y="25.0022855" width="161.988007" height="18.9109228"></rect>
                            <rect id="Rectangle-path" fill="#FFFFFF" fill-rule="nonzero" x="22.6293663" y="43.9132083" width="161.988007" height="1.94556819"></rect>
                            <g id="Group" transform="translate(22.318075, 24.963374)" fill-rule="nonzero">
                                <rect id="Rectangle-path" fill="url(#linearGradient-1)" x="0.31129091" y="15.7980137" width="161.988007" height="3.15182047"></rect>
                                <rect id="Rectangle-path" fill="url(#linearGradient-2)" x="0.31129091" y="12.6461932" width="161.988007" height="3.15182047"></rect>
                                <rect id="Rectangle-path" fill="url(#linearGradient-3)" x="0.31129091" y="9.49437277" width="161.988007" height="3.15182047"></rect>
                                <rect id="Rectangle-path" fill="url(#linearGradient-4)" x="0.31129091" y="6.3425523" width="161.988007" height="3.15182047"></rect>
                                <rect id="Rectangle-path" fill="url(#linearGradient-5)" x="0.31129091" y="3.19073183" width="161.988007" height="3.15182047"></rect>
                                <rect id="Rectangle-path" fill="url(#linearGradient-6)" x="0.31129091" y="0.0389113638" width="161.988007" height="3.15182047"></rect>
                            </g>
                            <rect id="Rectangle-path" fill="url(#linearGradient-7)" fill-rule="nonzero" x="22.6293663" y="25.0022855" width="161.988007" height="6.30364094"></rect>
                            <rect id="Rectangle-path" fill="#B12D27" fill-rule="nonzero" x="0.255332128" y="0.838328552" width="206.813899" height="6.30364094"></rect>
                            <g id="Group-3" transform="translate(22.707189, 25.235754)">
                                <rect id="Rectangle" fill="#FFFFFF" x="0" y="0" width="161.871273" height="33.3111213"></rect>
                                <polygon id="Rectangle" fill="#EBEBEB" points="0 0 161.871273 0 161.871273 25.2632698 0 25.2632698"></polygon>
                                <path d="M0.194556819,6.42037503 L162.12241,6.42037503" id="Line" stroke="#979797" opacity="0.19995471" stroke-linecap="square"></path>
                                <path d="M0.194556819,12.996322 L162.12241,12.996322" id="Line" stroke="#979797" opacity="0.19995471" stroke-linecap="square"></path>
                                <path d="M0.194556819,19.572269 L162.12241,19.572269" id="Line" stroke="#979797" opacity="0.19995471" stroke-linecap="square"></path>
                            </g>
                        </g>
                    </g>
                </g>
            </g>
        </g>
    </g>
</svg>