<?xml version="1.0" encoding="UTF-8"?>
<svg width="100px" height="141px" viewBox="0 0 100 141" version="1.1" xmlns="http://www.w3.org/2000/svg" xmlns:xlink="http://www.w3.org/1999/xlink">
    <!-- Generator: Sketch 45.2 (43514) - http://www.bohemiancoding.com/sketch -->
    <title>homem</title>
    <desc>Created with Sketch.</desc>
    <defs>
        <rect id="path-1" x="0.0482849482" y="0" width="100" height="141"></rect>
    </defs>
    <g id="telas-principais" stroke="none" stroke-width="1" fill="none" fill-rule="evenodd">
        <g id="Artboard" transform="translate(-365.000000, -405.000000)">
            <g id="Group-7" transform="translate(-36.000000, 181.000000)">
                <g id="card-principal" transform="translate(292.000000, 50.000000)">
                    <g id="Group" transform="translate(70.000000, 130.000000)">
                        <g id="Group-4">
                            <g id="Group-15">
                                <g id="Group-14">
                                    <g id="homem" transform="translate(39.000000, 44.000000)">
                                        <mask id="mask-2" fill="white">
                                            <use xlink:href="#path-1"></use>
                                        </mask>
                                        <g id="Mask"></g>
                                        <g id="Ativo-1" mask="url(#mask-2)" fill-rule="nonzero">
                                            <g transform="translate(0.048285, 0.000000)">
                                                <rect id="Rectangle-path" fill="#F2F1F0" x="37.7812553" y="68.1382485" width="23.4494544" height="12.913185"></rect>
                                                <rect id="Rectangle-path" fill="#FCD4A9" x="38.5596604" y="56.7679737" width="21.878744" height="21.3088403"></rect>
                                                <path d="M38.5596604,56.7679737 L38.5596604,74.2403887 C52.1817501,72.9337801 58.1170891,68.3328498 60.4384044,65.7335327 L60.4384044,60.2846968 L59.159596,56.7679737 L38.5596604,56.7679737 Z" id="Shape" fill="#EACCA9"></path>
                                                <path d="M67.5691514,43.6740875 C67.5691514,57.2127766 55.3092707,64.8856271 49.4990324,64.8856271 C43.6887942,64.8856271 31.4289135,57.2127766 31.4289135,43.6740875 C31.4289135,30.1353984 22.0602518,9.9802657 49.4990324,9.9802657 C76.937813,9.9802657 67.5691514,30.1353984 67.5691514,43.6740875 Z" id="Shape" fill="#FCD4A9"></path>
                                                <path d="M67.4301504,34.5278273 C67.4301504,34.5278273 63.9968278,41.2276714 66.7768461,44.4663927 C69.5568644,47.705114 70.2101687,44.4663927 70.1267682,43.2431846 C70.0433676,42.0199766 71.1831751,40.4631663 71.3499762,35.1672315 C71.5167773,29.8712966 67.4301504,34.5278273 67.4301504,34.5278273 Z" id="Shape" fill="#F9D9B9"></path>
                                                <path d="M27.6480886,35.1672315 C27.8148897,40.4353662 28.9407971,42.0199766 28.8712966,43.2431846 C28.8017962,44.4663927 29.4412004,47.7190141 32.2212187,44.4663927 C35.001237,41.2137713 31.5679144,34.5278273 31.5679144,34.5278273 C31.5679144,34.5278273 27.4812875,29.8990968 27.6480886,35.1672315 Z" id="Shape" fill="#F9D9B9"></path>
                                                <polygon id="Shape" fill="#636463" points="61.1890094 81.8993391 61.2168095 68.1382485 49.5963331 78.1046141 37.7673552 68.1382485 37.8646558 81.8993391 19.2663334 81.8993391 23.1861592 161.741465 75.7007049 161.741465 79.6205307 81.8993391"></polygon>
                                                <path d="M66.7212458,14.4004948 C65.79193,13.3713059 64.7030746,12.4983443 63.4964245,11.8150778 C62.4539826,10.1949743 61.7889285,8.36132505 61.5504117,6.44964245 C59.2290965,9.42426204 60.4384044,10.174867 60.4801047,10.2026672 L60.4801047,10.2026672 C60.3411038,10.1192666 53.7524604,6.60254346 53.1686566,3.89202562 C52.6821534,6.29674145 53.0713559,7.32534822 53.5022588,7.77015115 C51.264344,6.63034364 43.9945962,2.7800183 43.8555953,0 C42.1736842,6.68594401 46.3437116,7.60335005 46.8858152,7.70065069 C46.2603111,7.61725014 40.7002745,6.74154438 39.1434642,5.64343715 C39.1434642,7.14464703 39.866269,8.15935371 41.9234825,8.32615481 C40.3584219,8.48344655 38.779724,8.44141021 37.2252516,8.20105398 C37.5032534,8.90995865 37.6561545,9.20186057 38.2121581,9.46596231 C35.0120941,10.7059022 32.4165972,13.1370011 30.9702104,16.249207 C28.1901921,20.9196377 28.6349951,27.0912783 29.4968007,34.0135239 C29.5802013,34.6251279 29.6636018,35.250632 29.7470024,35.8066357 C30.0250042,37.8777493 30.0250042,37.9055495 30.3447063,38.2113515 L30.6644084,38.5310536 L31.1092114,38.5310536 C31.9849171,38.5310536 32.1517182,37.9333497 32.4992205,36.612841 C32.8189226,35.5286339 33.3888264,33.4853204 34.4313332,30.4412004 C35.9325431,26.0209713 40.922676,21.5590419 48.6511268,21.5590419 C48.9520086,21.5776326 49.253751,21.5776326 49.5546328,21.5590419 C49.8554986,21.578141 50.1572729,21.578141 50.4581387,21.5590419 C58.1865896,21.5590419 63.1767224,26.0209713 64.6779323,30.4412004 C65.7065391,33.4853204 66.2903429,35.5147338 66.596145,36.612841 C66.9714474,37.9333497 67.1521486,38.5310536 67.9861541,38.5310536 L68.5004575,38.5310536 L69.028661,38.0028502 L69.028661,38.0028502 L69.028661,38.0028502 L69.028661,37.6414478 C69.1259616,36.8352425 69.2371623,36.0290372 69.334463,35.2228319 C70.3630697,27.5221812 71.3499762,19.6547294 66.7212458,14.4004948 Z" id="Shape" fill="#6F1D1E"></path>
                                                <path d="M98.6088623,120.930796 C98.6088623,120.930796 93.70213,80.4537296 90.519009,77.1177076 C87.9613922,74.43499 67.8340597,69.7506591 60.0917087,68.0409479 L60.0917087,73.2395821 L56.0745823,73.2395821 L49.6249398,111.589935 L78.2452282,94.0897193 L85.8902785,126.337932 L65.7907462,165.841992 L74.5478039,172.625236 C82.6376571,159.392349 94.6056359,139.82102 97.8304571,134.705787 C100.346374,130.66086 98.6088623,120.930796 98.6088623,120.930796 Z" id="Shape" fill="#636463"></path>
                                                <path d="M49.5677263,111.589935 L43.0902836,73.2812824 L38.7951554,73.2812824 L38.7951554,68.1104483 C30.844303,69.9174602 11.2034737,74.5183905 8.67365709,77.1594079 C5.5600366,80.4954299 0.583803843,120.930796 0.583803843,120.930796 C0.583803843,120.930796 -1.15370759,130.66086 1.39000915,134.705787 C4.61483038,139.82102 16.5967092,159.392349 24.6726624,172.625236 L33.4297201,165.841992 L13.3023876,126.337932 L20.9474379,94.0897193 L49.5677263,111.589935 Z" id="Shape" fill="#636463"></path>
                                            </g>
                                        </g>
                                    </g>
                                </g>
                            </g>
                        </g>
                    </g>
                </g>
            </g>
        </g>
    </g>
</svg>