<?xml version="1.0" encoding="UTF-8"?>
<svg width="164px" height="332px" viewBox="0 0 164 332" version="1.1" xmlns="http://www.w3.org/2000/svg" xmlns:xlink="http://www.w3.org/1999/xlink">
    <!-- Generator: Sketch 45.2 (43514) - http://www.bohemiancoding.com/sketch -->
    <title>menina-segurado</title>
    <desc>Created with Sketch.</desc>
    <defs></defs>
    <g id="telas-principais" stroke="none" stroke-width="1" fill="none" fill-rule="evenodd">
        <g id="Artboard" transform="translate(-380.000000, -332.000000)" fill-rule="nonzero">
            <g id="menina-segurado" transform="translate(380.311025, 332.622050)">
                <path d="M103.40935,3.38966758 C98.236313,3.04817122 93.8601003,7.77852823 93.8601003,7.77852823 C93.8601003,7.77852823 88.9147271,-3.18729937 61.3294099,0.923304977 C44.8996405,3.36437156 30.6200334,17.2518902 30.6200334,71.5245156 C30.6200334,71.5245156 30.0635209,134.688694 54.2085784,140.038804 C124.620069,155.848821 137.230138,64.8590126 137.230138,64.8590126 C137.166898,10.5863872 120.02884,4.47739674 103.40935,3.38966758 Z" id="Shape" fill="#7F5547"></path>
                <path d="M163.613894,330.024613 C164.410719,319.337042 154.064644,176.376547 152.483642,166.473152 C150.902641,156.569758 132.575669,151.927937 132.575669,151.927937 L98.1477769,139.532884 L87.3590214,138.09101 L87.3590214,136.636489 L81.9203757,137.370073 L76.532322,136.598544 L76.532322,138.053066 L65.7435666,139.49494 L31.3030262,151.889993 C31.3030262,151.889993 13.0013508,156.519166 11.4077011,166.435208 C9.81405144,176.351251 -0.481431452,319.337042 0.264801338,330.024613 C0.29073256,330.300905 0.332966199,330.575424 0.391281471,330.846734 L14.5064644,330.846734 C17.9720201,312.646243 29.4817122,189.100448 29.9876328,188.70836 C29.1149199,195.361215 29.0769758,202.621174 31.3409702,208.540445 C37.1337603,223.642173 56.1563724,251.682818 45.2537849,277.889502 C40.8143322,288.501185 34.1867732,307.511149 34.1867732,327.912395 C34.1867732,328.633332 34.1867732,329.619877 34.2753093,330.846734 L129.780458,330.846734 C129.780458,329.581933 129.868994,328.633332 129.868994,327.912395 C129.868994,307.511149 123.241435,288.501185 118.789335,277.889502 C107.772915,251.695466 126.744935,223.642173 132.575669,208.540445 C134.852312,202.621174 134.814368,195.361215 133.941655,188.70836 C134.447575,189.100448 145.957267,312.658891 149.422823,330.846734 L163.500062,330.846734 C163.560018,330.576194 163.598085,330.301265 163.613894,330.024613 Z" id="Shape" fill="#FCD4A9"></path>
                <rect id="Rectangle-path" fill="#FCD4A9" x="62.315955" y="106.926305" width="38.5005527" height="46.5193932"></rect>
                <path d="M62.315955,106.926305 L62.315955,145.085361 C86.3471804,142.239558 96.7438474,132.197036 100.829156,126.50543 L100.829156,114.628945 L98.5778093,106.926305 L62.315955,106.926305 Z" id="Shape" fill="#EACCA9"></path>
                <ellipse id="Oval" fill="#FCD4A9" cx="81.5662313" cy="67.6668716" rx="40.4862908" ry="54.1587933"></ellipse>
                <path d="M124.797141,66.174406 C124.012964,62.6076662 121.116569,67.4392073 121.116569,67.4392073 C121.116569,67.4392073 118.726095,80.4666611 118.726095,86.7274277 C118.726095,92.9881943 125.050101,88.2072453 124.797141,86.7274277 C124.544181,85.2476102 125.581318,69.7537938 124.797141,66.174406 Z" id="Shape" fill="#FCD4A9"></path>
                <path d="M38.3479696,66.174406 C37.5637928,69.7537938 38.5376898,85.2349621 38.3479696,86.7274277 C38.1582494,88.2198933 44.406368,92.9755463 44.406368,86.7274277 C44.406368,80.4793091 42.0032455,67.4392073 42.0032455,67.4392073 C42.0032455,67.4392073 39.1321464,62.6076662 38.3479696,66.174406 Z" id="Shape" fill="#FCD4A9"></path>
                <polygon id="Shape" fill="#7F5547" points="91.659346 12.8756776 89.3068155 8.63859314 65.6550305 8.63859314 41.2190687 22.0328393 35.7171828 64.8590126 92.8862033 21.8431191 122.06517 66.1111659 126.226367 42.2190687 113.717481 21.4383827"></polygon>
                <path d="M132.575669,151.927937 L110.365758,143.934392 C105.733277,155.732285 94.3730363,163.511073 81.6983633,163.564047 C69.0236903,163.617021 57.5988247,155.933462 52.867889,144.174704 L31.3662662,151.927937 C31.3662662,151.927937 13.0645909,156.55711 11.4709412,166.473152 C9.90258753,176.110938 0.075081137,311.58381 0.264801338,328.848348 L14.8606088,328.848348 C18.6550128,305.019491 29.4943603,189.100448 30.0382248,188.721008 C29.1655119,195.373863 29.1275679,202.633822 31.3915623,208.553093 C36.7163759,222.465907 53.2093853,247.268662 47.3154111,271.552847 L116.626524,271.552847 C110.73255,247.268662 127.22556,222.440611 132.537725,208.553093 C134.814368,202.633822 134.776424,195.373863 133.903711,188.721008 C134.396983,189.100448 145.211035,305.082731 149.081327,328.848348 L163.677134,328.848348 C163.866854,311.596458 154.039348,176.123586 152.49629,166.4858 C150.889993,156.55711 132.575669,151.927937 132.575669,151.927937 Z" id="Shape" fill="#FCBF69"></path>
                <path d="M55.9793003,221.631138 C55.5492678,217.722902 55.3721956,214.194107 55.2710115,211.323007 C57.2057938,210.930314 58.6932311,209.377328 59.0021755,207.427419 C60.0646086,203.038559 57.7373741,196.499536 53.5508817,191.516219 C56.1597136,191.91714 58.5998752,190.128066 59.0021755,187.519446 C60.1910887,182.599369 57.0670294,174.871433 51.931936,169.812228 C55.3721956,170.862013 58.1674066,169.635155 59.0021755,166.1696 C60.0646086,161.780739 57.7373741,155.241716 53.5508817,150.258399 C56.1597136,150.659321 58.5998752,148.870246 59.0021755,146.261627 C60.2669768,141.025349 56.662293,132.690308 50.9327429,127.643751 C45.2031929,122.597194 39.5495309,122.736322 38.2847295,127.972599 C37.2222964,132.36146 39.5495309,138.900483 43.7360233,143.8838 C42.4679265,143.692822 41.1762681,144.019292 40.1512072,144.789871 C39.1261464,145.560451 38.4536289,146.710531 38.2847295,147.981757 C37.0958163,152.901834 40.2198756,160.62977 45.367617,165.688975 C41.9147094,164.651838 39.1321464,165.866047 38.2847295,169.344251 C37.2222964,173.733112 39.5495309,180.272135 43.7360233,185.255452 C41.1271914,184.85453 38.6870298,186.643604 38.2847295,189.252224 C37.0199282,194.488502 40.63726,202.823543 46.3541621,207.8701 C46.6577144,208.148356 46.9612667,208.338076 47.2774671,208.578389 C44.5707922,212.107184 39.4609948,220.682537 47.3660032,227.550409 C57.4844139,236.404018 62.315955,236.404018 62.315955,236.404018 C62.315955,236.404018 57.0796774,231.825437 55.9793003,221.631138 Z" id="Shape" fill="#7F5547"></path>
                <path d="M118.726095,277.889502 C117.879033,275.837006 117.189824,273.722867 116.664468,271.565495 L47.264819,271.565495 C46.7407841,273.724768 46.0472074,275.839331 45.1905449,277.889502 C40.7510922,288.501185 34.1235331,307.511149 34.1235331,327.912395 C34.1235331,328.633332 34.1235331,329.619877 34.2120692,330.846734 L129.717218,330.846734 C129.780458,329.581933 129.805754,328.633332 129.805754,327.912395 C129.805754,307.511149 123.178195,288.501185 118.726095,277.889502 Z" id="Shape" fill="#931F34"></path>
                <path d="M115.842348,267.050154 L48.0869399,267.050154 C47.6011284,270.774679 46.6273036,274.419081 45.1905449,277.889502 L44.9881766,278.395422 L118.941111,278.395422 C118.941111,278.230998 118.801983,278.053926 118.726095,277.889502 C117.299036,274.41667 116.329658,270.773001 115.842348,267.050154 L115.842348,267.050154 Z" id="Shape" fill="#636463"></path>
            </g>
        </g>
    </g>
</svg>