<?xml version="1.0" encoding="UTF-8"?>
<svg width="78px" height="133px" viewBox="0 0 78 133" version="1.1" xmlns="http://www.w3.org/2000/svg" xmlns:xlink="http://www.w3.org/1999/xlink">
    <!-- Generator: Sketch 45.2 (43514) - http://www.bohemiancoding.com/sketch -->
    <title>mulher</title>
    <desc>Created with Sketch.</desc>
    <defs>
        <rect id="path-1" x="0.401367188" y="0" width="77.6689453" height="133"></rect>
    </defs>
    <g id="telas-principais" stroke="none" stroke-width="1" fill="none" fill-rule="evenodd">
        <g id="Artboard" transform="translate(-592.000000, -412.000000)">
            <g id="Group-7" transform="translate(-36.000000, 181.000000)">
                <g id="card-principal" transform="translate(292.000000, 50.000000)">
                    <g id="Group" transform="translate(70.000000, 130.000000)">
                        <g id="Group-4">
                            <g id="Group-15">
                                <g id="Group-14" transform="translate(214.000000, 1.000000)">
                                    <g id="mulher" transform="translate(52.000000, 50.000000)">
                                        <mask id="mask-2" fill="white">
                                            <use xlink:href="#path-1"></use>
                                        </mask>
                                        <g id="Mask"></g>
                                        <g mask="url(#mask-2)" fill-rule="nonzero">
                                            <g transform="translate(-5.000000, 0.000000)">
                                                <path d="M88.5586709,171.724845 L84.4824527,161.916445 L84.0295396,160.501091 C84.0844711,160.277837 84.1223233,160.050724 84.1427678,159.821722 C84.3267638,157.514695 83.4209375,142.497794 82.3028082,126.093847 L82.3028082,126.093847 C80.8874547,105.52876 79.1465698,82.7840284 78.7078102,80.0948567 C77.9293658,75.2543476 69.0126385,73.018089 69.0126385,73.018089 L52.2406991,66.9320688 L46.9755839,66.224392 L46.9755839,65.5167153 L46.9755839,65.5167153 L44.3288728,65.8705537 L41.6821617,65.5167153 L41.6821617,65.5167153 L41.6821617,66.224392 L36.4170465,66.9320688 L19.6592606,72.9756284 C19.6592606,72.9756284 10.7425334,75.2260405 9.96408891,80.0523961 C9.53948285,82.7415678 7.78444446,105.52876 6.38324446,126.051386 L6.38324446,126.051386 C5.26511516,142.455334 4.37344243,157.472235 4.54328486,159.779261 C4.56119127,160.009639 4.60389896,160.237414 4.67066668,160.458631 L4.20360001,161.873984 L0.141535354,171.724845 C-0.190758192,173.010187 0.097261134,174.376969 0.9199798,175.418918 C2.33533334,176.834271 10.9123758,184.307338 10.9123758,184.307338 C10.9123758,184.307338 12.1578869,181.717241 8.57704244,179.127144 C7.31737779,176.721043 5.5623394,173.111891 5.5623394,173.111891 C5.5623394,173.111891 7.33153133,170.281184 7.71367678,169.361204 C8.09582224,168.441225 8.69027072,167.747701 9.31302628,169.686736 C9.93578184,171.62577 11.3086748,174.314942 12.2428081,173.932796 C13.1769414,173.550651 11.5068243,167.408016 11.1529859,166.162505 C10.968445,164.554279 10.968445,162.930223 11.1529859,161.321996 C12.2569616,160.869083 18.583592,92.8754992 18.9940445,90.9789254 C18.446778,94.1942879 18.6748349,97.493834 19.6592606,100.603329 C22.4899677,107.963168 31.7605334,121.635483 26.410497,134.416126 C23.0696793,142.120246 21.2390466,150.39413 21.018,158.788513 C21.018,168.695988 31.7746869,282.490413 32.2134465,286.863855 L32.2134465,286.863855 C32.2134465,286.863855 28.2787637,290.359778 25.1366788,292.992336 C24.3440809,293.657552 25.0517576,293.983083 26.5520324,294.01139 C30.798093,294.096312 42.007693,291.477908 42.0360001,286.863855 C42.0345565,286.563966 42.0013463,286.265074 41.9369253,285.972182 L42.3473779,169.686736 C42.3603914,168.734619 42.4694544,167.786245 42.6729092,166.856029 C42.9418263,165.752053 43.4230465,164.747152 44.3147193,164.747152 C45.206392,164.747152 45.7300728,165.752053 45.9565294,166.856029 C46.1599842,167.786245 46.2690471,168.734619 46.2820607,169.686736 L46.7066668,285.901415 C46.6470014,286.194814 46.618536,286.4937 46.6217455,286.793087 C46.6217455,291.40714 57.817192,294.025544 62.0915597,293.940623 C63.5069133,293.940623 64.2712042,293.586784 63.5069133,292.921568 C60.407289,290.289011 56.4301456,286.807241 56.4301456,286.793087 L56.4301456,286.793087 C56.8689052,282.419645 67.6114385,168.667681 67.6114385,158.717746 C67.3939017,150.365346 65.5828158,142.131391 62.2755557,134.458586 C56.9255193,121.720404 66.2102385,108.005628 69.026792,100.64579 C70.0183,97.5376445 70.2464752,94.2363857 69.6920082,91.021386 C70.1024607,92.9462668 76.4290911,160.911544 77.5330668,161.364457 C77.7241478,162.972303 77.7241478,164.59712 77.5330668,166.204966 C77.193382,167.450477 75.5091113,173.550651 76.4432446,173.975257 C77.3773779,174.399863 78.7502709,171.696538 79.3730264,169.729196 C79.995782,167.761855 80.5760769,168.483685 80.9723759,169.403665 C81.3686749,170.323645 83.1237133,173.154352 83.1237133,173.154352 C83.1237133,173.154352 81.3686749,176.763503 80.1231638,179.169604 C76.5281658,181.759701 77.7736769,184.349798 77.7736769,184.349798 C77.7736769,184.349798 86.3365658,176.919192 87.7519194,175.418918 C88.5845173,174.381854 88.883114,173.014595 88.5586709,171.724845 Z" id="Shape" fill="#FCD4A9"></path>
                                                <path d="M53.0474506,0 C44.9233213,0 44.1448769,2.10887677 44.1448769,2.10887677 C44.1448769,2.10887677 43.3805859,0 35.2423031,0 C27.1040203,0 19.2771152,8.77519194 19.2771152,39.8422021 L19.2771152,92.1253618 L69.0126385,92.1253618 L69.0126385,39.8422021 C69.0126385,8.77519194 61.1857334,0 53.0474506,0 Z" id="Shape" fill="#FCBF69"></path>
                                                <rect id="Rectangle-path" fill="#FCD4A9" x="34.7610829" y="51.0376486" width="18.7675879" height="32.3691354"></rect>
                                                <path d="M34.7610829,51.0376486 L34.7610829,69.6353941 C46.4519031,68.2200405 51.5471759,63.3512244 53.5286708,60.5771314 L53.5286708,54.7883355 L52.4388486,51.0376486 L34.7610829,51.0376486 Z" id="Shape" fill="#EACCA9"></path>
                                                <ellipse id="Oval" fill="#FCD4A9" cx="44.1448769" cy="31.9020687" rx="19.7441819" ry="26.410497"></ellipse>
                                                <path d="M65.219491,31.1377778 C64.8373456,29.396893 63.421992,31.7605334 63.421992,31.7605334 C62.842794,34.8755052 62.4598942,38.0237927 62.2755557,41.186788 C62.2755557,44.2297981 65.3327193,41.9086183 65.2336446,41.186788 C65.1345698,40.4649577 65.6016365,32.9069698 65.219491,31.1377778 Z" id="Shape" fill="#F9D9B9"></path>
                                                <path d="M23.0702627,31.1377778 C22.6881172,32.8786627 23.1693374,40.4366506 23.0702627,41.1584809 C22.9711879,41.8803112 26.0283516,44.201491 26.0283516,41.1584809 C25.8381571,38.004666 25.4505343,34.8658672 24.8677617,31.7605334 C24.8677617,31.7605334 23.4524081,29.4252001 23.0702627,31.1377778 Z" id="Shape" fill="#F9D9B9"></path>
                                                <path d="M69.7061617,90.9789254 L69.7061617,90.9789254 C69.7061617,90.9789254 69.7061617,91.0496931 69.7061617,91.0921537 L69.7061617,91.205382 C69.7061617,91.205382 69.7061617,91.3044567 69.7061617,91.3752244 L69.7061617,91.5450668 C69.7061617,91.5450668 69.7061617,91.6866022 69.7061617,91.7573699 L69.7061617,91.9696729 C69.7138458,92.0638734 69.7138458,92.1585431 69.7061617,92.2527436 L69.7061617,92.4933537 L69.7061617,92.8613456 L69.7061617,93.0736487 L69.7061617,93.5407153 L69.7061617,93.823786 L69.7061617,94.2766992 L69.7061617,94.5880769 C69.9467718,96.8951032 70.2864567,100.136263 70.6686022,103.971871 L80.1797779,102.202679 L80.1797779,102.202679 C80.1797779,101.509156 80.0807032,100.787325 80.024089,100.136263 L80.024089,100.051342 C79.9250143,98.6359881 79.811786,97.3338628 79.7127113,96.0458911 L79.7127113,96.0458911 C79.7127113,95.4372891 79.6136365,94.828687 79.5711759,94.2342386 L79.5711759,94.1351638 C79.4862547,92.9179598 79.3871799,91.7432163 79.3022587,90.6533941 L79.3022587,90.5826264 C79.2173375,89.4928042 79.1324163,88.4595961 79.0474951,87.4971557 L79.0474951,87.3839274 C79.0474951,86.9593214 79.0474951,86.5488688 78.9342668,86.1667234 L78.9342668,85.9685739 C78.9342668,85.600582 78.9342668,85.2325901 78.8351921,84.8787517 L78.8351921,84.7513699 C78.8351921,84.3692244 78.7644244,84.0295396 78.7361173,83.6898547 L78.7361173,83.4775517 C78.7361173,83.222788 78.7361173,82.9680244 78.7361173,82.7415678 L78.7361173,82.5292648 C78.7361173,82.2745012 78.7361173,82.0338911 78.6653496,81.821588 L78.6653496,81.7225133 C78.6653496,81.4819032 78.6653496,81.2696002 78.6653496,81.0714507 L78.6653496,80.9299153 C78.6653496,80.7883799 78.6653496,80.6609981 78.6653496,80.5477698 L78.6653496,80.420388 C78.6653496,80.2788527 78.6653496,80.1514709 78.6653496,80.0665496 C77.8869052,75.2260405 68.9560244,72.989782 68.9560244,72.989782 L54.9440243,67.9369698 L44.2156445,77.2641496 L33.5155718,67.9369698 L19.6592606,72.9331678 C19.6592606,72.9331678 10.7425334,75.1835799 9.96408891,80.0099355 C9.96408891,80.0948567 9.96408891,80.2222385 9.96408891,80.3637739 L9.96408891,80.4911557 C9.96408891,80.604384 9.96408891,80.7317658 9.96408891,80.8733012 L9.96408891,81.0148365 C9.96408891,81.212986 9.96408891,81.425289 9.96408891,81.6658991 L9.96408891,81.7508204 C9.96408891,81.9631234 9.96408891,82.2037335 9.89332123,82.4584971 L9.89332123,82.6991072 C9.89332123,82.9255638 9.89332123,83.1803274 9.89332123,83.4350911 L9.89332123,83.6332406 C9.89332123,83.9729254 9.89332123,84.3126103 9.79424648,84.6806022 L9.79424648,84.9212123 C9.79424648,85.2325901 9.79424648,85.5722749 9.70932527,85.9261133 L9.70932527,86.1667234 C9.70932527,86.5488688 9.70932527,86.9310143 9.61025052,87.3414668 L9.61025052,87.4971557 C9.61025052,87.9642224 9.61025052,88.4454426 9.49702224,88.9125093 L9.49702224,89.1672729 C9.49702224,89.591879 9.42625456,90.0306386 9.38379396,90.4693982 C9.38379396,90.59678 9.38379396,90.7241618 9.38379396,90.8656971 C9.29887274,91.9130588 9.21395153,93.002881 9.11487678,94.1493173 L9.11487678,94.404081 L8.98749497,96.0034305 L8.98749497,96.2440406 C8.88842022,97.4895517 8.78934547,98.791677 8.69027072,100.122109 L8.69027072,100.320259 C8.69027072,100.928861 8.59119598,101.551616 8.54873537,102.188525 L8.54873537,102.315907 L18.0740647,104.085099 L18.0740647,103.957717 C18.1589859,103.080198 18.2439071,102.24514 18.3288283,101.424235 L18.3288283,101.197778 C18.4137495,100.419334 18.4845172,99.6833497 18.5552849,98.9756729 L18.5552849,98.6642951 C18.6402061,97.9141578 18.7109738,97.2489416 18.7675879,96.5554184 L18.7675879,96.5554184 C18.7675879,95.8760487 18.8949697,95.2532931 18.9515839,94.6871517 L18.9515839,94.4748487 C18.9515839,94.2766992 18.9515839,94.0927032 18.9515839,93.9228608 L18.9515839,93.6539436 C18.9515839,93.4982547 18.9515839,93.3425658 18.9515839,93.2010305 L18.9515839,92.9321133 C18.9446053,92.8237151 18.9446053,92.7149802 18.9515839,92.606582 L18.9515839,92.3376648 L18.9515839,92.0687476 L18.9515839,91.8564446 L18.9515839,91.6441416 L18.9515839,91.4318386 C18.9572595,91.3753667 18.9572595,91.318468 18.9515839,91.2619961 L18.9515839,91.1487678 C18.9576619,91.1112698 18.9576619,91.0730376 18.9515839,91.0355396 L18.9515839,91.0355396 C18.3968801,94.2646492 18.6250033,97.5797156 19.6168,100.702404 C22.4475071,108.062243 31.7180728,121.734558 26.3680364,134.5152 C26.2831152,134.741657 26.1698869,134.982267 26.0708122,135.237031 L42.7719839,135.817326 L42.7719839,135.9164 L44.1873375,135.9164 L45.602691,135.9164 L45.602691,135.817326 L62.5869335,135.222877 L62.2755557,134.458586 C56.9396728,121.720404 66.2102385,108.005628 69.026792,100.64579 C70.0185888,97.5231014 70.246712,94.2080351 69.6920082,90.9789254 C69.6920082,90.9789254 69.6920082,90.9364648 69.7061617,90.9789254 Z" id="Shape" fill="#6F1D1E"></path>
                                                <path d="M62.2755557,134.458586 C61.7549085,133.184198 61.361417,131.861498 61.1008122,130.50975 L27.5852405,130.50975 C27.3246357,131.861498 26.9311441,133.184198 26.410497,134.458586 C24.9296254,138.010698 23.713815,141.667591 22.7730384,145.399269 L40.8754102,145.399269 L44.3005657,140.841831 L47.7398748,145.399269 L65.9130143,145.399269 C64.9852776,141.663798 63.7691426,138.005929 62.2755557,134.458586 L62.2755557,134.458586 Z" id="Shape" fill="#FFFFFF"></path>
                                                <path d="M61.2462884,69.9050444 L61.028487,69.9050444 L44.6207779,85.644829 L28.2275889,69.8760042 L28.2275889,69.8760042 L19.3993702,73.0559053 L19.1234884,73.1430259 C19.1234884,73.1430259 18.6878855,91.4819078 18.7169257,91.4528676 C18.1478557,94.7656077 18.381887,98.1665307 19.3993702,101.370094 C22.3033895,108.920544 31.8140527,122.946957 26.3254563,136.058604 C26.2383357,136.290926 26.1221749,136.537767 26.0205342,136.799129 L43.1542481,137.394453 L43.1542481,137.496094 L44.6062578,137.496094 L46.0582675,137.496094 L46.0582675,137.394453 L63.4097828,136.784609 L63.2355417,136.349006 C63.0467804,135.913403 62.8870593,135.49232 62.7418584,135.056718 C58.1244677,122.235472 67.2285682,108.731783 70.0019066,101.370094 C71.0193899,98.1665307 71.2534212,94.7656077 70.6843512,91.4528676 C70.6843512,91.4528676 70.1906679,73.1139857 70.1906679,73.1139857 L70.0019066,73.1139857 L61.2462884,69.9050444 Z" id="Shape" fill="#E15E49"></path>
                                                <path d="M44.1448769,23.608097 C50.8342159,23.5338951 57.5018856,24.3816417 63.9598264,26.1274263 L60.8602021,4.24606061 L27.78339,4.24606061 L22.9287273,26.5661859 C29.8109664,24.5151002 36.9640685,23.5177697 44.1448769,23.608097 L44.1448769,23.608097 Z" id="Shape" fill="#FCBF69"></path>
                                            </g>
                                        </g>
                                    </g>
                                </g>
                            </g>
                        </g>
                    </g>
                </g>
            </g>
        </g>
    </g>
</svg>