<?xml version="1.0" encoding="UTF-8"?>
<svg width="340px" height="128px" viewBox="0 0 340 128" version="1.1" xmlns="http://www.w3.org/2000/svg" xmlns:xlink="http://www.w3.org/1999/xlink">
    <!-- Generator: Sketch 45.2 (43514) - http://www.bohemiancoding.com/sketch -->
    <title>uso-do-carro</title>
    <desc>Created with Sketch.</desc>
    <defs></defs>
    <g id="telas-principais" stroke="none" stroke-width="1" fill="none" fill-rule="evenodd">
        <g id="14-veiculo" transform="translate(-698.000000, -400.000000)" fill-rule="nonzero">
            <g id="Group-7" transform="translate(-36.000000, 181.000000)">
                <g id="uso-do-carro" transform="translate(734.000000, 219.000000)">
                    <polygon id="Shape" fill="#FFB880" points="181.048708 24.3857009 181.391701 32.3851844 173.185684 38.5885645 172.791058 35.1438814 172.503386 27.6754839"></polygon>
                    <path d="M174.926466,28.7856012 C174.037634,29.8920305 170.375354,29.6301756 168.892738,28.6786464 C168.487048,28.4167915 168.107174,24.8614655 168.763655,24.466839 C169.479146,24.0353316 174.295801,25.0606227 174.631418,25.1159442 C176.5271,25.447873 175.236266,28.398351 174.926466,28.7856012 Z" id="Shape" fill="#FFB880"></path>
                    <path d="M179.945967,22.8662047 C179.577157,24.4779033 176.744698,27.4210052 175.996014,27.3583075 C175.24733,27.2956098 174.47283,25.5142587 173.783156,25.0606227 C173.238611,24.6894507 172.642024,24.4011003 172.012869,24.2049841 C171.51395,24.084543 171.002915,24.021437 170.489685,24.0168911 C169.984415,23.9800102 168.881674,24.654932 168.523929,24.8356488 C168.321083,24.9389155 167.992843,24.5922344 167.753116,24.2676818 C167.619526,23.6621263 167.552741,23.0437477 167.553959,22.423633 C167.631409,21.0516607 168.343212,20.6017128 168.32846,19.7977076 C168.323856,19.1395258 168.412008,18.483978 168.590314,17.8503921 C168.608755,17.7987587 168.623507,17.7471253 168.63826,17.7065563 C168.695285,17.5179454 168.732369,17.3238731 168.748903,17.1275249 C168.818976,16.5521817 168.712022,16.1022338 168.992317,15.35355 C169.386944,14.2803136 169.991792,13.8082372 170.578199,13.2697749 C171.703069,13.3029678 174.266297,12.1633457 175.619828,12.2186671 C177.766301,12.2739886 179.370624,14.8519688 179.621414,15.4605049 C179.872205,16.069041 179.990224,18.9863261 180.030793,19.8013957 C180.071362,20.6164652 180.300024,21.2434418 179.945967,22.8662047 Z" id="Shape" fill="#FFB880"></path>
                    <path d="M167.749428,24.2529294 C167.948585,25.3298539 168.247321,26.5211094 168.420662,27.3251146 C168.420662,27.3804361 168.446479,27.4357575 168.457543,27.4837028 C168.494424,27.6533553 168.520241,27.8008792 168.534993,27.9188983 C168.693581,28.966318 168.933308,30.3604189 169.774194,30.6886596 C170.61508,31.0169003 171.120349,30.9357621 171.776831,30.9873955 C172.06233,30.9814679 172.346511,30.946872 172.625093,30.8841287 C174.022882,30.6222738 176.563981,29.9178472 177.41962,29.4088897 C178.430159,28.8003536 179.525524,28.1844413 180.115619,25.2265871 C180.148812,25.0606227 180.182005,24.8872822 180.21151,24.7028773 C180.21151,24.7028773 180.21151,24.6770606 180.21151,24.6623082 C180.768412,21.2213132 182.664095,21.3430204 182.664095,21.3430204 C182.664095,21.3430204 182.704664,21.0405964 182.759985,20.5537676 C182.80793,20.1628292 182.863252,19.6501837 182.918573,19.0785285 C182.937014,18.8572427 182.959142,18.6285806 182.977583,18.3925424 L182.977583,18.3704138 C183.040281,17.5737847 183.095602,16.7181461 183.106666,15.9399575 C183.128795,14.5347924 179.5329,11.8830503 175.77104,11.5806263 L175.737847,11.5806263 C173.860839,11.3795419 171.986076,11.9794661 170.574511,13.2328939 C171.699381,13.2660868 174.863768,12.6907436 176.228364,12.7239365 C176.942864,12.7448291 177.62976,13.0045251 178.179368,13.461556 C178.795922,13.9786556 179.279118,14.6364091 179.588221,15.3793667 L179.617726,15.4383763 C179.773963,16.0552741 179.864213,16.6870259 179.886957,17.3229941 C179.945967,18.0606136 179.990224,18.8609308 180.012352,19.3846406 C180.012352,19.3846406 180.012352,19.3846406 180.012352,19.3846406 C180.012352,19.5395407 180.012352,19.6686241 180.012352,19.7534504 C180.012352,19.8382766 180.012352,20.0153053 180.041857,20.1443887 C180.176044,21.0356306 180.139749,21.9442484 179.934902,22.8219475 C179.772626,23.559567 178.721518,24.7987678 177.640906,25.6617826 C177.163111,26.0853834 176.595766,26.3955323 175.981262,26.5690546 C175.858317,26.5829518 175.738167,26.5257372 175.671462,26.4215307 C175.657996,26.398571 175.643219,26.3764057 175.627205,26.355145 C175.478106,26.0723251 175.375966,25.7671517 175.324781,25.4515611 C175.258395,25.1306966 175.22889,24.8688417 175.214138,24.8614655 C174.683052,24.6512439 170.242582,23.4231074 168.575562,24.0353316 C168.206752,24.1791674 167.992843,24.5221605 167.760492,24.2529294 L167.749428,24.2529294 Z M168.88905,24.4152057 C169.034841,24.3875296 169.183602,24.3788519 169.331622,24.389389 C170.843334,24.5335993 172.345598,24.7638642 173.831101,25.0790632 L174.277361,25.1602014 C174.553968,25.2081466 174.753125,25.2413395 174.837952,25.2450276 C174.837952,25.2450276 174.734685,25.5031944 174.535528,25.8793804 C174.290536,26.3481232 174.005492,26.7948157 173.683577,27.2144717 C173.376133,27.6249042 173.012347,27.9899316 172.602965,28.2987724 L172.529203,28.3430295 C171.872721,28.6528297 169.534467,28.2803319 169.298429,27.8488245 C168.774719,26.9009834 168.745215,25.2892848 168.756279,24.6955011 C168.756279,24.5516653 168.756279,24.466839 168.756279,24.466839 C168.792289,24.4404126 168.833959,24.4227347 168.877986,24.4152057 L168.88905,24.4152057 Z" id="Shape" fill="#40271A"></path>
                    <path d="M182.771049,20.5795842 C183.637752,20.7381724 183.781588,21.6860135 183.508669,22.7924428 C183.23575,23.898872 182.180954,25.6101493 181.447022,25.7429208 C180.713091,25.8756923 179.55134,25.676535 180.196757,23.898872 C180.620889,22.6781117 181.310563,20.3103531 182.771049,20.5795842 Z" id="Shape" fill="#FFB880"></path>
                    <path d="M169.327934,13.7934848 C170.784732,14.556921 175.501809,13.0927462 176.357448,13.2955916 C180.023417,14.1696707 180.045545,20.1738935 180.045545,20.1738935 C180.045545,20.1738935 181.64618,18.0421731 182.627214,18.7687283 C182.627214,18.7687283 182.878004,19.9710481 182.996023,17.7987587 C183.114043,15.807186 183.947553,12.554284 181.823208,10.2787278 C179.90171,8.2281456 173.296327,8.38304569 173.646696,8.72972686 C173.646696,8.72972686 171.149854,9.03583896 171.37114,9.37514393 C171.37114,9.37514393 168.955436,10.2270945 169.125089,10.4594446 C169.147217,10.4594446 167.874824,13.0337367 169.327934,13.7934848 Z" id="Shape" fill="#40271A"></path>
                    <path d="M181.251553,32.824068 C181.251553,32.824068 183.903295,34.3472523 185.784225,38.153369 C187.322162,41.2661233 189.033439,52.297223 188.428591,57.3314762 C187.215207,67.422111 186.503404,68.4400259 186.503404,68.4400259 C186.503404,68.4400259 181.506032,68.783019 177.460189,67.9458209 C175.142195,67.4589107 172.860113,66.8144566 170.629832,66.0169458 C170.629832,66.0169458 168.568186,53.1417974 169.187786,47.1707675 C169.648793,43.2781207 170.586451,39.4568847 171.979676,35.7929866 C171.979676,35.7929866 174.288425,35.5643245 174.86008,35.4241768 C176.165667,35.1143766 181.251553,32.824068 181.251553,32.824068 Z" id="Shape" fill="#FF9B07"></path>
                    <path d="M140.66404,56.0848992 C141.700395,58.3420149 143.183011,58.1317933 144.720947,58.0211504 C142.681429,57.8072407 145.591338,55.3915369 147.17722,57.0142998 C147.472268,57.3167238 150.039184,55.4173535 155.442247,56.1365326 C162.139832,57.0290522 166.314758,57.9621408 168.380093,56.2877446 C168.619819,56.0885873 168.951748,55.8267324 169.353751,55.5021798 C169.755753,55.1776272 170.342161,54.7018626 170.935944,54.2076575 L171.330571,53.8794169 C172.241531,53.1086045 173.259446,52.2234611 174.281049,51.2645557 C174.553968,51.0137651 174.823199,50.7555983 175.09243,50.4974314 C175.46124,50.1507503 175.807921,49.800381 176.158291,49.4426355 L176.213612,49.383626 C176.379576,49.2139735 176.541853,49.044321 176.704129,48.8709804 C178.636692,46.8351506 180.314776,44.6628611 181.022891,42.7192337 C181.250032,42.1082822 181.443336,41.4852787 181.601923,40.8530564 C182.453873,37.3788685 181.04502,36.7961491 179.518147,36.0917225 C178.881878,35.7864067 178.179959,35.6432356 177.474941,35.6749674 C175.369038,35.7892985 173.676201,37.5890901 172.492322,39.4442031 C171.87417,40.4234926 171.34585,41.4566799 170.913816,42.5311408 C170.74484,42.9073797 170.538501,43.2656943 170.297904,43.600689 C170.16882,43.7850939 170.024984,43.9694988 169.870084,44.1981608 C169.766818,44.3383085 169.656175,44.4858324 169.541844,44.6333563 C168.951748,45.3931044 168.239945,46.2487431 167.498638,47.1043817 C166.565549,48.1886824 165.588203,49.2692949 164.776822,50.1581265 C163.670392,51.3715105 162.847947,52.2234611 162.847947,52.2234611 C162.847947,52.2234611 155.291035,51.9726704 150.087129,52.5074446 C147.077642,52.8172448 143.68828,52.3636088 142.46752,52.8061805 C141.364778,53.2081831 140.00387,54.6428531 140.66404,56.0848992 Z" id="Shape" fill="#2E5057"></path>
                    <path d="M179.064511,35.202891 C180.226262,35.3024696 182.11088,36.6449371 182.442809,38.8541075 C182.870628,41.7234474 180.96757,46.0532739 179.02763,48.325142 C176.401705,51.389951 170.426987,56.5164066 168.059228,58.6850079 C167.631409,59.0759463 147.405882,57.8109288 147.593975,58.345703 L145.447502,52.2861587 C145.473319,52.2345254 162.781561,51.614925 163.098737,51.2534914 C164.846895,49.1549639 166.547108,45.942631 169.368503,42.1549548 C174.340058,35.5200673 177.102444,35.0369266 179.064511,35.202891 Z" id="Shape" fill="#FFAF38"></path>
                    <path d="M181.454399,32.9568396 L181.454399,30.0543068 C181.454399,30.0543068 173.288951,32.2229081 172.602965,33.1412444 C171.916978,34.0595807 171.9723,35.7966747 171.9723,35.7966747 C171.9723,35.7966747 174.856392,36.5121656 181.454399,32.9568396 Z" id="Shape" fill="#ED9007"></path>
                    <path d="M147.203037,41.6017402 L143.260461,41.9705499 L140.416937,32.1897153 C140.119681,31.1583872 140.71129,30.0806361 141.740964,29.7776995 C141.917398,29.7281475 142.099856,29.7033233 142.283115,29.7039375 C143.148044,29.7028386 143.909217,30.2744704 144.149292,31.1054146 L147.203037,41.6017402 Z" id="Shape" fill="#0B2728"></path>
                    <path d="M189.645663,30.1096283 C187.156197,32.8130038 185.588756,28.8482989 185.588756,28.8482989 C183.206245,25.4220563 185.717839,15.4162477 185.717839,15.4162477 C185.717839,15.4162477 189.723113,12.6022293 192.485498,16.297703 C192.518691,16.297703 193.363266,26.0711615 189.645663,30.1096283 Z" id="Shape" fill="#0F3639"></path>
                    <path d="M188.251562,55.321463 C188.01053,57.1685216 186.318508,58.4709658 184.471262,58.231372 L184.471262,58.231372 C182.624204,57.9903396 181.32176,56.2983177 181.561353,54.451072 L184.268417,33.6096328 C184.509449,31.7625742 186.201471,30.46013 188.048717,30.6997239 L188.048717,30.6997239 C188.93544,30.8145781 189.740205,31.2770182 190.285934,31.9852901 C190.831663,32.6935621 191.073642,33.5896336 190.958626,34.4763357 L188.251562,55.321463 Z" id="Shape" fill="#0F3639"></path>
                    <polygon id="Shape" fill="#080C0D" points="32.4183773 106.763047 36.3351369 108.426379 104.35472 108.426379 106.862626 106.320476 106.010675 100.430584 105.062834 95.0164567 104.019103 89.5138152 102.595497 83.3325638 98.0960182 77.2656433 93.3014914 72.0469853 90.1444799 69.0817549 83.2108565 65.3125192 77.0185408 63.7967111 68.860469 63.7967111 61.3588787 64.4605687 52.713978 67.1159989 45.6955284 71.6671113 39.9125915 77.4537363 36.2134297 85.3241364 33.841983 93.0248841"></polygon>
                    <path d="M135.386372,38.3156453 L108.75462,40.7055325 C102.484854,41.5980521 100.57442,40.4399895 100.327317,38.9204933 C100.320316,38.8555667 100.316623,38.790326 100.316253,38.7250241 C106.954828,34.9373479 118.657162,29.6670566 129.452223,30.2977212 C131.632416,32.8146672 133.616287,35.4951748 135.386372,38.3156453 L135.386372,38.3156453 Z" id="Shape" fill="#0B2728"></path>
                    <polygon id="Shape" fill="#080C0D" points="241.404424 106.34998 244.767969 108.083386 312.997773 104.162939 316.51253 101.149763 315.627387 95.1824211 313.602621 86.8104397 311.581544 80.4558477 307.487756 74.1344485 301.719571 68.1929234 292.602594 64.2724757 283.20901 61.9969195 276.201624 61.4879621 267.748505 62.1223148 259.103604 65.8104124 252.65681 71.6081017 247.851219 77.6750221 244.565124 84.7856742 242.669441 92.681891"></polygon>
                    <path d="M336.723305,72.603888 C336.723305,72.603888 336.852388,71.9732234 337.051545,70.8741703 C337.829734,66.4668937 339.633214,54.4621363 338.062084,44.5411539 C338.014139,44.1723442 337.951441,43.8330392 337.888744,43.4789818 C337.726467,42.6454718 337.553127,41.8267141 337.339217,41.0337732 C337.10216,40.0974526 336.809043,39.1762261 336.46145,38.2750762 C336.384,38.0574784 336.295485,37.8435688 336.210659,37.6370353 C336.155338,37.5227043 336.103704,37.397309 336.029942,37.2682256 C335.771789,36.762471 335.452196,36.2905145 335.078413,35.8630604 C334.820567,35.5669764 334.540703,35.2908113 334.241215,35.0369266 C334.241215,35.0369266 334.241215,35.0369266 334.241215,35.0111099 C334.082627,34.8672741 333.909286,34.7271264 333.735946,34.598043 C332.910326,33.9433782 331.960574,33.4628565 330.944056,33.1855016 C330.473759,33.056649 329.992034,32.9738911 329.505698,32.9383991 L328.768078,32.8867657 C324.915664,32.5744804 321.209548,31.2709236 318.009898,29.1027776 C316.928149,28.3602805 315.909263,27.5301222 314.963529,26.620688 C314.491453,26.1744282 314.026753,25.7023517 313.562052,25.1860181 C313.562052,25.1860181 307.642656,18.9162522 304.574159,15.2945405 C304.574159,15.2945405 303.198498,13.7123466 303.275948,12.0527027 C303.282272,11.7775851 303.335918,11.5056103 303.434536,11.2486975 C303.748025,10.4041231 304.57047,9.59642978 306.281748,9.03583896 C306.281748,9.03583896 306.547291,7.96997877 303.670575,7.44626892 C290.666343,5.07113411 271.491924,3.35248066 251.081992,1.73340584 C227.780592,-0.110642926 198.810586,-0.660169458 178.076101,0.966281554 C172.404427,1.41585071 166.77873,2.32612558 161.254688,3.68809753 C153.992824,5.47682484 149.537603,7.42782843 149.113471,7.6196095 C149.102567,7.62226781 149.091183,7.62226781 149.080278,7.6196095 C143.835804,9.39358442 137.134531,12.3403743 130.189843,15.6670383 C113.552835,23.6038242 95.5733595,33.7128996 93.3494367,34.9668527 L93.1244627,35.092248 C93.2978033,35.092248 93.4711439,35.092248 93.6444845,35.092248 C74.0311818,35.6048936 51.6886869,38.6733907 51.6886869,38.6733907 C38.5037382,40.4805585 28.7081512,43.0216577 22.5527164,44.9431565 C19.9373365,45.7264755 17.3655465,46.6485773 14.8482807,47.7055416 C12.1670338,48.8672923 10.0537539,49.8888953 8.42730286,50.785103 C4.4847266,52.9352639 3.18651627,54.3478052 2.76238505,55.0891129 C2.62765908,55.2725217 2.55878521,55.496037 2.56691588,55.7234656 C2.79066047,57.0978966 3.01686378,58.4723277 3.24552583,59.8467587 L4.79452679,69.1960859 L0,76.1887188 L0,85.5638628 C0.630664678,86.6002182 1.23920077,87.5812521 1.84404877,88.5143408 C9.06165564,99.8626169 13.1406915,103.473264 13.1406915,103.473264 C21.8335374,108.430067 36.3351369,108.430067 36.3351369,108.430067 C36.3351369,108.430067 34.221857,95.7909572 38.6401979,84.9405743 C39.1452586,83.6856596 39.7431574,82.4701374 40.4289252,81.3041101 C46.2708717,71.3462468 57.5970192,65.3309597 69.5944005,65.4452907 C81.3963126,65.5559337 91.3541759,70.560682 96.5433291,78.578606 C97.6398938,80.2283584 98.6042646,81.9622527 99.4274214,83.7640712 C100.380399,85.8932259 101.151504,88.0992015 101.732482,90.3583896 C102.875793,94.6992804 103.805193,100.430584 104.358408,108.430067 L111.23671,108.407939 L112.01121,108.407939 L188.498665,108.219846 L189.262101,108.219846 L244.771657,108.087074 C244.771657,108.087074 243.237409,92.7335244 250.016132,79.8546878 C250.263234,79.3973637 250.514025,78.9437277 250.790632,78.4900917 C253.984525,73.1866074 259.453973,68.1634186 267.899717,65.8104124 C268.157884,65.7366504 268.412362,65.6702647 268.670529,65.607567 C271.789637,64.8321072 274.990242,64.4321863 278.204261,64.4163115 C290.65159,64.28354 298.64001,68.5875498 303.770153,74.6175893 C311.445084,83.6349878 312.743295,96.499072 312.990397,104.162939 C312.990397,104.162939 325.212752,102.543864 333.643743,99.5565048 C334.568029,99.2782207 335.44744,98.8683259 336.254916,98.3394326 C338.500968,96.6871649 338.707501,93.249858 339.09844,80.1128546 L339.09844,74.6507822 C338.301811,73.9684841 337.505181,73.2898742 336.723305,72.603888 Z M123.754113,33.1670611 C125.716181,31.6733816 127.951168,30.0211139 130.392688,28.28402 C131.189317,27.7123649 132.015451,27.1407097 132.863714,26.5579903 C134.881103,25.1675776 137.027576,23.7402838 139.255187,22.3277425 C142.401134,20.3287936 145.731486,18.3482852 149.150352,16.485796 C153.368204,14.170106 157.726129,12.1192453 162.198841,10.3451136 C163.371656,9.89147758 164.603481,9.46734637 165.909068,9.08009613 C173.25207,6.88567809 182.542387,5.76080835 192.795299,5.24447469 L187.971267,35.0664313 L187.506567,37.9874046 C182.494442,38.2123785 177.095067,38.4594811 171.437526,38.7028955 C166.550797,38.9131171 161.479662,39.1196505 156.286821,39.3040554 C152.897459,39.4294507 149.456464,39.5437818 145.989653,39.6470485 C140.889014,39.7982605 135.733054,39.9236558 130.591846,40.0158582 L129.913236,40.0158582 C124.949056,40.0933083 119.999629,40.1265012 115.138717,40.1080607 C115.138717,40.1080607 116.636084,38.8098503 119.250946,36.7076347 C120.504899,35.6749674 122.017019,34.4874 123.754113,33.1670611 Z" id="Shape" fill="#E15E49"></path>
                    <path d="M38.6401979,84.9405743 C34.2255451,95.7909572 36.3314488,108.430067 36.3314488,108.430067 C36.3314488,108.430067 21.8335374,108.430067 13.1370034,103.484329 C13.1370034,103.484329 8.36091711,99.2577689 7.10542736e-15,85.5749271 L7.10542736e-15,85.5749271 C10.5479589,85.4089627 23.7734767,85.195053 38.6401979,84.9405743 Z" id="Shape" fill="#D8532E"></path>
                    <path d="M166.418025,82.0454177 C186.927535,81.4258173 218.198914,80.3710214 250.79432,78.4900917 C250.517713,78.9400396 250.263234,79.3973637 250.01982,79.8546878 C243.237409,92.7335244 244.767969,108.083386 244.767969,108.083386 L189.262101,108.219846 L188.502353,108.219846 L112.01121,108.407939 L111.23671,108.407939 L104.37316,108.430067 C103.488017,95.5438547 101.610775,88.5143408 99.4458619,83.7640712 C121.906376,83.2698661 144.990178,82.6945229 166.418025,82.0454177 Z" id="Shape" fill="#D8532E"></path>
                    <path d="M339.094751,74.6544703 L339.094751,80.1128546 C338.582106,97.1666176 338.397701,97.8710442 333.636367,99.5565048 C325.21644,102.543864 312.983021,104.162939 312.983021,104.162939 C312.728542,96.4953839 311.430332,83.6312997 303.762777,74.6212774 C315.564689,73.5148481 326.835515,72.2830236 337.033105,70.8704822 C336.833948,71.9769115 336.701176,72.603888 336.701176,72.603888 L339.094751,74.6544703 Z" id="Shape" fill="#D8532E"></path>
                    <path d="M98.1033944,98.1402754 C98.2206861,108.502684 92.7596269,118.128531 83.8045562,123.343889 C74.8494854,128.559248 63.7824128,128.559248 54.827342,123.343889 C45.8722713,118.128531 40.4112121,108.502684 40.5285038,98.1402754 C40.5285038,97.749337 40.5285038,97.3583987 40.5580086,96.9674603 C40.7675118,86.6899437 46.4440906,77.3048953 55.4494328,72.3475721 C64.4547749,67.3902489 75.4207546,67.6137861 84.2165935,72.9339796 C93.0124324,78.254173 98.3018333,87.8627587 98.0923301,98.1402754 L98.1033944,98.1402754 Z" id="Shape" fill="#22313F"></path>
                    <path d="M69.3104169,120.390568 C60.308851,120.392059 52.192877,114.970598 48.7474377,106.654521 C45.3019985,98.3384435 47.2057202,88.7657155 53.5707886,82.400647 C59.9358571,76.0355786 69.5085851,74.1318569 77.8246623,77.5772962 C86.1407395,81.0227354 91.562201,89.1387094 91.5607094,98.1402754 C91.5464828,110.422875 81.5930165,120.376341 69.3104169,120.390568 L69.3104169,120.390568 Z M69.3104169,77.6565817 C61.0252007,77.6550899 53.5549709,82.6448357 50.3833222,90.2989493 C47.2116735,97.9530628 48.963261,106.76407 54.8212661,112.62313 C60.6792713,118.48219 69.4899624,120.235364 77.144647,117.065093 C84.7993315,113.894823 89.7904224,106.425492 89.7904225,98.1402754 C89.780259,86.833096 80.6175943,77.6687813 69.3104169,77.6565817 L69.3104169,77.6565817 Z" id="Shape" fill="#FEFDEF"></path>
                    <path d="M307.487756,98.1697801 C307.487527,99.56838 307.383978,100.965052 307.177955,102.348395 C305.111092,117.382785 291.720836,128.225774 276.585281,127.121337 C261.449726,126.016901 249.775347,113.344954 249.912865,98.1697801 C249.912865,97.7788418 249.912865,97.3879035 249.938682,96.9969651 C250.713817,81.4482525 263.710453,69.3333028 279.275242,69.650585 C294.84003,69.9678673 307.332157,82.6023955 307.473003,98.1697801 L307.487756,98.1697801 Z" id="Shape" fill="#22313F"></path>
                    <path d="M278.698466,120.420073 C269.6969,120.421564 261.580926,115.000103 258.135487,106.684026 C254.690048,98.3679483 256.59377,88.7952203 262.958838,82.4301518 C269.323906,76.0650834 278.896634,74.1613617 287.212712,77.6068009 C295.528789,81.0522402 300.95025,89.1682142 300.948759,98.1697801 C300.936561,110.453221 290.981907,120.407874 278.698466,120.420073 Z M278.698466,77.6860864 C270.41325,77.6845947 262.94302,82.6743405 259.771372,90.3284541 C256.599723,97.9825676 258.35131,106.793574 264.209315,112.652634 C270.067321,118.511695 278.878012,120.264868 286.532696,117.094598 C294.187381,113.924328 299.178472,106.454996 299.178472,98.1697801 C299.16628,86.8634421 290.004802,77.7003145 278.698466,77.6860864 Z" id="Shape" fill="#FEFDEF"></path>
                    <g id="ocultar" transform="translate(107.000000, 30.000000)" fill="#B0140F">
                        <path d="M5.01121018,78.4079389 L4.2367097,78.4079389 C-2.30597532,42.5116856 1.57759138,15.5074355 1.62553665,15.2455805 L1.64766523,15.0980566 L10.5544208,8.44104059 L11.0080568,9.04957668 L2.34840376,15.5184998 C2.00909879,17.7055416 -1.28437231,43.9869246 5.01121018,78.4079389 Z" id="Shape"></path>
                        <path d="M89.7046819,5.1401933 L87.5692735,15.9832 C87.5434568,16.1860454 84.6187954,39.3731146 82.2621011,78.2198459 L81.502353,78.2198459 C83.8516711,39.3362336 86.7910849,16.1012192 86.8205897,15.8614928 L88.9559981,4.99635749 L89.7046819,5.1401933 Z" id="Shape"></path>
                        <path d="M161.670529,35.607567 C161.412362,35.6702647 161.154195,35.7403385 160.899717,35.8104124 C163.326485,23.4552856 162.961363,8.68814312 162.894977,7.19446362 L157.698448,1.41521479 L158.266415,0.906257329 L163.643661,6.88097533 L163.643661,7.01005875 C163.658414,7.17233504 164.075169,22.6328399 161.670529,35.607567 Z" id="Shape"></path>
                    </g>
                    <path d="M330.929304,33.1670611 C330.458351,33.0361891 329.975074,32.9546128 329.487257,32.9236467 C325.06154,32.632287 319.024125,31.2160575 313.569428,25.1786419 C313.569428,25.1786419 307.650032,18.9088761 304.581535,15.2871643 C304.581535,15.2871643 302.737486,13.1554439 303.441913,11.230257 C315.653204,17.7323729 327.503061,29.5785422 330.929304,33.1670611 Z" id="Shape" fill="#4F6073"></path>
                    <path d="M338.05102,44.5411539 C336.100016,44.6259802 334.244903,44.6333563 332.496745,44.5780349 C321.240671,44.2387299 314.469324,41.4505282 314.469324,41.4505282 C307.875006,38.94631 309.4572,37.8066878 310.718529,37.1243898 C313.078911,35.8519961 322.17376,35.7856104 330.176932,35.8372437 L335.071037,35.8704366 C335.532875,36.399984 335.913236,36.9953867 336.199595,37.6370353 C336.962113,39.5198779 337.523367,41.4780838 337.873991,43.4789818 C337.936689,43.8330392 337.999387,44.1834084 338.05102,44.5411539 Z" id="Shape" fill="#B20808"></path>
                    <path d="M156.744145,8.13225506 C156.744145,8.13225506 136.857923,15.1802094 109.337339,36.3314488 C109.337339,36.3314488 98.5902233,36.4088988 93.3494367,34.9668527 C96.499072,33.1928778 131.336841,13.6459609 149.080278,7.6196095 L149.109783,7.6196095 L149.109783,7.6196095 C151.664001,7.59273206 154.216452,7.76412856 156.744145,8.13225506 Z" id="Shape" fill="#4F6073"></path>
                    <path d="M284.267494,22.1285852 C281.802223,25.2690824 278.965013,28.0988611 275.818062,30.5558881 C275.204476,31.0207156 274.566777,31.4528244 273.907628,31.8504103 C273.907628,31.8504103 272.432389,33.1375563 267.553036,33.8973044 C266.73059,34.033764 265.81963,34.144407 264.798027,34.2366094 C260.741119,34.6054192 256.566193,34.9152193 252.110971,35.1881386 C252.018769,35.1881386 251.922878,35.1881386 251.834364,35.2102671 C243.930771,35.697096 235.13097,36.0880344 224.476056,36.5084775 C218.025574,36.7629562 210.892793,37.0358754 202.874869,37.3456756 L199.400681,37.4784471 L198.025021,37.5337686 L196.612479,37.5890901 C195.380655,37.6370353 194.108261,37.6923568 192.810051,37.7513664 L191.080333,37.8214402 L187.506567,37.9800284 L192.810051,5.25553898 L192.810051,5.25553898 L194.764743,5.16333655 C195.734712,5.12276747 196.70837,5.0858865 197.693092,5.05638172 C200.440725,4.96786738 203.243679,4.91623401 206.083514,4.89041733 C208.923349,4.86460065 211.836946,4.87197684 214.746855,4.89041733 C217.242468,4.91254591 219.588098,4.94942689 221.783745,5.00106026 C231.181018,5.2334104 238.063008,5.73867976 243.731614,6.39147303 C247.050901,6.78241136 249.94237,7.22498307 252.686314,7.70074765 C252.719507,7.70074765 252.760076,7.70074765 252.793269,7.72287623 C253.246905,7.79295009 253.700541,7.87777633 254.150489,7.95891448 C268.936072,10.6290971 286.631564,19.0342714 284.267494,22.1285852 Z" id="Shape" fill="#4F6073"></path>
                    <path d="M224.472368,36.5121656 C218.025574,36.7703324 210.892793,37.0358754 202.874869,37.3493637 L199.400681,37.4821352 L194.506576,37.6776044 L165.92382,9.09484852 C173.266822,6.90043048 182.55714,5.77556074 192.810051,5.25922708 L192.810051,5.25922708 C192.939134,5.25922708 193.068218,5.25922708 193.197301,5.2370985 L224.472368,36.5121656 Z" id="Shape" fill="#094349" opacity="0.15" style="mix-blend-mode: screen;"></path>
                    <path d="M156.286821,39.2856149 C152.897459,39.4073221 149.456464,39.5253413 145.989653,39.628608 C140.885326,39.7761319 135.733054,39.9015272 130.591846,39.9974177 L123.754113,33.1670611 C125.712493,31.6733816 127.951168,30.0211139 130.392688,28.28402 C131.196694,27.7123649 132.019139,27.1407097 132.863714,26.5579903 C134.884791,25.1638895 137.027576,23.7439719 139.258875,22.3277425 L156.286821,39.2856149 Z" id="Shape" fill="#79D4E1" opacity="0.15" style="mix-blend-mode: screen;"></path>
                    <path d="M130.403753,28.28402 L129.913236,39.9937297 C124.949056,40.0674916 119.999629,40.1043726 115.138717,40.0859321 C115.138717,40.0859321 121.279399,34.7345026 130.403753,28.28402 Z" id="Shape" fill="#04242B"></path>
                    <path d="M267.553036,33.8899282 C266.734278,34.0226997 265.81963,34.1370308 264.798027,34.2255451 C260.652605,34.5943549 256.392852,34.9152193 251.834364,35.1992029 L252.634681,22.497395 L243.735302,6.39147303 C247.054589,6.78241136 249.946058,7.22498307 252.690002,7.70074765 L267.553036,33.8899282 Z" id="Shape" fill="#5D7187"></path>
                    <path d="M206.087202,4.87935304 L202.874869,37.3346113 L199.400681,37.4673828 L198.025021,37.5227043 L196.612479,37.5780258 C195.380655,37.625971 194.108261,37.6812925 192.810051,37.7403021 L191.080333,37.8103759 L187.506567,37.9689641 L192.810051,5.24447469 L192.810051,5.24447469 L194.764743,5.15227225 C195.731024,5.11170318 196.70837,5.0785103 197.693092,5.04531743 C200.444413,4.95680308 203.247367,4.90516972 206.087202,4.87935304 Z" id="Shape" fill="#5D7187"></path>
                    <path d="M41.2034256,56.3983875 C39.9752892,58.9099819 39.0422005,58.7735223 34.1149022,59.9832183 C29.8625257,61.0269499 23.5411266,61.6207336 17.0869559,61.7977623 L16.9136153,61.7977623 C15.541643,61.8346432 14.1622945,61.8530837 12.7940103,61.8530837 C12.7940103,61.8530837 10.9057044,61.5727883 8.57113867,61.1154642 C6.83773283,60.7724712 4.88304113,60.3372756 3.23814963,59.8393825 L2.55953969,55.7197775 C2.55953969,55.7197775 2.51159442,55.5169322 2.75869695,55.0854248 C4.31507411,54.6207245 6.26607771,54.0785741 8.53056959,53.5179833 C11.156495,52.86519 14.2028636,52.1902682 17.5332157,51.5964845 C17.7176205,51.5632916 17.9020254,51.5337868 18.0901184,51.4969059 C25.3888634,50.2245122 34.0190116,49.3504331 42.6454718,49.9220882 C44.3456847,50.029043 43.3941556,51.9284133 41.2034256,56.3983875 Z" id="Shape" fill="#D1DAF2"></path>
                    <path d="M20.2845364,90.1887371 C20.1886459,92.9806269 19.5727336,94.647647 18.0716779,94.8468043 C14.2065517,95.3778903 9.58905359,94.4779945 9.58905359,94.4779945 L3.5848308,86.0986369 L3.47049978,76.7714383 L8.13225506,69.3362336 C14.7302615,68.7867071 17.3893799,68.9268548 17.997916,71.1397133 C18.2339542,72.0101043 18.4478639,72.8841835 18.6322687,73.7840792 C19.321943,77.062798 19.7165694,80.6697573 20.1296363,85.6413128 C20.2680851,87.152918 20.3198032,88.6712146 20.2845364,90.1887371 Z" id="Shape" fill="#B21616"></path>
                    <path d="M140.147706,39.4331388 C138.119253,40.0232344 129.138735,41.7050069 127.379513,39.1196505 C127.325438,39.0448738 127.277344,38.9659498 127.235677,38.8836123 C125.823135,36.301944 129.24569,32.6396632 132.856337,30.1428211 C136.57394,27.5611529 138.757293,27.2845456 141.113988,27.9299626 C141.811038,28.1217437 142.249922,28.7856012 142.48596,29.6891851 C143.330534,32.824068 141.7299,38.9758147 140.147706,39.4331388 Z" id="Shape" fill="#BF1111"></path>
                    <path d="M140.147706,39.4331388 C138.119253,40.0232344 129.138735,41.7050069 127.379513,39.1196505 C127.325438,39.0448738 127.277344,38.9659498 127.235677,38.8836123 C130.219348,36.4088988 137.429578,30.7697977 142.48596,29.6965613 C143.330534,32.824068 141.7299,38.9758147 140.147706,39.4331388 Z" id="Shape" fill="#BF1111"></path>
                    <path d="M16.9136153,61.8014504 C15.541643,61.8383313 14.1622945,61.8567718 12.7940103,61.8567718 C12.7940103,61.8567718 10.9057044,61.5764764 8.57113867,61.1191523 C7.67861906,57.4310548 8.04005262,54.9600294 8.53056959,53.5216714 C11.156495,52.8688781 14.2028636,52.1939563 17.5332157,51.6001726 C17.7176205,51.5669797 17.9020254,51.5374749 18.0901184,51.500594 C17.1533416,54.9120842 16.751339,59.2898559 16.9136153,61.8014504 Z" id="Shape" fill="#E4EBF9"></path>
                    <path d="M338.05102,44.5411539 C336.100016,44.6259802 334.244903,44.6333563 332.496745,44.5780349 C332.194321,40.3736037 331.062075,37.4931995 330.176932,35.8372437 L335.071037,35.8704366 C335.532875,36.399984 335.913236,36.9953867 336.199595,37.6370353 C336.962113,39.5198779 337.523367,41.4780838 337.873991,43.4789818 C337.936689,43.8330392 337.999387,44.1834084 338.05102,44.5411539 Z" id="Shape" fill="#BF1111"></path>
                    <path d="M306.285436,9.03952705 C304.574159,9.59642978 303.755401,10.4041231 303.441913,11.2523856 C303.34507,11.5085277 303.291477,11.7789859 303.283324,12.0527027 C248.504012,0.055321463 194.73155,1.07692448 161.258377,3.68809753 C166.781455,2.33046235 172.405973,1.42511234 178.076101,0.981033944 C198.810586,-0.645417068 227.780592,-0.0995786334 251.100432,1.74815823 C271.510364,3.36723305 290.684783,5.06744601 303.696391,7.46470941 C306.554667,7.97366687 306.285436,9.03952705 306.285436,9.03952705 Z" id="Shape" fill="#DDDBDB" opacity="0.14"></path>
                </g>
            </g>
        </g>
    </g>
</svg>