<?xml version="1.0" encoding="UTF-8"?>
<svg width="325px" height="325px" viewBox="0 0 325 325" version="1.1" xmlns="http://www.w3.org/2000/svg" xmlns:xlink="http://www.w3.org/1999/xlink">
    <!-- Generator: Sketch 45.2 (43514) - http://www.bohemiancoding.com/sketch -->
    <title>veiculo-1</title>
    <desc>Created with Sketch.</desc>
    <defs></defs>
    <g id="telas-principais" stroke="none" stroke-width="1" fill="none" fill-rule="evenodd">
        <g id="10-veiculo" transform="translate(-317.000000, -287.000000)">
            <g id="Group-9" transform="translate(255.000000, 142.000000)">
                <g id="veiculo-1" transform="translate(62.000000, 145.000000)">
                    <g id="ilus" transform="translate(45.000000, 65.460938)" fill-rule="nonzero">
                        <path d="M7.47278952,135.921919 L44.2902926,135.921919 L44.2902926,154.33067 L44.2902926,154.33067 C44.2902926,164.497543 36.0484138,172.739422 25.8815411,172.739422 L25.8815411,172.739422 L25.8815411,172.739422 C15.7146683,172.739422 7.47278952,164.497543 7.47278952,154.33067 L7.47278952,135.921919 Z" id="Rectangle-path" fill="#22313F"></path>
                        <path d="M186.677392,135.921919 L223.494895,135.921919 L223.494895,154.33067 L223.494895,154.33067 C223.494895,164.497543 215.253016,172.739422 205.086144,172.739422 L205.086144,172.739422 L205.086144,172.739422 C194.919271,172.739422 186.677392,164.497543 186.677392,154.33067 L186.677392,135.921919 Z" id="Rectangle-path" fill="#22313F"></path>
                        <path d="M203.861162,50.0030691 C203.861162,50.0030691 208.778102,45.086129 218.594969,45.086129 C225.961872,45.086129 230.861798,47.5360922 230.861798,54.9029956 C230.861798,62.2698989 225.961872,64.6518076 221.044932,64.6518076 L203.861162,64.6518076 L203.861162,50.0030691 Z" id="Shape" fill="#22313F"></path>
                        <path d="M27.1065227,50.0030691 C27.1065227,50.0030691 22.2065962,45.086129 12.3897296,45.086129 C5.02282629,45.086129 0.105886183,47.5360922 0.105886183,54.9029956 C0.105886183,62.2698989 5.02282629,64.6518076 9.92275276,64.6518076 L27.1065227,64.6518076 L27.1065227,50.0030691 Z" id="Shape" fill="#22313F"></path>
                        <path d="M194.469636,15.4653929 C192.488818,11.1379056 188.642946,7.94971565 184.023265,6.80545343 C160.167257,2.82256186 136.020603,0.836424159 111.834418,0.867695312 C71.3079427,0.867695312 46.9614331,6.48219439 46.9614331,6.48219439 C42.3728143,7.82810211 38.5892948,11.0906124 36.5831166,15.4313657 L10.3140663,82.0057138 C8.59755181,86.8179038 7.65017961,91.8705555 7.50681679,96.9777114 L7.50681679,145.398513 C7.53454032,149.646306 10.9662703,153.085612 15.2139928,153.122702 L215.83876,153.122702 C220.106365,153.104066 223.561327,149.649104 223.579963,145.381499 L223.579963,96.9777114 C223.422105,91.8801975 222.463292,86.8392519 220.738686,82.0397411 L194.469636,15.4653929 Z" id="Shape" fill="#F1826B"></path>
                        <path d="M223.579963,143.288822 L223.579963,99.0533747 C223.555358,97.2664397 223.424691,95.4825414 223.18865,93.7110938 C202.831105,106.950406 179.043444,113.941211 154.759815,113.821209 L76.2078692,113.821209 C41.3129067,113.821209 18.8038695,101.452297 7.89813036,93.4048483 C7.65301295,95.2437812 7.52232361,97.0961605 7.50681679,98.9512929 L7.50681679,145.364485 C7.51597768,149.625556 10.9530757,153.085416 15.2139928,153.122702 L215.83876,153.122702 C220.106365,153.104066 223.561327,149.649104 223.579963,145.381499 L223.579963,143.322849 L223.579963,143.288822 Z" id="Shape" fill="#E15E49"></path>
                        <path d="M7.50681679,135.921919 L7.50681679,145.364485 C7.51597768,149.625556 10.9530757,153.085416 15.2139928,153.122702 L215.83876,153.122702 C220.106365,153.104066 223.561327,149.649104 223.579963,145.381499 L223.579963,135.938932 L7.50681679,135.921919 Z" id="Shape" fill="#000000" opacity="0.0951086957" style="mix-blend-mode: multiply;"></path>
                        <path d="M17.2896561,86.7695313 C17.2896561,86.7695313 56.574136,91.7375123 56.574136,113.821209 L17.2896561,113.821209 L17.2896561,86.7695313 Z M213.763097,86.7695313 C213.763097,86.7695313 174.478617,91.6864714 174.478617,113.770168 L213.763097,113.770168 L213.763097,86.7695313 Z" id="Shape" fill="#E4EBF9"></path>
                        <path d="M56.574136,113.821209 L17.2896561,113.821209 L17.2896561,99.4617019 C29.4290975,106.140646 42.6936171,110.529471 56.4210133,112.409077 C56.5230951,112.885459 56.574136,113.344827 56.574136,113.821209 Z M213.763097,99.4276746 C201.624455,106.11492 188.360494,110.515095 174.631739,112.409077 C174.605846,112.879431 174.605846,113.350854 174.631739,113.821209 L213.916219,113.821209 L213.763097,99.4276746 Z" id="Shape" fill="#D1DAF2"></path>
                        <polygon id="Shape" fill="#34495E" points="167.043659 91.7375123 63.9410394 91.7375123 76.2078692 113.821209 154.759815 113.821209"></polygon>
                        <path d="M202.738262,56.4682498 L188.378755,20.0931013 C186.721267,16.8604958 183.853027,14.4142355 180.399361,13.2876478 C157.704059,9.8896581 134.782507,8.22884092 111.834418,8.31966682 C72.7030607,8.31966682 50.8575551,13.2366069 50.585337,13.2876478 C47.1296577,14.403163 44.2630028,16.8532954 42.6229565,20.0931013 L28.3144907,56.4682498 L26.9874272,59.8709766 L204.065326,59.8709766 L202.738262,56.4682498 Z" id="Shape" fill="#4F6073"></path>
                        <path d="M187.187801,40.1862025 L186.149969,37.4299939 L176.350116,12.5730752 C154.980212,9.65912385 133.43609,8.20958524 111.868445,8.23459865 C92.7631718,8.03772195 73.6750392,9.44343714 54.8047181,12.4369661 L44.9368107,37.4299939 L43.8649517,40.1351616 L187.204815,40.1351616 L187.187801,40.1862025 Z" id="Shape" fill="#5D7187"></path>
                        <rect id="Rectangle-path" fill="#C5EFF7" x="78.6578324" y="126.105052" width="73.6520198" height="17.1837699"></rect>
                        <path d="M29.6245404,129.967147 C29.6339077,127.831422 31.3679031,126.105032 33.5036489,126.105052 L50.3131189,126.105052 C52.4488646,126.105032 54.18286,127.831422 54.1922273,129.967147 L54.1922273,139.409714 C54.1829091,141.548214 52.4516197,143.279504 50.3131189,143.288822 L33.4355944,143.288822 C31.3198455,143.251698 29.6242148,141.525788 29.6245404,139.409714 L29.6245404,129.967147 Z M174.478617,139.409714 C174.478596,141.545459 176.204986,143.279455 178.340712,143.288822 L195.150182,143.288822 C197.288682,143.279504 199.019972,141.548214 199.02929,139.409714 L199.02929,129.967147 C199.019923,127.831422 197.285927,126.105032 195.150182,126.105052 L178.340712,126.105052 C176.207735,126.105052 174.478617,127.834171 174.478617,129.967147 L174.478617,139.409714 Z" id="Shape" fill="#931F34" style="mix-blend-mode: multiply;"></path>
                    </g>
                    <path d="M162.171875,324.34375 C72.6068216,324.34375 0,251.736928 0,162.171875 C0,72.6068216 72.6068216,0 162.171875,0 C251.736928,0 324.34375,72.6068216 324.34375,162.171875 C324.34375,251.736928 251.736928,324.34375 162.171875,324.34375 Z M160.5,218 C189.276516,218 212.604492,210.131754 212.604492,200.425781 C212.604492,190.719808 189.276516,182.851562 160.5,182.851562 C131.723484,182.851562 108.395508,190.719808 108.395508,200.425781 C108.395508,210.131754 131.723484,218 160.5,218 Z" id="Combined-Shape" fill="#000000" opacity="0.615602355"></path>
                </g>
            </g>
        </g>
    </g>
</svg>