<?xml version="1.0" encoding="UTF-8"?>
<svg width="208px" height="117px" viewBox="0 0 208 117" version="1.1" xmlns="http://www.w3.org/2000/svg" xmlns:xlink="http://www.w3.org/1999/xlink">
    <!-- Generator: Sketch 45.2 (43514) - http://www.bohemiancoding.com/sketch -->
    <title>volante</title>
    <desc>Created with Sketch.</desc>
    <defs>
        <polygon id="path-1" points="111.744476 110.834845 0.0764375919 110.834845 0.0764375919 0.056221035 111.744476 0.056221035 111.744476 110.834845"></polygon>
        <polygon id="path-3" points="55.3084178 0.0270925749 55.3084178 59.8872433 0.0106080761 59.8872433 0.0106080761 0.0270925749 55.3084178 0.0270925749"></polygon>
    </defs>
    <g id="telas-principais" stroke="none" stroke-width="1" fill="none" fill-rule="evenodd">
        <g id="Artboard" transform="translate(-318.000000, -386.000000)">
            <g id="Group-7" transform="translate(-36.000000, 181.000000)">
                <g id="card-principal" transform="translate(292.000000, 50.000000)">
                    <g id="Group" transform="translate(62.000000, 34.000000)">
                        <g id="Group-4">
                            <g id="Group-6">
                                <g id="Group-14">
                                    <g id="volante" transform="translate(0.000000, 121.000000)">
                                        <g id="Group-3" transform="translate(49.330656, 5.700873)">
                                            <mask id="mask-2" fill="white">
                                                <use xlink:href="#path-1"></use>
                                            </mask>
                                            <g id="Clip-2"></g>
                                            <path d="M71.1183362,99.469269 C68.635015,100.304469 67.1833411,99.5166105 67.2272613,96.147645 C67.3863925,83.8043191 70.9703442,72.4291472 83.4397815,66.9316434 C87.9338043,64.9510175 97.5770723,62.1216657 100.298533,63.9272473 C101.89621,64.9866629 101.762062,66.9306886 101.049473,69.1632986 C96.5290346,83.3337683 85.4066425,94.664304 71.1183362,99.469269 M18.1030778,43.466562 C11.8251948,44.8717696 9.82197235,42.9898846 11.7700559,38.0096366 C18.6509663,20.4156989 35.9202765,8.04030818 55.909854,8.04030818 C75.9007046,8.04030818 93.1688212,20.4153807 100.050925,38.0096366 C101.997815,42.9888503 99.9945132,44.8711331 93.7166302,43.4662437 C91.135523,42.8877224 74.4541229,35.4413394 55.909854,35.4413394 C37.3643916,35.4417373 20.6835485,42.8877224 18.1030778,43.466562 M40.7014514,99.469269 C26.4117925,94.6654974 15.2901165,83.3341661 10.7695983,69.1636965 C10.0576456,66.9310864 9.92222497,64.9870607 11.5205382,63.9272473 C14.2433518,62.1222227 23.8859037,64.9516541 28.378733,66.9322799 C40.8493638,72.4291472 44.4320425,83.8043191 44.5925262,96.147645 C44.6358099,99.5166105 43.1834995,100.304469 40.7014514,99.469269 M55.909854,0.056221035 C25.9549269,0.0569371251 0.977940477,23.7574531 0.100411755,53.8417538 C-0.807192754,84.9029606 24.1673272,110.83553 55.909854,110.834893 C87.6511874,110.834893 112.626901,84.9027219 111.720569,53.8411172 C110.841211,23.7564983 85.8642241,0.056221035 55.909854,0.056221035" id="Fill-1" fill="#636463" mask="url(#mask-2)"></path>
                                        </g>
                                        <path d="M71.2220976,55.7230102 C69.2250813,55.7230102 67.5760848,57.3263361 67.5365407,59.3063254 C67.4983492,61.2923617 69.0909337,62.9044398 71.0942358,62.9044398 C73.0986517,62.9044398 74.7483643,61.2923617 74.7797132,59.3063254 C74.811062,57.3263361 73.2190344,55.7230102 71.2220976,55.7230102 M139.257666,55.7222941 C137.261922,55.7222941 135.668701,57.3257791 135.70005,59.3063254 C135.731399,61.2920434 137.382385,62.9038033 139.385528,62.9038033 C141.39066,62.9038033 142.98213,61.2920434 142.943223,59.3063254 C142.903758,57.3257791 141.254682,55.7222941 139.257666,55.7222941 M115.818841,59.7538817 C115.847087,65.5624074 111.111105,70.2942517 105.240518,70.2942517 C99.370011,70.2942517 94.6345862,65.5624074 94.6627524,59.7538817 C94.6897252,53.9751932 99.4251499,49.312571 105.240518,49.312571 C111.054693,49.312571 115.790595,53.9751932 115.818841,59.7538817" id="Fill-4" fill="#2F2725"></path>
                                        <path d="M12.7576079,70.7276533 C19.2868385,62.2015655 52.6502752,30.9443886 54.0405245,28.9114086 C55.4295007,26.8793834 57.2421636,14.0608124 60.3497563,9.73037646 C62.9722376,6.0771231 64.2208602,5.81384062 65.3146481,5.60736795 C66.408993,5.40272529 68.013592,6.02222286 68.3425956,5.88879139 C68.6716789,5.75687167 70.8510595,3.78810109 72.6260879,3.80846988 C74.4018324,3.82883866 74.5234086,4.53673358 74.2206616,4.80598349 C73.916005,5.07555165 73.0548668,5.74557336 72.8486328,5.99469317 C72.6693716,6.20999761 72.9520681,6.29704235 73.3387568,6.08340878 C73.7229789,5.86969565 77.9012059,0.974980637 79.3302832,0.280293606 C80.758724,-0.413677335 82.3890226,0.342593451 82.9030162,0.812666865 C83.4170098,1.28242202 83.6876919,1.58676034 83.2414086,2.23768631 C82.7963983,2.88741879 80.2679635,6.76401271 80.0699248,7.22573174 C79.8749891,7.68729164 79.6097971,9.29634625 80.8884159,7.42623699 C82.1646477,5.55628685 84.5689602,1.92085619 85.449035,1.33071832 C86.3309399,0.740262192 87.964262,0.874091489 89.286244,2.25495203 C90.6093399,3.63605128 90.7491366,5.56344776 90.6288335,6.43660037 C90.5109969,7.30847994 88.1109809,12.8327178 87.8520745,14.0862734 C87.5913381,15.339829 87.6553088,16.5848711 87.3318748,18.2375277 C87.1500674,19.1698771 87.3049021,19.3694276 88.5365772,18.5483108 C89.7017354,17.7714326 90.064634,17.6200193 91.0230014,16.6451023 C92.0879866,15.5614192 96.3663866,14.8806561 96.6603814,15.027932 C97.2314236,15.3134928 96.8904055,16.9948725 95.9953724,18.5195877 C94.7022727,20.7155179 91.7795904,24.5345064 90.4187804,26.8827252 C89.2855279,28.8443349 87.6251535,29.5702116 86.7232777,29.9427376 C84.3301839,30.9361934 76.6626086,32.8035179 74.4876837,34.417426 C72.3126791,36.0310954 68.2874567,39.8129267 66.0460945,41.8849734 C59.4421518,47.993143 29.2114504,88.1205288 19.4535284,98.295454 C19.4535284,98.295454 10.6176917,73.5210415 12.7576079,70.7276533" id="Fill-6" fill="#FCD4A9"></path>
                                        <path d="M55.5680005,27.3152357 C55.2238794,27.4588516 54.2285936,27.8410846 53.6506293,27.7254758 C53.0696415,27.6123336 52.1463625,28.4500795 51.0770808,29.6080769 C50.5085848,30.2224027 49.8886098,30.9616464 49.0205494,32.0049102 C48.1567855,33.0406153 47.587653,34.0312863 47.9844465,34.5716161 C48.3241915,35.0373134 47.9587468,36.0320422 47.870429,36.4153096 L55.5680005,27.3152357 Z" id="Fill-8" fill="#3E3A3A"></path>
                                        <path d="M67.3629763,36.8911117 C67.3786507,37.3128888 67.2964595,38.7851702 67.9439642,39.7999496 C68.5882862,40.8117054 67.9502498,41.8402496 67.3654429,42.644021 C66.7812724,43.4479516 66.0047124,44.3655018 65.1691943,45.3432831 C64.3361427,46.3224171 63.5162991,46.5991462 62.6250055,46.1318575 C61.8528216,45.7287783 60.8223678,46.1825408 60.3949416,46.2953648 L67.3629763,36.8911117 Z" id="Fill-10" fill="#3E3A3A"></path>
                                        <path d="M54.0129391,28.0837357 L48.4038048,34.6430421 C47.4153617,35.7957882 47.6760185,37.5761474 48.8331406,38.4862981 L58.1547251,45.8203345 C59.2754858,46.7028758 61.0217114,46.5310937 61.9011497,45.3355414 L66.921101,38.5232165 C67.7321129,37.4238589 67.4262628,35.7676219 66.3801346,34.9173046 L57.7053387,27.8618273 C56.6304078,26.987163 54.9167245,27.0263092 54.0129391,28.0837357" id="Fill-12" fill="#3E3A3A"></path>
                                        <path d="M61.4993277,45.0154968 C60.8160981,45.9397306 59.413357,46.1279827 58.4982733,45.4029016 L49.2029455,38.081914 C48.2627987,37.3386124 48.1016784,35.8951337 48.8594609,35.0037606 L54.4498178,28.4359407 C55.1461757,27.6173701 56.5295027,27.5337466 57.4101345,28.2513486 L66.108084,35.3152598 C66.9649257,36.0138456 67.1654309,37.3614477 66.5368629,38.2116854 L61.4993277,45.0154968 Z" id="Fill-14" fill="#2F2725"></path>
                                        <path d="M60.4933005,33.4358732 C62.3398584,34.9282051 62.7310028,37.5730444 61.3488692,39.3775916 C59.943582,41.2237516 57.2245876,41.5132908 55.2991007,39.9864274 C53.3585759,38.4502549 53.0088056,35.7035717 54.5005806,33.8965579 C55.9634732,32.1230412 58.638627,31.935346 60.4933005,33.4358732" id="Fill-16" fill="#FFFFFF"></path>
                                        <path d="M60.2466937,33.6048875 C60.2057116,33.659778 60.2199386,33.7437594 60.2717501,33.7872896 C60.3320554,33.8341111 60.4123208,33.8274223 60.4574435,33.7751861 C60.5009737,33.7199771 60.4858974,33.6363142 60.4273971,33.5915099 C60.36964,33.5434144 60.2918165,33.55435 60.2466937,33.6048875" id="Fill-18" fill="#2F2725"></path>
                                        <path d="M55.6294241,39.8688737 C55.6719987,39.8103734 55.6637174,39.7250117 55.6034121,39.6757483 C55.5466106,39.62967 55.4546663,39.6388007 55.4110299,39.6965579 C55.3676059,39.7538903 55.3776922,39.8391458 55.4370419,39.887666 C55.4972409,39.9358677 55.5843013,39.9274802 55.6294241,39.8688737" id="Fill-20" fill="#2F2725"></path>
                                        <path d="M58.3379731,32.7967173 C58.330435,32.8657286 58.3846885,32.9351645 58.4533812,32.9455693 C58.5261085,32.9599024 58.5904482,32.9128686 58.5989419,32.8431141 C58.6114701,32.774209 58.5570043,32.7050915 58.4868252,32.691714 C58.4165398,32.6800351 58.3513507,32.7247332 58.3379731,32.7967173" id="Fill-22" fill="#2F2725"></path>
                                        <path d="M57.6044884,40.6666683 C57.6137253,40.5930917 57.5619138,40.5240804 57.4899297,40.5131447 C57.4122124,40.4997672 57.344369,40.5508355 57.3376802,40.6244122 C57.3277001,40.6968209 57.3812104,40.7670001 57.4540438,40.7800591 C57.5284698,40.7912071 57.5953577,40.7406696 57.6044884,40.6666683" id="Fill-24" fill="#2F2725"></path>
                                        <path d="M56.3098401,33.0108472 C56.3365953,33.0828313 56.4151619,33.1157443 56.4845979,33.093236 C56.5523351,33.0698784 56.5858852,32.9958771 56.5557326,32.9281398 C56.5289775,32.857536 56.448712,32.8227118 56.3842661,32.8478744 C56.3132376,32.8712321 56.2788381,32.944384 56.3098401,33.0108472" id="Fill-26" fill="#2F2725"></path>
                                        <path d="M59.6566227,40.3845048 C59.6265762,40.3147504 59.5462046,40.2800324 59.4810155,40.3075307 C59.4157202,40.3348167 59.3822763,40.4099859 59.4124289,40.4815453 C59.439184,40.5497072 59.5177507,40.5835758 59.5855941,40.5588379 C59.6532252,40.5316581 59.6833778,40.4530914 59.6566227,40.3845048" id="Fill-28" fill="#2F2725"></path>
                                        <path d="M54.6938882,34.2246946 C54.755786,34.2715161 54.8411476,34.2655705 54.8845717,34.2079195 C54.9313932,34.1531352 54.9205637,34.0702155 54.861214,34.0229693 C54.8043062,33.9761478 54.7148039,33.9808194 54.6705305,34.0373024 C54.6253016,34.0932547 54.6369804,34.1774484 54.6938882,34.2246946" id="Fill-30" fill="#2F2725"></path>
                                        <path d="M61.2270538,39.1222951 C61.1658992,39.0740934 61.0856338,39.0817377 61.040511,39.13769 C60.9986796,39.1953409 61.0103584,39.2773051 61.0672662,39.3263562 C61.1275714,39.3723283 61.2111281,39.3639408 61.2529596,39.3079886 C61.294791,39.251824 61.2847048,39.1644451 61.2270538,39.1222951" id="Fill-32" fill="#2F2725"></path>
                                        <path d="M53.9405245,36.1240911 C54.0166493,36.1348144 54.0852359,36.085551 54.0953221,36.0149472 C54.1068948,35.9421137 54.0533845,35.8735271 53.9764104,35.8577076 C53.9029399,35.8458164 53.8343533,35.8923194 53.8292571,35.9684442 C53.814287,36.0400036 53.8669479,36.1102889 53.9405245,36.1240911" id="Fill-34" fill="#2F2725"></path>
                                        <path d="M61.9099595,37.2338541 C61.8362767,37.2197334 61.7743789,37.2702708 61.7627,37.3422549 C61.7560112,37.4104168 61.8078228,37.4797466 61.8798069,37.4903637 C61.9492428,37.5044845 62.0152813,37.4559643 62.0236688,37.3836617 C62.0303576,37.3133764 61.980988,37.2469132 61.9099595,37.2338541" id="Fill-36" fill="#2F2725"></path>
                                        <path d="M54.2789467,38.1976322 C54.3525234,38.1745931 54.3851179,38.091461 54.3576196,38.0228744 C54.3266176,37.9542879 54.2455028,37.9182958 54.1803137,37.9446263 C54.1100284,37.970532 54.073187,38.046763 54.1033396,38.11811 C54.1334922,38.1879707 54.2154564,38.2231133 54.2789467,38.1976322" id="Fill-38" fill="#2F2725"></path>
                                        <path d="M61.5492063,35.2229124 C61.483911,35.2472256 61.4521658,35.3232442 61.4806197,35.388858 C61.5090736,35.4561705 61.5860477,35.4901453 61.6529355,35.4675309 C61.7172753,35.4444917 61.7482773,35.3687916 61.7198234,35.2994619 C61.6930683,35.2328925 61.6143954,35.1991301 61.5492063,35.2229124" id="Fill-40" fill="#2F2725"></path>
                                        <path d="M58.1367494,36.4117942 C58.2758347,36.5245164 58.3022777,36.7230384 58.197784,36.8564517 C58.0927311,36.9901844 57.8926112,37.006242 57.7540852,36.8971147 C57.6143608,36.7828747 57.5841631,36.5855509 57.6912132,36.4508595 C57.795627,36.3176859 57.9951876,36.3007496 58.1367494,36.4117942" id="Fill-42" fill="#2F2725"></path>
                                        <path d="M58.1149962,36.7873741 C58.0822421,36.8289869 58.0325516,36.8565962 57.9759109,36.8621658 C57.8595139,36.872191 57.7519046,36.7879311 57.7336102,36.6716062 L57.4145369,34.3855281 C57.3962425,34.2713515 57.4781278,34.1704624 57.5957232,34.1620284 C57.7084454,34.1507301 57.8166938,34.2372179 57.8343491,34.3532245 L58.1546207,36.633176 C58.1640476,36.6910998 58.1476705,36.7452839 58.1149962,36.7873741" id="Fill-44" fill="#2F2725"></path>
                                        <path d="M57.647148,35.3690118 L57.4937308,34.3797567 C57.4795789,34.3084166 57.5370879,34.2457843 57.6201062,34.2391536 C57.7017725,34.2325229 57.7785712,34.2862876 57.7898386,34.3583467 L57.944698,35.3464833 L57.647148,35.3690118 Z" id="Fill-46" fill="#FFFFFF"></path>
                                        <path d="M60.2131104,39.0143191 C60.2112804,39.0190134 60.2069042,39.0225143 60.1999025,39.0284022 C60.1516857,39.0772554 60.0671075,39.0729589 60.0163447,39.0198887 L57.8495354,36.7396984 C57.7974995,36.685753 57.7974995,36.6027661 57.8495354,36.5538333 C57.8991048,36.5042639 57.9848764,36.5109474 58.0381854,36.5660068 L60.2025281,38.8428553 C60.2494718,38.8911516 60.2520179,38.9651476 60.2131104,39.0143191" id="Fill-48" fill="#2F2725"></path>
                                        <path d="M59.2614477,37.9481483 L60.1556359,38.8915476 C60.1783241,38.9163928 60.1820788,38.9509844 60.1632252,38.9739123 C60.1601096,38.9761491 60.1576331,38.978386 60.1576331,38.9824603 C60.1318292,39.0045094 60.0914857,39.0017133 60.0663209,38.9767084 L59.1694965,38.0344275 L59.2614477,37.9481483 Z" id="Fill-50" fill="#FFFFFF"></path>
                                        <path d="M45.1262999,36.8007809 C45.7549475,36.2770803 60.163,49.300294 59.6665903,49.9684857 C58.5483758,51.4811864 53.8374572,57.3917947 53.1391897,58.2837247 C52.4446618,59.1771666 37.0983721,44.6651219 37.9444724,43.7171776 C38.7920049,42.7668464 43.8651855,37.8496939 45.1262999,36.8007809" id="Fill-52" fill="#FFFFFF"></path>
                                        <path d="M197.145583,70.7276533 C190.615637,62.2015655 157.2522,30.9443886 155.86203,28.9114086 C154.473054,26.8793834 152.660948,14.0608124 149.552719,9.73037646 C146.930874,6.0771231 145.681695,5.81384062 144.587907,5.60736795 C143.493562,5.40272529 141.888963,6.02222286 141.55988,5.88879139 C141.232149,5.75687167 139.051495,3.78810109 137.27583,3.80846988 C135.500722,3.82883866 135.379146,4.53673358 135.68253,4.80598349 C135.985913,5.07555165 136.847052,5.74557336 137.053842,5.99469317 C137.233183,6.20999761 136.950566,6.29704235 136.564992,6.08340878 C136.178939,5.86969565 132.000712,0.974980637 130.570999,0.280293606 C129.143831,-0.413677335 127.513532,0.342593451 126.998902,0.812666865 C126.484908,1.28242202 126.21542,1.58676034 126.661783,2.23768631 C127.106713,2.88741879 129.635228,6.76401271 129.83263,7.22573174 C130.027566,7.68729164 130.292678,9.29634625 129.014696,7.42623699 C127.737907,5.55628685 125.332958,1.92085619 124.452883,1.33071832 C123.571695,0.740262192 121.938213,0.874091489 120.616947,2.25495203 C119.293135,3.63605128 119.153418,5.56344776 119.274358,6.43660037 C119.392194,7.30847994 121.791574,12.8327178 122.051037,14.0862734 C122.311137,15.339829 122.247246,16.5848711 122.569964,18.2375277 C122.753044,19.1698771 122.597653,19.3694276 121.366614,18.5483108 C120.20074,17.7714326 119.837284,17.6200193 118.879474,16.6451023 C117.814568,15.5614192 113.465275,14.8127071 113.170644,14.9602217 C112.600318,15.2457825 113.01207,16.9948725 113.908376,18.5195877 C115.200203,20.7155179 118.123601,24.5345064 119.483695,26.8827252 C120.616947,28.8443349 122.277958,29.5702116 123.179277,29.9427376 C125.572371,30.9361934 133.23923,32.8035179 135.415508,34.417426 C137.590512,36.0310954 141.615735,39.8129267 143.857017,41.8849734 C150.460323,47.993143 177.437986,84.7251474 187.195908,94.9002318 C187.195908,94.9002318 199.28542,73.5210415 197.145583,70.7276533" id="Fill-54" fill="#FCD4A9"></path>
                                        <path d="M161.913653,33.7718945 C161.285642,33.2484326 146.877589,46.2716463 147.373362,46.9401563 C148.491577,48.4525387 153.203768,54.363147 153.900763,55.2553953 C154.595848,56.1482802 169.940944,41.6371107 169.09548,40.6885299 C168.248027,39.7382783 163.17604,34.8211258 161.913653,33.7718945" id="Fill-56" fill="#FFFFFF"></path>
                                        <g id="Group-60" transform="translate(151.731551, 38.800152)">
                                            <mask id="mask-4" fill="white">
                                                <use xlink:href="#path-3"></use>
                                            </mask>
                                            <g id="Clip-59"></g>
                                            <path d="M16.4550758,0.0794382696 C15.2309595,-0.945445896 -0.851948389,13.4034098 0.0469039062,14.7375654 C2.9345773,19.0241607 35.4628142,58.6813935 36.2478877,59.4953493 C39.6672978,63.0406322 58.5341256,41.463244 54.8286772,37.7577957 C53.9295066,36.8586251 17.7149171,1.13209082 16.4550758,0.0794382696" id="Fill-58" fill="#931F34" mask="url(#mask-4)"></path>
                                        </g>
                                        <path d="M38.8534057,41.9082861 C40.077522,40.8834019 56.1603503,55.2321781 55.261498,56.5663336 C52.3739042,60.8530085 19.8456673,100.510241 19.0605938,101.324197 C15.6411041,104.86948 -3.22564409,83.2920123 0.479804284,79.5865639 C1.37897484,78.6873934 37.5935644,42.9608591 38.8534057,41.9082861" id="Fill-61" fill="#931F34"></path>
                                    </g>
                                </g>
                            </g>
                        </g>
                    </g>
                </g>
            </g>
        </g>
    </g>
</svg>