<?xml version="1.0" encoding="UTF-8"?>
<svg width="369px" height="163px" viewBox="0 0 369 163" version="1.1" xmlns="http://www.w3.org/2000/svg" xmlns:xlink="http://www.w3.org/1999/xlink">
    <!-- Generator: Sketch 45.2 (43514) - http://www.bohemiancoding.com/sketch -->
    <title>Group</title>
    <desc>Created with Sketch.</desc>
    <defs>
        <polygon id="path-1" points="0.127109663 0.09428895 62.1941807 0.09428895 62.1941807 24.8382543 0.127109663 24.8382543 0.127109663 0.09428895"></polygon>
        <polygon id="path-3" points="0 86.9238663 0 0.0984580542 72.4054519 0.0984580542 72.4054519 86.9238663"></polygon>
        <polygon id="path-5" points="0.127109663 0.09428895 62.1941807 0.09428895 62.1941807 24.8382543 0.127109663 24.8382543 0.127109663 0.09428895"></polygon>
        <polygon id="path-7" points="0 86.9238663 0 0.0984580542 72.4054519 0.0984580542 72.4054519 86.9238663"></polygon>
        <polygon id="path-9" points="17.270168 0.222135093 17.270168 18.4045518 0.0729220819 18.4045518 0.0729220819 0.222135093 17.270168 0.222135093"></polygon>
        <polygon id="path-11" points="78.7508047 0.12713435 0.0840258807 0.12713435 0.0840258807 34.0914299 78.7508047 34.0914299 78.7508047 0.12713435"></polygon>
        <polygon id="path-13" points="28.0103771 30.0139 0.259979664 30.0139 0.259979664 0.252625594 28.0103771 0.252625594 28.0103771 30.0139"></polygon>
    </defs>
    <g id="telas-principais" stroke="none" stroke-width="1" fill="none" fill-rule="evenodd">
        <g id="Pagamento-Parte-4" transform="translate(-519.000000, -361.000000)">
            <g id="modal" transform="translate(416.000000, 246.000000)">
                <g id="Group" transform="translate(0.000000, 18.000000)">
                    <g transform="translate(103.000000, 97.000000)">
                        <g id="mao" transform="translate(0.000000, 6.795600)">
                            <path d="M101.338422,13.1504204 C101.338422,13.1504204 98.7011632,10.9704485 97.2072638,9.3947188 C96.4048167,8.54668455 93.9113978,6.18691245 92.3724775,5.1117919 C91.061493,4.19183755 89.3294645,4.0052417 89.3294645,4.0052417 L75.9285413,0.740522195 C67.3969486,-0.544129355 65.3503404,1.6097927 65.3503404,1.6097927 L46.5228475,16.2387374 C44.5478762,17.546041 42.9234447,18.9380064 41.6087792,20.2622989 C40.8001028,21.5242985 40.1182776,23.1229634 39.554526,24.9906208 L69.0482794,7.75046675 C69.0482794,7.75046675 91.0235509,16.9327381 96.79613,16.577668 C102.570974,16.2240136 101.338422,13.1504204 101.338422,13.1504204" id="Fill-1" fill="#EACCA9"></path>
                            <g id="Group-5" transform="translate(39.357850, 0.188861)">
                                <mask id="mask-2" fill="white">
                                    <use xlink:href="#path-1"></use>
                                </mask>
                                <g id="Clip-4"></g>
                                <path d="M62.0441678,12.9351415 C59.4389046,10.7758396 57.1703068,8.2696789 54.5908103,6.08630925 C53.2639694,4.96333635 51.9829988,4.17278155 50.2645615,3.8174283 C49.7866043,3.71860895 49.3128943,3.60931305 48.8372023,3.4935047 C46.1971117,2.8501879 43.556738,2.20715425 40.9166474,1.56383745 C38.8026495,1.0487876 36.7421669,0.47314365 34.5726716,0.25851595 C31.1726064,-0.0775831 27.8563536,-0.0798483 25.1168774,2.04859025 C21.0570727,5.20288125 16.997268,8.3574554 12.9374633,11.5117464 C11.1173751,12.9260807 9.31031178,14.359386 7.47578293,15.7553155 C6.32959173,16.6277006 5.13441558,17.4182554 4.03579358,18.357464 C3.10224803,19.1556638 2.23807423,19.8961011 1.65648413,20.9865117 C1.00750433,22.2023578 0.53775848,23.4972028 0.12860673,24.8104525 C0.11303348,24.8600037 0.22374513,24.8299898 0.23903523,24.8212122 C8.63952943,19.9108249 17.0400236,15.0001544 25.4405178,10.0900503 C26.7195064,9.3422511 28.1199663,8.2045544 29.5212756,7.7045115 C29.8670018,7.58134125 29.5260892,7.5867211 29.9536457,7.7260309 C30.6711478,7.95962965 31.3713777,8.3064884 32.0716077,8.58822265 C38.001335,10.9731951 44.0024161,13.2817171 50.1462048,15.0587665 C52.9015374,15.8555506 55.8723472,16.7735229 58.7644413,16.2785767 C60.2937345,16.0169461 62.827927,14.9806171 62.0489813,12.9433528 C62.0311429,12.8969162 61.8957972,12.9374067 61.9122199,12.9798792 C62.9649716,15.7340792 58.4577899,16.432044 56.7104712,16.3499305 C54.1417344,16.2290254 51.5537434,15.3948655 49.1115747,14.6541451 C43.3103975,12.8949342 37.6287096,10.7183601 32.0084652,8.4537264 C31.4263088,8.2192782 30.2897447,7.46864755 29.6469942,7.543116 C28.9260943,7.62664525 27.8201104,8.6111578 27.2087896,8.9684931 C22.6993427,11.6043365 18.1901789,14.2401798 13.680732,16.8760232 C9.57250868,19.2774183 5.46428533,21.6788135 1.35577883,24.0802086 C1.15644123,24.1968664 0.50547938,24.7410807 0.26650078,24.717013 C-0.02797522,24.6872822 0.46498893,24.1113551 0.58419508,23.8013059 C1.15191083,22.3283596 1.65308633,20.7792459 2.77464348,19.6228613 C4.47014568,17.8741269 6.55781063,16.5744684 8.47332038,15.086232 C12.6265646,11.8591715 16.7800919,8.63182775 20.9336193,5.4047672 C22.4804677,4.20279545 24.0275993,3.0008237 25.5747309,1.7985688 C26.3018601,1.23368455 26.9743414,0.83331045 27.8968441,0.58696995 C33.3486142,-0.86842105 39.2973125,1.26256585 44.5789095,2.54919945 C46.3573746,2.9827021 48.1332914,3.4821787 49.9259141,3.8519726 C53.5927066,4.60826625 55.9751307,7.5136684 58.5639711,10.0130335 C59.6382422,11.0502119 60.7674444,12.0352908 61.9170334,12.9880905 C61.9532766,13.0181044 62.0801278,12.9648722 62.0441678,12.9351415" id="Fill-3" fill="#CB581F" mask="url(#mask-2)"></path>
                            </g>
                            <path d="M62.705861,24.3394041 C69.5048588,20.9512312 70.9313685,16.31465 70.9313685,16.31465 C78.6970404,18.9482281 84.361173,16.9418272 84.361173,16.9418272 C94.7876055,25.20556 100.331966,17.4512141 100.331966,17.4512141 C101.497128,15.8324455 88.3484913,8.60334286 88.3484913,8.60334286 C88.3484913,8.60334286 73.0422518,3.91324626 70.38857,4.47161806 C67.7405512,5.03282136 62.3776902,7.60722116 50.2891672,13.983476 C47.5375155,15.4343366 45.2213485,16.9027525 43.2778069,18.3068934 C39.2287619,21.6854392 37.5004143,31.6930928 37.3701653,43.2266417 L60.9687358,33.3815162" id="Fill-6" fill="#FCD4A9"></path>
                            <path d="M62.7349122,24.375081 C65.3667915,23.0289859 67.821702,21.2663772 69.5837444,18.8601685 C70.0186628,18.2664029 70.4167717,17.6375268 70.7285199,16.9695759 C70.7752396,16.8701903 70.8678297,16.4890704 70.9575882,16.4307415 C71.1716496,16.2911485 72.0692351,16.730031 72.4489393,16.8333808 C75.3730293,17.6290323 78.4565328,17.9274724 81.4720803,17.5743843 C82.2691476,17.481228 83.0429965,17.243382 83.8321356,17.1428637 C83.9819219,17.1238927 84.1894709,16.9806188 84.3378415,16.9956257 C84.3409561,16.9959089 85.1635069,17.6293154 85.1773812,17.6395088 C85.711119,18.038184 86.2740212,18.4045801 86.8462673,18.7452096 C90.5543997,20.9534964 95.1524726,21.7318758 98.7991614,19.004575 C99.2680578,18.6537521 100.25795,18.0013745 100.433786,17.3931683 C100.674464,16.5604242 99.3626299,15.6447171 98.8407845,15.2120639 C95.8249538,12.7121325 92.285862,10.7085631 88.8620122,8.82278411 C88.3424319,8.53623631 87.8446542,8.39522761 87.268444,8.22363871 C85.3266013,7.64544641 83.3782461,7.08877351 81.4228122,6.55871671 C79.1465694,5.94173286 76.8592837,5.34711786 74.5473639,4.87793831 C73.2276018,4.61007841 71.7300214,4.20772226 70.3774139,4.42971186 C69.1278729,4.63442931 67.8788983,5.21375421 66.7247789,5.70586891 C64.605118,6.60996686 62.534442,7.63128891 60.4745258,8.66280436 C56.571303,10.6171057 52.6533565,12.5861308 48.8435732,14.7174008 C46.213676,16.1886482 43.1683978,17.692741 41.5065904,20.3130111 C39.7621033,23.0632471 38.9783441,26.419424 38.4171408,29.5856073 C37.6195072,34.085144 37.3626902,38.6701919 37.3015298,43.2331542 C37.3006803,43.2827054 37.3689195,43.2747772 37.3992165,43.2620355 C44.2859908,40.3891956 51.1730483,37.5160725 58.0595394,34.6429495 C59.0389553,34.2340809 60.0183711,33.8257786 60.997787,33.4171931 C61.084714,33.3809499 61.0071309,33.3178075 60.9397412,33.3458393 C53.9654736,36.2554887 46.9909228,39.1651381 40.0166551,42.0750707 C39.6700795,42.2194772 37.7123804,43.3526435 37.3564609,43.1847355 C37.3142715,43.1646319 37.4969033,40.6148661 37.5073798,40.3286015 C37.5501355,39.1419198 37.6121453,37.9563708 37.6970903,36.7719543 C37.8491419,34.6531429 38.0716978,32.5368798 38.4086463,30.4387383 C38.9488965,27.0780309 39.7088711,23.5239321 41.4828058,20.5723765 C43.4863752,17.2394179 47.7460838,15.3731762 51.0538421,13.6315206 C56.5902741,10.7162082 62.1448276,7.55682046 67.9893268,5.28284281 C69.4141376,4.72871826 70.6299837,4.37364816 72.1655061,4.56647331 C74.6705342,4.88105296 77.1478135,5.54192506 79.5868676,6.17703051 C81.9067156,6.78155576 84.2149544,7.43195131 86.5144155,8.10952926 C87.3092176,8.34369431 88.0870306,8.52179566 88.8067979,8.92556756 C90.5260847,9.88997646 92.2264005,10.8909117 93.8984012,11.9357352 C95.8294842,13.1425205 97.914884,14.3776208 99.5330862,16.0003535 C100.480223,16.9500386 100.435485,17.3909031 99.5395987,18.2485645 C97.8568382,19.859688 95.5916382,20.748779 93.2601811,20.7037581 C91.4001688,20.6680812 89.5888582,20.0686527 87.9474377,19.2228836 C87.0170068,18.7435107 86.130181,18.1811748 85.2841288,17.5656067 C85.0188172,17.3727815 84.6600662,16.9503217 84.3412393,16.9030357 C83.8870667,16.835646 82.9914632,17.2535754 82.5347423,17.3325742 C80.9813814,17.602133 79.3934762,17.6760352 77.8200116,17.5981689 C75.4811926,17.4820774 73.1936238,17.0004393 70.9717457,16.2721775 C70.9321047,16.2591526 70.8754747,16.2801057 70.8624498,16.3211624 C69.707481,19.9633209 65.8727805,22.6693854 62.6768665,24.3040104 C62.5933372,24.3464829 62.6689383,24.4087759 62.7349122,24.375081" id="Fill-8" fill="#CB581F"></path>
                            <path d="M37.3780369,42.7037769 C37.2395765,51.5938375 38.0646756,61.4417945 39.5183677,69.8847612 C41.425383,76.8890427 37.2738377,85.5506012 37.2738377,85.5506012 C42.1434514,97.4403529 58.495647,105.099844 58.495647,105.099844 L68.6168438,80.3468705 C73.1285559,75.4444114 76.6413148,68.1470696 77.4630161,62.9212532 C78.2866994,57.6954368 80.4329764,52.4659395 80.4329764,52.4659395 C90.0776317,41.4751891 95.4237869,30.2134641 95.4237869,30.2134641 C102.792766,23.0925248 99.4702835,20.5376623 99.4702835,20.5376623 C91.7227332,13.628236 81.7824693,27.3910249 79.012696,31.1206767 C76.2437722,34.8514611 67.9386995,42.0194034 67.9386995,42.0194034 C65.9945916,39.1830898 64.9506176,35.8858081 59.5353738,31.7719217" id="Fill-10" fill="#FCD4A9"></path>
                            <path d="M37.3093447,42.7115352 C37.2133568,49.8174676 37.6579023,56.9318945 38.5631329,63.979498 C38.9932377,67.3285962 39.982847,70.7456504 39.9497184,74.1258951 C39.9228192,76.8631062 39.3454763,79.5881418 38.504804,82.1846273 C38.2191056,83.0669227 37.900845,83.9398741 37.5415277,84.7949871 C37.4588479,84.9914932 37.207977,85.3533589 37.2054286,85.5688361 C37.2008982,85.983934 37.7660656,86.8271547 37.9526615,87.1929845 C38.1723859,87.622523 38.4059846,88.0449828 38.6511925,88.460647 C39.3253727,89.6034404 40.0918597,90.6910196 40.9203566,91.7267823 C43.8603031,95.401503 47.5511633,98.4507453 51.4450421,101.065636 C53.675981,102.563499 56.0057392,103.989442 58.4416786,105.134784 C58.4821691,105.153755 58.5467273,105.135067 58.5639994,105.092312 C61.4240976,98.0976573 64.2839126,91.1035691 67.1440107,84.1091978 C67.6177207,82.950548 68.0005395,81.6704269 68.5926061,80.5658587 C69.0003421,79.8058841 69.7141633,79.1821047 70.2532809,78.4957491 C71.4733742,76.942105 72.5609534,75.2848281 73.5290432,73.5632761 C75.2975981,70.4188953 76.7725265,66.9919309 77.4418931,63.4321691 C78.1070124,59.8953424 78.8097907,56.0821614 80.3671157,52.7973382 C81.0378981,51.3827208 82.4700708,50.1663084 83.4591137,48.9263946 C84.8742974,47.152743 86.2311522,45.3323716 87.5319433,43.4729256 C89.5706233,40.5590289 91.4773554,37.550277 93.2323191,34.4574296 C93.9903117,33.1215279 94.5795468,31.5404183 95.4558961,30.2832323 C96.3285644,29.0314261 97.6279397,28.0395517 98.5314714,26.7733049 C99.2110314,25.8207883 99.8342445,24.7663377 100.126738,23.6224117 C100.909648,20.5575961 98.007927,18.7791309 95.2087061,18.5984812 C90.21932,18.2762565 85.8222836,22.7956137 82.8257072,26.218614 C81.4241147,27.8201104 80.1663624,29.5246734 78.8757647,31.2139463 C77.0893713,33.5516327 74.8932599,35.5990904 72.7537785,37.6074733 C71.7525601,38.5475313 70.7383168,39.473715 69.7147296,40.3897052 C69.4060961,40.6657765 68.4297949,41.8756764 67.9934607,41.9102207 C67.725884,41.931457 66.7920553,40.0436959 66.5188155,39.5838603 C65.766486,38.3164809 64.9711176,37.0793986 64.0350237,35.9380209 C62.7370641,34.3549293 61.2156992,32.9929778 59.5986295,31.7440031 C59.5578559,31.7125735 59.4307216,31.7675046 59.4720615,31.7995005 C61.5628411,33.4140218 63.4582472,35.2304291 64.9747986,37.4019064 C66.021321,38.9009025 66.8540651,40.532696 67.8753872,42.0469822 C67.8994549,42.0826591 67.9710919,42.0532115 67.994027,42.0331078 C72.3270715,38.2895817 76.5867801,34.4019322 80.0460236,29.8236798 C82.1305739,27.0649494 84.38643,24.3806874 87.0525704,22.1624903 C90.072082,19.6501003 94.2932822,17.3580011 98.1064632,19.6070615 C99.6830424,20.5369261 100.463404,21.6389459 100.015744,23.5360509 C99.5502451,25.5084738 98.1410075,27.2557925 96.8119014,28.7176959 C96.0977971,29.503154 95.4573118,30.0329277 94.993229,30.9494842 C93.5267951,33.8455424 91.8740486,36.6526915 90.128712,39.3884868 C88.7234385,41.5908275 87.2451124,43.7470148 85.6911852,45.8471383 C84.8173843,47.028157 83.9200819,48.1916203 82.9981455,49.3352632 C82.1869208,50.3407288 81.0285541,51.3750758 80.3608864,52.4821923 C79.6215818,53.7079486 79.2750062,55.4261028 78.8618903,56.7750294 C78.07983,59.3284761 77.6910651,61.9309078 77.0766296,64.5186156 C75.9128831,69.4202253 73.4494781,74.1448662 70.4002357,78.1341665 C69.7410625,78.9963583 68.8763224,79.7328314 68.4045945,80.7057348 C68.0934127,81.3470696 67.8592476,82.0393713 67.5894057,82.6991108 C66.576295,85.1772396 65.5629011,87.6553684 64.5497904,90.1334972 C62.5884104,94.9300582 60.6273135,99.7263361 58.6659334,104.52318 C58.6177979,104.640971 58.5552218,104.953002 58.4572519,105.0337 C58.3097307,105.154322 58.6874528,105.016994 58.4470585,105.016144 C57.9645709,105.014445 57.0766125,104.317896 56.6711417,104.098172 C54.0415276,102.671096 51.5067688,101.056008 49.1087715,99.2667836 C45.7650531,96.7722321 42.6243533,93.9067541 40.1668945,90.5177318 C39.6017271,89.7382198 39.0739355,88.9303929 38.5968277,88.0939678 C38.2403419,87.4687726 37.3336956,86.1849705 37.3789996,85.4660526 C37.3945728,85.2174469 37.6499741,84.8504845 37.7442631,84.6219825 C38.0359076,83.9146738 38.300936,83.1960391 38.5430292,82.4700425 C39.2194746,80.4441042 39.7246142,78.35021 39.9573635,76.2248861 C40.2167289,73.85577 39.9287653,71.7100593 39.5051729,69.3870967 C38.4597831,63.6586891 37.9240633,57.7932368 37.6256232,51.9821494 C37.4667761,48.8893019 37.4047662,45.7927735 37.4466724,42.6962451 C37.4475219,42.6350847 37.309911,42.6617008 37.3093447,42.7115352" id="Fill-12" fill="#CB581F"></path>
                            <polygon id="Fill-14" fill="#FFFFFF" points="67.9700159 96.9673791 35.9599084 80.3920613 3.73489008 156.337422 42.1422055 167.612455"></polygon>
                            <path d="M68.0341494,96.9433397 C58.6851027,92.102041 49.336056,87.2610254 39.9867262,82.4197267 C38.6658314,81.7356363 37.3449367,81.0518291 36.0240419,80.3677387 C35.9917628,80.3507497 35.9082336,80.3657566 35.8923772,80.4031324 L24.9922348,106.091633 C19.2057814,119.72842 13.419328,133.36549 7.63287455,147.002561 C6.3108472,150.117777 4.989103,153.232993 3.66707565,156.348493 C3.6633947,156.35727 3.6718892,156.3635 3.6792511,156.365765 C14.8866113,159.655685 26.0939714,162.946171 37.3016147,166.236374 C38.8965987,166.704421 40.4915826,167.172751 42.0862834,167.641081 C42.1171468,167.650142 42.1967119,167.6374 42.2097368,167.60144 C45.1287302,159.61746 48.0480067,151.632913 50.967,143.648649 C55.5967857,130.985615 60.2262882,118.322297 64.8560738,105.658697 C65.9164706,102.758108 66.9771505,99.8572363 68.0378304,96.9566477 C68.0491564,96.9255012 67.9160759,96.9405082 67.9022015,96.9784503 C66.0070786,102.162077 64.1122388,107.345421 62.2171158,112.528765 C58.4529197,122.824949 54.6884405,133.121415 50.9242444,143.417599 C48.1771231,150.930984 45.4302849,158.444369 42.6834468,165.957754 C42.5523483,166.316505 42.3901034,167.317724 42.0916633,167.57624 C42.0678787,167.59691 42.2757108,167.547075 41.9517872,167.511965 C41.5536783,167.468643 41.1179104,167.26704 40.7345253,167.154629 C36.6900107,165.967098 32.645213,164.77985 28.6004152,163.592319 C23.3335421,162.04632 18.0669521,160.500038 12.8003621,158.953756 C10.8217099,158.373015 8.8433408,157.791992 6.8646886,157.211534 L4.93502135,156.644951 C4.7365332,156.586622 4.04593035,156.508473 3.91228355,156.344529 C3.64159215,156.012677 4.97919275,153.553236 5.1992003,153.034505 C6.56653165,149.812825 7.93357985,146.591144 9.3003449,143.369463 C13.4629331,133.559731 17.6252381,123.750566 21.7875431,113.940834 C25.5678787,105.031236 29.3484975,96.1219215 33.1291163,87.2123236 C34.0145264,85.1257913 35.0845502,83.0364274 35.8125289,80.8878852 C35.8442417,80.7944457 35.9289035,80.4761851 36.0124328,80.4170068 C35.9478746,80.4625939 35.8974739,80.4331463 36.1760935,80.5614133 C37.3406894,81.0968499 38.4656444,81.7469623 39.6036242,82.3361975 C48.3526761,86.8665975 57.1014448,91.3969975 65.8504966,95.9273975 C66.5357196,96.2821844 67.2206595,96.6369714 67.9058825,96.9917583 C67.942692,97.0110125 68.0568014,96.9549488 68.0341494,96.9433397" id="Fill-16" fill="#716F6F"></path>
                            <polygon id="Fill-18" fill="#143645" points="30.3565398 83.2879779 72.3363588 104.788973 50.3947822 170.035228 0.069683215 155.26131"></polygon>
                            <g id="Group-22" transform="translate(0.000000, 83.151811)">
                                <mask id="mask-4" fill="white">
                                    <use xlink:href="#path-3"></use>
                                </mask>
                                <g id="Clip-21"></g>
                                <path d="M30.3022033,0.169635165 C37.508654,3.86049541 44.7151046,7.55135566 51.9218384,11.2422159 C56.7382199,13.7093019 61.5548846,16.1761047 66.3712661,18.6431906 C67.886968,19.4193048 69.4029531,20.1959852 70.9186551,20.9723825 C71.1981241,21.1153733 72.1973605,21.5041382 72.2503095,21.6978128 C72.3559245,22.0843126 71.7429047,23.206436 71.6205839,23.5705669 L70.184164,27.8416015 C68.6732756,32.3349089 67.162104,36.8282162 65.6512156,41.3215236 C62.0104729,52.1474807 58.3697302,62.9740041 54.7289875,73.7999612 C53.5176718,77.4024786 52.306073,81.0047129 51.0947573,84.6069472 C50.9061794,85.1678674 50.7597908,86.318589 50.365646,86.7747436 C50.193774,86.9737981 50.5700803,86.7784246 50.3282702,86.8141015 C50.0926894,86.8489289 49.6430472,86.613065 49.4182261,86.547091 C40.2866386,83.8662268 31.1550511,81.1853626 22.0237468,78.5047816 C16.9454515,77.0139968 11.8674394,75.5232121 6.78914418,74.0321442 C5.17887013,73.5595668 3.56859608,73.0867063 1.95832203,72.614129 C1.71254783,72.5422089 0.18948398,72.2211168 0.13880013,72.0999286 C0.05866868,71.9090855 0.60996173,70.9797872 0.68471333,70.801969 C1.17116503,69.646717 1.65733358,68.4911818 2.14350213,67.3356467 C3.78916993,63.4247789 5.43483773,59.5144774 7.08022238,55.6036096 C11.5556913,44.9687787 16.030877,34.3333816 20.5063459,23.6985507 C23.651293,16.2248065 26.7959569,8.75162851 29.9409039,1.27788426 C30.1022994,0.894782315 30.2636949,0.511114065 30.4250904,0.128012115 C30.443212,0.084123865 30.3073,0.099130815 30.2880458,0.144717965 C26.8605151,8.29037716 23.4327012,16.4357532 20.0048873,24.5814124 C14.5859626,37.4590744 9.16703788,50.3367364 3.74783003,63.2143984 L0.00118923,72.1180502 C-0.00588952,72.134756 0.01704563,72.1438168 0.02808848,72.1469315 C5.69929983,73.8118535 11.3705112,75.4767755 17.0414394,77.1419806 C26.077039,79.7942467 35.1120724,82.4467959 44.1473889,85.0990619 C46.2160828,85.7067018 48.2844935,86.3137754 50.3529043,86.9211322 C50.3877317,86.9313256 50.4508742,86.9123545 50.4633328,86.8752619 C52.9369312,79.5184586 55.4110959,72.1619384 57.8849774,64.8054183 C61.8247265,53.0895207 65.7647588,41.3739063 69.7045079,29.6580088 L72.4046263,21.6287242 C72.4083072,21.6179645 72.3989633,21.6080543 72.3907519,21.6035239 C60.1312064,15.3246726 47.8716608,9.04582136 35.6123984,2.76697011 C33.8783878,1.87872856 32.1446604,0.990770165 30.4109329,0.102811765 C30.3707256,0.082141815 30.2452902,0.140187565 30.3022033,0.169635165" id="Fill-20" fill="#001827" mask="url(#mask-4)"></path>
                            </g>
                            <path d="M60.0414788,42.4526771 C60.1134788,42.4526771 60.3034788,42.3456771 60.1434788,42.3456771 C60.0714788,42.3456771 59.8814788,42.4526771 60.0414788,42.4526771" id="Fill-23" fill="#CB581F"></path>
                            <path d="M67.9367767,42.0964647 C68.0087767,42.0964647 68.1987767,41.9889647 68.0387767,41.9889647 C67.9667767,41.9889647 67.7767767,42.0964647 67.9367767,42.0964647" id="Fill-25" fill="#CB581F"></path>
                            <path d="M91.0084131,38.2941525 C91.0864131,38.2941525 91.2689131,38.1776525 91.1079131,38.1776525 C91.0299131,38.1776525 90.8474131,38.2941525 91.0084131,38.2941525" id="Fill-27" fill="#CB581F"></path>
                            <path d="M90.3119774,39.5209135 C90.4469774,39.5209135 90.4999774,39.3524135 90.3354774,39.3524135 C90.2009774,39.3524135 90.1474774,39.5209135 90.3119774,39.5209135" id="Fill-29" fill="#CB581F"></path>
                        </g>
                        <g id="mao" transform="translate(317.500000, 92.295600) scale(-1, 1) translate(-317.500000, -92.295600) translate(266.000000, 6.795600)">
                            <path d="M101.338422,13.1504204 C101.338422,13.1504204 98.7011632,10.9704485 97.2072638,9.3947188 C96.4048167,8.54668455 93.9113978,6.18691245 92.3724775,5.1117919 C91.061493,4.19183755 89.3294645,4.0052417 89.3294645,4.0052417 L75.9285413,0.740522195 C67.3969486,-0.544129355 65.3503404,1.6097927 65.3503404,1.6097927 L46.5228475,16.2387374 C44.5478762,17.546041 42.9234447,18.9380064 41.6087792,20.2622989 C40.8001028,21.5242985 40.1182776,23.1229634 39.554526,24.9906208 L69.0482794,7.75046675 C69.0482794,7.75046675 91.0235509,16.9327381 96.79613,16.577668 C102.570974,16.2240136 101.338422,13.1504204 101.338422,13.1504204" id="Fill-1" fill="#EACCA9"></path>
                            <g id="Group-5" transform="translate(39.357850, 0.188861)">
                                <mask id="mask-6" fill="white">
                                    <use xlink:href="#path-5"></use>
                                </mask>
                                <g id="Clip-4"></g>
                                <path d="M62.0441678,12.9351415 C59.4389046,10.7758396 57.1703068,8.2696789 54.5908103,6.08630925 C53.2639694,4.96333635 51.9829988,4.17278155 50.2645615,3.8174283 C49.7866043,3.71860895 49.3128943,3.60931305 48.8372023,3.4935047 C46.1971117,2.8501879 43.556738,2.20715425 40.9166474,1.56383745 C38.8026495,1.0487876 36.7421669,0.47314365 34.5726716,0.25851595 C31.1726064,-0.0775831 27.8563536,-0.0798483 25.1168774,2.04859025 C21.0570727,5.20288125 16.997268,8.3574554 12.9374633,11.5117464 C11.1173751,12.9260807 9.31031178,14.359386 7.47578293,15.7553155 C6.32959173,16.6277006 5.13441558,17.4182554 4.03579358,18.357464 C3.10224803,19.1556638 2.23807423,19.8961011 1.65648413,20.9865117 C1.00750433,22.2023578 0.53775848,23.4972028 0.12860673,24.8104525 C0.11303348,24.8600037 0.22374513,24.8299898 0.23903523,24.8212122 C8.63952943,19.9108249 17.0400236,15.0001544 25.4405178,10.0900503 C26.7195064,9.3422511 28.1199663,8.2045544 29.5212756,7.7045115 C29.8670018,7.58134125 29.5260892,7.5867211 29.9536457,7.7260309 C30.6711478,7.95962965 31.3713777,8.3064884 32.0716077,8.58822265 C38.001335,10.9731951 44.0024161,13.2817171 50.1462048,15.0587665 C52.9015374,15.8555506 55.8723472,16.7735229 58.7644413,16.2785767 C60.2937345,16.0169461 62.827927,14.9806171 62.0489813,12.9433528 C62.0311429,12.8969162 61.8957972,12.9374067 61.9122199,12.9798792 C62.9649716,15.7340792 58.4577899,16.432044 56.7104712,16.3499305 C54.1417344,16.2290254 51.5537434,15.3948655 49.1115747,14.6541451 C43.3103975,12.8949342 37.6287096,10.7183601 32.0084652,8.4537264 C31.4263088,8.2192782 30.2897447,7.46864755 29.6469942,7.543116 C28.9260943,7.62664525 27.8201104,8.6111578 27.2087896,8.9684931 C22.6993427,11.6043365 18.1901789,14.2401798 13.680732,16.8760232 C9.57250868,19.2774183 5.46428533,21.6788135 1.35577883,24.0802086 C1.15644123,24.1968664 0.50547938,24.7410807 0.26650078,24.717013 C-0.02797522,24.6872822 0.46498893,24.1113551 0.58419508,23.8013059 C1.15191083,22.3283596 1.65308633,20.7792459 2.77464348,19.6228613 C4.47014568,17.8741269 6.55781063,16.5744684 8.47332038,15.086232 C12.6265646,11.8591715 16.7800919,8.63182775 20.9336193,5.4047672 C22.4804677,4.20279545 24.0275993,3.0008237 25.5747309,1.7985688 C26.3018601,1.23368455 26.9743414,0.83331045 27.8968441,0.58696995 C33.3486142,-0.86842105 39.2973125,1.26256585 44.5789095,2.54919945 C46.3573746,2.9827021 48.1332914,3.4821787 49.9259141,3.8519726 C53.5927066,4.60826625 55.9751307,7.5136684 58.5639711,10.0130335 C59.6382422,11.0502119 60.7674444,12.0352908 61.9170334,12.9880905 C61.9532766,13.0181044 62.0801278,12.9648722 62.0441678,12.9351415" id="Fill-3" fill="#CB581F" mask="url(#mask-6)"></path>
                            </g>
                            <path d="M62.705861,24.3394041 C69.5048588,20.9512312 70.9313685,16.31465 70.9313685,16.31465 C78.6970404,18.9482281 84.361173,16.9418272 84.361173,16.9418272 C94.7876055,25.20556 100.331966,17.4512141 100.331966,17.4512141 C101.497128,15.8324455 88.3484913,8.60334286 88.3484913,8.60334286 C88.3484913,8.60334286 73.0422518,3.91324626 70.38857,4.47161806 C67.7405512,5.03282136 62.3776902,7.60722116 50.2891672,13.983476 C47.5375155,15.4343366 45.2213485,16.9027525 43.2778069,18.3068934 C39.2287619,21.6854392 37.5004143,31.6930928 37.3701653,43.2266417 L60.9687358,33.3815162" id="Fill-6" fill="#FCD4A9"></path>
                            <path d="M62.7349122,24.375081 C65.3667915,23.0289859 67.821702,21.2663772 69.5837444,18.8601685 C70.0186628,18.2664029 70.4167717,17.6375268 70.7285199,16.9695759 C70.7752396,16.8701903 70.8678297,16.4890704 70.9575882,16.4307415 C71.1716496,16.2911485 72.0692351,16.730031 72.4489393,16.8333808 C75.3730293,17.6290323 78.4565328,17.9274724 81.4720803,17.5743843 C82.2691476,17.481228 83.0429965,17.243382 83.8321356,17.1428637 C83.9819219,17.1238927 84.1894709,16.9806188 84.3378415,16.9956257 C84.3409561,16.9959089 85.1635069,17.6293154 85.1773812,17.6395088 C85.711119,18.038184 86.2740212,18.4045801 86.8462673,18.7452096 C90.5543997,20.9534964 95.1524726,21.7318758 98.7991614,19.004575 C99.2680578,18.6537521 100.25795,18.0013745 100.433786,17.3931683 C100.674464,16.5604242 99.3626299,15.6447171 98.8407845,15.2120639 C95.8249538,12.7121325 92.285862,10.7085631 88.8620122,8.82278411 C88.3424319,8.53623631 87.8446542,8.39522761 87.268444,8.22363871 C85.3266013,7.64544641 83.3782461,7.08877351 81.4228122,6.55871671 C79.1465694,5.94173286 76.8592837,5.34711786 74.5473639,4.87793831 C73.2276018,4.61007841 71.7300214,4.20772226 70.3774139,4.42971186 C69.1278729,4.63442931 67.8788983,5.21375421 66.7247789,5.70586891 C64.605118,6.60996686 62.534442,7.63128891 60.4745258,8.66280436 C56.571303,10.6171057 52.6533565,12.5861308 48.8435732,14.7174008 C46.213676,16.1886482 43.1683978,17.692741 41.5065904,20.3130111 C39.7621033,23.0632471 38.9783441,26.419424 38.4171408,29.5856073 C37.6195072,34.085144 37.3626902,38.6701919 37.3015298,43.2331542 C37.3006803,43.2827054 37.3689195,43.2747772 37.3992165,43.2620355 C44.2859908,40.3891956 51.1730483,37.5160725 58.0595394,34.6429495 C59.0389553,34.2340809 60.0183711,33.8257786 60.997787,33.4171931 C61.084714,33.3809499 61.0071309,33.3178075 60.9397412,33.3458393 C53.9654736,36.2554887 46.9909228,39.1651381 40.0166551,42.0750707 C39.6700795,42.2194772 37.7123804,43.3526435 37.3564609,43.1847355 C37.3142715,43.1646319 37.4969033,40.6148661 37.5073798,40.3286015 C37.5501355,39.1419198 37.6121453,37.9563708 37.6970903,36.7719543 C37.8491419,34.6531429 38.0716978,32.5368798 38.4086463,30.4387383 C38.9488965,27.0780309 39.7088711,23.5239321 41.4828058,20.5723765 C43.4863752,17.2394179 47.7460838,15.3731762 51.0538421,13.6315206 C56.5902741,10.7162082 62.1448276,7.55682046 67.9893268,5.28284281 C69.4141376,4.72871826 70.6299837,4.37364816 72.1655061,4.56647331 C74.6705342,4.88105296 77.1478135,5.54192506 79.5868676,6.17703051 C81.9067156,6.78155576 84.2149544,7.43195131 86.5144155,8.10952926 C87.3092176,8.34369431 88.0870306,8.52179566 88.8067979,8.92556756 C90.5260847,9.88997646 92.2264005,10.8909117 93.8984012,11.9357352 C95.8294842,13.1425205 97.914884,14.3776208 99.5330862,16.0003535 C100.480223,16.9500386 100.435485,17.3909031 99.5395987,18.2485645 C97.8568382,19.859688 95.5916382,20.748779 93.2601811,20.7037581 C91.4001688,20.6680812 89.5888582,20.0686527 87.9474377,19.2228836 C87.0170068,18.7435107 86.130181,18.1811748 85.2841288,17.5656067 C85.0188172,17.3727815 84.6600662,16.9503217 84.3412393,16.9030357 C83.8870667,16.835646 82.9914632,17.2535754 82.5347423,17.3325742 C80.9813814,17.602133 79.3934762,17.6760352 77.8200116,17.5981689 C75.4811926,17.4820774 73.1936238,17.0004393 70.9717457,16.2721775 C70.9321047,16.2591526 70.8754747,16.2801057 70.8624498,16.3211624 C69.707481,19.9633209 65.8727805,22.6693854 62.6768665,24.3040104 C62.5933372,24.3464829 62.6689383,24.4087759 62.7349122,24.375081" id="Fill-8" fill="#CB581F"></path>
                            <path d="M37.3780369,42.7037769 C37.2395765,51.5938375 38.0646756,61.4417945 39.5183677,69.8847612 C41.425383,76.8890427 37.2738377,85.5506012 37.2738377,85.5506012 C42.1434514,97.4403529 58.495647,105.099844 58.495647,105.099844 L68.6168438,80.3468705 C73.1285559,75.4444114 76.6413148,68.1470696 77.4630161,62.9212532 C78.2866994,57.6954368 80.4329764,52.4659395 80.4329764,52.4659395 C90.0776317,41.4751891 95.4237869,30.2134641 95.4237869,30.2134641 C102.792766,23.0925248 99.4702835,20.5376623 99.4702835,20.5376623 C91.7227332,13.628236 81.7824693,27.3910249 79.012696,31.1206767 C76.2437722,34.8514611 67.9386995,42.0194034 67.9386995,42.0194034 C65.9945916,39.1830898 64.9506176,35.8858081 59.5353738,31.7719217" id="Fill-10" fill="#FCD4A9"></path>
                            <path d="M37.3093447,42.7115352 C37.2133568,49.8174676 37.6579023,56.9318945 38.5631329,63.979498 C38.9932377,67.3285962 39.982847,70.7456504 39.9497184,74.1258951 C39.9228192,76.8631062 39.3454763,79.5881418 38.504804,82.1846273 C38.2191056,83.0669227 37.900845,83.9398741 37.5415277,84.7949871 C37.4588479,84.9914932 37.207977,85.3533589 37.2054286,85.5688361 C37.2008982,85.983934 37.7660656,86.8271547 37.9526615,87.1929845 C38.1723859,87.622523 38.4059846,88.0449828 38.6511925,88.460647 C39.3253727,89.6034404 40.0918597,90.6910196 40.9203566,91.7267823 C43.8603031,95.401503 47.5511633,98.4507453 51.4450421,101.065636 C53.675981,102.563499 56.0057392,103.989442 58.4416786,105.134784 C58.4821691,105.153755 58.5467273,105.135067 58.5639994,105.092312 C61.4240976,98.0976573 64.2839126,91.1035691 67.1440107,84.1091978 C67.6177207,82.950548 68.0005395,81.6704269 68.5926061,80.5658587 C69.0003421,79.8058841 69.7141633,79.1821047 70.2532809,78.4957491 C71.4733742,76.942105 72.5609534,75.2848281 73.5290432,73.5632761 C75.2975981,70.4188953 76.7725265,66.9919309 77.4418931,63.4321691 C78.1070124,59.8953424 78.8097907,56.0821614 80.3671157,52.7973382 C81.0378981,51.3827208 82.4700708,50.1663084 83.4591137,48.9263946 C84.8742974,47.152743 86.2311522,45.3323716 87.5319433,43.4729256 C89.5706233,40.5590289 91.4773554,37.550277 93.2323191,34.4574296 C93.9903117,33.1215279 94.5795468,31.5404183 95.4558961,30.2832323 C96.3285644,29.0314261 97.6279397,28.0395517 98.5314714,26.7733049 C99.2110314,25.8207883 99.8342445,24.7663377 100.126738,23.6224117 C100.909648,20.5575961 98.007927,18.7791309 95.2087061,18.5984812 C90.21932,18.2762565 85.8222836,22.7956137 82.8257072,26.218614 C81.4241147,27.8201104 80.1663624,29.5246734 78.8757647,31.2139463 C77.0893713,33.5516327 74.8932599,35.5990904 72.7537785,37.6074733 C71.7525601,38.5475313 70.7383168,39.473715 69.7147296,40.3897052 C69.4060961,40.6657765 68.4297949,41.8756764 67.9934607,41.9102207 C67.725884,41.931457 66.7920553,40.0436959 66.5188155,39.5838603 C65.766486,38.3164809 64.9711176,37.0793986 64.0350237,35.9380209 C62.7370641,34.3549293 61.2156992,32.9929778 59.5986295,31.7440031 C59.5578559,31.7125735 59.4307216,31.7675046 59.4720615,31.7995005 C61.5628411,33.4140218 63.4582472,35.2304291 64.9747986,37.4019064 C66.021321,38.9009025 66.8540651,40.532696 67.8753872,42.0469822 C67.8994549,42.0826591 67.9710919,42.0532115 67.994027,42.0331078 C72.3270715,38.2895817 76.5867801,34.4019322 80.0460236,29.8236798 C82.1305739,27.0649494 84.38643,24.3806874 87.0525704,22.1624903 C90.072082,19.6501003 94.2932822,17.3580011 98.1064632,19.6070615 C99.6830424,20.5369261 100.463404,21.6389459 100.015744,23.5360509 C99.5502451,25.5084738 98.1410075,27.2557925 96.8119014,28.7176959 C96.0977971,29.503154 95.4573118,30.0329277 94.993229,30.9494842 C93.5267951,33.8455424 91.8740486,36.6526915 90.128712,39.3884868 C88.7234385,41.5908275 87.2451124,43.7470148 85.6911852,45.8471383 C84.8173843,47.028157 83.9200819,48.1916203 82.9981455,49.3352632 C82.1869208,50.3407288 81.0285541,51.3750758 80.3608864,52.4821923 C79.6215818,53.7079486 79.2750062,55.4261028 78.8618903,56.7750294 C78.07983,59.3284761 77.6910651,61.9309078 77.0766296,64.5186156 C75.9128831,69.4202253 73.4494781,74.1448662 70.4002357,78.1341665 C69.7410625,78.9963583 68.8763224,79.7328314 68.4045945,80.7057348 C68.0934127,81.3470696 67.8592476,82.0393713 67.5894057,82.6991108 C66.576295,85.1772396 65.5629011,87.6553684 64.5497904,90.1334972 C62.5884104,94.9300582 60.6273135,99.7263361 58.6659334,104.52318 C58.6177979,104.640971 58.5552218,104.953002 58.4572519,105.0337 C58.3097307,105.154322 58.6874528,105.016994 58.4470585,105.016144 C57.9645709,105.014445 57.0766125,104.317896 56.6711417,104.098172 C54.0415276,102.671096 51.5067688,101.056008 49.1087715,99.2667836 C45.7650531,96.7722321 42.6243533,93.9067541 40.1668945,90.5177318 C39.6017271,89.7382198 39.0739355,88.9303929 38.5968277,88.0939678 C38.2403419,87.4687726 37.3336956,86.1849705 37.3789996,85.4660526 C37.3945728,85.2174469 37.6499741,84.8504845 37.7442631,84.6219825 C38.0359076,83.9146738 38.300936,83.1960391 38.5430292,82.4700425 C39.2194746,80.4441042 39.7246142,78.35021 39.9573635,76.2248861 C40.2167289,73.85577 39.9287653,71.7100593 39.5051729,69.3870967 C38.4597831,63.6586891 37.9240633,57.7932368 37.6256232,51.9821494 C37.4667761,48.8893019 37.4047662,45.7927735 37.4466724,42.6962451 C37.4475219,42.6350847 37.309911,42.6617008 37.3093447,42.7115352" id="Fill-12" fill="#CB581F"></path>
                            <polygon id="Fill-14" fill="#FFFFFF" points="67.9700159 96.9673791 35.9599084 80.3920613 3.73489008 156.337422 42.1422055 167.612455"></polygon>
                            <path d="M68.0341494,96.9433397 C58.6851027,92.102041 49.336056,87.2610254 39.9867262,82.4197267 C38.6658314,81.7356363 37.3449367,81.0518291 36.0240419,80.3677387 C35.9917628,80.3507497 35.9082336,80.3657566 35.8923772,80.4031324 L24.9922348,106.091633 C19.2057814,119.72842 13.419328,133.36549 7.63287455,147.002561 C6.3108472,150.117777 4.989103,153.232993 3.66707565,156.348493 C3.6633947,156.35727 3.6718892,156.3635 3.6792511,156.365765 C14.8866113,159.655685 26.0939714,162.946171 37.3016147,166.236374 C38.8965987,166.704421 40.4915826,167.172751 42.0862834,167.641081 C42.1171468,167.650142 42.1967119,167.6374 42.2097368,167.60144 C45.1287302,159.61746 48.0480067,151.632913 50.967,143.648649 C55.5967857,130.985615 60.2262882,118.322297 64.8560738,105.658697 C65.9164706,102.758108 66.9771505,99.8572363 68.0378304,96.9566477 C68.0491564,96.9255012 67.9160759,96.9405082 67.9022015,96.9784503 C66.0070786,102.162077 64.1122388,107.345421 62.2171158,112.528765 C58.4529197,122.824949 54.6884405,133.121415 50.9242444,143.417599 C48.1771231,150.930984 45.4302849,158.444369 42.6834468,165.957754 C42.5523483,166.316505 42.3901034,167.317724 42.0916633,167.57624 C42.0678787,167.59691 42.2757108,167.547075 41.9517872,167.511965 C41.5536783,167.468643 41.1179104,167.26704 40.7345253,167.154629 C36.6900107,165.967098 32.645213,164.77985 28.6004152,163.592319 C23.3335421,162.04632 18.0669521,160.500038 12.8003621,158.953756 C10.8217099,158.373015 8.8433408,157.791992 6.8646886,157.211534 L4.93502135,156.644951 C4.7365332,156.586622 4.04593035,156.508473 3.91228355,156.344529 C3.64159215,156.012677 4.97919275,153.553236 5.1992003,153.034505 C6.56653165,149.812825 7.93357985,146.591144 9.3003449,143.369463 C13.4629331,133.559731 17.6252381,123.750566 21.7875431,113.940834 C25.5678787,105.031236 29.3484975,96.1219215 33.1291163,87.2123236 C34.0145264,85.1257913 35.0845502,83.0364274 35.8125289,80.8878852 C35.8442417,80.7944457 35.9289035,80.4761851 36.0124328,80.4170068 C35.9478746,80.4625939 35.8974739,80.4331463 36.1760935,80.5614133 C37.3406894,81.0968499 38.4656444,81.7469623 39.6036242,82.3361975 C48.3526761,86.8665975 57.1014448,91.3969975 65.8504966,95.9273975 C66.5357196,96.2821844 67.2206595,96.6369714 67.9058825,96.9917583 C67.942692,97.0110125 68.0568014,96.9549488 68.0341494,96.9433397" id="Fill-16" fill="#716F6F"></path>
                            <polygon id="Fill-18" fill="#143645" points="30.3565398 83.2879779 72.3363588 104.788973 50.3947822 170.035228 0.069683215 155.26131"></polygon>
                            <g id="Group-22" transform="translate(0.000000, 83.151811)">
                                <mask id="mask-8" fill="white">
                                    <use xlink:href="#path-7"></use>
                                </mask>
                                <g id="Clip-21"></g>
                                <path d="M30.3022033,0.169635165 C37.508654,3.86049541 44.7151046,7.55135566 51.9218384,11.2422159 C56.7382199,13.7093019 61.5548846,16.1761047 66.3712661,18.6431906 C67.886968,19.4193048 69.4029531,20.1959852 70.9186551,20.9723825 C71.1981241,21.1153733 72.1973605,21.5041382 72.2503095,21.6978128 C72.3559245,22.0843126 71.7429047,23.206436 71.6205839,23.5705669 L70.184164,27.8416015 C68.6732756,32.3349089 67.162104,36.8282162 65.6512156,41.3215236 C62.0104729,52.1474807 58.3697302,62.9740041 54.7289875,73.7999612 C53.5176718,77.4024786 52.306073,81.0047129 51.0947573,84.6069472 C50.9061794,85.1678674 50.7597908,86.318589 50.365646,86.7747436 C50.193774,86.9737981 50.5700803,86.7784246 50.3282702,86.8141015 C50.0926894,86.8489289 49.6430472,86.613065 49.4182261,86.547091 C40.2866386,83.8662268 31.1550511,81.1853626 22.0237468,78.5047816 C16.9454515,77.0139968 11.8674394,75.5232121 6.78914418,74.0321442 C5.17887013,73.5595668 3.56859608,73.0867063 1.95832203,72.614129 C1.71254783,72.5422089 0.18948398,72.2211168 0.13880013,72.0999286 C0.05866868,71.9090855 0.60996173,70.9797872 0.68471333,70.801969 C1.17116503,69.646717 1.65733358,68.4911818 2.14350213,67.3356467 C3.78916993,63.4247789 5.43483773,59.5144774 7.08022238,55.6036096 C11.5556913,44.9687787 16.030877,34.3333816 20.5063459,23.6985507 C23.651293,16.2248065 26.7959569,8.75162851 29.9409039,1.27788426 C30.1022994,0.894782315 30.2636949,0.511114065 30.4250904,0.128012115 C30.443212,0.084123865 30.3073,0.099130815 30.2880458,0.144717965 C26.8605151,8.29037716 23.4327012,16.4357532 20.0048873,24.5814124 C14.5859626,37.4590744 9.16703788,50.3367364 3.74783003,63.2143984 L0.00118923,72.1180502 C-0.00588952,72.134756 0.01704563,72.1438168 0.02808848,72.1469315 C5.69929983,73.8118535 11.3705112,75.4767755 17.0414394,77.1419806 C26.077039,79.7942467 35.1120724,82.4467959 44.1473889,85.0990619 C46.2160828,85.7067018 48.2844935,86.3137754 50.3529043,86.9211322 C50.3877317,86.9313256 50.4508742,86.9123545 50.4633328,86.8752619 C52.9369312,79.5184586 55.4110959,72.1619384 57.8849774,64.8054183 C61.8247265,53.0895207 65.7647588,41.3739063 69.7045079,29.6580088 L72.4046263,21.6287242 C72.4083072,21.6179645 72.3989633,21.6080543 72.3907519,21.6035239 C60.1312064,15.3246726 47.8716608,9.04582136 35.6123984,2.76697011 C33.8783878,1.87872856 32.1446604,0.990770165 30.4109329,0.102811765 C30.3707256,0.082141815 30.2452902,0.140187565 30.3022033,0.169635165" id="Fill-20" fill="#001827" mask="url(#mask-8)"></path>
                            </g>
                            <path d="M60.0414788,42.4526771 C60.1134788,42.4526771 60.3034788,42.3456771 60.1434788,42.3456771 C60.0714788,42.3456771 59.8814788,42.4526771 60.0414788,42.4526771" id="Fill-23" fill="#CB581F"></path>
                            <path d="M67.9367767,42.0964647 C68.0087767,42.0964647 68.1987767,41.9889647 68.0387767,41.9889647 C67.9667767,41.9889647 67.7767767,42.0964647 67.9367767,42.0964647" id="Fill-25" fill="#CB581F"></path>
                            <path d="M91.0084131,38.2941525 C91.0864131,38.2941525 91.2689131,38.1776525 91.1079131,38.1776525 C91.0299131,38.1776525 90.8474131,38.2941525 91.0084131,38.2941525" id="Fill-27" fill="#CB581F"></path>
                            <path d="M90.3119774,39.5209135 C90.4469774,39.5209135 90.4999774,39.3524135 90.3354774,39.3524135 C90.2009774,39.3524135 90.1474774,39.5209135 90.3119774,39.5209135" id="Fill-29" fill="#CB581F"></path>
                        </g>
                        <g id="familia" transform="translate(97.120450, 0.000000)">
                            <path d="M27.7745799,29.2534724 L27.2977553,33.2286152 L28.3035041,41.3114151 C28.3997751,42.1648292 27.7323906,42.9114958 26.8735966,42.9114958 C26.1450517,42.9114958 25.5314656,42.3669983 25.4448217,41.6432669 L24.5933897,35.3312871 L23.7136426,41.641568 C23.6250167,42.3624679 23.0128464,42.9041339 22.2865666,42.904417 L22.2831688,42.904417 C21.4218265,42.9049833 20.7530262,42.1535032 20.8535445,41.2978239 L21.9009163,33.2053969 L21.4546719,29.2240248 L21.1930413,25.6404784 L28.0155406,25.6373637 L27.7745799,29.2534724 Z" id="Fill-1" fill="#FFFFFF"></path>
                            <path d="M21.6567278,21.5662613 C21.6504985,23.2209899 22.9866833,24.5673682 24.6414119,24.5738806 C26.2958574,24.5801099 27.6425188,23.2439251 27.6487481,21.5891965 C27.6552605,19.9344679 26.3187925,18.5880896 24.6643471,18.5815772 C23.0096185,18.5753479 21.6629571,19.9115327 21.6567278,21.5662613" id="Fill-3" fill="#FFFFFF"></path>
                            <path d="M26.5890309,30.0346266 L33.3498034,25.5124379 C33.8835412,25.2406139 34.1055308,24.5947488 33.8518284,24.0525165 C33.5884989,23.4893312 32.9140356,23.2523346 32.3565132,23.5264238 L28.0155406,25.6373071" id="Fill-5" fill="#FFFFFF"></path>
                            <path d="M22.5671399,30.0346266 L15.8063674,25.5124379 C15.2726296,25.2406139 15.05064,24.5947488 15.3043424,24.0525165 C15.5676719,23.4893312 16.2421352,23.2523346 16.7999407,23.5264238 L21.193013,25.6404217" id="Fill-7" fill="#FFFFFF"></path>
                            <path d="M165.995753,26.3312794 C167.491918,26.3372256 168.709463,25.1287414 168.715126,23.6328599 C168.720789,22.1366953 167.512588,20.9191503 166.016706,20.9134873 C164.520542,20.9078243 163.302997,22.1160254 163.297334,23.6119068 C163.291671,25.1080714 164.499872,26.3253333 165.995753,26.3312794" id="Fill-9" fill="#FFFFFF"></path>
                            <g id="Group-13" transform="translate(157.148250, 24.506916)">
                                <mask id="mask-10" fill="white">
                                    <use xlink:href="#path-9"></use>
                                </mask>
                                <g id="Clip-12"></g>
                                <path d="M17.1755392,0.800833145 L17.1755392,0.800833145 C16.9371269,0.291729445 16.327505,0.077384895 15.823498,0.325424295 L11.8981895,2.7859978 L5.72976677,2.7888293 L1.51989257,0.639720795 C1.01560242,0.391681395 0.40569732,0.606025945 0.16785132,1.11512965 C-0.06178333,1.60554545 0.13897002,2.1896839 0.62145762,2.43517495 L5.94127982,6.0722367 L4.18971392,12.9321117 L6.31617042,12.9321117 L6.25104592,16.945763 C6.16043792,17.7190456 6.48889192,18.3986056 7.26783757,18.3983225 L7.27066907,18.3983225 C7.92729392,18.3980393 8.20478092,17.9081898 8.28519552,17.2566617 L8.67849087,12.9321117 L8.92369877,12.9321117 L9.29830622,17.2580774 C9.37617247,17.9121539 9.65507522,18.4045518 10.3139653,18.4045518 C11.0903626,18.4045518 11.417684,17.7295222 11.3304738,16.9579384 L11.2860192,12.9321117 L13.3915226,12.9321117 L11.6660065,6.17671905 L11.6807303,6.05553085 L11.6815798,6.044488 L16.7213666,2.12087845 C17.2041374,1.87510425 17.4048907,1.29124895 17.1755392,0.800833145" id="Fill-11" fill="#FFFFFF" mask="url(#mask-10)"></path>
                            </g>
                            <path d="M8.77479018,26.3312794 C10.2706716,26.3372256 11.4882166,25.1287414 11.4941628,23.6328599 C11.4998258,22.1366953 10.2916247,20.9191503 8.79546013,20.9134873 C7.29957868,20.9078243 6.08203368,22.1160254 6.07637068,23.6119068 C6.07042453,25.1080714 7.27862558,26.3253333 8.77479018,26.3312794" id="Fill-14" fill="#FFFFFF"></path>
                            <path d="M17.1025431,25.3077488 L17.1025431,25.3077488 C16.864414,24.7986451 16.254792,24.5843005 15.7505019,24.8323399 L11.8254766,27.2929134 L5.65705385,27.2957449 L1.4468965,25.1466364 C0.94260635,24.898597 0.3329844,25.1129416 0.09485525,25.6220453 C-0.13449625,26.1124611 0.0662571,26.6965995 0.5487447,26.9420906 L5.8685669,30.5791523 L4.11671785,37.4390274 L6.2434575,37.4390274 L6.17804985,41.4526786 C6.08744185,42.2259613 6.41589585,42.9055213 7.1948415,42.9052381 L7.197673,42.9052381 C7.85429785,42.904955 8.13178485,42.4151055 8.21219945,41.7635773 L8.6054948,37.4390274 L8.85098585,37.4390274 L9.22531015,41.7649931 C9.30345955,42.4190696 9.58207915,42.9114674 10.2409692,42.9114674 C11.0173665,42.9114674 11.3446879,42.2364378 11.2577608,41.4648541 L11.2133063,37.4390274 L13.3185265,37.4390274 L11.5930104,30.6836347 L11.6077342,30.5624465 L11.6085837,30.5514036 L16.6486537,26.6277941 C17.1311413,26.3820199 17.3318946,25.7981646 17.1025431,25.3077488" id="Fill-16" fill="#FFFFFF"></path>
                            <path d="M61.3799828,28.4272407 L56.0729024,28.4272407 C55.7750286,28.4272407 55.5329353,28.6956669 55.5329353,29.0272355 L55.5329353,31.2227806 C55.5329353,31.5543493 55.7750286,31.8227755 56.0729024,31.8227755 L61.3799828,31.8227755 C61.6787061,31.8227755 61.920233,31.5543493 61.920233,31.2227806 L61.920233,29.0272355 C61.920233,28.6956669 61.6787061,28.4272407 61.3799828,28.4272407" id="Fill-18" fill="#FFFFFF"></path>
                            <g id="Group-22" transform="translate(56.630000, 0.156016)">
                                <mask id="mask-12" fill="white">
                                    <use xlink:href="#path-11"></use>
                                </mask>
                                <g id="Clip-21"></g>
                                <path d="M53.5312913,15.2325073 C53.4718298,15.3556775 53.3472438,15.4338269 53.2099161,15.4338269 L34.8020514,15.4338269 C34.6046959,15.4338269 34.4447161,15.2738472 34.4447161,15.0764916 L34.3110693,3.69754259 C34.3110693,3.49990389 34.4704828,3.33964099 34.6681215,3.33964099 L44.7598706,3.42685119 C44.8691665,3.42685119 44.9736489,3.47696874 45.0404723,3.56304634 L53.4908009,14.8550683 C53.5757459,14.9626653 53.5913191,15.1084876 53.5312913,15.2325073 L53.5312913,15.2325073 Z M32.0767327,15.0764916 C32.0767327,15.2738472 31.9167529,15.4338269 31.7193974,15.4338269 L12.5818552,15.4338269 C12.4402802,15.4338269 12.3120132,15.3500145 12.2556664,15.2211813 C12.1981869,15.0912154 12.2219715,14.9408628 12.3176762,14.8363804 L21.8006529,3.42883324 C21.8683257,3.35493109 21.9634641,3.31160914 22.0653981,3.31160914 L31.7610204,3.29801794 C31.9592254,3.29801794 32.1186389,3.45799769 32.1186389,3.65507009 L32.0767327,15.0764916 Z M57.6208268,14.8482727 C57.6208268,14.8482727 47.4424337,2.34691709 45.8449014,1.42837849 C44.2476523,0.50927359 39.1356622,0.12702109 33.8636923,0.12702109 C28.5917225,0.12702109 21.4469985,0.48435639 20.2410627,1.69170799 C19.0348437,2.89821014 10.3868764,11.2689736 8.53111129,15.2242959 C8.26268509,15.7951263 4.30169974,15.5816312 2.39525079,15.5816312 C0.488235545,15.5816312 0.129201345,33.1281536 0.129201345,33.1281536 C0.047087845,33.3473117 0.078234345,33.5930859 0.211881145,33.7853447 C0.344961645,33.9767541 0.564686045,34.0914299 0.798567945,34.0914299 L7.77849859,34.0914299 C7.77849859,34.0662295 7.77425134,34.0430112 7.77425134,34.0169614 C7.77425134,28.2712816 12.4484915,23.5976077 18.1944545,23.5976077 C23.9392848,23.5976077 28.613525,28.2712816 28.613525,34.0169614 C28.613525,34.0430112 28.6104104,34.0662295 28.6104104,34.0914299 L43.9727136,34.0914299 C43.9727136,34.0662295 43.9684664,34.0430112 43.9684664,34.0169614 C43.9684664,28.2712816 48.6427066,23.5976077 54.3886695,23.5976077 C60.1334999,23.5976077 64.8077401,28.2712816 64.8077401,34.0169614 C64.8077401,34.0430112 64.8043423,34.0662295 64.8043423,34.0914299 L77.6120662,34.0914299 C78.006211,34.0914299 78.3264537,33.7714704 78.3264537,33.3767593 C78.3264537,33.3767593 79.5774104,23.3849621 77.7836551,20.0500214 C75.9890504,16.7139481 57.6208268,14.8482727 57.6208268,14.8482727 L57.6208268,14.8482727 Z" id="Fill-20" fill="#FFFFFF" mask="url(#mask-12)"></path>
                            </g>
                            <path d="M111.018754,37.7001483 C109.073514,37.7001483 107.490139,36.1184724 107.490139,34.1729488 C107.490139,32.2274251 109.073514,30.6451829 111.018754,30.6451829 C112.962862,30.6451829 114.545671,32.2274251 114.545671,34.1729488 C114.545671,36.1184724 112.962862,37.7001483 111.018754,37.7001483 M111.018754,25.433524 C106.199541,25.433524 102.278763,29.3540189 102.278763,34.1729488 C102.278763,38.9918786 106.199541,42.9115241 111.018754,42.9115241 C115.836835,42.9115241 119.75733,38.9918786 119.75733,34.1729488 C119.75733,29.3540189 115.836835,25.433524 111.018754,25.433524" id="Fill-23" fill="#FFFFFF"></path>
                            <path d="M74.8243696,37.7001483 C72.8791291,37.7001483 71.2960374,36.1184724 71.2960374,34.1729488 C71.2960374,32.2274251 72.8791291,30.6451829 74.8243696,30.6451829 C76.7687606,30.6451829 78.351286,32.2274251 78.351286,34.1729488 C78.351286,36.1184724 76.7687606,37.7001483 74.8243696,37.7001483 M74.8243696,25.4340903 C70.006006,25.4340903 66.0849448,29.3545852 66.0849448,34.1729488 C66.0849448,38.9918786 70.006006,42.9115241 74.8243696,42.9115241 C79.6418837,42.9115241 83.5629449,38.9918786 83.5629449,34.1729488 C83.5629449,29.3545852 79.6418837,25.4340903 74.8243696,25.4340903" id="Fill-25" fill="#FFFFFF"></path>
                            <path d="M134.442791,34.7415706 L121.400902,34.7415706 C121.422988,33.2298328 121.170418,31.8222941 121.170418,31.8222941 L135.132262,31.8222941 C135.132262,31.8222941 135.10423,34.7415706 134.442791,34.7415706" id="Fill-27" fill="#FFFFFF"></path>
                            <g id="Group-31" transform="translate(131.098450, 12.897766)">
                                <mask id="mask-14" fill="white">
                                    <use xlink:href="#path-13"></use>
                                </mask>
                                <g id="Clip-30"></g>
                                <path d="M27.8257451,11.0553652 L22.0588291,0.99221423 C21.8362732,0.53917423 21.3750218,0.25206013 20.8701654,0.25262643 L9.83241207,0.26310298 C9.33463437,0.26366928 8.87932917,0.54342148 8.65394177,0.98683438 L0.457032415,10.6187479 C0.050145865,11.4197793 0.290257065,12.3980625 1.02163352,12.919908 C1.92205052,13.5623753 3.18320062,13.2577059 3.69060542,12.2748923 L10.2087184,6.06229813 L10.9318835,12.955868 L9.23581502,27.4007653 C9.07300377,28.7862182 10.1560525,30.0029138 11.5505663,30.0023475 L11.5559461,30.0023475 C12.7318681,30.0017812 13.7231762,29.1245825 13.8670164,27.9574382 L15.2909778,16.3984057 L16.6704846,27.9602697 C16.8103607,29.1316612 17.8036509,30.0139566 18.9835369,30.0139566 C20.3740866,30.0139566 21.4548701,28.8043398 21.2988545,27.422851 L19.670742,12.993527 L20.4426089,6.10986733 L24.6097274,12.6633741 C25.0494594,13.5275479 26.0954155,13.8874315 26.9734636,13.4765809 C27.8854898,13.0504401 28.2694412,11.9586137 27.8257451,11.0553652" id="Fill-29" fill="#FFFFFF" mask="url(#mask-14)"></path>
                            </g>
                            <path d="M141.634631,6.55999088 C141.624438,9.23915618 143.787987,11.4196943 146.467152,11.4298877 C149.146601,11.4400811 151.326856,9.27653198 151.337332,6.59708353 C151.347526,3.91791823 149.183977,1.73766323 146.504528,1.72746983 C143.825363,1.71699328 141.644825,3.88082558 141.634631,6.55999088" id="Fill-32" fill="#FFFFFF"></path>
                            <path d="M50.414008,6.56622019 C50.4242014,9.24906644 48.2578208,11.4321529 45.5749745,11.4426295 C42.8924114,11.4528229 40.7090418,9.28615909 40.6985652,6.60359599 C40.6883718,3.92074974 42.8550356,1.73766324 45.5375987,1.72746984 C48.220445,1.71699329 50.4035315,3.88337394 50.414008,6.56622019" id="Fill-34" fill="#FFFFFF"></path>
                            <g id="Group-38" transform="translate(32.279100, 12.897766)" fill="#FFFFFF">
                                <path d="M0.403347175,10.9689479 L8.15542787,0.82311705 C8.42300462,0.47314365 8.83866882,0.26757675 9.27953337,0.26757675 L17.1921601,0.26757675 C17.6287774,0.26757675 18.0407607,0.4688964 18.3089037,0.81348995 L28.6127322,10.8783399 C29.1795985,11.607168 29.0451023,12.6582208 28.3128764,13.2208398 C27.6653123,13.7183344 26.7521536,13.6727472 26.1575386,13.1126765 L18.1528881,6.73868685 L20.6296011,17.4938565 L17.1743217,17.4938565 L17.522313,28.296029 C17.5511943,29.2207969 16.8121728,29.9875671 15.8871218,29.9923806 L15.885706,29.9923806 C15.0359729,29.9966279 14.322718,29.3527448 14.2406045,28.5066926 L13.3047938,18.5882312 L12.4012621,28.522549 C12.3222633,29.3646371 11.6177861,30.0093696 10.7723002,30.0139 C9.84271872,30.0187136 9.09378697,29.2525097 9.11983677,28.3234945 L9.42903657,17.5281176 L5.98564942,17.5295334 L8.37515227,6.78059305 L2.87722872,13.1851629 C2.28742727,13.7480651 1.37681688,13.8010142 0.725855025,13.3103152 L0.724156125,13.3091826 C-0.013449625,12.753076 -0.157289825,11.7028727 0.403347175,10.9689479" id="Fill-36"></path>
                            </g>
                        </g>
                    </g>
                </g>
            </g>
        </g>
    </g>
</svg>