<?xml version="1.0" encoding="UTF-8"?>
<svg width="11px" height="21px" viewBox="0 0 11 21" version="1.1" xmlns="http://www.w3.org/2000/svg" xmlns:xlink="http://www.w3.org/1999/xlink">
    <!-- Generator: Sketch 45.2 (43514) - http://www.bohemiancoding.com/sketch -->
    <title>Shape</title>
    <desc>Created with Sketch.</desc>
    <defs></defs>
    <g id="telas-principais" stroke="none" stroke-width="1" fill="none" fill-rule="evenodd">
        <g id="modal-login" transform="translate(-595.000000, -247.000000)" fill-rule="nonzero" fill="#FFFFFF">
            <g id="Btn-Filtrar" transform="translate(539.000000, 239.000000)">
                <g id="Group-16" transform="translate(56.000000, 8.000000)">
                    <g id="Group-18">
                        <path d="M6.37261937,6.78751426 L9.89057619,6.78751426 L9.64520667,9.85778532 L6.3725705,9.85778532 L6.3725705,20.5248356 L2.23891748,20.5248356 L2.23891748,9.85773645 L0.0327419996,9.85773645 L0.0327419996,6.78746539 L2.23891748,6.78746539 L2.23891748,4.72403525 C2.23891748,3.8162511 2.26286312,2.41274329 2.94927227,1.54371198 C3.67257725,0.624883506 4.66593042,0 6.37261937,0 C9.15436988,0 10.3273154,0.3807357 10.3273154,0.3807357 L9.77558824,3.52538486 C9.77558824,3.52538486 8.85675977,3.26955744 7.9987239,3.26955744 C7.14078578,3.26955744 6.37266824,3.5641377 6.37266824,4.39011573 L6.37266824,6.78751426 L6.37261937,6.78751426 Z" id="Shape"></path>
                    </g>
                </g>
            </g>
        </g>
    </g>
</svg>