<?xml version="1.0" encoding="UTF-8"?>
<svg width="16px" height="16px" viewBox="0 0 16 16" version="1.1" xmlns="http://www.w3.org/2000/svg" xmlns:xlink="http://www.w3.org/1999/xlink">
    <!-- Generator: Sketch 45.2 (43514) - http://www.bohemiancoding.com/sketch -->
    <title>Group</title>
    <desc>Created with Sketch.</desc>
    <defs></defs>
    <g id="telas-principais" stroke="none" stroke-width="1" fill="none" fill-rule="evenodd">
        <g id="modal-login" transform="translate(-601.000000, -312.000000)" fill-rule="nonzero" fill="#FFFFFF">
            <g id="Btn-Filtrar" transform="translate(539.000000, 239.000000)">
                <g id="Group-17" transform="translate(62.000000, 71.000000)">
                    <g id="iconfinder_2_939729" transform="translate(0.000000, 2.000000)">
                        <g id="Group">
                            <path d="M5.64071423,0.748767376 C3.7937547,1.3976991 2.1963843,2.7953982 1.29786345,4.54252208 C0.998356501,5.14153598 0.748767376,5.79046771 0.648931726,6.48931726 C0.29950695,8.13660549 0.549096076,9.93364719 1.29786345,11.4311819 C1.7970417,12.4295384 2.49589125,13.2781415 3.3944121,13.976991 C4.19309731,14.6259227 5.14153598,15.125101 6.18981031,15.3746901 C7.48767376,15.7241149 8.83545504,15.7241149 10.0834007,15.4246079 C11.2315106,15.1750188 12.3297028,14.6259227 13.2282236,13.7773197 C14.1766623,12.9287167 14.825594,11.8305245 15.1750188,10.5825789 C15.5743614,9.28471546 15.6242792,7.88701636 15.3746901,6.53923508 C12.9786345,6.53923508 10.5825789,6.53923508 8.18652331,6.53923508 C8.18652331,7.53759158 8.18652331,8.53594809 8.18652331,9.53430459 C9.58422241,9.53430459 10.9819215,9.53430459 12.3297028,9.53430459 C12.1799493,10.4827433 11.5809354,11.3812641 10.7822502,11.8804424 C10.283072,12.2298671 9.68405806,12.4295384 9.08504416,12.5293741 C8.48603026,12.6292097 7.83709853,12.6292097 7.23808463,12.5293741 C6.63907073,12.4295384 6.04005683,12.1300315 5.54087858,11.7806067 C4.74219338,11.2315106 4.09326166,10.3829076 3.7937547,9.43446894 C3.44432993,8.48603026 3.44432993,7.43775593 3.7937547,6.43939943 C4.04334383,5.79046771 4.39276861,5.14153598 4.89194686,4.64235773 C5.49096076,3.99342601 6.28964596,3.54416558 7.18816681,3.3944121 C7.93693419,3.24465863 8.68570156,3.24465863 9.43446894,3.49424775 C10.0334828,3.69391905 10.6324967,4.04334383 11.0817572,4.44268643 C11.5310176,3.99342601 12.0301958,3.49424775 12.4794563,3.04498733 C12.7290454,2.7953982 12.9786345,2.54580908 13.2282236,2.29621995 C12.5293741,1.64728823 11.6807711,1.09819215 10.7822502,0.748767376 C9.13496199,0.1996713 7.28800246,0.1996713 5.64071423,0.748767376 Z" id="Shape"></path>
                            <path d="M5.64071423,0.748767376 C7.28800246,0.1996713 9.13496199,0.1996713 10.7822502,0.798685201 C11.6807711,1.14810998 12.5293741,1.64728823 13.2282236,2.34613778 C12.9786345,2.5957269 12.7290454,2.84531603 12.4794563,3.09490515 C12.0301958,3.54416558 11.5310176,4.04334383 11.0817572,4.49260426 C10.6324967,4.04334383 10.0334828,3.69391905 9.43446894,3.54416558 C8.73561939,3.34449428 7.93693419,3.29457645 7.18816681,3.44432993 C6.33956378,3.64400123 5.54087858,4.09326166 4.89194686,4.69227556 C4.39276861,5.19145381 3.99342601,5.84038553 3.7937547,6.48931726 C2.94515168,5.84038553 2.14646648,5.19145381 1.29786345,4.54252208 C2.1963843,2.7953982 3.7937547,1.3976991 5.64071423,0.748767376 Z" id="Shape"></path>
                            <path d="M0.648931726,6.48931726 C0.798685201,5.84038553 0.998356501,5.19145381 1.29786345,4.54252208 C2.14646648,5.19145381 2.94515168,5.84038553 3.7937547,6.48931726 C3.44432993,7.43775593 3.44432993,8.48603026 3.7937547,9.48438676 C2.94515168,10.1333185 2.14646648,10.7822502 1.29786345,11.4311819 C0.549096076,9.88372936 0.29950695,8.13660549 0.648931726,6.48931726 Z" id="Shape"></path>
                            <path d="M8.13660549,6.53923508 C10.5326611,6.53923508 12.9287167,6.53923508 15.3247723,6.53923508 C15.5743614,7.88701636 15.5244436,9.28471546 15.125101,10.5825789 C14.7756762,11.7806067 14.1267445,12.8787989 13.1783058,13.7773197 C12.3796206,13.128388 11.5809354,12.5293741 10.7323324,11.8804424 C11.5310176,11.3313463 12.0801137,10.4827433 12.279785,9.53430459 C10.8820859,9.53430459 9.48438676,9.53430459 8.13660549,9.53430459 C8.13660549,8.53594809 8.13660549,7.53759158 8.13660549,6.53923508 Z" id="Shape"></path>
                            <path d="M1.29786345,11.4311819 C2.14646648,10.7822502 2.94515168,10.1333185 3.7937547,9.48438676 C4.09326166,10.4328254 4.74219338,11.2814285 5.54087858,11.8305245 C6.04005683,12.1799493 6.63907073,12.4295384 7.23808463,12.5792919 C7.83709853,12.6791276 8.43611244,12.6791276 9.08504416,12.5792919 C9.68405806,12.4794563 10.283072,12.2298671 10.7822502,11.9303602 C11.5809354,12.5792919 12.3796206,13.1783058 13.2282236,13.8272375 C12.3297028,14.6259227 11.2814285,15.1750188 10.0834007,15.4745258 C8.78553721,15.7740327 7.43775593,15.7740327 6.18981031,15.4246079 C5.19145381,15.1750188 4.24301513,14.6758406 3.3944121,14.0269088 C2.54580908,13.2781415 1.7970417,12.3796206 1.29786345,11.4311819 Z" id="Shape"></path>
                        </g>
                    </g>
                </g>
            </g>
        </g>
    </g>
</svg>