<?xml version="1.0" encoding="UTF-8"?>
<svg width="18px" height="11px" viewBox="0 0 18 11" version="1.1" xmlns="http://www.w3.org/2000/svg" xmlns:xlink="http://www.w3.org/1999/xlink">
    <!-- Generator: Sketch 45.2 (43514) - http://www.bohemiancoding.com/sketch -->
    <title>Combined Shape</title>
    <desc>Created with Sketch.</desc>
    <defs>
        <path d="M712.501708,30.5899112 C712.409519,30.523266 712.310363,30.4636021 712.204621,30.4120283 L704.115474,26.4666879 L704.115474,26.4666879 C703.122694,25.9824765 701.925355,26.3947532 701.441144,27.3875337 L701.441144,27.3875337 L701.441144,27.3875337 C700.956933,28.3803142 701.369209,29.5776527 702.36199,30.0618641 L708.742411,33.1738033 L705.301255,39.1340605 C704.74897,40.0906458 705.07672,41.3138266 706.033305,41.8661113 L706.033305,41.8661113 L706.033305,41.8661113 C706.989891,42.4183961 708.213071,42.0906458 708.765356,41.1340605 L713.265356,33.3398319 C713.817641,32.3832466 713.489891,31.1600658 712.533305,30.6077811 C712.522805,30.6017185 712.512272,30.595762 712.501708,30.5899112 Z" id="path-1"></path>
    </defs>
    <g id="telas-principais" stroke="none" stroke-width="1" fill="none" fill-rule="evenodd">
        <g id="coberturas" transform="translate(-1300.000000, -59.000000)">
            <g id="Group-39" transform="translate(601.000000, 29.000000)">
                <g id="Combined-Shape" transform="translate(707.385959, 34.199109) rotate(107.000000) translate(-707.385959, -34.199109) ">
                    <use fill="#6D3697" fill-rule="evenodd" xlink:href="#path-1"></use>
                    <path stroke="#FAFCFD" stroke-width="0.5" d="M712.380581,30.8086077 L712.355243,30.792514 C712.273784,30.7336257 712.186869,30.6815208 712.095028,30.6367268 L704.005882,26.6913864 C703.137199,26.2677015 702.089528,26.6284436 701.665843,27.4971265 C701.242158,28.3658094 701.6029,29.4134806 702.471583,29.8371656 L709.092963,33.0666286 L705.517761,39.2590605 C705.034512,40.0960726 705.321293,41.1663558 706.158305,41.649605 C706.995317,42.1328541 708.065601,41.8460726 708.54885,41.0090605 L713.04885,33.2148319 C713.532099,32.3778198 713.245317,31.3075366 712.408305,30.8242874 C712.394468,30.8163532 712.394468,30.8163532 712.380581,30.8086077 Z"></path>
                </g>
            </g>
        </g>
    </g>
</svg>