<?xml version="1.0" encoding="UTF-8"?>
<svg width="143px" height="73px" viewBox="0 0 143 73" version="1.1" xmlns="http://www.w3.org/2000/svg" xmlns:xlink="http://www.w3.org/1999/xlink">
    <!-- Generator: Sketch 45.2 (43514) - http://www.bohemiancoding.com/sketch -->
    <title>icon-auto-veiculo + icon-auto-veiculo copy + icon-info-explosao Mask</title>
    <desc>Created with Sketch.</desc>
    <defs>
        <rect id="path-1" x="0" y="0" width="142.443948" height="108.060926"></rect>
    </defs>
    <g id="Page-1" stroke="none" stroke-width="1" fill="none" fill-rule="evenodd">
        <g id="icon-auto-veiculo-+-icon-auto-veiculo-copy-+-icon-info-explosao-Mask" transform="translate(0.000000, -27.000000)">
            <mask id="mask-2" fill="white">
                <use xlink:href="#path-1"></use>
            </mask>
            <g id="Mask"></g>
            <g id="icon-auto-veiculo" mask="url(#mask-2)" fill-rule="nonzero" fill="#4D4E53">
                <g transform="translate(-40.932169, 27.833875)" id="Shape">
                    <path d="M107.511222,49.9004786 L105.474468,41.6261646 C104.456091,37.425359 101.528257,33.8610391 97.7093424,31.951582 L86.8890856,26.6051021 C85.6161142,25.9686164 84.47044,25.2048336 83.3247657,24.4410507 C82.4336857,23.8045651 81.6699029,22.9134851 81.1607143,21.895108 C75.0504517,8.52890833 61.8115492,0 47.2996753,0 L36.097527,0 C16.875659,0 0.836219432,15.6575481 0.454328014,34.8794162 L0.199733735,44.808593 C0.0724365957,48.8821015 1.60000227,52.7010157 4.40053933,55.5015527 C7.07377926,58.1747927 10.6380992,59.8296555 14.3297162,59.9569526 C15.4753905,66.4491067 21.2037617,71.286398 27.9505101,71.286398 C34.6972585,71.286398 40.2983326,66.4491067 41.571304,59.9569526 L70.4677546,59.9569526 C71.6134289,66.3218096 77.3418002,71.286398 84.0885485,71.286398 C90.8352969,71.286398 96.5636682,66.4491067 97.7093424,59.9569526 C100.764474,59.8296555 104.328794,57.9201984 106.238251,55.5015527 C107.511222,53.7193928 108.020411,51.6826386 107.511222,49.9004786 Z M27.9505101,67.4674838 C22.4767331,67.4674838 17.8940361,63.012084 17.8940361,57.4110098 C17.8940361,51.8099357 22.349436,47.3545358 27.9505101,47.3545358 C33.5515842,47.3545358 38.0069841,51.8099357 38.0069841,57.4110098 C38.0069841,63.012084 33.4242871,67.4674838 27.9505101,67.4674838 Z M83.9612514,67.4674838 C78.4874744,67.4674838 73.9047774,63.012084 73.9047774,57.4110098 C73.9047774,51.8099357 78.3601773,47.3545358 83.9612514,47.3545358 C89.5623255,47.3545358 94.0177254,51.8099357 94.0177254,57.4110098 C94.0177254,63.012084 89.5623255,67.4674838 83.9612514,67.4674838 Z M103.183119,53.0829071 C102.037445,54.6104728 99.7460967,55.8834442 97.8366396,56.0107413 C97.2001539,49.0093986 91.2171883,43.5356216 84.0885485,43.5356216 C76.9599087,43.5356216 70.9769432,49.0093986 70.3404575,56.0107413 L41.6986012,56.0107413 C41.0621155,49.0093986 35.0791499,43.5356216 27.9505101,43.5356216 C20.8218703,43.5356216 14.8389048,49.0093986 14.2024191,56.0107413 C11.5291791,55.8834442 8.98323635,54.7377699 7.07377926,52.7010157 C5.03702503,50.5369643 3.89135078,47.7364272 3.89135078,44.6812959 L4.14594505,34.752119 C4.52783647,17.6943024 18.9124132,3.81891418 36.097527,3.81891418 L47.2996753,3.81891418 C60.2839835,3.81891418 72.2499146,11.4567425 77.7236916,23.2953765 C78.4874744,24.9502393 79.6331487,26.3505078 81.1607143,27.368885 C82.4336857,28.2599649 83.8339543,29.1510449 85.2342228,29.7875306 L96.0544796,35.1340105 C98.9823138,36.534279 101.019068,39.2075189 101.910148,42.3899474 L103.946902,50.6642614 C104.074199,51.5553414 103.819605,52.3191243 103.183119,53.0829071 Z M46.0267039,8.27431406 L35.5883385,8.27431406 C34.3153671,8.27431406 33.0423957,8.40161119 31.6421271,8.65620547 C22.9859217,10.3110683 13.1840419,17.8215995 11.6564763,27.368885 L11.5291791,28.3872621 C11.401882,28.8964506 11.6564763,29.5329363 11.9110706,29.9148277 C12.1656648,30.2967192 12.8021505,30.5513134 13.3113391,30.5513134 L71.9953203,30.5513134 C72.631806,30.5513134 73.1409946,30.2967192 73.522886,29.7875306 C73.9047774,29.278342 74.0320745,28.6418563 73.7774803,28.0053706 C69.7039718,16.2940338 58.5018235,8.27431406 46.0267039,8.27431406 Z M32.40591,12.4751197 C33.4242871,12.2205254 34.5699613,12.2205254 35.5883385,12.2205254 L38.2615784,12.2205254 L38.2615784,26.7323993 L15.7299847,26.7323993 C17.5121447,19.6037595 25.5318645,13.748091 32.40591,12.4751197 Z M42.0804926,26.7323993 L42.0804926,12.0932282 L46.0267039,12.0932282 C55.9558808,12.0932282 64.9939776,17.9488966 69.3220804,26.7323993 L42.0804926,26.7323993 Z"></path>
                </g>
            </g>
            <g id="icon-auto-veiculo-copy" mask="url(#mask-2)" fill-rule="nonzero" fill="#4D4E53">
                <g transform="translate(128.557474, 63.833875) scale(-1, 1) translate(-128.557474, -63.833875) translate(74.557474, 27.833875)" id="Shape">
                    <path d="M107.511222,49.9004786 L105.474468,41.6261646 C104.456091,37.425359 101.528257,33.8610391 97.7093424,31.951582 L86.8890856,26.6051021 C85.6161142,25.9686164 84.47044,25.2048336 83.3247657,24.4410507 C82.4336857,23.8045651 81.6699029,22.9134851 81.1607143,21.895108 C75.0504517,8.52890833 61.8115492,0 47.2996753,0 L36.097527,0 C16.875659,0 0.836219432,15.6575481 0.454328014,34.8794162 L0.199733735,44.808593 C0.0724365957,48.8821015 1.60000227,52.7010157 4.40053933,55.5015527 C7.07377926,58.1747927 10.6380992,59.8296555 14.3297162,59.9569526 C15.4753905,66.4491067 21.2037617,71.286398 27.9505101,71.286398 C34.6972585,71.286398 40.2983326,66.4491067 41.571304,59.9569526 L70.4677546,59.9569526 C71.6134289,66.3218096 77.3418002,71.286398 84.0885485,71.286398 C90.8352969,71.286398 96.5636682,66.4491067 97.7093424,59.9569526 C100.764474,59.8296555 104.328794,57.9201984 106.238251,55.5015527 C107.511222,53.7193928 108.020411,51.6826386 107.511222,49.9004786 Z M27.9505101,67.4674838 C22.4767331,67.4674838 17.8940361,63.012084 17.8940361,57.4110098 C17.8940361,51.8099357 22.349436,47.3545358 27.9505101,47.3545358 C33.5515842,47.3545358 38.0069841,51.8099357 38.0069841,57.4110098 C38.0069841,63.012084 33.4242871,67.4674838 27.9505101,67.4674838 Z M83.9612514,67.4674838 C78.4874744,67.4674838 73.9047774,63.012084 73.9047774,57.4110098 C73.9047774,51.8099357 78.3601773,47.3545358 83.9612514,47.3545358 C89.5623255,47.3545358 94.0177254,51.8099357 94.0177254,57.4110098 C94.0177254,63.012084 89.5623255,67.4674838 83.9612514,67.4674838 Z M103.183119,53.0829071 C102.037445,54.6104728 99.7460967,55.8834442 97.8366396,56.0107413 C97.2001539,49.0093986 91.2171883,43.5356216 84.0885485,43.5356216 C76.9599087,43.5356216 70.9769432,49.0093986 70.3404575,56.0107413 L41.6986012,56.0107413 C41.0621155,49.0093986 35.0791499,43.5356216 27.9505101,43.5356216 C20.8218703,43.5356216 14.8389048,49.0093986 14.2024191,56.0107413 C11.5291791,55.8834442 8.98323635,54.7377699 7.07377926,52.7010157 C5.03702503,50.5369643 3.89135078,47.7364272 3.89135078,44.6812959 L4.14594505,34.752119 C4.52783647,17.6943024 18.9124132,3.81891418 36.097527,3.81891418 L47.2996753,3.81891418 C60.2839835,3.81891418 72.2499146,11.4567425 77.7236916,23.2953765 C78.4874744,24.9502393 79.6331487,26.3505078 81.1607143,27.368885 C82.4336857,28.2599649 83.8339543,29.1510449 85.2342228,29.7875306 L96.0544796,35.1340105 C98.9823138,36.534279 101.019068,39.2075189 101.910148,42.3899474 L103.946902,50.6642614 C104.074199,51.5553414 103.819605,52.3191243 103.183119,53.0829071 Z M46.0267039,8.27431406 L35.5883385,8.27431406 C34.3153671,8.27431406 33.0423957,8.40161119 31.6421271,8.65620547 C22.9859217,10.3110683 13.1840419,17.8215995 11.6564763,27.368885 L11.5291791,28.3872621 C11.401882,28.8964506 11.6564763,29.5329363 11.9110706,29.9148277 C12.1656648,30.2967192 12.8021505,30.5513134 13.3113391,30.5513134 L71.9953203,30.5513134 C72.631806,30.5513134 73.1409946,30.2967192 73.522886,29.7875306 C73.9047774,29.278342 74.0320745,28.6418563 73.7774803,28.0053706 C69.7039718,16.2940338 58.5018235,8.27431406 46.0267039,8.27431406 Z M32.40591,12.4751197 C33.4242871,12.2205254 34.5699613,12.2205254 35.5883385,12.2205254 L38.2615784,12.2205254 L38.2615784,26.7323993 L15.7299847,26.7323993 C17.5121447,19.6037595 25.5318645,13.748091 32.40591,12.4751197 Z M42.0804926,26.7323993 L42.0804926,12.0932282 L46.0267039,12.0932282 C55.9558808,12.0932282 64.9939776,17.9488966 69.3220804,26.7323993 L42.0804926,26.7323993 Z"></path>
                </g>
            </g>
            <g id="icon-info-explosao" mask="url(#mask-2)" fill-rule="nonzero" fill="#4D4E53">
                <g transform="translate(66.896613, 49.578991) rotate(38.000000) translate(-66.896613, -49.578991) translate(49.396613, 34.578991)" id="Shape">
                    <path d="M0.501372224,27.5631023 C0.165872967,27.842685 0.109956424,28.4018505 0.389539139,28.7373497 C0.669121853,29.072849 1.22828728,29.1287655 1.56378654,28.8491828 L5.47794454,25.5501068 C5.47794454,25.5501068 5.53386108,25.4941902 5.53386108,25.4941902 C5.92527688,25.1027744 6.09302651,24.6554421 6.09302651,24.1521932 C6.09302651,23.6489443 5.92527688,23.201612 5.53386108,22.8101962 L2.73803394,20.0702856 L6.93177466,19.287454 C7.93827243,19.1197043 8.5533544,18.1691231 8.38560477,17.2185419 L6.9876912,8.99881008 L12.0201801,12.9129681 C12.4115959,13.2484673 12.9707613,13.3603004 13.5299267,13.3043839 C13.5858433,13.3043839 13.6417598,13.3043839 13.6417598,13.2484673 C14.2009252,13.0807177 14.592341,12.6893019 14.7600907,12.2419696 L18.4505825,3.74265505 L20.0721622,13.1366343 C20.1280788,13.6957997 20.5194946,14.1990486 21.07866,14.4786313 C21.6378254,14.758214 22.3647405,14.7022975 22.8679894,14.3108817 L26.5584812,11.7387207 L26.1111489,17.0507923 C26.1111489,17.0507923 26.1111489,17.1067088 26.1111489,17.1067088 C26.1111489,17.5540411 26.2788985,18.0013735 26.5025647,18.3368727 C26.5025647,18.3927893 26.5584812,18.3927893 26.5584812,18.4487058 C26.8939805,18.7842051 27.3413128,19.0078713 27.9004782,19.0078713 C27.9004782,19.0078713 27.9004782,19.0078713 27.9004782,19.0078713 L31.8146362,18.8960382 L28.0682279,23.7048609 C27.7886452,24.0962767 27.6208955,24.6554421 27.7327286,25.1027744 C27.8445617,25.6060233 28.1241444,26.0533557 28.5714768,26.2770218 L32.8770506,28.9610159 C32.9888836,29.072849 33.1566333,29.072849 33.3243829,29.072849 C33.6039656,29.072849 33.8835483,28.9610159 34.051298,28.6814332 C34.2749641,28.2900174 34.163131,27.7867685 33.7717152,27.5071858 L29.4661414,24.8231917 C29.4661414,24.8231917 29.4102249,24.7672752 29.4102249,24.7672752 C29.4102249,24.7113586 29.4102249,24.6554421 29.4661414,24.6554421 L34.2749641,18.4487058 C34.4986303,18.1691231 34.4986303,17.8336239 34.3308807,17.5540411 C34.163131,17.2744584 33.8835483,17.0507923 33.5480491,17.1067088 L27.8445617,17.2744584 C27.7886452,17.2744584 27.7886452,17.2744584 27.7327286,17.2744584 C27.7327286,17.2185419 27.6768121,17.1626253 27.6768121,17.1626253 L28.2359775,10.1171409 C28.2359775,9.78164168 28.1241444,9.50205897 27.7886452,9.33430934 C27.5090624,9.16655971 27.1735632,9.16655971 26.8939805,9.39022588 L21.7496585,13.0807177 C21.7496585,13.0807177 21.693742,13.0807177 21.693742,13.1366343 C21.5819089,13.0807177 21.5819089,13.0248012 21.5819089,13.0248012 L19.4570803,0.83499482 C19.4011637,0.44357902 19.121581,0.163996305 18.7301652,0.163996305 C18.506499,-0.00375332329 18.1709998,0.219912848 18.0032501,0.555412106 L13.1944275,11.6268876 C13.1944275,11.6268876 13.1385109,11.6268876 13.1385109,11.6828041 L13.1385109,11.6828041 C13.0825944,11.6828041 13.0266778,11.6828041 13.0266778,11.6268876 L6.26077614,6.37073257 C5.98119343,6.14706639 5.58977763,6.14706639 5.31019491,6.31481602 C5.0306122,6.48256565 4.86286257,6.81806491 4.91877911,7.15356417 L6.76402503,17.4981246 C6.76402503,17.6099577 6.70810849,17.6099577 6.65219194,17.6658742 L0.836871482,18.7842051 C0.557288767,18.8401216 0.277706053,19.0637878 0.165872967,19.3433705 C0.0540398812,19.6229532 0.165872967,19.9584525 0.389539139,20.1821187 L4.35961368,24.0403601 C4.35961368,24.0403601 4.41553023,24.0962767 4.41553023,24.1521932 C4.41553023,24.1521932 4.41553023,24.2081097 4.35961368,24.2640263 L0.501372224,27.5631023 Z M26.8939805,22.58653 C26.7262308,22.2510307 26.334815,22.0832811 25.9993158,22.1951142 L22.8679894,22.8101962 L23.2034886,19.8466194 C23.2594052,19.5111201 23.0916556,19.2315374 22.8120728,19.0637878 C22.5324901,18.8960382 22.1969909,18.8960382 21.9174082,19.0637878 L19.5129968,20.5176179 L18.3387494,14.9259636 C18.2828329,14.5904644 17.9473336,14.3108817 17.6118343,14.2549651 C17.2204185,14.2549651 16.8849193,14.4227147 16.7730862,14.758214 L14.8160072,19.7347863 L11.908347,17.330375 C11.6287643,17.1067088 11.2373485,17.0507923 10.9577657,17.2744584 C10.678183,17.4422081 10.5104334,17.7777073 10.5663499,18.1132066 L11.293265,22.9779458 L8.66518749,22.9220293 C8.32968823,22.9220293 8.05010551,23.0897789 7.88235589,23.4252781 C7.71460626,23.7048609 7.7705228,24.0962767 7.99418897,24.3199428 L10.0071845,26.7243542 L7.93827243,28.3459339 C7.54685663,28.6255166 7.49094009,29.1287655 7.7705228,29.5201813 C8.05010551,29.9115971 8.5533544,29.9675137 8.9447702,29.687931 L11.1255154,28.0104347 C11.4050981,27.7867685 11.6287643,27.4512692 11.7405973,27.0598534 C11.7405973,27.0039369 11.7405973,26.9480203 11.7405973,26.8361873 C11.7405973,26.4447715 11.6287643,26.1092722 11.4610146,25.8296895 C11.4610146,25.8296895 11.4050981,25.7737729 11.4050981,25.7737729 L10.4545169,24.6554421 L11.293265,24.6554421 C11.7405973,24.6554421 12.1879297,24.4876925 12.4675124,24.1521932 C12.8589282,23.7607774 12.9148447,23.2575285 12.9148447,22.9779458 C12.9148447,22.9220293 12.9148447,22.8661127 12.9148447,22.8661127 L12.4675124,20.014369 L13.865426,21.1326999 C14.2568418,21.4122826 14.7600907,21.5241157 15.1515065,21.4122826 C15.4870057,21.3563661 15.9343381,21.1326999 16.2139208,20.5176179 C16.2139208,20.5176179 16.2139208,20.4617014 16.2698373,20.4617014 L17.2763351,17.8895404 L17.8914171,20.8531172 C18.0032501,21.3563661 18.3387494,21.8036984 18.7860817,21.971448 C19.2334141,22.1951142 19.8484961,22.1391977 20.2399119,21.8596149 L21.3023262,21.244533 L21.1345766,22.6424465 C21.1345766,22.6983631 21.1345766,22.6983631 21.1345766,22.7542796 C21.1345766,23.0897789 21.1904931,23.5371112 21.6378254,23.9844436 C21.9733247,24.3199428 22.5324901,24.4876925 23.035739,24.4317759 L23.8744872,24.2640263 L22.4765736,25.8296895 C22.0851578,26.2211053 22.0292412,26.7243542 22.0292412,27.0039369 C22.0292412,27.0598534 22.0292412,27.11577 22.0292412,27.2276031 C22.1410743,27.6190189 22.3647405,27.9545181 22.7002398,28.2341008 C22.7002398,28.2341008 22.7561563,28.2341008 22.7561563,28.2900174 L25.0487346,29.7438475 C25.2164842,29.8556806 25.3283173,29.8556806 25.4960669,29.8556806 C25.7756496,29.8556806 26.0552323,29.7438475 26.222982,29.4642648 C26.4466481,29.072849 26.334815,28.5696001 25.9433992,28.2900174 L23.7626541,26.8921038 L26.8380639,23.5371112 C27.0617301,23.3134451 27.0617301,22.9220293 26.8939805,22.58653 Z"></path>
                </g>
            </g>
        </g>
    </g>
</svg>