<?xml version="1.0" encoding="UTF-8"?>
<svg width="24px" height="13px" viewBox="0 0 24 13" version="1.1" xmlns="http://www.w3.org/2000/svg" xmlns:xlink="http://www.w3.org/1999/xlink">
    <!-- Generator: Sketch 45.2 (43514) - http://www.bohemiancoding.com/sketch -->
    <title>Fill 2</title>
    <desc>Created with Sketch.</desc>
    <defs></defs>
    <g id="Page-1" stroke="none" stroke-width="1" fill="none" fill-rule="evenodd">
        <g id="Artboard" transform="translate(-353.000000, -15.000000)" fill="#FFFFFF">
            <g id="Group-8" transform="translate(282.000000, 15.000000)">
                <path d="M89.5644732,11.018593 C89.068128,11.018593 88.6642862,10.6144518 88.6642862,10.1178072 C88.6642862,9.62206066 89.068128,9.2185182 89.5644732,9.2185182 C90.0605191,9.2185182 90.4640615,9.62206066 90.4640615,10.1178072 C90.4640615,10.6144518 90.0605191,11.018593 89.5644732,11.018593 Z M80.8335269,4.92534143 L80.8335269,2.3511118 C80.8335269,2.3511118 81.8552557,2.29243649 82.665933,2.47504843 C85.1784936,3.04114544 86.4789301,4.92534143 86.4789301,4.92534143 L80.8335269,4.92534143 Z M79.8085051,4.92534143 L78.0521375,4.92534143 L75.1581873,4.19399558 C75.1581873,4.19399558 74.8591228,4.06437103 74.9665945,3.63568202 C75.0381424,3.35038828 75.1539962,3.05072508 75.1539962,3.05072508 C75.2009963,2.96750194 75.3081686,2.70166685 75.5261055,2.63520808 C76.6813505,2.28315621 79.8085051,2.3511118 79.8085051,2.3511118 L79.8085051,4.92534143 Z M75.9577881,11.018593 C75.4614429,11.018593 75.0576011,10.6144518 75.0576011,10.1178072 C75.0576011,9.62206066 75.4614429,9.2185182 75.9577881,9.2185182 C76.453834,9.2185182 76.8573764,9.62206066 76.8573764,10.1178072 C76.8573764,10.6144518 76.453834,11.018593 75.9577881,11.018593 Z M93.8328028,6.00185378 C92.9427941,5.44533641 90.1048249,4.7765576 88.2128455,4.50802824 C88.2128455,4.50802824 85.0180346,1.10515951 82.3225626,0.92943294 C79.7797662,0.763884738 75.3901943,0.642642385 72.9821116,1.37219205 C72.6156902,1.48325604 72.3142309,1.77453705 72.0645614,2.17209222 C71.9699625,2.32237287 72.6998115,2.48372998 72.6192826,2.66035464 C72.2046637,3.57251625 71.4900822,5.09627818 71.3341137,6.05454182 C70.9766732,8.25277047 71.000323,9.11883005 71.000323,9.11883005 C71.000323,9.11883005 71.1140812,10.5623625 73.2539339,10.5623625 C73.2811761,10.5623625 73.323087,10.5623625 73.3763738,10.5623625 C73.588024,11.7987351 74.6615427,12.7402344 75.9577881,12.7402344 C77.2534348,12.7402344 78.3272529,11.7987351 78.5386038,10.5623625 C81.2224005,10.5623625 84.4336764,10.5623625 86.9830588,10.5623625 C87.1944097,11.7987351 88.2682278,12.7402344 89.5644732,12.7402344 C90.887362,12.7402344 91.9788425,11.7589197 92.1572634,10.4842285 C93.0751129,10.3665785 94.5467855,10.1076288 94.6231233,9.64990149 C94.734786,8.98232014 94.7225121,6.55777243 93.8328028,6.00185378 L93.8328028,6.00185378 Z" id="Fill-2"></path>
            </g>
        </g>
    </g>
</svg>