<?xml version="1.0" encoding="UTF-8"?>
<svg width="33px" height="43px" viewBox="0 0 33 43" version="1.1" xmlns="http://www.w3.org/2000/svg" xmlns:xlink="http://www.w3.org/1999/xlink">
    <!-- Generator: Sketch 45.2 (43514) - http://www.bohemiancoding.com/sketch -->
    <title>Page 1</title>
    <desc>Created with Sketch.</desc>
    <defs>
        <path d="M21.1386907,29.0468582 L21.1386907,36.0389 C21.1386907,36.8002377 21.3943983,37.5222357 21.8583746,38.0706765 C22.8673206,39.2670643 24.3737972,40.4611379 26.4564838,41.7142211 C28.5391705,40.4611379 30.0444901,39.2670643 31.053436,38.0718336 C31.5185694,37.5210787 31.774277,36.7990806 31.774277,36.0389 L31.77312,29.0468582 L29.3606746,28.3803985 C27.4608016,27.8550986 25.4521661,27.8550986 23.551136,28.3803985 L21.1386907,29.0468582 Z M26.4564838,43.058711 L26.1625936,42.8851538 C23.8137859,41.5013242 22.1163963,40.1707189 20.9743898,38.8169726 C20.3345422,38.0602631 19.9816426,37.073301 19.9816426,36.0389 L19.9816426,28.1651875 L23.2433612,27.2650041 C25.3468747,26.6841659 27.5684071,26.6841659 29.6684494,27.2650041 L32.9301681,28.1651875 L32.9313251,36.0389 C32.9313251,37.072144 32.5795825,38.059106 31.9374208,38.8181296 C30.7965714,40.1707189 29.0991818,41.5013242 26.7503741,42.8851538 L26.4564838,43.058711 Z" id="path-1"></path>
        <polygon id="path-2" points="26.0132187 5.28039555 22.1949599 5.28039555 22.1949599 1.46213674 23.352008 1.46213674 23.352008 4.12334743 26.0132187 4.12334743"></polygon>
        <polygon id="path-3" points="18.1172909 36.3402203 0.000231409625 36.3402203 0.000231409625 0.041306618 23.4559109 0.041306618 27.0346608 3.62005646 27.0346608 24.5973389 25.8776127 24.5973389 25.8776127 4.09907438 22.976893 1.19835474 1.15727953 1.19835474 1.15727953 35.1831722 18.1172909 35.1831722"></polygon>
    </defs>
    <g id="Page-1" stroke="none" stroke-width="1" fill="none" fill-rule="evenodd">
        <g id="Selecionados" transform="translate(-454.000000, -59.000000)">
            <g id="Confirmação" transform="translate(427.000000, 39.000000)">
                <g id="Page-1" transform="translate(27.000000, 20.000000)">
                    <g id="Fill-1">
                        <use fill="#FFFFFF" fill-rule="evenodd" xlink:href="#path-1"></use>
                        <path stroke="#4A90E2" stroke-width="0.2" d="M21.0386907,29.0468582 L21.1120622,28.9504688 L23.5245018,28.2840107 C25.4429639,27.7538939 27.4700144,27.7538939 29.3873031,28.284009 L31.7997484,28.9504688 L31.87312,29.0468417 L31.874277,36.0389 C31.874277,36.8226678 31.610253,37.5675032 31.1298504,38.1363382 C30.1116407,39.342543 28.5967329,40.5432094 26.5080384,41.7999073 L26.4049293,41.7999073 C24.3142611,40.5420219 22.7991962,39.341399 21.7820299,38.1352635 C21.3025502,37.568497 21.0386907,36.8235556 21.0386907,36.0389 L21.0386907,29.0468582 Z M26.4564839,42.9425753 L26.6996127,42.7989953 C29.0399971,41.4201284 30.7285931,40.0962124 31.8610778,38.7535406 C32.4870039,38.0137072 32.8313251,37.0500222 32.8313251,36.0389147 L32.8301793,28.2413307 L29.6417919,27.3613855 C27.559187,26.7853703 25.356066,26.7853703 23.2699651,27.3614003 L20.0816426,28.2413276 L20.0816426,36.0389 C20.0816426,37.0497133 20.4262141,38.0138026 21.050825,38.7524926 C22.1842953,40.09612 23.8728112,41.4200345 26.2134437,42.7990476 L26.4564839,42.9425753 Z"></path>
                    </g>
                    <polygon id="Fill-3" fill="#FFFFFF" points="25.8867533 36.3037483 23.9452266 34.3622216 24.7632596 33.5441886 25.8867533 34.6676823 28.1487824 32.4056532 28.9668155 33.2236862"></polygon>
                    <g id="Fill-5">
                        <use fill="#FFFFFF" fill-rule="evenodd" xlink:href="#path-2"></use>
                        <path stroke="#4A90E2" stroke-width="0.2" d="M25.9132187,5.18039555 L25.9132187,4.22334743 L23.352008,4.22334743 L23.252008,4.12334743 L23.252008,1.56213674 L22.2949599,1.56213674 L22.2949599,5.18039555 L25.9132187,5.18039555 Z"></path>
                    </g>
                    <g id="Group-9" transform="translate(0.000000, 0.248278)">
                        <g id="Fill-7">
                            <use fill="#FEFFFF" fill-rule="evenodd" xlink:href="#path-3"></use>
                            <path stroke="#4A90E2" stroke-width="0.1" d="M18.0695492,36.2902203 L18.1172909,35.2331722 L1.10727953,35.1831722 L1.15727953,1.14835474 L23.0122484,1.1629994 L25.9276127,4.09907438 L25.8776127,24.5473389 L26.9846608,24.5973389 L26.9993055,3.6554118 L23.4559109,0.091306618 L0.0502314096,0.041306618 L0.000231409625,36.2902203 L18.0695492,36.2902203 Z"></path>
                        </g>
                    </g>
                    <polygon id="Fill-10" stroke="#4A90E2" stroke-width="0.6" fill="#FFFFFF" points="3.81710176 14.2640333 23.2161706 14.2640333 23.2161706 13.1069852 3.81710176 13.1069852"></polygon>
                    <polygon id="Fill-12" stroke="#4A90E2" stroke-width="0.6" fill="#FFFFFF" points="3.81710176 19.2328298 23.2161706 19.2328298 23.2161706 18.0757817 3.81710176 18.0757817"></polygon>
                    <polygon id="Fill-13" stroke="#4A90E2" stroke-width="0.6" fill="#FFFFFF" points="3.81710176 24.2016263 23.2161706 24.2016263 23.2161706 23.0445782 3.81710176 23.0445782"></polygon>
                    <polygon id="Fill-15" stroke="#4A90E2" stroke-width="0.6" fill="#FFFFFF" points="3.8182588 9.29523683 13.5177932 9.29523683 13.5177932 8.13818871 3.8182588 8.13818871"></polygon>
                </g>
            </g>
        </g>
    </g>
</svg>