<?xml version="1.0" encoding="UTF-8"?>
<svg width="35px" height="43px" viewBox="0 0 35 43" version="1.1" xmlns="http://www.w3.org/2000/svg" xmlns:xlink="http://www.w3.org/1999/xlink">
    <!-- Generator: Sketch 45.2 (43514) - http://www.bohemiancoding.com/sketch -->
    <title>Page 1</title>
    <desc>Created with Sketch.</desc>
    <defs>
        <polygon id="path-1" points="34.8033538 42.1680765 34.8033538 0.029723413 3.79535455e-05 0.029723413 3.79535455e-05 42.1680765 34.8033538 42.1680765"></polygon>
        <path d="M1.34722386,1.96870687 L1.27272973,28.1418559 C1.2713722,28.5800816 1.44106271,28.9922599 1.75049336,29.3026238 C2.059924,29.6129029 2.47159318,29.7837812 2.90981892,29.7837812 C3.81257243,29.7837812 4.54699295,29.0493607 4.54699295,28.1466921 L4.54699295,11.1673748 C4.54699295,9.5517515 5.86141564,8.23741366 7.47703898,8.23741366 L24.3897527,8.23741366 L24.3897527,1.97159161 L22.3791747,3.54394387 C22.1489046,3.72407034 21.8254745,3.72407034 21.5952045,3.54394387 L18.9482871,1.47388934 L16.3012848,3.54394387 C16.0710997,3.72407034 15.7475847,3.72407034 15.5173147,3.54394387 L12.8703973,1.47388934 L10.223395,3.54394387 C9.993125,3.72415519 9.66969489,3.72407034 9.43942487,3.54394387 L6.79250746,1.47388934 L4.14550521,3.54394387 C3.91532003,3.72407034 3.59180507,3.72407034 3.36153505,3.54394387 L1.34722386,1.96870687 Z M18.91927,38.0841077 C19.0740278,38.0841077 19.2287855,38.1402752 19.3506233,38.2525255 L21.968863,40.6662881 L24.5871027,38.2525255 C24.8307783,38.0279401 25.2060489,38.0279401 25.4497244,38.2525255 L28.0679641,40.6662881 L30.6862039,38.2525255 C30.9298794,38.0279401 31.30515,38.0279401 31.5488256,38.2525255 L33.5307259,40.0796681 L33.5307259,11.7437287 C33.5307259,10.5121149 32.5287034,9.51009248 31.2970048,9.51009248 L9.8920743,9.51009248 C10.2167771,9.98174725 10.4070002,10.5527558 10.4070002,11.1673748 L10.4070002,40.0796681 L12.3889005,38.2525255 C12.632576,38.0279401 13.0078466,38.0279401 13.2515222,38.2525255 L15.8697619,40.6662881 L18.4880016,38.2525255 C18.6098394,38.1402752 18.7645971,38.0841077 18.91927,38.0841077 L18.91927,38.0841077 Z M34.1671501,42.1680491 C34.0103561,42.168134 33.8555983,42.1100998 33.735712,41.9996313 L31.1174723,39.5858687 L28.4993174,41.9996313 C28.255557,42.2242167 27.8803713,42.2242167 27.6366957,41.9996313 L25.018456,39.5858687 L22.4001314,41.9996313 C22.1564559,42.2242167 21.7811853,42.2242167 21.5375097,41.9996313 L18.91927,39.5858687 L16.3011152,41.9996313 C16.0573547,42.2242167 15.682169,42.2242167 15.4384934,41.9996313 L12.8202537,39.5858687 L10.202014,41.9996313 C10.0162029,42.1709339 9.74664954,42.2159019 9.51527653,42.1145966 C9.28381867,42.0132066 9.13432133,41.7843789 9.13432133,41.5317097 L9.13432133,11.1673748 C9.13432133,10.2535066 8.39090721,9.51009248 7.47703898,9.51009248 C6.56317074,9.51009248 5.81967177,10.2535066 5.81967177,11.1673748 L5.81967177,28.1466921 C5.81967177,29.7511158 4.51432753,31.0564601 2.90981892,31.0564601 C2.13093948,31.0564601 1.399234,30.7527141 0.849267061,30.2012199 C0.299384966,29.6497257 -0.00223991472,28.917087 5.09071528e-05,28.1382075 L0.078278232,0.664295921 C0.078956994,0.421299112 0.218018366,0.199852997 0.436664588,0.0937115838 C0.655225964,-0.0124298298 0.915191824,0.015144878 1.10660272,0.164896752 L3.75352013,2.23495128 L6.40052238,0.164896752 C6.63070756,-0.0152297232 6.95422252,-0.0152297232 7.18449254,0.164896752 L9.83140995,2.23495128 L12.4784122,0.164896752 C12.7086822,-0.0153145685 13.0321123,-0.0152297232 13.2623824,0.164896752 L15.9092998,2.23495128 L18.556302,0.164896752 C18.7864872,-0.0152297232 19.1100022,-0.0152297232 19.3402722,0.164896752 L21.9871896,2.23495128 L24.634107,0.164896752 C24.8257724,0.0148903422 25.0861625,-0.0125995203 25.3049784,0.0941358101 C25.5237095,0.200786295 25.6624315,0.422741481 25.6624315,0.666077672 L25.6624315,8.23741366 L31.2970048,8.23741366 C33.2304585,8.23741366 34.8034047,9.81035984 34.8034047,11.7437287 L34.8034047,41.5317097 C34.8034047,41.7843789 34.6539073,42.0132066 34.4224495,42.1145966 C34.3403193,42.150571 34.2534377,42.1680491 34.1671501,42.1680491 L34.1671501,42.1680491 Z" id="path-3"></path>
    </defs>
    <g id="Page-1" stroke="none" stroke-width="1" fill="none" fill-rule="evenodd">
        <g id="Selecionados" transform="translate(-336.000000, -57.000000)">
            <g id="Cotação" transform="translate(313.000000, 39.000000)">
                <g id="Group">
                    <g id="Page-1" transform="translate(23.000000, 18.000000)">
                        <g id="Group-3" transform="translate(0.000000, 0.055149)">
                            <mask id="mask-2" fill="white">
                                <use xlink:href="#path-1"></use>
                            </mask>
                            <g id="Clip-2"></g>
                            <g id="Fill-1" mask="url(#mask-2)">
                                <use fill="#FFFFFF" fill-rule="evenodd" xlink:href="#path-3"></use>
                                <path stroke="#4A90E2" stroke-width="0.1" d="M1.29722406,1.96856456 L1.37802496,1.92932042 L3.39234147,3.50456157 C3.60451236,3.67053019 3.90260607,3.67053019 4.11470375,3.50455769 L6.82330953,1.43450365 L9.47023128,3.50456157 C9.6824415,3.67056094 9.98044913,3.67058377 10.1925936,3.50455769 L12.9011993,1.43450365 L15.5481211,3.50456157 C15.760292,3.67053019 16.0583857,3.67053019 16.2704834,3.50455769 L18.9790892,1.43450365 L21.6260109,3.50456157 C21.838183,3.6705311 22.1361962,3.6705311 22.3483731,3.50455774 L24.4397527,1.97159161 L24.3897527,8.28741366 L7.47703898,8.28741366 C5.88901328,8.28741366 4.59699295,9.57938234 4.59699295,11.1673748 L4.59699295,28.1466921 C4.59699295,29.0769885 3.84017313,29.8337812 2.90981892,29.8337812 C2.45832805,29.8337812 2.03391473,29.65763 1.71508482,29.3379259 C1.39624736,29.0181267 1.22133139,28.5931802 1.22272993,28.1417136 L1.29722406,1.96856456 Z M18.91927,38.1341077 C18.7729423,38.1341077 18.631484,38.1883194 18.5218923,38.2892872 L15.8358712,40.7030498 L13.2176363,38.2892917 C12.9931057,38.0823514 12.6473169,38.0823514 12.4227914,38.289287 L10.3570002,40.0796681 L10.3570002,11.1673748 C10.3570002,10.5780211 10.1787149,10.0146347 9.8920743,9.46009248 L31.2970048,9.46009248 C32.5563042,9.46009248 33.5807259,10.4844873 33.5807259,11.7437287 L33.4968349,40.1164295 L31.5149397,38.2892917 C31.2904091,38.0823514 30.9446203,38.0823514 30.7200945,38.2892872 L28.0340734,40.7030498 L25.4158386,38.2892917 C25.191308,38.0823514 24.8455191,38.0823514 24.6209934,38.2892872 L21.9349723,40.7030498 L19.3167444,38.289298 C19.2071333,38.1883123 19.0656728,38.1341077 18.91927,38.1341077 Z M34.1671231,42.1180492 L34.1671501,42.1180491 C34.2478488,42.1180491 34.3277674,42.1014828 34.4023874,42.068798 C34.6156263,41.9753887 34.7534047,41.7645561 34.7534047,41.5317097 L34.7534047,11.7437287 C34.7534047,9.83796113 33.2028313,8.28741366 31.2970048,8.28741366 L25.6124315,8.23741366 L25.6124315,0.666077672 C25.6124315,0.441862828 25.4846142,0.237350857 25.2830579,0.139074567 C25.0814527,0.0407343832 24.8415354,0.0660463646 24.6649091,0.204282443 L21.9563875,2.27433697 L19.3094658,0.204279044 C19.0972949,0.0383104313 18.7992012,0.0383104313 18.5871035,0.204282923 L15.8784977,2.27433697 L13.2315759,0.204279044 C13.0193657,0.0382796776 12.7213581,0.0382568453 12.5092137,0.204282923 L9.80060788,2.27433697 L7.15368612,0.204279044 C6.94151523,0.0383104313 6.64342152,0.0383104313 6.43132384,0.204282923 L3.72271806,2.27433697 L1.07579342,0.204276791 C0.899451119,0.0663139493 0.659920195,0.0408747162 0.458500101,0.138691694 C0.25705153,0.23648454 0.128903498,0.440520337 0.128278029,0.664438287 L0.0500506909,28.1383546 C0.047799058,28.9039098 0.344146421,29.623804 0.884671388,30.1659136 C1.42528867,30.7080321 2.14426838,31.0064601 2.90981892,31.0064601 C4.48670038,31.0064601 5.76967177,29.7235145 5.76967177,28.1466921 L5.76967177,11.1673748 C5.76967177,10.2259077 6.53554114,9.46009248 7.47703898,9.46009248 C8.41852145,9.46009248 9.18432133,10.2258924 9.18432133,11.1673748 L9.18432133,41.5317097 C9.18432133,41.7645561 9.32209968,41.9753887 9.53533069,42.0687946 C9.74862094,42.1621824 9.99698498,42.1206451 10.1681233,41.9628696 L12.8541444,39.549107 L15.4723793,41.9628651 C15.6969109,42.1698064 16.0426195,42.1698064 16.2672239,41.9628702 L18.9531607,39.549107 L21.5713955,41.9628651 C21.7959262,42.1698054 22.141715,42.1698054 22.3662413,41.9628691 L25.0523467,39.549107 L27.6705815,41.9628651 C27.8951132,42.1698064 28.2408218,42.1698064 28.4654261,41.9628702 L31.151363,39.549107 L33.7695936,41.9628612 C33.8785612,42.0632688 34.0205715,42.1181285 34.1671231,42.1180492 Z"></path>
                            </g>
                        </g>
                        <path d="M9.7706862,31.1116095 L2.90984437,31.1116095 C2.55841532,31.1116095 2.27350496,30.8266991 2.27350496,30.4752701 C2.27350496,30.123841 2.55841532,29.8389307 2.90984437,29.8389307 L9.7706862,29.8389307 C10.1221152,29.8389307 10.4070256,30.123841 10.4070256,30.4752701 C10.4070256,30.8266991 10.1221152,31.1116095 9.7706862,31.1116095" id="Fill-4" stroke="#4A90E2" stroke-width="0.3" fill="#FFFFFF"></path>
                        <path d="M22.2264108,31.1116095 C22.2026541,31.1116095 22.1792368,31.1115246 22.1554801,31.1111853 L22.0092918,31.1094035 C20.7733509,31.0941314 19.610377,30.6872135 18.734774,29.9635683 C17.8194634,29.207088 17.3226096,28.1980234 17.3358455,27.1221856 C17.3401726,26.7734716 17.6242345,26.4937368 17.9720152,26.4937368 C17.9747302,26.4937368 17.9773604,26.4937368 17.9799906,26.4937368 C18.3314197,26.4981488 18.6127665,26.7864529 18.6084394,27.137882 C18.6000397,27.821056 18.9328028,28.4761462 19.5454704,28.9825027 C20.1979304,29.5217791 21.0785393,29.8251009 22.025073,29.8368095 L22.1712614,29.8385913 C24.0745101,29.8646388 25.6352386,28.6894471 25.6532258,27.2247635 L25.6535652,27.2011765 C25.6619648,26.5180025 25.3292017,25.8629123 24.7165342,25.3565559 C24.064159,24.8173643 23.1835501,24.5139576 22.2369316,24.5023338 C19.6332004,24.4701775 17.5366742,22.6815547 17.5634004,20.5151159 C17.5901267,18.3481681 19.7311967,16.6102828 22.3338249,16.6439663 L22.4796739,16.6457481 C23.7158692,16.6610202 24.8788431,17.0679381 25.7544462,17.7914984 C26.6697568,18.5479787 27.1666106,19.5571282 27.1532899,20.632966 C27.1489628,20.984395 26.8592162,21.2633662 26.5091447,21.2614148 C26.1577157,21.2570877 25.8763688,20.9686987 25.8806959,20.6172696 C25.8891804,19.9340108 25.5564173,19.2789206 24.9436649,18.7725641 C24.2912049,18.2333725 23.4106808,17.9300507 22.4640623,17.9183421 L22.3182133,17.9165603 C22.2994625,17.9163906 22.2807117,17.9163058 22.2621306,17.9163058 C20.3854384,17.9163058 18.8538119,19.0800433 18.8359944,20.5303881 C18.8179224,21.9954959 20.3506519,23.2062377 22.252628,23.2297399 C23.4887385,23.2449272 24.6517124,23.6519298 25.5273154,24.3754902 C26.442626,25.1319705 26.939395,26.1411199 26.9261591,27.2168729 L26.9258197,27.2404599 C26.899348,29.3870448 24.7977311,31.1114398 22.2264108,31.1116095" id="Fill-6" stroke="#4A90E2" stroke-width="0.3" fill="#FFFFFF"></path>
                        <path d="M22.0613952,33.7786776 C22.0586802,33.7786776 22.05605,33.7786776 22.0534198,33.7786776 C21.7019907,33.7742657 21.4206439,33.4858767 21.424971,33.1345325 L21.4578061,30.4661492 C21.4622181,30.1147202 21.7534918,29.8303189 22.1019513,29.8377004 C22.4533803,29.8421124 22.7347272,30.1304165 22.7304001,30.4818456 L22.697565,33.150144 C22.6932379,33.4989428 22.4091759,33.7786776 22.0613952,33.7786776" id="Fill-8" stroke="#4A90E2" stroke-width="0.3" fill="#FFFFFF"></path>
                        <path d="M22.2656008,17.4015157 C22.2631403,17.4015157 22.2607646,17.4015157 22.2583041,17.4015157 C21.9068751,17.397528 21.6251888,17.1094783 21.6291765,16.7580493 L21.6522545,14.7035214 C21.6561573,14.3545529 21.9403041,14.0743939 22.2883393,14.0743939 C22.2907998,14.0743939 22.2931755,14.0743939 22.295636,14.0743939 C22.6470651,14.0783816 22.9287513,14.3664312 22.9248484,14.7178603 L22.9017705,16.7723033 C22.8977828,17.1212718 22.6137209,17.4015157 22.2656008,17.4015157" id="Fill-10" stroke="#4A90E2" stroke-width="0.3" fill="#FFFFFF"></path>
                    </g>
                </g>
            </g>
        </g>
    </g>
</svg>