<svg xmlns="http://www.w3.org/2000/svg" xmlns:xlink="http://www.w3.org/1999/xlink" viewBox="0 0 36.83 31.91"><defs><style>.cls-1,.cls-2,.cls-4{fill:#cad4db;}.cls-1{clip-rule:evenodd;}.cls-3{isolation:isolate;}.cls-4{fill-rule:evenodd;}.cls-5{clip-path:url(#clip-path);}.cls-6{clip-path:url(#clip-path-2);}</style><clipPath id="clip-path"><path class="cls-1" d="M14.43,20.05,9.75,15.83a2.85,2.85,0,0,0-4,.21A2.81,2.81,0,0,0,5,18.09a2.78,2.78,0,0,0,.94,2l6.78,6.12a2.78,2.78,0,0,0,1.9.74A2.86,2.86,0,0,0,16.74,26h0a2.86,2.86,0,0,0,.4-.38l14-15.86A2.85,2.85,0,0,0,28.8,5a2.77,2.77,0,0,0-1.95,1Z"/></clipPath><clipPath id="clip-path-2"><rect class="cls-2" x="5" y="5" width="27" height="22"/></clipPath></defs><title>Ativo 1</title><g id="Camada_2" data-name="Camada 2"><g id="Camada_1-2" data-name="Camada 1"><g class="cls-3"><path class="cls-4" d="M14.43,20.05,9.75,15.83a2.85,2.85,0,0,0-4,.21A2.81,2.81,0,0,0,5,18.09a2.78,2.78,0,0,0,.94,2l6.78,6.12a2.78,2.78,0,0,0,1.9.74A2.86,2.86,0,0,0,16.74,26h0a2.86,2.86,0,0,0,.4-.38l14-15.86A2.85,2.85,0,0,0,28.8,5a2.77,2.77,0,0,0-1.95,1Z"/><g class="cls-5"><rect class="cls-2" x="5" y="5" width="27" height="22"/><g class="cls-6"><rect class="cls-2" width="36.83" height="31.91"/></g></g></g></g></g></svg>