<?xml version="1.0" encoding="UTF-8"?>
<svg width="77px" height="27px" viewBox="0 0 77 27" version="1.1" xmlns="http://www.w3.org/2000/svg" xmlns:xlink="http://www.w3.org/1999/xlink">
    <!-- Generator: Sketch 45.2 (43514) - http://www.bohemiancoding.com/sketch -->
    <title>vivo-logo-1</title>
    <desc>Created with Sketch.</desc>
    <defs></defs>
    <g id="telas-principais" stroke="none" stroke-width="1" fill="none" fill-rule="evenodd">
        <g id="home" transform="translate(-1266.000000, -725.000000)" fill="#660099">
            <g id="Group-12" transform="translate(-9.000000, 697.000000)">
                <g id="vivo-logo-1" transform="translate(1275.000000, 28.000000)">
                    <path d="M71.8351718,4.84640079 C71.8373497,5.7806508 71.5104046,7.23918995 70.4858592,8.27028512 C70.2074665,8.55215495 69.8982301,8.80179227 69.5639905,9.01448229 C69.0833929,9.32832549 68.7338676,9.54677853 68.9304749,10.0696104 C69.1227149,10.5815181 69.7169063,10.4213205 70.2812425,10.2924307 C70.4625584,10.248014 73.9993137,9.39094817 74.0444603,9.38876568 C74.9914903,9.20796716 75.9136981,9.8023714 76.1401525,10.7395333 L76.4292354,11.9373829 C76.6567054,12.874757 76.1104561,13.826136 75.1862416,14.1022523 C75.1461898,14.1197284 71.2810298,15.0619879 71.2744777,15.0634452 C70.5404725,15.2527705 70.1108506,15.619772 70.1137629,16.3304718 C70.1137629,16.6472297 70.2979912,16.9916556 70.5244536,17.2770986 C70.5244536,17.2770986 74.739139,22.4886612 74.7602572,22.5294358 C75.3321416,23.3061346 75.1961684,24.3945572 74.4507813,25.0066934 L73.4968727,25.7858429 C72.7513451,26.3961091 71.6577583,26.3124059 71.0137905,25.5957877 C70.9795633,25.5666624 68.3617714,22.3575866 68.0843331,22.0160731 C67.8068995,21.676742 67.4581017,21.1582821 66.9731368,21.1604669 C66.4910865,21.1604669 66.1444712,21.6818414 65.8677651,22.0226275 C65.5917865,22.3648709 62.988556,25.5870508 62.956516,25.6154487 C62.3160814,26.335611 61.2227653,26.4253846 60.4734338,25.8193379 C60.4654244,25.812056 59.5195229,25.0452879 59.5166106,25.0445604 C58.7690041,24.4358017 58.6270913,23.3490883 59.1932983,22.5687601 C59.2136891,22.5279832 63.4043438,17.2953045 63.4043438,17.2953045 C63.6286238,17.0091317 63.811397,16.6632485 63.8106672,16.3464907 C63.8077549,15.6357908 63.3788583,15.2709765 62.6426728,15.0852886 C62.6361184,15.0852886 58.7665888,14.1605053 58.7272669,14.1437567 C57.8016333,13.8719941 57.2504421,12.9234845 57.4726192,11.9847142 C57.4740789,11.9737902 57.7544224,10.7883196 57.7558797,10.7846775 C57.9780894,9.84689727 58.8965557,9.24803815 59.8442901,9.42299048 C59.8879793,9.42299048 63.4298294,10.2662176 63.6118752,10.3091793 C64.1762114,10.4344247 64.7733174,10.5931697 64.9619153,10.0798046 C65.1548804,9.55551776 64.8053551,9.33851972 64.3233048,9.02759114 C63.9876175,8.81674004 63.6768905,8.56854841 63.3970642,8.28776127 C62.3674217,7.26321821 62.0331878,5.80467906 62.0310053,4.87042905 C62.0251783,2.19073956 64.2490283,0.0134934507 66.9214382,0.00621152837 C69.5938457,-0.00107039392 71.8286174,2.1667113 71.834442,4.84640079 L71.8351718,4.84640079 Z M6.88983932,21.0505129 C6.67866821,21.0505129 5.86893582,20.939829 5.42329191,20.1249998 L0.224840182,10.8880817 C-0.308184945,9.9094127 0.319503087,9.07928978 0.875829903,8.87321578 L2.25863683,8.25208147 C3.00210511,7.91857731 3.8970339,8.27101494 4.23199537,9.05088958 L7.49276928,15.6255966 L7.54155723,15.6255966 L10.8067012,9.05088958 C11.1416627,8.27174243 12.0351335,7.91857731 12.7800581,8.25208147 L14.1628662,8.87321578 C14.7184655,9.07928978 15.346152,9.9094127 14.8131259,10.8880817 L9.61467394,20.1249998 C9.32063287,20.6686744 8.7640172,21.0193204 8.1466727,21.049783 L6.89056751,21.049783 L6.88983932,21.0505129 Z M29.7312801,21.0505129 C29.1140025,21.0197939 28.5576182,20.6688436 28.2640041,20.1249998 L23.0648251,10.8880817 C22.5310692,9.9094127 23.1602153,9.07928978 23.7165421,8.87321578 L25.0986222,8.25208147 C25.8428171,7.91857731 26.7355603,8.27101494 27.0719791,9.05088958 L30.3342108,15.6255966 L30.3822696,15.6255966 L33.6466838,9.05088958 C33.9823751,8.27174243 34.8758482,7.91857731 35.6200431,8.25208147 L37.0028507,8.87321578 C37.5584477,9.07928978 38.1868639,9.9094127 37.65457,10.8880817 L32.4553887,20.1249998 C32.1616724,20.6689792 31.6048644,21.0197459 30.9873851,21.049783 L29.73201,21.049783 L29.7312801,21.0505129 Z M44.9873059,8.17052534 C48.5728452,8.17052534 51.4760848,11.0832317 51.4760848,14.6745979 C51.4760848,18.268149 48.5728452,21.1815828 44.9880334,21.1815828 C41.405404,21.1815828 38.4999819,18.268149 38.4999819,14.6745979 C38.4999819,11.0839592 41.405404,8.17052534 44.9880334,8.17052534 L44.9873059,8.17052534 Z M21.4788558,4.46774778 C21.4788558,5.87604097 20.3399891,7.0163673 18.9360632,7.0163673 C18.2607142,7.01598145 17.6132111,6.74718016 17.1361457,6.26915824 C16.6590802,5.79113633 16.3915763,5.14309619 16.3925431,4.46774778 C16.3925431,3.05945691 17.5314098,1.91913058 18.9360632,1.91913058 C19.6112262,1.91990253 20.2584297,2.18885057 20.7352959,2.6668091 C21.2121621,3.14476764 21.4796286,3.79258473 21.4788558,4.46774778 L21.4788558,4.46774778 Z M44.9880334,17.2436036 C46.4045613,17.2411923 47.5510416,16.0911264 47.5490296,14.6745979 C47.5502377,13.2587553 46.4038751,12.1097844 44.9880334,12.1077748 C44.3080421,12.1085469 43.6562082,12.3794132 43.1759281,12.860786 C42.6956481,13.3421589 42.4262639,13.9946066 42.4270371,14.6745979 C42.4258777,15.3549081 42.6950682,16.0078046 43.1753692,16.4896077 C43.6556702,16.9714108 44.3077228,17.2426387 44.9880334,17.2436036 L44.9880334,17.2436036 Z M16.723135,9.87737039 C16.723135,9.00865768 17.4243681,8.30450993 18.2909006,8.30450993 L19.6030738,8.30450993 C20.4696017,8.30450993 21.1715647,9.00865768 21.1715647,9.87737039 L21.1715647,19.4783799 C21.1715647,20.3470926 20.4696017,21.0505129 19.6030738,21.0505129 L18.2909006,21.0505129 C17.8743378,21.0501278 17.4750214,20.8841295 17.1809453,20.5890972 C16.8868692,20.294065 16.7221678,19.894212 16.723135,19.4776501 L16.723135,9.87809789 L16.723135,9.87737039 Z" id="path2"></path>
                </g>
            </g>
        </g>
    </g>
</svg>