<?xml version="1.0" encoding="UTF-8"?>
<svg width="45px" height="32px" viewBox="0 0 45 32" version="1.1" xmlns="http://www.w3.org/2000/svg" xmlns:xlink="http://www.w3.org/1999/xlink">
    <!-- Generator: Sketch 45.2 (43514) - http://www.bohemiancoding.com/sketch -->
    <title>Page 1</title>
    <desc>Created with Sketch.</desc>
    <defs>
        <polygon id="path-1" points="0 31.9100707 44.674099 31.9100707 44.674099 0 0 0"></polygon>
    </defs>
    <g id="Page-1" stroke="none" stroke-width="1" fill="none" fill-rule="evenodd">
        <g id="Selecionados" transform="translate(-569.000000, -63.000000)">
            <g id="Pagamento" transform="translate(551.000000, 39.000000)">
                <g id="Page-1" transform="translate(18.000000, 24.000000)">
                    <path d="M43.61043,27.6553946 C43.61043,29.4178942 42.1819225,30.8464017 40.4194229,30.8464017 L4.25467609,30.8464017 C2.49217652,30.8464017 1.06366902,29.4178942 1.06366902,27.6553946 L1.06366902,4.25467609 C1.06366902,2.49217652 2.49217652,1.06366902 4.25467609,1.06366902 L40.4194229,1.06366902 C42.1819225,1.06366902 43.61043,2.49217652 43.61043,4.25467609 L43.61043,27.6553946 Z" id="Stroke-1" stroke="#FFFFFF" stroke-width="0.8" stroke-linejoin="round"></path>
                    <mask id="mask-2" fill="white">
                        <use xlink:href="#path-1"></use>
                    </mask>
                    <g id="Clip-4"></g>
                    <path d="M7.44568317,18 L11.7003593,18" id="Stroke-5" stroke="#FFFFFF" stroke-width="0.7" stroke-linecap="round" stroke-linejoin="round" mask="url(#mask-2)"></path>
                    <path d="M7.44568317,23 L18.0823734,23" id="Stroke-6" stroke="#FFFFFF" stroke-width="0.4" stroke-linecap="round" stroke-linejoin="round" mask="url(#mask-2)"></path>
                    <path d="M1.29004539,5.26666665 L43.7968354,5.26666665" id="Stroke-7" stroke="#FFFFFF" stroke-width="0.4" stroke-linecap="round" stroke-linejoin="round" mask="url(#mask-2)"></path>
                    <path d="M1.29004539,9.26666667 L43.7968354,9.26666667" id="Stroke-7" stroke="#FFFFFF" stroke-width="0.8" stroke-linecap="round" stroke-linejoin="round" mask="url(#mask-2)"></path>
                    <path d="M15.9550354,18 L20.2097115,18" id="Stroke-8" stroke="#FFFFFF" stroke-width="0.7" stroke-linecap="round" stroke-linejoin="round" mask="url(#mask-2)"></path>
                    <path d="M24.4643875,18 L28.7190636,18" id="Stroke-9" stroke="#FFFFFF" stroke-width="0.7" stroke-linecap="round" stroke-linejoin="round" mask="url(#mask-2)"></path>
                    <path d="M32.9737397,18 L37.2284158,18" id="Stroke-10" stroke="#FFFFFF" stroke-width="0.7" stroke-linecap="round" stroke-linejoin="round" mask="url(#mask-2)"></path>
                </g>
            </g>
        </g>
    </g>
</svg>