<?xml version="1.0" encoding="UTF-8"?>
<svg width="11px" height="17px" viewBox="0 0 11 17" version="1.1" xmlns="http://www.w3.org/2000/svg" xmlns:xlink="http://www.w3.org/1999/xlink">
    <!-- Generator: Sketch 45.2 (43514) - http://www.bohemiancoding.com/sketch -->
    <title>Combined Shape</title>
    <desc>Created with Sketch.</desc>
    <defs>
        <path d="M11.7184029,4.352965 C11.6262139,4.2863198 11.5270575,4.22665587 11.4213155,4.17508207 L3.33216909,0.229741747 L3.33216909,0.229741747 C2.3393886,-0.254469651 1.1420501,0.157807056 0.657838699,1.15058755 L0.657838699,1.15058755 L0.657838699,1.15058755 C0.173627301,2.14336804 0.585904008,3.34070653 1.5786845,3.82491793 L7.95910531,6.93685709 L4.51794919,12.8971143 C3.96566444,13.8536996 4.29341475,15.0768804 5.25,15.6291651 L5.25,15.6291651 L5.25,15.6291651 C6.20658525,16.1814499 7.42976606,15.8536996 7.98205081,14.8971143 L12.4820508,7.10288568 C13.0343356,6.14630044 12.7065852,4.92311963 11.75,4.37083488 C11.7394993,4.36477232 11.7289666,4.3588158 11.7184029,4.352965 Z" id="path-1"></path>
    </defs>
    <g id="Page-1" stroke="none" stroke-width="1" fill="none" fill-rule="evenodd">
        <g id="Artboard" transform="translate(-1098.000000, -728.000000)">
            <g id="Group-5" transform="translate(256.000000, 727.000000)">
                <g id="bt" transform="translate(726.000000, 0.000000)">
                    <g id="Group-12" transform="translate(120.332335, 10.456463) rotate(17.000000) translate(-120.332335, -10.456463) translate(113.832335, 2.456463)">
                        <g id="Combined-Shape">
                            <use fill="#5A2781" fill-rule="evenodd" xlink:href="#path-1"></use>
                            <path stroke="#FAFCFD" stroke-width="0.5" d="M11.5972755,4.57166147 L11.5719375,4.55556778 C11.4904784,4.49667947 11.4035641,4.44457462 11.3117227,4.39978058 L3.2225763,0.454440258 C2.35389337,0.0307552849 1.30622218,0.391497404 0.882537211,1.26018033 C0.458852237,2.12886326 0.819594356,3.17653445 1.68827728,3.60021942 L8.30965775,6.82968245 L4.73445554,13.0221143 C4.25120639,13.8591264 4.53798791,14.9294096 5.375,15.4126588 C6.21201209,15.8959079 7.2822953,15.6091264 7.76554446,14.7721143 L12.2655445,6.97788568 C12.7487936,6.14087359 12.4620121,5.07059038 11.625,4.58734123 C11.6111629,4.57940703 11.6111629,4.57940703 11.5972755,4.57166147 Z"></path>
                        </g>
                    </g>
                </g>
            </g>
        </g>
    </g>
</svg>