<?xml version="1.0" encoding="UTF-8"?>
<svg width="18px" height="12px" viewBox="0 0 18 12" version="1.1" xmlns="http://www.w3.org/2000/svg" xmlns:xlink="http://www.w3.org/1999/xlink">
    <!-- Generator: Sketch 45.2 (43514) - http://www.bohemiancoding.com/sketch -->
    <title>Group 12</title>
    <desc>Created with Sketch.</desc>
    <defs>
        <ellipse id="path-1" cx="15.5454102" cy="12.5" rx="15.5454102" ry="12.5"></ellipse>
    </defs>
    <g id="Page-1" stroke="none" stroke-width="1" fill="none" fill-rule="evenodd">
        <g id="Group-12" transform="translate(-4.000000, -7.000000)">
            <mask id="mask-2" fill="white">
                <use xlink:href="#path-1"></use>
            </mask>
            <g id="Mask"></g>
            <g mask="url(#mask-2)" id="Combined-Shape" fill="#E3E6EB">
                <g transform="translate(12.500000, 12.000000) rotate(108.000000) translate(-12.500000, -12.000000) translate(6.000000, 4.000000)">
                    <path d="M11.7184029,4.352965 C11.6262139,4.2863198 11.5270575,4.22665587 11.4213155,4.17508207 L3.33216909,0.229741747 L3.33216909,0.229741747 C2.3393886,-0.254469651 1.1420501,0.157807056 0.657838699,1.15058755 L0.657838699,1.15058755 L0.657838699,1.15058755 C0.173627301,2.14336804 0.585904008,3.34070653 1.5786845,3.82491793 L7.95910531,6.93685709 L4.51794919,12.8971143 C3.96566444,13.8536996 4.29341475,15.0768804 5.25,15.6291651 L5.25,15.6291651 L5.25,15.6291651 C6.20658525,16.1814499 7.42976606,15.8536996 7.98205081,14.8971143 L12.4820508,7.10288568 C13.0343356,6.14630044 12.7065852,4.92311963 11.75,4.37083488 C11.7394993,4.36477232 11.7289666,4.3588158 11.7184029,4.352965 Z"></path>
                </g>
            </g>
        </g>
    </g>
</svg>