<?xml version="1.0" encoding="UTF-8"?>
<svg width="12px" height="18px" viewBox="0 0 12 18" version="1.1" xmlns="http://www.w3.org/2000/svg" xmlns:xlink="http://www.w3.org/1999/xlink">
    <!-- Generator: Sketch 45.2 (43514) - http://www.bohemiancoding.com/sketch -->
    <title>Combined Shape</title>
    <desc>Created with Sketch.</desc>
    <defs>
        <path d="M11.8680213,5.10641291 C11.7758322,5.03976771 11.6766758,4.98010378 11.5709339,4.92852997 L3.48178746,0.98318965 L3.48178746,0.98318965 C2.48900697,0.498978252 1.29166847,0.911254959 0.80745707,1.90403545 L0.80745707,1.90403545 L0.80745707,1.90403545 C0.323245671,2.89681594 0.735522379,4.09415444 1.72830287,4.57836584 L8.10872368,7.69030499 L4.66756756,13.6505622 C4.11528281,14.6071475 4.44303312,15.8303283 5.39961837,16.382613 L5.39961837,16.382613 L5.39961837,16.382613 C6.35620362,16.9348978 7.57938443,16.6071475 8.13166918,15.6505622 L12.6316692,7.85633359 C13.1839539,6.89974834 12.8562036,5.67656753 11.8996184,5.12428278 C11.8891177,5.11822022 11.8785849,5.11226371 11.8680213,5.10641291 Z" id="path-1"></path>
    </defs>
    <g id="Page-1" stroke="none" stroke-width="1" fill="none" fill-rule="evenodd">
        <g id="Artboard" transform="translate(-258.000000, -729.000000)">
            <g id="Group-5" transform="translate(256.000000, 727.000000)">
                <g id="bt">
                    <g id="Group-12" transform="translate(9.411258, 10.739999) rotate(-165.000000) translate(-9.411258, -10.739999) translate(2.911258, 2.239999)">
                        <g id="Combined-Shape">
                            <use fill="#C6B6D4" fill-rule="evenodd" xlink:href="#path-1"></use>
                            <path stroke="#FAFCFD" stroke-width="0.5" d="M11.7468938,5.32510938 L11.7215559,5.30901568 C11.6400968,5.25012738 11.5531825,5.19802252 11.4613411,5.15322848 L3.37219467,1.20788816 C2.50351174,0.784203188 1.45584055,1.14494531 1.03215558,2.01362824 C0.608470608,2.88231116 0.969212727,3.92998235 1.83789566,4.35366732 L8.45927612,7.58313036 L4.88407391,13.7755622 C4.40082476,14.6125743 4.68760628,15.6828575 5.52461837,16.1661067 C6.36163046,16.6493558 7.43191367,16.3625743 7.91516283,15.5255622 L12.4151628,7.73133359 C12.898412,6.8943215 12.6116305,5.82403829 11.7746184,5.34078913 C11.7607812,5.33285493 11.7607812,5.33285493 11.7468938,5.32510938 Z"></path>
                        </g>
                    </g>
                </g>
            </g>
        </g>
    </g>
</svg>