<?xml version="1.0" encoding="UTF-8"?>
<svg width="45px" height="34px" viewBox="0 0 45 34" version="1.1" xmlns="http://www.w3.org/2000/svg" xmlns:xlink="http://www.w3.org/1999/xlink">
    <!-- Generator: Sketch 45.2 (43514) - http://www.bohemiancoding.com/sketch -->
    <title>Ativo 1</title>
    <desc>Created with Sketch.</desc>
    <defs>
        <path d="M27.3509637,23.8433375 L17.5381309,23.8433375 C17.0910956,23.8999965 16.7559656,24.2802831 16.7559656,24.7308947 C16.7559656,25.1815063 17.0910956,25.561793 17.5381309,25.618452 L27.3509637,25.618452 C27.6948632,25.6620391 28.0329908,25.5030406 28.2187754,25.210379 C28.4045599,24.9177174 28.4045599,24.5440721 28.2187754,24.2514105 C28.0329908,23.9587488 27.6948632,23.7997504 27.3509637,23.8433375 L27.3509637,23.8433375 Z" id="path-1"></path>
        <path d="M44.5340717,9.27319797 C44.1945592,8.83136591 43.6711533,8.56966298 43.1139801,8.56315218 L39.762564,8.56315218 L38.2004633,4.48748937 C37.1302745,1.78342851 34.5193686,0.00531156397 31.6112384,0 L13.2778562,0 C10.3852929,0.0226724531 7.79564119,1.79779162 6.73123405,4.48748937 L5.16913332,8.52054943 L1.8035163,8.52054943 C1.24478605,8.52054943 0.71866287,8.78361103 0.383424725,9.23059522 C0.0411625292,9.6741987 -0.0695658027,10.2542043 0.0852054943,10.7926959 L0.39762564,11.971372 C0.601112602,12.7669493 1.3091677,13.3299111 2.13013736,13.3488608 L3.32301428,13.3488608 L2.89698681,14.4565322 C2.05335453,16.6395988 1.62471707,18.9609837 1.63310531,21.3013736 L1.63310531,26.6977216 C1.65891595,27.3056253 1.85043177,27.8949048 2.18694102,28.4018314 L2.18694102,31.2420146 C2.18694102,32.6537454 3.331375,33.7981794 4.74310585,33.7981794 L8.52054943,33.7981794 C9.91004817,33.7672941 11.0202538,32.6318565 11.0199106,31.2420146 L11.0199106,30.0491377 L33.869184,30.0491377 L33.869184,31.2420146 C33.8769445,32.6505184 35.016845,33.7904189 36.4253488,33.7981794 L40.1601897,33.7981794 C41.5686935,33.7904189 42.708594,32.6505184 42.7163545,31.2420146 L42.7163545,28.4018314 C43.0682006,27.8608467 43.2556461,27.2294514 43.2559893,26.5841142 L43.2559893,21.3013736 C43.2573336,18.9800747 42.8288156,16.6785957 41.9921078,14.5133359 L41.5660803,13.4056644 L42.7731582,13.4056644 C43.5853613,13.4015835 44.2946325,12.8550958 44.5056699,12.0707784 L44.8322909,10.8921024 C45.0067589,10.3363579 44.8951159,9.73029546 44.5340717,9.27319797 Z M8.39274119,5.12653058 C9.17934155,3.11297367 11.1161282,1.78424797 13.2778562,1.77511447 L31.6112384,1.77511447 C33.774205,1.78027636 35.7130127,3.11038857 36.4963534,5.12653058 L36.4963534,5.12653058 L39.9187741,14.0163038 C28.3067196,15.3369713 16.582375,15.3369713 4.9703205,14.0163038 L5.45315164,12.7808242 L5.45315164,12.7808242 L5.45315164,12.638815 L8.39274119,5.12653058 Z M40.444208,28.1178131 C40.2714801,28.1840176 40.0893323,28.2223645 39.9045732,28.2314205 L4.99872233,28.2314205 C4.81377154,28.2238755 4.63138161,28.1854776 4.45908754,28.1178131 L4.34548021,28.1178131 C4.2072675,28.0493536 4.07840765,27.963447 3.96205549,27.8621966 L3.82004633,27.7201875 C3.56322083,27.4349971 3.41711171,27.0672052 3.40821977,26.6835206 L3.40821977,21.3013736 C3.412383,19.4254081 3.72914172,17.5632508 4.34548021,15.7914183 C10.3553837,16.4941312 16.4008048,16.8497442 22.4516478,16.856487 C28.4977688,16.8497341 34.5384636,16.4941202 40.5436144,15.7914183 C41.1599529,17.5632508 41.4767116,19.4254081 41.4808748,21.3013736 L41.4808748,26.6977216 C41.4785824,27.0827188 41.331575,27.4527719 41.0690483,27.7343884 L40.9270391,27.8763976 C40.810687,27.9776479 40.6818271,28.0635545 40.5436144,28.132014 L40.444208,28.1178131 Z M2.10173553,11.5453445 L1.8035163,10.3382666 L4.48748937,10.3382666 L4.01885915,11.5595454 L2.10173553,11.5453445 Z M9.24479614,31.2420146 C9.24479614,31.6733768 8.89510798,32.023065 8.46374577,32.023065 L4.74310585,32.023065 C4.31174365,32.023065 3.96205549,31.6733768 3.96205549,31.2420146 L3.96205549,29.821923 L4.17506922,29.821923 L4.38808296,29.821923 C4.59103794,29.8438678 4.79576736,29.8438678 4.99872233,29.821923 L9.25899705,29.821923 L9.24479614,31.2420146 Z M40.94124,31.2420146 C40.94124,31.6733768 40.5915519,32.023065 40.1601897,32.023065 L36.4253488,32.023065 C35.9939866,32.023065 35.6442985,31.6733768 35.6442985,31.2420146 L35.6442985,30.0491377 L39.9045732,30.0491377 C40.102835,30.0700709 40.3027498,30.0700709 40.5010116,30.0491377 L40.7140254,30.0491377 L40.94124,30.0491377 L40.94124,31.2420146 Z M42.7731582,11.5737463 L40.8844364,11.5737463 L40.4158061,10.3382666 L43.1139801,10.3382666 L42.7731582,11.5737463 Z" id="path-2"></path>
        <path d="M8.67675951,17.3251172 C7.10816967,17.3251172 5.83657636,18.5967105 5.83657636,20.1653003 C5.83657636,21.7338902 7.10816967,23.0054835 8.67675951,23.0054835 C10.2453493,23.0054835 11.5169427,21.7338902 11.5169427,20.1653003 C11.5169427,18.5967105 10.2453493,17.3251172 8.67675951,17.3251172 Z M8.67675951,21.1025608 C8.26642641,21.1083005 7.8935537,20.8647737 7.73386301,20.4867458 C7.57417232,20.1087179 7.65952849,19.671621 7.94970619,19.3814433 C8.23988389,19.0912656 8.67698078,19.0059095 9.05500867,19.1656002 C9.43303655,19.3252909 9.67656337,19.6981636 9.67082361,20.1084967 C9.66318875,20.6543094 9.22257221,21.0949259 8.67675951,21.1025608 Z" id="path-3"></path>
        <path d="M36.226536,17.3251172 C35.0717658,17.296239 34.0145402,17.9696178 33.5524747,19.0283074 C33.0904092,20.086997 33.3155628,21.3200707 34.12196,22.1471449 C34.9283573,22.974219 36.1553368,23.2305125 37.2253832,22.795393 C38.2954296,22.3602735 38.9953535,21.3204315 38.9957146,20.1653003 C38.9961963,18.6240263 37.7673284,17.363649 36.226536,17.3251172 L36.226536,17.3251172 Z M36.226536,21.1025608 C35.8162029,21.1083005 35.4433302,20.8647737 35.2836395,20.4867458 C35.1239488,20.1087179 35.209305,19.671621 35.4994827,19.3814433 C35.7896604,19.0912656 36.2267573,19.0059095 36.6047852,19.1656002 C36.9828131,19.3252909 37.2263399,19.6981636 37.2206001,20.1084967 C37.2206001,20.6575031 36.7755425,21.1025608 36.226536,21.1025608 L36.226536,21.1025608 Z" id="path-4"></path>
    </defs>
    <g id="Page-1" stroke="none" stroke-width="1" fill="none" fill-rule="evenodd">
        <g id="Selecionados" transform="translate(-199.000000, -62.000000)" fill-rule="nonzero">
            <g id="Veículo" transform="translate(181.000000, 39.000000)">
                <g id="Ativo-1" transform="translate(18.000000, 23.000000)">
                    <g id="Shape">
                        <use fill="#FFFFFF" fill-rule="evenodd" xlink:href="#path-1"></use>
                        <path stroke="#4A90E2" stroke-width="0.6" d="M27.3886851,24.1409565 L27.3509637,24.1433375 L17.5758523,24.1409565 C17.2787185,24.1786164 17.0559656,24.4313839 17.0559656,24.7308947 C17.0559656,25.0304056 17.2787185,25.283173 17.5381309,25.318452 L27.3886851,25.3208329 C27.6172669,25.3498043 27.8420123,25.2441218 27.9654989,25.0495965 C28.0889854,24.8550713 28.0889854,24.6067182 27.9654989,24.4121929 C27.8420123,24.2176677 27.6172669,24.1119852 27.3886851,24.1409565 Z"></path>
                    </g>
                    <g id="Shape">
                        <use fill="#FFFFFF" fill-rule="evenodd" xlink:href="#path-2"></use>
                        <path stroke="#4A90E2" stroke-width="0.5" d="M44.3378881,9.42815602 C44.6476742,9.82035858 44.7434671,10.3403773 44.5937686,10.8172217 L44.2647489,12.0040171 C44.0824725,12.6814178 43.4715192,13.1521523 42.771902,13.1556676 L41.5660803,13.1556644 L41.2020729,13.1556644 L41.7587714,14.6030806 C42.5844955,16.7399175 43.0073158,19.010795 43.0059893,21.3012288 L43.0059893,26.5841142 C43.0056718,27.1809744 42.8322684,27.7650702 42.5067801,28.2655283 L42.4663545,28.4018314 L42.4663545,31.2420146 C42.4593526,32.5121465 41.4303216,33.5411775 40.1588122,33.5481832 L36.4253488,33.5481794 C35.1552169,33.5411775 34.1261859,32.5121465 34.1191802,31.2406372 L34.119184,30.0491377 L34.119184,29.7991377 L10.7699106,29.7991377 L10.7699106,31.2420146 C10.7702203,32.4959878 9.7685958,33.5203765 8.51499389,33.5482412 L4.74310585,33.5481794 C3.46944619,33.5481794 2.43694102,32.5156743 2.43694102,31.2420146 L2.43694102,28.4018314 L2.39522662,28.2635668 C2.08392621,27.7946154 1.90675737,27.2494805 1.88288027,26.6871165 L1.88310531,21.3013736 C1.87482699,18.9912066 2.2977651,16.7006878 3.13018007,14.5466483 L3.55635068,13.4386055 L3.68702175,13.0988608 L2.13013736,13.0988608 C1.42697356,13.0825638 0.815546019,12.5964287 0.639828716,11.909423 L0.326860605,10.7286428 C0.192680016,10.2615966 0.287688052,9.76393545 0.58135868,9.38331113 C0.871449274,8.99656249 1.32347538,8.77054943 1.8035163,8.77054943 L5.34039978,8.77054943 L6.96435824,4.57778395 C7.99062397,1.9844855 10.4890966,0.271866499 13.2798157,0.249992321 L31.6112384,0.25 C34.4165196,0.255124132 36.9354981,1.97063537 37.9680067,4.57948895 L39.529123,8.65262436 L39.5906493,8.81315218 L43.1139801,8.81315218 C43.5916013,8.81875045 44.0430204,9.04446003 44.3358381,9.42552465 L44.3378881,9.42815602 Z M8.1599305,5.03543074 L8.159879,5.03556246 C8.9838047,2.92645929 11.0124947,1.5346836 13.2778562,1.52511447 L31.611835,1.52511518 C33.877715,1.53052267 35.9087706,2.92392126 36.729661,5.03671089 L40.2682265,14.2281714 L39.9470251,14.2647025 C28.3161971,15.5875051 16.5728975,15.5875051 4.94206952,14.2647025 L4.61918358,14.2279798 L4.73747034,13.9253049 L5.20315164,12.7808242 L5.22034094,12.5477152 L8.1599305,5.03543074 Z M40.4707992,28.37415 C40.2921115,28.4358167 40.1044323,28.4718929 39.9045732,28.4814205 L4.98853216,28.4812127 C4.77575259,28.4725324 4.56591921,28.428357 4.45908754,28.3678131 L4.34548021,28.3678131 L4.23451632,28.3418377 C4.07714482,28.2638884 3.93042266,28.1660737 3.78527879,28.0389733 L3.63427273,27.8874841 C3.33743587,27.5578634 3.16856411,27.1327724 3.15821977,26.6835206 L3.15822039,21.3008188 C3.16244526,19.3970775 3.48389395,17.5073488 4.10935803,15.7092823 L4.17526575,15.5198127 L4.37451387,15.5431099 C10.3748728,16.2447068 16.410693,16.5997551 22.4513685,16.6064871 C28.4878728,16.5997449 34.5189594,16.2446967 40.5145585,15.5431125 L40.7138228,15.5197953 L40.7797366,15.7092823 C41.4052006,17.5073488 41.7266493,19.3970775 41.7308748,21.3013736 L41.7308704,26.6992102 C41.7282042,27.1469637 41.557234,27.5773372 41.245825,27.9111651 L41.0911526,28.0649891 C40.9586719,28.1802746 40.8119498,28.2780894 40.6545783,28.3560386 L40.508259,28.3795014 L40.4707992,28.37415 Z M1.90562628,11.7938987 L1.48423484,10.0882666 L4.85119303,10.0882666 L4.19021266,11.8108215 L1.90562628,11.7938987 Z M9.49479529,31.2433491 C9.49407475,31.812169 9.03273427,32.273065 8.46374577,32.273065 L4.74310585,32.273065 C4.17367246,32.273065 3.71205549,31.811448 3.71205549,31.2420146 L3.71205549,29.571923 L4.17506922,29.571923 L4.41495796,29.5733717 C4.60004833,29.5933849 4.78675696,29.5933849 4.99872233,29.571923 L9.51150955,29.571923 L9.49479529,31.2433491 Z M41.19124,31.2420146 C41.19124,31.811448 40.7296231,32.273065 40.1601897,32.273065 L36.4253488,32.273065 C35.8559154,32.273065 35.3942985,31.811448 35.3942985,31.2420146 L35.3942985,29.7991377 L35.6442985,29.7991377 L39.9308232,29.8005196 C40.1116335,29.8196102 40.2939513,29.8196102 40.5010116,29.7991377 L41.19124,29.7991377 L41.19124,31.2420146 Z M42.9635307,11.8237463 L40.7118836,11.8237463 L40.0535982,10.0882666 L43.4422837,10.0882666 L42.9635307,11.8237463 Z"></path>
                    </g>
                    <g id="Shape">
                        <use fill="#FFFFFF" fill-rule="evenodd" xlink:href="#path-3"></use>
                        <path stroke="#4A90E2" stroke-width="0.6" d="M8.67675951,17.6251172 C10.0796639,17.6251172 11.2169427,18.7623959 11.2169427,20.1653003 C11.2169427,21.5682047 10.0796639,22.7054835 8.67675951,22.7054835 C7.27385509,22.7054835 6.13657636,21.5682047 6.13657636,20.1653003 C6.13657636,18.7623959 7.27385509,17.6251172 8.67675951,17.6251172 Z M8.68095551,21.4025314 C8.14853157,21.409979 7.66471401,21.093993 7.45750882,20.6034864 C7.25030363,20.1129798 7.36105674,19.5458287 7.73757415,19.1693113 C8.11409157,18.7927939 8.68124263,18.6820408 9.17174924,18.889246 C9.66225585,19.0964512 9.97824184,19.5802687 9.97079426,20.1126927 C9.96088772,20.8209069 9.38916977,21.3926249 8.68095551,21.4025314 Z"></path>
                    </g>
                    <g id="Shape">
                        <use fill="#FFFFFF" fill-rule="evenodd" xlink:href="#path-4"></use>
                        <path stroke="#4A90E2" stroke-width="0.6" d="M36.219036,17.6250234 C37.5970792,17.6594852 38.6961454,18.7867326 38.6957146,20.1652066 C38.6953917,21.1983247 38.0693986,22.1283314 37.112378,22.5174905 C36.1553574,22.9066496 35.05798,22.6774276 34.3367601,21.9377148 C33.6155401,21.198002 33.4141688,20.0951742 33.8274277,19.1483108 C34.2406867,18.2014474 35.1862407,17.5991955 36.219036,17.6250234 Z M36.226536,21.4025608 L36.230732,21.4025314 C35.6983081,21.409979 35.2144905,21.093993 35.0072853,20.6034864 C34.8000801,20.1129798 34.9108332,19.5458287 35.2873507,19.1693113 C35.6638681,18.7927939 36.2310191,18.6820408 36.7215257,18.889246 C37.2120324,19.0964512 37.5280183,19.5802687 37.5206001,20.1084967 C37.5206001,20.8231885 36.9412279,21.4025608 36.226536,21.4025608 Z"></path>
                    </g>
                </g>
            </g>
        </g>
    </g>
</svg>